G04 #@! TF.GenerationSoftware,KiCad,Pcbnew,8.0.6-8.0.6-0~ubuntu24.04.1*
G04 #@! TF.CreationDate,2024-11-11T15:02:52+01:00*
G04 #@! TF.ProjectId,PicoMother,5069636f-4d6f-4746-9865-722e6b696361,1*
G04 #@! TF.SameCoordinates,Original*
G04 #@! TF.FileFunction,Copper,L2,Bot*
G04 #@! TF.FilePolarity,Positive*
%FSLAX46Y46*%
G04 Gerber Fmt 4.6, Leading zero omitted, Abs format (unit mm)*
G04 Created by KiCad (PCBNEW 8.0.6-8.0.6-0~ubuntu24.04.1) date 2024-11-11 15:02:52*
%MOMM*%
%LPD*%
G01*
G04 APERTURE LIST*
G04 Aperture macros list*
%AMRoundRect*
0 Rectangle with rounded corners*
0 $1 Rounding radius*
0 $2 $3 $4 $5 $6 $7 $8 $9 X,Y pos of 4 corners*
0 Add a 4 corners polygon primitive as box body*
4,1,4,$2,$3,$4,$5,$6,$7,$8,$9,$2,$3,0*
0 Add four circle primitives for the rounded corners*
1,1,$1+$1,$2,$3*
1,1,$1+$1,$4,$5*
1,1,$1+$1,$6,$7*
1,1,$1+$1,$8,$9*
0 Add four rect primitives between the rounded corners*
20,1,$1+$1,$2,$3,$4,$5,0*
20,1,$1+$1,$4,$5,$6,$7,0*
20,1,$1+$1,$6,$7,$8,$9,0*
20,1,$1+$1,$8,$9,$2,$3,0*%
G04 Aperture macros list end*
G04 #@! TA.AperFunction,ComponentPad*
%ADD10RoundRect,0.250000X0.600000X-0.600000X0.600000X0.600000X-0.600000X0.600000X-0.600000X-0.600000X0*%
G04 #@! TD*
G04 #@! TA.AperFunction,ComponentPad*
%ADD11C,1.700000*%
G04 #@! TD*
G04 #@! TA.AperFunction,ComponentPad*
%ADD12R,1.700000X1.700000*%
G04 #@! TD*
G04 #@! TA.AperFunction,ComponentPad*
%ADD13O,1.700000X1.700000*%
G04 #@! TD*
G04 #@! TA.AperFunction,ComponentPad*
%ADD14O,2.100000X1.000000*%
G04 #@! TD*
G04 #@! TA.AperFunction,ComponentPad*
%ADD15O,1.800000X1.000000*%
G04 #@! TD*
G04 #@! TA.AperFunction,ViaPad*
%ADD16C,0.600000*%
G04 #@! TD*
G04 #@! TA.AperFunction,ViaPad*
%ADD17C,0.500000*%
G04 #@! TD*
G04 #@! TA.AperFunction,Conductor*
%ADD18C,0.200000*%
G04 #@! TD*
G04 #@! TA.AperFunction,Conductor*
%ADD19C,0.400000*%
G04 #@! TD*
G04 APERTURE END LIST*
D10*
G04 #@! TO.P,J5,1,Pin_1*
G04 #@! TO.N,GND*
X119989600Y-123240800D03*
D11*
G04 #@! TO.P,J5,2,Pin_2*
G04 #@! TO.N,USBVCC*
X119989600Y-120700800D03*
G04 #@! TO.P,J5,3,Pin_3*
G04 #@! TO.N,MOSI*
X122529600Y-123240800D03*
G04 #@! TO.P,J5,4,Pin_4*
G04 #@! TO.N,INT5*
X122529600Y-120700800D03*
G04 #@! TO.P,J5,5,Pin_5*
G04 #@! TO.N,MISO*
X125069600Y-123240800D03*
G04 #@! TO.P,J5,6,Pin_6*
G04 #@! TO.N,RST5*
X125069600Y-120700800D03*
G04 #@! TO.P,J5,7,Pin_7*
G04 #@! TO.N,SCK*
X127609600Y-123240800D03*
G04 #@! TO.P,J5,8,Pin_8*
G04 #@! TO.N,CS5*
X127609600Y-120700800D03*
G04 #@! TD*
D10*
G04 #@! TO.P,J3,1,Pin_1*
G04 #@! TO.N,GND*
X158200000Y-109575600D03*
D11*
G04 #@! TO.P,J3,2,Pin_2*
G04 #@! TO.N,USBVCC*
X158200000Y-107035600D03*
G04 #@! TO.P,J3,3,Pin_3*
G04 #@! TO.N,MOSI*
X160740000Y-109575600D03*
G04 #@! TO.P,J3,4,Pin_4*
G04 #@! TO.N,INT3*
X160740000Y-107035600D03*
G04 #@! TO.P,J3,5,Pin_5*
G04 #@! TO.N,MISO*
X163280000Y-109575600D03*
G04 #@! TO.P,J3,6,Pin_6*
G04 #@! TO.N,RST3*
X163280000Y-107035600D03*
G04 #@! TO.P,J3,7,Pin_7*
G04 #@! TO.N,SCK*
X165820000Y-109575600D03*
G04 #@! TO.P,J3,8,Pin_8*
G04 #@! TO.N,CS3*
X165820000Y-107035600D03*
G04 #@! TD*
D10*
G04 #@! TO.P,J2,1,Pin_1*
G04 #@! TO.N,GND*
X158200000Y-96901000D03*
D11*
G04 #@! TO.P,J2,2,Pin_2*
G04 #@! TO.N,USBVCC*
X158200000Y-94361000D03*
G04 #@! TO.P,J2,3,Pin_3*
G04 #@! TO.N,MOSI*
X160740000Y-96901000D03*
G04 #@! TO.P,J2,4,Pin_4*
G04 #@! TO.N,INT2*
X160740000Y-94361000D03*
G04 #@! TO.P,J2,5,Pin_5*
G04 #@! TO.N,MISO*
X163280000Y-96901000D03*
G04 #@! TO.P,J2,6,Pin_6*
G04 #@! TO.N,RST2*
X163280000Y-94361000D03*
G04 #@! TO.P,J2,7,Pin_7*
G04 #@! TO.N,SCK*
X165820000Y-96901000D03*
G04 #@! TO.P,J2,8,Pin_8*
G04 #@! TO.N,CS2*
X165820000Y-94361000D03*
G04 #@! TD*
D12*
G04 #@! TO.P,J8,1,Pin_1*
G04 #@! TO.N,MISO2*
X126111000Y-82750000D03*
D13*
G04 #@! TO.P,J8,2,Pin_2*
G04 #@! TO.N,USBVCC*
X126111000Y-80210000D03*
G04 #@! TO.P,J8,3,Pin_3*
G04 #@! TO.N,SCK2*
X128651000Y-82750000D03*
G04 #@! TO.P,J8,4,Pin_4*
G04 #@! TO.N,MOSI2*
X128651000Y-80210000D03*
G04 #@! TO.P,J8,5,Pin_5*
G04 #@! TO.N,RESET2*
X131191000Y-82750000D03*
G04 #@! TO.P,J8,6,Pin_6*
G04 #@! TO.N,GND*
X131191000Y-80210000D03*
G04 #@! TD*
D10*
G04 #@! TO.P,J1,1,Pin_1*
G04 #@! TO.N,GND*
X158200000Y-84683600D03*
D11*
G04 #@! TO.P,J1,2,Pin_2*
G04 #@! TO.N,USBVCC*
X158200000Y-82143600D03*
G04 #@! TO.P,J1,3,Pin_3*
G04 #@! TO.N,MOSI*
X160740000Y-84683600D03*
G04 #@! TO.P,J1,4,Pin_4*
G04 #@! TO.N,INT1*
X160740000Y-82143600D03*
G04 #@! TO.P,J1,5,Pin_5*
G04 #@! TO.N,MISO*
X163280000Y-84683600D03*
G04 #@! TO.P,J1,6,Pin_6*
G04 #@! TO.N,RST1*
X163280000Y-82143600D03*
G04 #@! TO.P,J1,7,Pin_7*
G04 #@! TO.N,SCK*
X165820000Y-84683600D03*
G04 #@! TO.P,J1,8,Pin_8*
G04 #@! TO.N,CS1*
X165820000Y-82143600D03*
G04 #@! TD*
D10*
G04 #@! TO.P,J4,1,Pin_1*
G04 #@! TO.N,GND*
X140385800Y-123317000D03*
D11*
G04 #@! TO.P,J4,2,Pin_2*
G04 #@! TO.N,USBVCC*
X140385800Y-120777000D03*
G04 #@! TO.P,J4,3,Pin_3*
G04 #@! TO.N,MOSI*
X142925800Y-123317000D03*
G04 #@! TO.P,J4,4,Pin_4*
G04 #@! TO.N,INT4*
X142925800Y-120777000D03*
G04 #@! TO.P,J4,5,Pin_5*
G04 #@! TO.N,MISO*
X145465800Y-123317000D03*
G04 #@! TO.P,J4,6,Pin_6*
G04 #@! TO.N,RST4*
X145465800Y-120777000D03*
G04 #@! TO.P,J4,7,Pin_7*
G04 #@! TO.N,SCK*
X148005800Y-123317000D03*
G04 #@! TO.P,J4,8,Pin_8*
G04 #@! TO.N,CS4*
X148005800Y-120777000D03*
G04 #@! TD*
D12*
G04 #@! TO.P,J7,1,Pin_1*
G04 #@! TO.N,MISO*
X139471400Y-82750000D03*
D13*
G04 #@! TO.P,J7,2,Pin_2*
G04 #@! TO.N,USBVCC*
X139471400Y-80210000D03*
G04 #@! TO.P,J7,3,Pin_3*
G04 #@! TO.N,SCK*
X142011400Y-82750000D03*
G04 #@! TO.P,J7,4,Pin_4*
G04 #@! TO.N,MOSI*
X142011400Y-80210000D03*
G04 #@! TO.P,J7,5,Pin_5*
G04 #@! TO.N,RESET*
X144551400Y-82750000D03*
G04 #@! TO.P,J7,6,Pin_6*
G04 #@! TO.N,GND*
X144551400Y-80210000D03*
G04 #@! TD*
D14*
G04 #@! TO.P,J9,S1,SHIELD*
G04 #@! TO.N,GND*
X107180000Y-88250000D03*
D15*
X103000000Y-88250000D03*
D14*
X107180000Y-96890000D03*
D15*
X103000000Y-96890000D03*
G04 #@! TD*
D16*
G04 #@! TO.N,GND*
X133200000Y-124400000D03*
X162560000Y-123190000D03*
X121250000Y-95000000D03*
X106400000Y-110600000D03*
X172720000Y-85090000D03*
X116300000Y-77600000D03*
X134000000Y-127500000D03*
X162560000Y-118110000D03*
X168910000Y-116840000D03*
X158250000Y-112400000D03*
X172720000Y-104140000D03*
X112500000Y-89250000D03*
X168910000Y-77600000D03*
X172720000Y-77600000D03*
X119300000Y-100562500D03*
X109750000Y-77600000D03*
X140100000Y-104500000D03*
X123190000Y-93980000D03*
X168910000Y-85090000D03*
X157500000Y-127500000D03*
X168910000Y-91440000D03*
X116750000Y-101050000D03*
X172720000Y-91440000D03*
X151130000Y-114300000D03*
X140688800Y-89408000D03*
X135200000Y-77600000D03*
X150200000Y-102900000D03*
X116300000Y-84200000D03*
X123190000Y-90170000D03*
X140688800Y-93472000D03*
X102000000Y-83820000D03*
X102000000Y-127250000D03*
X157480000Y-118110000D03*
X158200000Y-86300000D03*
X115570000Y-107950000D03*
X127000000Y-104140000D03*
X102000000Y-102900000D03*
X147500000Y-83250000D03*
X141400000Y-98000000D03*
X131600000Y-90000000D03*
X168910000Y-97790000D03*
X147100000Y-104700000D03*
X146300000Y-77600000D03*
X168910000Y-110490000D03*
X162000000Y-112400000D03*
X127000000Y-99060000D03*
X158100000Y-77600000D03*
X143800000Y-94900000D03*
X142240000Y-106680000D03*
X172720000Y-116840000D03*
X105250000Y-108500000D03*
X121920000Y-109220000D03*
X134000000Y-114700000D03*
X155500000Y-97000000D03*
X150100000Y-93100000D03*
X142240000Y-116840000D03*
X172750000Y-127500000D03*
X172720000Y-97790000D03*
X109750000Y-123000000D03*
X166000000Y-99500000D03*
X102000000Y-98750000D03*
X134800000Y-102000000D03*
X110490000Y-107950000D03*
X109750000Y-119000000D03*
X168910000Y-104140000D03*
X112750000Y-96500000D03*
X109750000Y-127250000D03*
X135250000Y-83000000D03*
X126400000Y-119400000D03*
X172720000Y-110490000D03*
X105410000Y-114300000D03*
X163000000Y-99500000D03*
X130810000Y-113030000D03*
X172720000Y-123190000D03*
X123250000Y-84200000D03*
X169000000Y-127500000D03*
X105410000Y-105410000D03*
X146000000Y-98300000D03*
X118250000Y-122000000D03*
X124500000Y-118250000D03*
X144200000Y-105600000D03*
X122200000Y-102762500D03*
X109750000Y-102900000D03*
X102000000Y-123000000D03*
X102000000Y-119000000D03*
X109750000Y-87250000D03*
X123300000Y-77600000D03*
X168910000Y-123190000D03*
X134000000Y-120200000D03*
X102000000Y-77600000D03*
X162000000Y-83400000D03*
X162500000Y-127500000D03*
X164500000Y-83400000D03*
X115100000Y-114800000D03*
X157480000Y-123250000D03*
X164800000Y-112400000D03*
G04 #@! TO.N,RESET*
X138456652Y-92544358D03*
X136677400Y-104300000D03*
D17*
G04 #@! TO.N,USBVCC*
X107887500Y-85250000D03*
D16*
X132200000Y-103000000D03*
X130632200Y-85690000D03*
X105000000Y-94750000D03*
X106619500Y-99380500D03*
X105000000Y-90250000D03*
G04 #@! TO.N,MISO*
X146262800Y-88595200D03*
X162000000Y-88500000D03*
G04 #@! TO.N,+3V3*
X104400000Y-106600000D03*
X129600000Y-107600000D03*
X124420400Y-107848400D03*
X104400000Y-110400000D03*
G04 #@! TO.N,CS_SD_3v3*
X124420400Y-115468400D03*
X110000000Y-112800000D03*
G04 #@! TO.N,INT1*
X137490200Y-87223600D03*
G04 #@! TO.N,RST1*
X139750800Y-85775800D03*
G04 #@! TO.N,CS2*
X148700000Y-90100000D03*
X138430000Y-90119200D03*
G04 #@! TO.N,RST2*
X138430000Y-90919203D03*
G04 #@! TO.N,INT2*
X138430000Y-91744800D03*
G04 #@! TO.N,CS3*
X152374600Y-101650800D03*
X151245835Y-103504165D03*
X160045400Y-101650800D03*
G04 #@! TO.N,RST3*
X160076147Y-102450211D03*
G04 #@! TO.N,CS4*
X147040600Y-93599000D03*
G04 #@! TO.N,RST4*
X147015200Y-95148400D03*
G04 #@! TO.N,INT4*
X146050000Y-96113600D03*
D17*
G04 #@! TO.N,CS5*
X129125000Y-124625000D03*
D16*
X130750000Y-123000000D03*
X139039600Y-98130900D03*
G04 #@! TO.N,INT5*
X137363200Y-96824800D03*
G04 #@! TO.N,RST5*
X138239671Y-98120030D03*
G04 #@! TO.N,CS1*
X149500000Y-85115400D03*
X138887200Y-85775800D03*
G04 #@! TO.N,CS_SD*
X132918200Y-96113600D03*
X128228800Y-116027200D03*
G04 #@! TO.N,SCK_3v3*
X109067600Y-110744000D03*
X119470400Y-114198400D03*
G04 #@! TO.N,MISO_3v3*
X127242800Y-112188000D03*
X110845600Y-110718600D03*
G04 #@! TD*
D18*
G04 #@! TO.N,GND*
X128100000Y-81500000D02*
X127400000Y-80800000D01*
X131191000Y-80210000D02*
X129901000Y-81500000D01*
X164500000Y-83400000D02*
X166400000Y-83400000D01*
X164500000Y-83400000D02*
X162800000Y-83400000D01*
X129901000Y-81500000D02*
X128100000Y-81500000D01*
X142800514Y-81500000D02*
X138500000Y-81500000D01*
X144551400Y-80210000D02*
X144090514Y-80210000D01*
X127400000Y-79500000D02*
X125500000Y-77600000D01*
X125500000Y-77600000D02*
X123300000Y-77600000D01*
X127400000Y-80800000D02*
X127400000Y-79500000D01*
X162000000Y-83400000D02*
X160200000Y-83400000D01*
X144090514Y-80210000D02*
X142800514Y-81500000D01*
G04 #@! TO.N,RESET*
X136677400Y-104300000D02*
X136677400Y-96522600D01*
X136750000Y-90913329D02*
X138381029Y-92544358D01*
X143406200Y-84000000D02*
X139814471Y-84000000D01*
X144551400Y-82854800D02*
X143406200Y-84000000D01*
X138456652Y-94743348D02*
X138456652Y-92544358D01*
X136677400Y-96522600D02*
X138456652Y-94743348D01*
X136750000Y-87064471D02*
X136750000Y-90913329D01*
X138381029Y-92544358D02*
X138456652Y-92544358D01*
X139814471Y-84000000D02*
X136750000Y-87064471D01*
D19*
G04 #@! TO.N,USBVCC*
X121239600Y-121950800D02*
X119989600Y-120700800D01*
X159755450Y-100950800D02*
X158200000Y-102506250D01*
X158200000Y-102506250D02*
X156950000Y-101256250D01*
D18*
X119989600Y-120700800D02*
X119989600Y-120929400D01*
D19*
X140385800Y-120777000D02*
X139212000Y-121950800D01*
D18*
X127400000Y-83200000D02*
X129890000Y-85690000D01*
D19*
X163537967Y-100950800D02*
X159755450Y-100950800D01*
X131000000Y-103000000D02*
X128400000Y-105600000D01*
D18*
X126111000Y-80210000D02*
X127400000Y-81499000D01*
D19*
X165074116Y-86324116D02*
X167208200Y-88458200D01*
X152500000Y-118050567D02*
X148523567Y-122027000D01*
D18*
X127400000Y-81499000D02*
X127400000Y-83200000D01*
D19*
X167208200Y-97280567D02*
X163537967Y-100950800D01*
X105000000Y-97761000D02*
X105000000Y-94750000D01*
X108250000Y-112948350D02*
X116002450Y-120700800D01*
X158200000Y-102506250D02*
X158200000Y-107035600D01*
X107887500Y-85112500D02*
X107887500Y-85250000D01*
X108250000Y-105600000D02*
X108250000Y-112948350D01*
X105000000Y-90250000D02*
X105000000Y-94750000D01*
X157962600Y-107035600D02*
X152500000Y-112498200D01*
X116002450Y-120700800D02*
X119989600Y-120700800D01*
X156950000Y-101256250D02*
X156950000Y-95611000D01*
X159490000Y-83433600D02*
X159490000Y-85201367D01*
D18*
X119989600Y-120929400D02*
X121005600Y-121945400D01*
D19*
X107750000Y-85250000D02*
X107887500Y-85250000D01*
X106619500Y-99380500D02*
X108250000Y-101011000D01*
X167208200Y-88458200D02*
X167208200Y-97280567D01*
X125970000Y-80250000D02*
X112750000Y-80250000D01*
X158200000Y-82143600D02*
X159490000Y-83433600D01*
X159490000Y-85201367D02*
X160612749Y-86324116D01*
X156950000Y-95611000D02*
X158200000Y-94361000D01*
X108250000Y-101011000D02*
X108250000Y-105600000D01*
X105000000Y-88000000D02*
X107750000Y-85250000D01*
X132200000Y-103000000D02*
X131000000Y-103000000D01*
X105000000Y-90250000D02*
X105000000Y-88000000D01*
X141635800Y-122027000D02*
X140385800Y-120777000D01*
X139212000Y-121950800D02*
X121239600Y-121950800D01*
D18*
X129890000Y-85690000D02*
X130632200Y-85690000D01*
D19*
X152500000Y-112498200D02*
X152500000Y-118050567D01*
X160612749Y-86324116D02*
X165074116Y-86324116D01*
X128400000Y-105600000D02*
X108250000Y-105600000D01*
X112750000Y-80250000D02*
X107887500Y-85112500D01*
X106619500Y-99380500D02*
X105000000Y-97761000D01*
X148523567Y-122027000D02*
X141635800Y-122027000D01*
D18*
G04 #@! TO.N,MISO*
X161904800Y-88595200D02*
X146262800Y-88595200D01*
X162000000Y-88500000D02*
X161904800Y-88595200D01*
G04 #@! TO.N,SCK*
X164900000Y-78600000D02*
X167000000Y-80700000D01*
X167000000Y-83952000D02*
X166268400Y-84683600D01*
X153615200Y-81584800D02*
X156600000Y-78600000D01*
X156600000Y-78600000D02*
X164900000Y-78600000D01*
X142011400Y-82854800D02*
X143281400Y-81584800D01*
X143281400Y-81584800D02*
X153615200Y-81584800D01*
X166268400Y-84683600D02*
X165811200Y-84683600D01*
X167000000Y-80700000D02*
X167000000Y-83952000D01*
G04 #@! TO.N,+3V3*
X104400000Y-106600000D02*
X104400000Y-110400000D01*
X124420400Y-107848400D02*
X129351600Y-107848400D01*
X129351600Y-107848400D02*
X129600000Y-107600000D01*
G04 #@! TO.N,CS_SD_3v3*
X110000000Y-112800000D02*
X112700000Y-115500000D01*
X124388800Y-115500000D02*
X124420400Y-115468400D01*
X112700000Y-115500000D02*
X124388800Y-115500000D01*
G04 #@! TO.N,INT1*
X157632400Y-80594200D02*
X160172400Y-80594200D01*
X138252200Y-86461600D02*
X151765000Y-86461600D01*
X160172400Y-80594200D02*
X160731200Y-81153000D01*
X160731200Y-81153000D02*
X160731200Y-82143600D01*
X137490200Y-87223600D02*
X138252200Y-86461600D01*
X151765000Y-86461600D02*
X157632400Y-80594200D01*
G04 #@! TO.N,RST1*
X157353000Y-79883000D02*
X162083000Y-79883000D01*
X163271200Y-81071200D02*
X163271200Y-82143600D01*
X151460200Y-85775800D02*
X157353000Y-79883000D01*
X162083000Y-79883000D02*
X163271200Y-81071200D01*
X139750800Y-85775800D02*
X151460200Y-85775800D01*
G04 #@! TO.N,CS2*
X148700000Y-90100000D02*
X148719200Y-90119200D01*
X148719200Y-90119200D02*
X163419200Y-90119200D01*
X148700000Y-90100000D02*
X148680800Y-90119200D01*
X163419200Y-90119200D02*
X165684200Y-92384200D01*
X148680800Y-90119200D02*
X138430000Y-90119200D01*
X165684200Y-92384200D02*
X165684200Y-94361000D01*
G04 #@! TO.N,RST2*
X138430000Y-90919203D02*
X138518997Y-90919203D01*
X138518997Y-90919203D02*
X138531794Y-90932000D01*
X161732000Y-90932000D02*
X163144200Y-92344200D01*
X138531794Y-90932000D02*
X161732000Y-90932000D01*
X163144200Y-92344200D02*
X163144200Y-94361000D01*
G04 #@! TO.N,INT2*
X159994600Y-91744800D02*
X160604200Y-92354400D01*
X138430000Y-91744800D02*
X159994600Y-91744800D01*
X160604200Y-92354400D02*
X160604200Y-94361000D01*
G04 #@! TO.N,CS3*
X151245835Y-102779565D02*
X152374600Y-101650800D01*
X163550800Y-101650800D02*
X165582600Y-103682600D01*
X165582600Y-103682600D02*
X165582600Y-107035600D01*
X160045400Y-101650800D02*
X163550800Y-101650800D01*
X151245835Y-103504165D02*
X151245835Y-102779565D01*
G04 #@! TO.N,RST3*
X161762800Y-102412800D02*
X163068000Y-103718000D01*
X163068000Y-103718000D02*
X163068000Y-107010200D01*
X160113558Y-102412800D02*
X161762800Y-102412800D01*
X160076147Y-102450211D02*
X160113558Y-102412800D01*
G04 #@! TO.N,CS4*
X147040600Y-93599000D02*
X149500000Y-96058400D01*
X149500000Y-96058400D02*
X149500000Y-119282800D01*
X149500000Y-119282800D02*
X148005800Y-120777000D01*
G04 #@! TO.N,RST4*
X149000000Y-97133200D02*
X149000000Y-115000000D01*
X147015200Y-95148400D02*
X149000000Y-97133200D01*
X149000000Y-115000000D02*
X145465800Y-118534200D01*
X145465800Y-118534200D02*
X145465800Y-120777000D01*
G04 #@! TO.N,INT4*
X146050000Y-96113600D02*
X148500000Y-98563600D01*
X142925800Y-119574200D02*
X142925800Y-120777000D01*
X148500000Y-98563600D02*
X148500000Y-114000000D01*
X148500000Y-114000000D02*
X142925800Y-119574200D01*
G04 #@! TO.N,CS5*
X127609600Y-119990400D02*
X127609600Y-120700800D01*
X139039600Y-98130900D02*
X139039600Y-116860400D01*
X139039600Y-116860400D02*
X136900000Y-119000000D01*
X128600000Y-119000000D02*
X127609600Y-119990400D01*
X130750000Y-123000000D02*
X129125000Y-124625000D01*
X136900000Y-119000000D02*
X128600000Y-119000000D01*
G04 #@! TO.N,INT5*
X123952000Y-117221000D02*
X122529600Y-118643400D01*
X137464800Y-115824000D02*
X136067800Y-117221000D01*
X137464800Y-96926400D02*
X137464800Y-115824000D01*
X137363200Y-96824800D02*
X137464800Y-96926400D01*
X136067800Y-117221000D02*
X123952000Y-117221000D01*
X122529600Y-118643400D02*
X122529600Y-120700800D01*
G04 #@! TO.N,RST5*
X138239671Y-116260329D02*
X136339200Y-118160800D01*
X126085600Y-118160800D02*
X125069600Y-119176800D01*
X125069600Y-119176800D02*
X125069600Y-120700800D01*
X136339200Y-118160800D02*
X126085600Y-118160800D01*
X138239671Y-98120030D02*
X138239671Y-116260329D01*
G04 #@! TO.N,CS1*
X138887200Y-85775800D02*
X139547600Y-85115400D01*
X149500000Y-85115400D02*
X151130000Y-85115400D01*
X164022600Y-79222600D02*
X165820000Y-81020000D01*
X139547600Y-85115400D02*
X149500000Y-85115400D01*
X157022800Y-79222600D02*
X164022600Y-79222600D01*
X165820000Y-81020000D02*
X165820000Y-82143600D01*
X151130000Y-85115400D02*
X157022800Y-79222600D01*
G04 #@! TO.N,CS_SD*
X128228800Y-116027200D02*
X129972800Y-116027200D01*
X132867400Y-113132600D02*
X132867400Y-96164400D01*
X129972800Y-116027200D02*
X132867400Y-113132600D01*
X132867400Y-96164400D02*
X132918200Y-96113600D01*
G04 #@! TO.N,SCK_3v3*
X109067600Y-110744000D02*
X112522000Y-114198400D01*
X112522000Y-114198400D02*
X119470400Y-114198400D01*
G04 #@! TO.N,MISO_3v3*
X112953800Y-112826800D02*
X126604000Y-112826800D01*
X110845600Y-110718600D02*
X112953800Y-112826800D01*
X126604000Y-112826800D02*
X127242800Y-112188000D01*
G04 #@! TD*
G04 #@! TA.AperFunction,Conductor*
G04 #@! TO.N,GND*
G36*
X125826606Y-117641185D02*
G01*
X125872361Y-117693989D01*
X125882305Y-117763147D01*
X125853280Y-117826703D01*
X125845188Y-117834327D01*
X125845434Y-117834573D01*
X124749122Y-118930884D01*
X124749118Y-118930890D01*
X124696392Y-119022212D01*
X124696393Y-119022213D01*
X124669100Y-119124073D01*
X124669100Y-119537194D01*
X124649415Y-119604233D01*
X124596611Y-119649988D01*
X124589895Y-119652820D01*
X124554587Y-119666498D01*
X124554579Y-119666502D01*
X124373299Y-119778747D01*
X124215727Y-119922393D01*
X124087232Y-120092546D01*
X123992196Y-120283405D01*
X123992196Y-120283407D01*
X123933844Y-120488489D01*
X123923071Y-120604751D01*
X123897285Y-120669688D01*
X123852730Y-120701604D01*
X123889103Y-120722468D01*
X123921293Y-120784481D01*
X123923071Y-120796848D01*
X123933844Y-120913110D01*
X123992196Y-121118192D01*
X123992196Y-121118194D01*
X124068299Y-121271029D01*
X124080560Y-121339814D01*
X124053687Y-121404309D01*
X123996211Y-121444037D01*
X123957299Y-121450300D01*
X123641901Y-121450300D01*
X123574862Y-121430615D01*
X123529107Y-121377811D01*
X123519163Y-121308653D01*
X123530901Y-121271029D01*
X123607003Y-121118194D01*
X123607003Y-121118193D01*
X123607005Y-121118189D01*
X123665356Y-120913110D01*
X123676129Y-120796847D01*
X123701915Y-120731911D01*
X123746469Y-120699994D01*
X123710097Y-120679131D01*
X123677907Y-120617118D01*
X123676129Y-120604751D01*
X123672417Y-120564690D01*
X123665356Y-120488490D01*
X123607005Y-120283411D01*
X123607003Y-120283406D01*
X123607003Y-120283405D01*
X123511967Y-120092546D01*
X123383472Y-119922393D01*
X123364634Y-119905220D01*
X123225902Y-119778748D01*
X123108246Y-119705898D01*
X123044620Y-119666502D01*
X123044612Y-119666498D01*
X123009305Y-119652820D01*
X122953904Y-119610246D01*
X122930314Y-119544479D01*
X122930100Y-119537194D01*
X122930100Y-118860655D01*
X122949785Y-118793616D01*
X122966419Y-118772974D01*
X124081574Y-117657819D01*
X124142897Y-117624334D01*
X124169255Y-117621500D01*
X125759567Y-117621500D01*
X125826606Y-117641185D01*
G37*
G04 #@! TD.AperFunction*
G04 #@! TA.AperFunction,Conductor*
G36*
X128239984Y-118580985D02*
G01*
X128285739Y-118633789D01*
X128295683Y-118702947D01*
X128266658Y-118766503D01*
X128260626Y-118772981D01*
X127505933Y-119527672D01*
X127444610Y-119561157D01*
X127441038Y-119561879D01*
X127293403Y-119589478D01*
X127094582Y-119666501D01*
X127094580Y-119666502D01*
X126913299Y-119778747D01*
X126755727Y-119922393D01*
X126627232Y-120092546D01*
X126532196Y-120283405D01*
X126532196Y-120283407D01*
X126473844Y-120488489D01*
X126463071Y-120604751D01*
X126437285Y-120669688D01*
X126392730Y-120701604D01*
X126429103Y-120722468D01*
X126461293Y-120784481D01*
X126463071Y-120796848D01*
X126473844Y-120913110D01*
X126532196Y-121118192D01*
X126532196Y-121118194D01*
X126608299Y-121271029D01*
X126620560Y-121339814D01*
X126593687Y-121404309D01*
X126536211Y-121444037D01*
X126497299Y-121450300D01*
X126181901Y-121450300D01*
X126114862Y-121430615D01*
X126069107Y-121377811D01*
X126059163Y-121308653D01*
X126070901Y-121271029D01*
X126147003Y-121118194D01*
X126147003Y-121118193D01*
X126147005Y-121118189D01*
X126205356Y-120913110D01*
X126216129Y-120796847D01*
X126241915Y-120731911D01*
X126286469Y-120699994D01*
X126250097Y-120679131D01*
X126217907Y-120617118D01*
X126216129Y-120604751D01*
X126212417Y-120564690D01*
X126205356Y-120488490D01*
X126147005Y-120283411D01*
X126147003Y-120283406D01*
X126147003Y-120283405D01*
X126051967Y-120092546D01*
X125923472Y-119922393D01*
X125904634Y-119905220D01*
X125765902Y-119778748D01*
X125648246Y-119705898D01*
X125584620Y-119666502D01*
X125584612Y-119666498D01*
X125549305Y-119652820D01*
X125493904Y-119610246D01*
X125470314Y-119544479D01*
X125470100Y-119537194D01*
X125470100Y-119394055D01*
X125489785Y-119327016D01*
X125506419Y-119306374D01*
X126215174Y-118597619D01*
X126276497Y-118564134D01*
X126302855Y-118561300D01*
X128172945Y-118561300D01*
X128239984Y-118580985D01*
G37*
G04 #@! TD.AperFunction*
G04 #@! TA.AperFunction,Conductor*
G36*
X159844384Y-92164985D02*
G01*
X159865026Y-92181619D01*
X160167381Y-92483973D01*
X160200866Y-92545296D01*
X160203700Y-92571654D01*
X160203700Y-93270810D01*
X160184015Y-93337849D01*
X160144978Y-93376236D01*
X160043703Y-93438943D01*
X159886127Y-93582593D01*
X159757632Y-93752746D01*
X159662596Y-93943605D01*
X159662596Y-93943607D01*
X159604244Y-94148689D01*
X159593471Y-94264951D01*
X159567685Y-94329888D01*
X159523130Y-94361804D01*
X159559503Y-94382668D01*
X159591693Y-94444681D01*
X159593470Y-94457047D01*
X159604244Y-94573310D01*
X159654517Y-94750000D01*
X159662596Y-94778392D01*
X159662596Y-94778394D01*
X159757632Y-94969253D01*
X159852299Y-95094611D01*
X159886128Y-95139407D01*
X160043698Y-95283052D01*
X160224981Y-95395298D01*
X160423802Y-95472321D01*
X160620613Y-95509111D01*
X160682893Y-95540779D01*
X160718166Y-95601092D01*
X160715232Y-95670900D01*
X160675023Y-95728040D01*
X160620613Y-95752888D01*
X160423802Y-95789679D01*
X160423799Y-95789679D01*
X160423799Y-95789680D01*
X160224982Y-95866701D01*
X160224980Y-95866702D01*
X160043699Y-95978947D01*
X159886127Y-96122593D01*
X159768726Y-96278056D01*
X159712616Y-96319692D01*
X159642904Y-96324383D01*
X159581723Y-96290641D01*
X159548496Y-96229177D01*
X159546414Y-96215930D01*
X159539505Y-96148303D01*
X159484358Y-95981880D01*
X159484356Y-95981875D01*
X159392315Y-95832654D01*
X159268345Y-95708684D01*
X159119124Y-95616643D01*
X159119119Y-95616641D01*
X158952697Y-95561494D01*
X158952690Y-95561493D01*
X158880662Y-95554134D01*
X158815971Y-95527737D01*
X158775820Y-95470556D01*
X158772958Y-95400745D01*
X158808292Y-95340468D01*
X158827982Y-95325353D01*
X158896302Y-95283052D01*
X159053872Y-95139407D01*
X159182366Y-94969255D01*
X159213482Y-94906765D01*
X159277403Y-94778394D01*
X159277403Y-94778393D01*
X159277405Y-94778389D01*
X159335756Y-94573310D01*
X159346529Y-94457047D01*
X159372315Y-94392111D01*
X159416869Y-94360194D01*
X159380497Y-94339331D01*
X159348307Y-94277318D01*
X159346529Y-94264951D01*
X159340944Y-94204682D01*
X159335756Y-94148690D01*
X159277405Y-93943611D01*
X159277403Y-93943606D01*
X159277403Y-93943605D01*
X159182367Y-93752746D01*
X159053872Y-93582593D01*
X158916730Y-93457571D01*
X158896302Y-93438948D01*
X158715019Y-93326702D01*
X158715017Y-93326701D01*
X158570744Y-93270810D01*
X158516198Y-93249679D01*
X158306610Y-93210500D01*
X158093390Y-93210500D01*
X157883802Y-93249679D01*
X157883799Y-93249679D01*
X157883799Y-93249680D01*
X157684982Y-93326701D01*
X157684980Y-93326702D01*
X157503699Y-93438947D01*
X157346127Y-93582593D01*
X157217632Y-93752746D01*
X157122596Y-93943605D01*
X157122596Y-93943607D01*
X157064244Y-94148689D01*
X157044571Y-94360999D01*
X157044571Y-94361000D01*
X157064243Y-94573309D01*
X157092065Y-94671089D01*
X157091479Y-94740957D01*
X157060480Y-94792705D01*
X156642686Y-95210500D01*
X156549502Y-95303683D01*
X156549500Y-95303686D01*
X156483608Y-95417812D01*
X156449500Y-95545108D01*
X156449500Y-101322141D01*
X156483608Y-101449437D01*
X156516554Y-101506500D01*
X156549500Y-101563564D01*
X156549502Y-101563566D01*
X157663181Y-102677245D01*
X157696666Y-102738568D01*
X157699500Y-102764926D01*
X157699500Y-105923244D01*
X157679815Y-105990283D01*
X157640778Y-106028671D01*
X157503699Y-106113547D01*
X157346127Y-106257193D01*
X157217632Y-106427346D01*
X157122596Y-106618205D01*
X157122596Y-106618207D01*
X157064244Y-106823289D01*
X157044571Y-107035599D01*
X157044571Y-107035601D01*
X157057026Y-107170027D01*
X157043610Y-107238597D01*
X157021236Y-107269148D01*
X152192686Y-112097700D01*
X152099502Y-112190883D01*
X152099500Y-112190886D01*
X152033608Y-112305012D01*
X151999500Y-112432308D01*
X151999500Y-117791890D01*
X151979815Y-117858929D01*
X151963181Y-117879571D01*
X149320994Y-120521757D01*
X149259671Y-120555242D01*
X149189979Y-120550258D01*
X149134046Y-120508386D01*
X149114048Y-120468013D01*
X149083205Y-120359611D01*
X149082409Y-120356813D01*
X149082996Y-120286946D01*
X149113994Y-120235198D01*
X149426801Y-119922391D01*
X149820480Y-119528713D01*
X149873207Y-119437388D01*
X149900500Y-119335527D01*
X149900500Y-119230073D01*
X149900500Y-103504163D01*
X150640153Y-103504163D01*
X150640153Y-103504166D01*
X150660790Y-103660925D01*
X150660791Y-103660927D01*
X150721299Y-103807006D01*
X150817553Y-103932447D01*
X150942994Y-104028701D01*
X151089073Y-104089209D01*
X151167454Y-104099528D01*
X151245834Y-104109847D01*
X151245835Y-104109847D01*
X151245836Y-104109847D01*
X151298089Y-104102967D01*
X151402597Y-104089209D01*
X151548676Y-104028701D01*
X151674117Y-103932447D01*
X151770371Y-103807006D01*
X151830879Y-103660927D01*
X151848377Y-103528013D01*
X151851517Y-103504166D01*
X151851517Y-103504163D01*
X151830879Y-103347404D01*
X151830879Y-103347403D01*
X151770371Y-103201324D01*
X151770370Y-103201323D01*
X151770370Y-103201322D01*
X151671959Y-103073070D01*
X151646765Y-103007901D01*
X151646335Y-102997584D01*
X151646335Y-102996819D01*
X151666020Y-102929780D01*
X151682654Y-102909138D01*
X151984821Y-102606971D01*
X152299591Y-102292200D01*
X152360912Y-102258717D01*
X152371085Y-102256944D01*
X152374597Y-102256481D01*
X152374600Y-102256482D01*
X152531362Y-102235844D01*
X152677441Y-102175336D01*
X152802882Y-102079082D01*
X152899136Y-101953641D01*
X152959644Y-101807562D01*
X152980282Y-101650800D01*
X152968797Y-101563566D01*
X152959644Y-101494039D01*
X152959644Y-101494038D01*
X152899136Y-101347959D01*
X152802882Y-101222518D01*
X152677441Y-101126264D01*
X152531362Y-101065756D01*
X152531360Y-101065755D01*
X152374601Y-101045118D01*
X152374599Y-101045118D01*
X152217839Y-101065755D01*
X152217837Y-101065756D01*
X152071760Y-101126263D01*
X151946318Y-101222518D01*
X151850063Y-101347960D01*
X151789556Y-101494037D01*
X151789556Y-101494038D01*
X151768455Y-101654313D01*
X151740188Y-101718209D01*
X151733197Y-101725808D01*
X150925357Y-102533649D01*
X150925355Y-102533652D01*
X150872628Y-102624977D01*
X150858623Y-102677245D01*
X150853287Y-102697160D01*
X150845335Y-102726835D01*
X150845335Y-102997584D01*
X150825650Y-103064623D01*
X150819711Y-103073070D01*
X150721299Y-103201322D01*
X150660791Y-103347402D01*
X150660790Y-103347404D01*
X150640153Y-103504163D01*
X149900500Y-103504163D01*
X149900500Y-96005673D01*
X149887415Y-95956838D01*
X149873207Y-95903812D01*
X149820480Y-95812487D01*
X147682002Y-93674009D01*
X147648517Y-93612686D01*
X147646744Y-93602513D01*
X147646281Y-93598998D01*
X147625644Y-93442238D01*
X147565136Y-93296159D01*
X147468882Y-93170718D01*
X147343441Y-93074464D01*
X147286644Y-93050938D01*
X147197362Y-93013956D01*
X147197360Y-93013955D01*
X147040601Y-92993318D01*
X147040599Y-92993318D01*
X146883839Y-93013955D01*
X146883837Y-93013956D01*
X146737760Y-93074463D01*
X146612318Y-93170718D01*
X146516063Y-93296160D01*
X146455556Y-93442237D01*
X146455555Y-93442239D01*
X146434918Y-93598998D01*
X146434918Y-93599001D01*
X146455555Y-93755760D01*
X146455556Y-93755762D01*
X146516064Y-93901841D01*
X146612318Y-94027282D01*
X146737759Y-94123536D01*
X146883838Y-94184044D01*
X147040600Y-94204682D01*
X147040601Y-94204681D01*
X147044113Y-94205144D01*
X147108010Y-94233410D01*
X147115609Y-94240402D01*
X147220683Y-94345476D01*
X147254168Y-94406799D01*
X147249184Y-94476491D01*
X147207312Y-94532424D01*
X147141848Y-94556841D01*
X147116817Y-94556096D01*
X147015201Y-94542718D01*
X147015199Y-94542718D01*
X146858439Y-94563355D01*
X146858437Y-94563356D01*
X146712360Y-94623863D01*
X146586918Y-94720118D01*
X146490663Y-94845560D01*
X146430156Y-94991637D01*
X146430155Y-94991639D01*
X146409518Y-95148398D01*
X146409518Y-95148401D01*
X146430155Y-95305160D01*
X146430157Y-95305165D01*
X146473558Y-95409945D01*
X146481027Y-95479414D01*
X146449752Y-95541893D01*
X146389663Y-95577545D01*
X146319837Y-95575051D01*
X146311545Y-95571958D01*
X146206765Y-95528557D01*
X146206760Y-95528555D01*
X146050001Y-95507918D01*
X146049999Y-95507918D01*
X145893239Y-95528555D01*
X145893237Y-95528556D01*
X145747160Y-95589063D01*
X145621718Y-95685318D01*
X145525463Y-95810760D01*
X145464956Y-95956837D01*
X145464955Y-95956839D01*
X145444318Y-96113598D01*
X145444318Y-96113601D01*
X145464955Y-96270360D01*
X145464956Y-96270362D01*
X145517211Y-96396518D01*
X145525464Y-96416441D01*
X145621718Y-96541882D01*
X145747159Y-96638136D01*
X145893238Y-96698644D01*
X146050000Y-96719282D01*
X146050001Y-96719281D01*
X146053513Y-96719744D01*
X146117410Y-96748010D01*
X146125009Y-96755002D01*
X148063181Y-98693174D01*
X148096666Y-98754497D01*
X148099500Y-98780855D01*
X148099500Y-113782745D01*
X148079815Y-113849784D01*
X148063181Y-113870426D01*
X142605322Y-119328284D01*
X142605320Y-119328287D01*
X142552592Y-119419612D01*
X142547829Y-119437386D01*
X142547830Y-119437387D01*
X142525300Y-119521471D01*
X142525300Y-119613394D01*
X142505615Y-119680433D01*
X142452811Y-119726188D01*
X142446095Y-119729020D01*
X142410787Y-119742698D01*
X142410779Y-119742702D01*
X142229499Y-119854947D01*
X142071927Y-119998593D01*
X141943432Y-120168746D01*
X141848396Y-120359605D01*
X141848396Y-120359607D01*
X141790044Y-120564689D01*
X141779271Y-120680951D01*
X141753485Y-120745888D01*
X141708930Y-120777804D01*
X141745303Y-120798668D01*
X141777493Y-120860681D01*
X141779270Y-120873047D01*
X141790044Y-120989310D01*
X141840656Y-121167191D01*
X141848397Y-121194395D01*
X141849416Y-121197026D01*
X141849529Y-121198374D01*
X141849964Y-121199902D01*
X141849665Y-121199987D01*
X141855273Y-121266649D01*
X141822558Y-121328387D01*
X141761659Y-121362637D01*
X141691910Y-121358525D01*
X141646105Y-121329491D01*
X141525319Y-121208705D01*
X141491834Y-121147382D01*
X141493733Y-121087091D01*
X141521556Y-120989310D01*
X141532329Y-120873047D01*
X141558115Y-120808111D01*
X141602669Y-120776194D01*
X141566297Y-120755331D01*
X141534107Y-120693318D01*
X141532329Y-120680951D01*
X141525268Y-120604751D01*
X141521556Y-120564690D01*
X141463205Y-120359611D01*
X141463203Y-120359606D01*
X141463203Y-120359605D01*
X141368167Y-120168746D01*
X141239672Y-119998593D01*
X141156085Y-119922393D01*
X141082102Y-119854948D01*
X140900819Y-119742702D01*
X140900817Y-119742701D01*
X140755604Y-119686446D01*
X140701998Y-119665679D01*
X140492410Y-119626500D01*
X140279190Y-119626500D01*
X140069602Y-119665679D01*
X140069599Y-119665679D01*
X140069599Y-119665680D01*
X139870782Y-119742701D01*
X139870780Y-119742702D01*
X139689499Y-119854947D01*
X139531927Y-119998593D01*
X139403432Y-120168746D01*
X139308396Y-120359605D01*
X139308396Y-120359607D01*
X139250044Y-120564689D01*
X139230371Y-120776999D01*
X139230371Y-120777000D01*
X139250043Y-120989309D01*
X139271278Y-121063941D01*
X139277864Y-121087088D01*
X139277865Y-121087089D01*
X139277279Y-121156957D01*
X139246280Y-121208705D01*
X139041005Y-121413981D01*
X138979682Y-121447466D01*
X138953324Y-121450300D01*
X128721901Y-121450300D01*
X128654862Y-121430615D01*
X128609107Y-121377811D01*
X128599163Y-121308653D01*
X128610901Y-121271029D01*
X128687003Y-121118194D01*
X128687003Y-121118193D01*
X128687005Y-121118189D01*
X128745356Y-120913110D01*
X128765029Y-120700800D01*
X128745356Y-120488490D01*
X128687005Y-120283411D01*
X128687003Y-120283406D01*
X128687003Y-120283405D01*
X128591967Y-120092546D01*
X128463470Y-119922391D01*
X128444634Y-119905220D01*
X128408352Y-119845509D01*
X128410111Y-119775662D01*
X128440486Y-119725905D01*
X128729576Y-119436816D01*
X128790897Y-119403334D01*
X128817255Y-119400500D01*
X136952725Y-119400500D01*
X136952727Y-119400500D01*
X137054588Y-119373207D01*
X137145913Y-119320480D01*
X139360080Y-117106313D01*
X139412806Y-117014988D01*
X139412807Y-117014987D01*
X139440100Y-116913127D01*
X139440100Y-98637480D01*
X139459785Y-98570441D01*
X139465724Y-98561993D01*
X139467879Y-98559183D01*
X139467882Y-98559182D01*
X139564136Y-98433741D01*
X139624644Y-98287662D01*
X139645282Y-98130900D01*
X139643032Y-98113812D01*
X139631523Y-98026392D01*
X139624644Y-97974138D01*
X139564136Y-97828059D01*
X139467882Y-97702618D01*
X139342441Y-97606364D01*
X139316191Y-97595491D01*
X139196362Y-97545856D01*
X139196360Y-97545855D01*
X139039601Y-97525218D01*
X139039599Y-97525218D01*
X138882839Y-97545855D01*
X138882837Y-97545856D01*
X138736756Y-97606365D01*
X138736755Y-97606365D01*
X138722201Y-97617533D01*
X138657031Y-97642725D01*
X138588587Y-97628685D01*
X138571233Y-97617532D01*
X138542511Y-97595493D01*
X138542507Y-97595491D01*
X138396436Y-97534987D01*
X138396431Y-97534985D01*
X138239672Y-97514348D01*
X138239670Y-97514348D01*
X138082910Y-97534985D01*
X138082909Y-97534986D01*
X138036751Y-97554105D01*
X137967282Y-97561573D01*
X137904803Y-97530297D01*
X137869151Y-97470208D01*
X137865300Y-97439543D01*
X137865300Y-97198972D01*
X137884106Y-97134925D01*
X137883674Y-97134676D01*
X137884702Y-97132894D01*
X137884985Y-97131933D01*
X137886510Y-97129763D01*
X137887732Y-97127645D01*
X137887736Y-97127641D01*
X137948244Y-96981562D01*
X137968882Y-96824800D01*
X137958772Y-96748010D01*
X137948244Y-96668039D01*
X137948244Y-96668038D01*
X137887736Y-96521959D01*
X137791482Y-96396518D01*
X137666041Y-96300264D01*
X137666040Y-96300263D01*
X137665100Y-96299542D01*
X137623898Y-96243114D01*
X137619743Y-96173368D01*
X137652904Y-96113487D01*
X138777132Y-94989261D01*
X138788682Y-94969255D01*
X138803733Y-94943187D01*
X138803733Y-94943186D01*
X138824761Y-94906765D01*
X138829859Y-94897935D01*
X138857152Y-94796075D01*
X138857152Y-93050938D01*
X138876837Y-92983899D01*
X138882776Y-92975451D01*
X138884931Y-92972641D01*
X138884934Y-92972640D01*
X138981188Y-92847199D01*
X139041696Y-92701120D01*
X139062334Y-92544358D01*
X139058307Y-92513773D01*
X139041696Y-92387597D01*
X139041694Y-92387592D01*
X139012352Y-92316752D01*
X139004883Y-92247283D01*
X139036159Y-92184804D01*
X139096248Y-92149152D01*
X139126913Y-92145300D01*
X159777345Y-92145300D01*
X159844384Y-92164985D01*
G37*
G04 #@! TD.AperFunction*
G04 #@! TA.AperFunction,Conductor*
G36*
X131890782Y-103520185D02*
G01*
X131896099Y-103523924D01*
X131897157Y-103524534D01*
X131897159Y-103524536D01*
X131897160Y-103524536D01*
X131897163Y-103524538D01*
X131933099Y-103539423D01*
X132043238Y-103585044D01*
X132121619Y-103595363D01*
X132199999Y-103605682D01*
X132200000Y-103605682D01*
X132326717Y-103588999D01*
X132395749Y-103599764D01*
X132448005Y-103646144D01*
X132466900Y-103711938D01*
X132466900Y-112915345D01*
X132447215Y-112982384D01*
X132430581Y-113003026D01*
X129843226Y-115590381D01*
X129781903Y-115623866D01*
X129755545Y-115626700D01*
X128735380Y-115626700D01*
X128668341Y-115607015D01*
X128659893Y-115601076D01*
X128657083Y-115598920D01*
X128657082Y-115598918D01*
X128531641Y-115502664D01*
X128385562Y-115442156D01*
X128385560Y-115442155D01*
X128228801Y-115421518D01*
X128228799Y-115421518D01*
X128072039Y-115442155D01*
X128072037Y-115442156D01*
X127925960Y-115502663D01*
X127800518Y-115598918D01*
X127704263Y-115724360D01*
X127643756Y-115870437D01*
X127643755Y-115870439D01*
X127623118Y-116027198D01*
X127623118Y-116027201D01*
X127643755Y-116183960D01*
X127643756Y-116183962D01*
X127704264Y-116330041D01*
X127800518Y-116455482D01*
X127925959Y-116551736D01*
X127998876Y-116581939D01*
X128053279Y-116625780D01*
X128075344Y-116692074D01*
X128058065Y-116759773D01*
X128006928Y-116807384D01*
X127951423Y-116820500D01*
X123899273Y-116820500D01*
X123797413Y-116847793D01*
X123797410Y-116847794D01*
X123706085Y-116900521D01*
X122209122Y-118397484D01*
X122209118Y-118397490D01*
X122156392Y-118488812D01*
X122156393Y-118488813D01*
X122129100Y-118590673D01*
X122129100Y-119537194D01*
X122109415Y-119604233D01*
X122056611Y-119649988D01*
X122049895Y-119652820D01*
X122014587Y-119666498D01*
X122014579Y-119666502D01*
X121833299Y-119778747D01*
X121675727Y-119922393D01*
X121547232Y-120092546D01*
X121452196Y-120283405D01*
X121452196Y-120283407D01*
X121393844Y-120488489D01*
X121383071Y-120604751D01*
X121357285Y-120669688D01*
X121312730Y-120701604D01*
X121349103Y-120722468D01*
X121381293Y-120784481D01*
X121383070Y-120796847D01*
X121393844Y-120913110D01*
X121447389Y-121101299D01*
X121452197Y-121118195D01*
X121453216Y-121120826D01*
X121453329Y-121122174D01*
X121453764Y-121123702D01*
X121453465Y-121123787D01*
X121459073Y-121190449D01*
X121426358Y-121252187D01*
X121365459Y-121286437D01*
X121295710Y-121282325D01*
X121249905Y-121253291D01*
X121129119Y-121132505D01*
X121095634Y-121071182D01*
X121097533Y-121010891D01*
X121125356Y-120913110D01*
X121136129Y-120796847D01*
X121161915Y-120731911D01*
X121206469Y-120699994D01*
X121170097Y-120679131D01*
X121137907Y-120617118D01*
X121136129Y-120604751D01*
X121132417Y-120564690D01*
X121125356Y-120488490D01*
X121067005Y-120283411D01*
X121067003Y-120283406D01*
X121067003Y-120283405D01*
X120971967Y-120092546D01*
X120843472Y-119922393D01*
X120824634Y-119905220D01*
X120685902Y-119778748D01*
X120504619Y-119666502D01*
X120504617Y-119666501D01*
X120359404Y-119610246D01*
X120305798Y-119589479D01*
X120096210Y-119550300D01*
X119882990Y-119550300D01*
X119673402Y-119589479D01*
X119673399Y-119589479D01*
X119673399Y-119589480D01*
X119474582Y-119666501D01*
X119474580Y-119666502D01*
X119293299Y-119778747D01*
X119135727Y-119922393D01*
X119007232Y-120092546D01*
X118987801Y-120131571D01*
X118940298Y-120182809D01*
X118876801Y-120200300D01*
X116261126Y-120200300D01*
X116194087Y-120180615D01*
X116173445Y-120163981D01*
X109474101Y-113464637D01*
X109440616Y-113403314D01*
X109444037Y-113355472D01*
X109415669Y-113361998D01*
X109349919Y-113338361D01*
X109335362Y-113325898D01*
X108786819Y-112777355D01*
X108753334Y-112716032D01*
X108750500Y-112689674D01*
X108750500Y-111447681D01*
X108770185Y-111380642D01*
X108822989Y-111334887D01*
X108892147Y-111324943D01*
X108906595Y-111327907D01*
X108910832Y-111329041D01*
X108910838Y-111329044D01*
X109067600Y-111349682D01*
X109067601Y-111349681D01*
X109071113Y-111350144D01*
X109135010Y-111378410D01*
X109142609Y-111385402D01*
X109803177Y-112045970D01*
X109836662Y-112107293D01*
X109831678Y-112176985D01*
X109789806Y-112232918D01*
X109762950Y-112248212D01*
X109697159Y-112275464D01*
X109571718Y-112371718D01*
X109475463Y-112497160D01*
X109414956Y-112643237D01*
X109414955Y-112643239D01*
X109394318Y-112799998D01*
X109394318Y-112800001D01*
X109414955Y-112956760D01*
X109414956Y-112956762D01*
X109475464Y-113102842D01*
X109521419Y-113162731D01*
X109546613Y-113227900D01*
X109540454Y-113257927D01*
X109552936Y-113253272D01*
X109621209Y-113268124D01*
X109637261Y-113278574D01*
X109697159Y-113324536D01*
X109843238Y-113385044D01*
X110000000Y-113405682D01*
X110000001Y-113405681D01*
X110003513Y-113406144D01*
X110067410Y-113434410D01*
X110075009Y-113441402D01*
X112375179Y-115741571D01*
X112375189Y-115741582D01*
X112379519Y-115745912D01*
X112379520Y-115745913D01*
X112454087Y-115820480D01*
X112522242Y-115859829D01*
X112522243Y-115859830D01*
X112529965Y-115864288D01*
X112545413Y-115873207D01*
X112647273Y-115900501D01*
X112647275Y-115900501D01*
X112760323Y-115900501D01*
X112760339Y-115900500D01*
X123955002Y-115900500D01*
X124022041Y-115920185D01*
X124030486Y-115926122D01*
X124117559Y-115992936D01*
X124117561Y-115992936D01*
X124117563Y-115992938D01*
X124169416Y-116014416D01*
X124263638Y-116053444D01*
X124342019Y-116063763D01*
X124420399Y-116074082D01*
X124420400Y-116074082D01*
X124420401Y-116074082D01*
X124472654Y-116067202D01*
X124577162Y-116053444D01*
X124723241Y-115992936D01*
X124848682Y-115896682D01*
X124944936Y-115771241D01*
X125005444Y-115625162D01*
X125026082Y-115468400D01*
X125025883Y-115466892D01*
X125005444Y-115311639D01*
X125005444Y-115311638D01*
X124944936Y-115165559D01*
X124848682Y-115040118D01*
X124723241Y-114943864D01*
X124577162Y-114883356D01*
X124577160Y-114883355D01*
X124420401Y-114862718D01*
X124420399Y-114862718D01*
X124263639Y-114883355D01*
X124263637Y-114883356D01*
X124117560Y-114943863D01*
X123992116Y-115040119D01*
X123983779Y-115050986D01*
X123927351Y-115092189D01*
X123885403Y-115099500D01*
X112917254Y-115099500D01*
X112850215Y-115079815D01*
X112829573Y-115063181D01*
X112576973Y-114810581D01*
X112543488Y-114749258D01*
X112548472Y-114679566D01*
X112590344Y-114623633D01*
X112655808Y-114599216D01*
X112664654Y-114598900D01*
X118963820Y-114598900D01*
X119030859Y-114618585D01*
X119039307Y-114624524D01*
X119042116Y-114626679D01*
X119042118Y-114626682D01*
X119167559Y-114722936D01*
X119313638Y-114783444D01*
X119392019Y-114793763D01*
X119470399Y-114804082D01*
X119470400Y-114804082D01*
X119470401Y-114804082D01*
X119522654Y-114797202D01*
X119627162Y-114783444D01*
X119773241Y-114722936D01*
X119898682Y-114626682D01*
X119994936Y-114501241D01*
X120055444Y-114355162D01*
X120076082Y-114198400D01*
X120055444Y-114041638D01*
X119994936Y-113895559D01*
X119898682Y-113770118D01*
X119773241Y-113673864D01*
X119627162Y-113613356D01*
X119627160Y-113613355D01*
X119470401Y-113592718D01*
X119470399Y-113592718D01*
X119313639Y-113613355D01*
X119313637Y-113613356D01*
X119167560Y-113673863D01*
X119167559Y-113673864D01*
X119042118Y-113770118D01*
X119042116Y-113770120D01*
X119039307Y-113772276D01*
X118974137Y-113797470D01*
X118963820Y-113797900D01*
X112739255Y-113797900D01*
X112672216Y-113778215D01*
X112651574Y-113761581D01*
X109709002Y-110819009D01*
X109675517Y-110757686D01*
X109673744Y-110747513D01*
X109671739Y-110732286D01*
X109669937Y-110718598D01*
X110239918Y-110718598D01*
X110239918Y-110718601D01*
X110260555Y-110875360D01*
X110260556Y-110875362D01*
X110277018Y-110915106D01*
X110321064Y-111021441D01*
X110417318Y-111146882D01*
X110542759Y-111243136D01*
X110688838Y-111303644D01*
X110845600Y-111324282D01*
X110845601Y-111324281D01*
X110849113Y-111324744D01*
X110913010Y-111353010D01*
X110920609Y-111360002D01*
X112707887Y-113147280D01*
X112799212Y-113200007D01*
X112901073Y-113227300D01*
X112901075Y-113227300D01*
X126656725Y-113227300D01*
X126656727Y-113227300D01*
X126758588Y-113200007D01*
X126849913Y-113147280D01*
X127167792Y-112829399D01*
X127229112Y-112795917D01*
X127239285Y-112794144D01*
X127242797Y-112793681D01*
X127242800Y-112793682D01*
X127399562Y-112773044D01*
X127545641Y-112712536D01*
X127671082Y-112616282D01*
X127767336Y-112490841D01*
X127827844Y-112344762D01*
X127848102Y-112190886D01*
X127848482Y-112188001D01*
X127848482Y-112187998D01*
X127827844Y-112031239D01*
X127827844Y-112031238D01*
X127767336Y-111885159D01*
X127671082Y-111759718D01*
X127545641Y-111663464D01*
X127399562Y-111602956D01*
X127399560Y-111602955D01*
X127242801Y-111582318D01*
X127242799Y-111582318D01*
X127086039Y-111602955D01*
X127086037Y-111602956D01*
X126939960Y-111663463D01*
X126814518Y-111759718D01*
X126718263Y-111885160D01*
X126657756Y-112031237D01*
X126657756Y-112031238D01*
X126636655Y-112191513D01*
X126608388Y-112255409D01*
X126601398Y-112263008D01*
X126474424Y-112389982D01*
X126413104Y-112423466D01*
X126386745Y-112426300D01*
X113171055Y-112426300D01*
X113104016Y-112406615D01*
X113083374Y-112389981D01*
X111487002Y-110793609D01*
X111453517Y-110732286D01*
X111451744Y-110722113D01*
X111451281Y-110718598D01*
X111430644Y-110561838D01*
X111370136Y-110415759D01*
X111273882Y-110290318D01*
X111148441Y-110194064D01*
X111123794Y-110183855D01*
X111002362Y-110133556D01*
X111002360Y-110133555D01*
X110845601Y-110112918D01*
X110845599Y-110112918D01*
X110688839Y-110133555D01*
X110688837Y-110133556D01*
X110542760Y-110194063D01*
X110417318Y-110290318D01*
X110321063Y-110415760D01*
X110260556Y-110561837D01*
X110260555Y-110561839D01*
X110239918Y-110718598D01*
X109669937Y-110718598D01*
X109652644Y-110587238D01*
X109592136Y-110441159D01*
X109495882Y-110315718D01*
X109370441Y-110219464D01*
X109313738Y-110195977D01*
X109224362Y-110158956D01*
X109224360Y-110158955D01*
X109067601Y-110138318D01*
X109067599Y-110138318D01*
X108910836Y-110158956D01*
X108906586Y-110160095D01*
X108902862Y-110160006D01*
X108902780Y-110160017D01*
X108902778Y-110160004D01*
X108836736Y-110158428D01*
X108778876Y-110119261D01*
X108751376Y-110055031D01*
X108750500Y-110040318D01*
X108750500Y-107848398D01*
X123814718Y-107848398D01*
X123814718Y-107848401D01*
X123835355Y-108005160D01*
X123835356Y-108005162D01*
X123894074Y-108146921D01*
X123895864Y-108151241D01*
X123992118Y-108276682D01*
X124117559Y-108372936D01*
X124263638Y-108433444D01*
X124342019Y-108443763D01*
X124420399Y-108454082D01*
X124420400Y-108454082D01*
X124420401Y-108454082D01*
X124472654Y-108447202D01*
X124577162Y-108433444D01*
X124723241Y-108372936D01*
X124848682Y-108276682D01*
X124848683Y-108276679D01*
X124851493Y-108274524D01*
X124916663Y-108249330D01*
X124926980Y-108248900D01*
X129404325Y-108248900D01*
X129404327Y-108248900D01*
X129506188Y-108221607D01*
X129509610Y-108219630D01*
X129512866Y-108218840D01*
X129513699Y-108218496D01*
X129513752Y-108218625D01*
X129577510Y-108203155D01*
X129587803Y-108204076D01*
X129600000Y-108205682D01*
X129600001Y-108205682D01*
X129653938Y-108198581D01*
X129756762Y-108185044D01*
X129902841Y-108124536D01*
X130028282Y-108028282D01*
X130124536Y-107902841D01*
X130185044Y-107756762D01*
X130205682Y-107600000D01*
X130185044Y-107443238D01*
X130124536Y-107297159D01*
X130028282Y-107171718D01*
X129902841Y-107075464D01*
X129881709Y-107066711D01*
X129756762Y-107014956D01*
X129756760Y-107014955D01*
X129600001Y-106994318D01*
X129599999Y-106994318D01*
X129443239Y-107014955D01*
X129443237Y-107014956D01*
X129297160Y-107075463D01*
X129171718Y-107171718D01*
X129075463Y-107297160D01*
X129044732Y-107371353D01*
X129000891Y-107425756D01*
X128934597Y-107447821D01*
X128930171Y-107447900D01*
X124926980Y-107447900D01*
X124859941Y-107428215D01*
X124851493Y-107422276D01*
X124848683Y-107420120D01*
X124848682Y-107420118D01*
X124723241Y-107323864D01*
X124577162Y-107263356D01*
X124577160Y-107263355D01*
X124420401Y-107242718D01*
X124420399Y-107242718D01*
X124263639Y-107263355D01*
X124263637Y-107263356D01*
X124117560Y-107323863D01*
X123992118Y-107420118D01*
X123895863Y-107545560D01*
X123835356Y-107691637D01*
X123835355Y-107691639D01*
X123814718Y-107848398D01*
X108750500Y-107848398D01*
X108750500Y-106224500D01*
X108770185Y-106157461D01*
X108822989Y-106111706D01*
X108874500Y-106100500D01*
X128465890Y-106100500D01*
X128465892Y-106100500D01*
X128593186Y-106066392D01*
X128707314Y-106000500D01*
X131170994Y-103536818D01*
X131232317Y-103503334D01*
X131258675Y-103500500D01*
X131823743Y-103500500D01*
X131890782Y-103520185D01*
G37*
G04 #@! TD.AperFunction*
G04 #@! TA.AperFunction,Conductor*
G36*
X163268984Y-90539385D02*
G01*
X163289626Y-90556019D01*
X165247381Y-92513773D01*
X165280866Y-92575096D01*
X165283700Y-92601454D01*
X165283700Y-93270810D01*
X165264015Y-93337849D01*
X165224978Y-93376236D01*
X165123703Y-93438943D01*
X164966127Y-93582593D01*
X164837632Y-93752746D01*
X164742596Y-93943605D01*
X164742596Y-93943607D01*
X164684244Y-94148689D01*
X164673471Y-94264951D01*
X164647685Y-94329888D01*
X164603130Y-94361804D01*
X164639503Y-94382668D01*
X164671693Y-94444681D01*
X164673470Y-94457047D01*
X164684244Y-94573310D01*
X164734517Y-94750000D01*
X164742596Y-94778392D01*
X164742596Y-94778394D01*
X164837632Y-94969253D01*
X164932299Y-95094611D01*
X164966128Y-95139407D01*
X165123698Y-95283052D01*
X165304981Y-95395298D01*
X165503802Y-95472321D01*
X165700613Y-95509111D01*
X165762893Y-95540779D01*
X165798166Y-95601092D01*
X165795232Y-95670900D01*
X165755023Y-95728040D01*
X165700613Y-95752888D01*
X165503802Y-95789679D01*
X165503799Y-95789679D01*
X165503799Y-95789680D01*
X165304982Y-95866701D01*
X165304980Y-95866702D01*
X165123699Y-95978947D01*
X164966127Y-96122593D01*
X164837632Y-96292746D01*
X164742596Y-96483605D01*
X164742596Y-96483607D01*
X164684244Y-96688689D01*
X164673471Y-96804951D01*
X164647685Y-96869888D01*
X164603130Y-96901804D01*
X164639503Y-96922668D01*
X164671693Y-96984681D01*
X164673470Y-96997047D01*
X164684244Y-97113310D01*
X164737675Y-97301099D01*
X164742596Y-97318392D01*
X164742596Y-97318394D01*
X164837632Y-97509253D01*
X164963143Y-97675454D01*
X164966128Y-97679407D01*
X165123698Y-97823052D01*
X165304981Y-97935298D01*
X165503802Y-98012321D01*
X165503809Y-98012322D01*
X165507009Y-98013233D01*
X165508366Y-98014089D01*
X165509148Y-98014392D01*
X165509088Y-98014544D01*
X165566107Y-98050506D01*
X165595671Y-98113812D01*
X165586317Y-98183053D01*
X165560769Y-98220184D01*
X163366972Y-100413981D01*
X163305649Y-100447466D01*
X163279291Y-100450300D01*
X159689557Y-100450300D01*
X159562262Y-100484408D01*
X159448136Y-100550300D01*
X159448133Y-100550302D01*
X158287681Y-101710755D01*
X158226358Y-101744240D01*
X158156666Y-101739256D01*
X158112319Y-101710755D01*
X157486819Y-101085255D01*
X157453334Y-101023932D01*
X157450500Y-100997574D01*
X157450500Y-98374999D01*
X157470185Y-98307960D01*
X157522989Y-98262205D01*
X157574500Y-98250999D01*
X157949999Y-98250999D01*
X157950000Y-98250998D01*
X157950000Y-97334012D01*
X158007007Y-97366925D01*
X158134174Y-97401000D01*
X158265826Y-97401000D01*
X158392993Y-97366925D01*
X158450000Y-97334012D01*
X158450000Y-98250999D01*
X158849972Y-98250999D01*
X158849986Y-98250998D01*
X158952697Y-98240505D01*
X159119119Y-98185358D01*
X159119124Y-98185356D01*
X159268345Y-98093315D01*
X159392315Y-97969345D01*
X159484356Y-97820124D01*
X159484358Y-97820119D01*
X159539505Y-97653697D01*
X159539506Y-97653689D01*
X159546415Y-97586069D01*
X159572811Y-97521377D01*
X159629992Y-97481225D01*
X159699803Y-97478362D01*
X159760080Y-97513696D01*
X159768724Y-97523940D01*
X159797143Y-97561573D01*
X159876570Y-97666751D01*
X159886128Y-97679407D01*
X160043698Y-97823052D01*
X160224981Y-97935298D01*
X160423802Y-98012321D01*
X160633390Y-98051500D01*
X160633392Y-98051500D01*
X160846608Y-98051500D01*
X160846610Y-98051500D01*
X161056198Y-98012321D01*
X161255019Y-97935298D01*
X161436302Y-97823052D01*
X161593872Y-97679407D01*
X161722366Y-97509255D01*
X161784577Y-97384318D01*
X161817403Y-97318394D01*
X161817403Y-97318393D01*
X161817405Y-97318389D01*
X161875756Y-97113310D01*
X161886529Y-96997047D01*
X161912315Y-96932111D01*
X161956869Y-96900194D01*
X161920497Y-96879331D01*
X161888307Y-96817318D01*
X161886529Y-96804951D01*
X161885849Y-96797613D01*
X161875756Y-96688690D01*
X161817405Y-96483611D01*
X161817403Y-96483606D01*
X161817403Y-96483605D01*
X161722367Y-96292746D01*
X161593872Y-96122593D01*
X161583621Y-96113248D01*
X161436302Y-95978948D01*
X161255019Y-95866702D01*
X161255017Y-95866701D01*
X161110612Y-95810759D01*
X161056198Y-95789679D01*
X160859385Y-95752888D01*
X160797106Y-95721221D01*
X160761833Y-95660908D01*
X160764767Y-95591100D01*
X160804976Y-95533960D01*
X160859384Y-95509111D01*
X161056198Y-95472321D01*
X161255019Y-95395298D01*
X161436302Y-95283052D01*
X161593872Y-95139407D01*
X161722366Y-94969255D01*
X161753482Y-94906765D01*
X161817403Y-94778394D01*
X161817403Y-94778393D01*
X161817405Y-94778389D01*
X161875756Y-94573310D01*
X161886529Y-94457047D01*
X161912315Y-94392111D01*
X161956869Y-94360194D01*
X161920497Y-94339331D01*
X161888307Y-94277318D01*
X161886529Y-94264951D01*
X161880944Y-94204682D01*
X161875756Y-94148690D01*
X161817405Y-93943611D01*
X161817403Y-93943606D01*
X161817403Y-93943605D01*
X161722367Y-93752746D01*
X161593872Y-93582593D01*
X161456730Y-93457571D01*
X161436302Y-93438948D01*
X161255019Y-93326702D01*
X161255017Y-93326701D01*
X161083906Y-93260413D01*
X161028505Y-93217840D01*
X161004914Y-93152073D01*
X161004700Y-93144786D01*
X161004700Y-92417129D01*
X161004701Y-92417116D01*
X161004701Y-92301674D01*
X161001968Y-92291473D01*
X160977407Y-92199813D01*
X160945101Y-92143858D01*
X160945101Y-92143856D01*
X160924684Y-92108493D01*
X160924681Y-92108489D01*
X160924680Y-92108487D01*
X160850113Y-92033920D01*
X160850112Y-92033919D01*
X160845782Y-92029589D01*
X160845771Y-92029579D01*
X160360374Y-91544181D01*
X160326889Y-91482858D01*
X160331873Y-91413166D01*
X160373745Y-91357233D01*
X160439209Y-91332816D01*
X160448055Y-91332500D01*
X161514745Y-91332500D01*
X161581784Y-91352185D01*
X161602426Y-91368819D01*
X162707381Y-92473774D01*
X162740866Y-92535097D01*
X162743700Y-92561455D01*
X162743700Y-93270810D01*
X162724015Y-93337849D01*
X162684978Y-93376236D01*
X162583703Y-93438943D01*
X162426127Y-93582593D01*
X162297632Y-93752746D01*
X162202596Y-93943605D01*
X162202596Y-93943607D01*
X162144244Y-94148689D01*
X162133471Y-94264951D01*
X162107685Y-94329888D01*
X162063130Y-94361804D01*
X162099503Y-94382668D01*
X162131693Y-94444681D01*
X162133470Y-94457047D01*
X162144244Y-94573310D01*
X162194517Y-94750000D01*
X162202596Y-94778392D01*
X162202596Y-94778394D01*
X162297632Y-94969253D01*
X162392299Y-95094611D01*
X162426128Y-95139407D01*
X162583698Y-95283052D01*
X162764981Y-95395298D01*
X162963802Y-95472321D01*
X163160613Y-95509111D01*
X163222893Y-95540779D01*
X163258166Y-95601092D01*
X163255232Y-95670900D01*
X163215023Y-95728040D01*
X163160613Y-95752888D01*
X162963802Y-95789679D01*
X162963799Y-95789679D01*
X162963799Y-95789680D01*
X162764982Y-95866701D01*
X162764980Y-95866702D01*
X162583699Y-95978947D01*
X162426127Y-96122593D01*
X162297632Y-96292746D01*
X162202596Y-96483605D01*
X162202596Y-96483607D01*
X162144244Y-96688689D01*
X162133471Y-96804951D01*
X162107685Y-96869888D01*
X162063130Y-96901804D01*
X162099503Y-96922668D01*
X162131693Y-96984681D01*
X162133470Y-96997047D01*
X162144244Y-97113310D01*
X162197675Y-97301099D01*
X162202596Y-97318392D01*
X162202596Y-97318394D01*
X162297632Y-97509253D01*
X162423143Y-97675454D01*
X162426128Y-97679407D01*
X162583698Y-97823052D01*
X162764981Y-97935298D01*
X162963802Y-98012321D01*
X163173390Y-98051500D01*
X163173392Y-98051500D01*
X163386608Y-98051500D01*
X163386610Y-98051500D01*
X163596198Y-98012321D01*
X163795019Y-97935298D01*
X163976302Y-97823052D01*
X164133872Y-97679407D01*
X164262366Y-97509255D01*
X164324577Y-97384318D01*
X164357403Y-97318394D01*
X164357403Y-97318393D01*
X164357405Y-97318389D01*
X164415756Y-97113310D01*
X164426529Y-96997047D01*
X164452315Y-96932111D01*
X164496869Y-96900194D01*
X164460497Y-96879331D01*
X164428307Y-96817318D01*
X164426529Y-96804951D01*
X164425849Y-96797613D01*
X164415756Y-96688690D01*
X164357405Y-96483611D01*
X164357403Y-96483606D01*
X164357403Y-96483605D01*
X164262367Y-96292746D01*
X164133872Y-96122593D01*
X164123621Y-96113248D01*
X163976302Y-95978948D01*
X163795019Y-95866702D01*
X163795017Y-95866701D01*
X163650612Y-95810759D01*
X163596198Y-95789679D01*
X163399385Y-95752888D01*
X163337106Y-95721221D01*
X163301833Y-95660908D01*
X163304767Y-95591100D01*
X163344976Y-95533960D01*
X163399384Y-95509111D01*
X163596198Y-95472321D01*
X163795019Y-95395298D01*
X163976302Y-95283052D01*
X164133872Y-95139407D01*
X164262366Y-94969255D01*
X164293482Y-94906765D01*
X164357403Y-94778394D01*
X164357403Y-94778393D01*
X164357405Y-94778389D01*
X164415756Y-94573310D01*
X164426529Y-94457047D01*
X164452315Y-94392111D01*
X164496869Y-94360194D01*
X164460497Y-94339331D01*
X164428307Y-94277318D01*
X164426529Y-94264951D01*
X164420944Y-94204682D01*
X164415756Y-94148690D01*
X164357405Y-93943611D01*
X164357403Y-93943606D01*
X164357403Y-93943605D01*
X164262367Y-93752746D01*
X164133872Y-93582593D01*
X163996730Y-93457571D01*
X163976302Y-93438948D01*
X163795019Y-93326702D01*
X163795017Y-93326701D01*
X163623906Y-93260413D01*
X163568505Y-93217840D01*
X163544914Y-93152073D01*
X163544700Y-93144786D01*
X163544700Y-92291475D01*
X163544700Y-92291473D01*
X163517407Y-92189613D01*
X163464680Y-92098287D01*
X163390113Y-92023720D01*
X162097774Y-90731381D01*
X162064289Y-90670058D01*
X162069273Y-90600366D01*
X162111145Y-90544433D01*
X162176609Y-90520016D01*
X162185455Y-90519700D01*
X163201945Y-90519700D01*
X163268984Y-90539385D01*
G37*
G04 #@! TD.AperFunction*
G04 #@! TA.AperFunction,Conductor*
G36*
X156973104Y-81922400D02*
G01*
X157029037Y-81964272D01*
X157053454Y-82029736D01*
X157053241Y-82050022D01*
X157044571Y-82143597D01*
X157044571Y-82143600D01*
X157064244Y-82355910D01*
X157115965Y-82537689D01*
X157122596Y-82560992D01*
X157122596Y-82560994D01*
X157217632Y-82751853D01*
X157283451Y-82839010D01*
X157346128Y-82922007D01*
X157503698Y-83065652D01*
X157503700Y-83065653D01*
X157503701Y-83065654D01*
X157572011Y-83107950D01*
X157618647Y-83159978D01*
X157629751Y-83228960D01*
X157601798Y-83292994D01*
X157543663Y-83331750D01*
X157519337Y-83336735D01*
X157447302Y-83344094D01*
X157280880Y-83399241D01*
X157280875Y-83399243D01*
X157131654Y-83491284D01*
X157007684Y-83615254D01*
X156915643Y-83764475D01*
X156915641Y-83764480D01*
X156860494Y-83930902D01*
X156860493Y-83930909D01*
X156850000Y-84033613D01*
X156850000Y-84433600D01*
X157766988Y-84433600D01*
X157734075Y-84490607D01*
X157700000Y-84617774D01*
X157700000Y-84749426D01*
X157734075Y-84876593D01*
X157766988Y-84933600D01*
X156850001Y-84933600D01*
X156850001Y-85333586D01*
X156860494Y-85436297D01*
X156915641Y-85602719D01*
X156915643Y-85602724D01*
X157007684Y-85751945D01*
X157131654Y-85875915D01*
X157280875Y-85967956D01*
X157280880Y-85967958D01*
X157447302Y-86023105D01*
X157447309Y-86023106D01*
X157550019Y-86033599D01*
X157949999Y-86033599D01*
X157950000Y-86033598D01*
X157950000Y-85116612D01*
X158007007Y-85149525D01*
X158134174Y-85183600D01*
X158265826Y-85183600D01*
X158392993Y-85149525D01*
X158450000Y-85116612D01*
X158450000Y-86033599D01*
X158849972Y-86033599D01*
X158849986Y-86033598D01*
X158952697Y-86023105D01*
X159119119Y-85967958D01*
X159119124Y-85967956D01*
X159268345Y-85875915D01*
X159274859Y-85869402D01*
X159336182Y-85835917D01*
X159405874Y-85840901D01*
X159450221Y-85869402D01*
X160212249Y-86631430D01*
X160305435Y-86724616D01*
X160419563Y-86790508D01*
X160546857Y-86824616D01*
X164815440Y-86824616D01*
X164882479Y-86844301D01*
X164903121Y-86860935D01*
X166671381Y-88629195D01*
X166704866Y-88690518D01*
X166707700Y-88716876D01*
X166707700Y-93334833D01*
X166688015Y-93401872D01*
X166635211Y-93447627D01*
X166566053Y-93457571D01*
X166518423Y-93440260D01*
X166335024Y-93326705D01*
X166335017Y-93326701D01*
X166163906Y-93260413D01*
X166108505Y-93217840D01*
X166084914Y-93152073D01*
X166084700Y-93144786D01*
X166084700Y-92446929D01*
X166084701Y-92446916D01*
X166084701Y-92331474D01*
X166073983Y-92291475D01*
X166057407Y-92229613D01*
X166016525Y-92158804D01*
X166004680Y-92138287D01*
X166004678Y-92138285D01*
X166004677Y-92138283D01*
X165925794Y-92059400D01*
X165925771Y-92059379D01*
X163665115Y-89798722D01*
X163665114Y-89798721D01*
X163665113Y-89798720D01*
X163619450Y-89772356D01*
X163573789Y-89745993D01*
X163522857Y-89732346D01*
X163471927Y-89718700D01*
X163471926Y-89718700D01*
X149225483Y-89718700D01*
X149158444Y-89699015D01*
X149134508Y-89676994D01*
X149134034Y-89677469D01*
X149128288Y-89671724D01*
X149128284Y-89671721D01*
X149128282Y-89671718D01*
X149002841Y-89575464D01*
X148903112Y-89534155D01*
X148856762Y-89514956D01*
X148856760Y-89514955D01*
X148700001Y-89494318D01*
X148699999Y-89494318D01*
X148543239Y-89514955D01*
X148543237Y-89514956D01*
X148397160Y-89575463D01*
X148397159Y-89575464D01*
X148271718Y-89671718D01*
X148271716Y-89671719D01*
X148271711Y-89671724D01*
X148265966Y-89677469D01*
X148264679Y-89676182D01*
X148216468Y-89711388D01*
X148174517Y-89718700D01*
X138936580Y-89718700D01*
X138869541Y-89699015D01*
X138861093Y-89693076D01*
X138858283Y-89690920D01*
X138858282Y-89690918D01*
X138732841Y-89594664D01*
X138586762Y-89534156D01*
X138586760Y-89534155D01*
X138430001Y-89513518D01*
X138429999Y-89513518D01*
X138273239Y-89534155D01*
X138273237Y-89534156D01*
X138127160Y-89594663D01*
X138001718Y-89690918D01*
X137905463Y-89816360D01*
X137844956Y-89962437D01*
X137844955Y-89962439D01*
X137824318Y-90119198D01*
X137824318Y-90119201D01*
X137844955Y-90275960D01*
X137844956Y-90275962D01*
X137905464Y-90422041D01*
X137922095Y-90443716D01*
X137947288Y-90508886D01*
X137933249Y-90577330D01*
X137922096Y-90594684D01*
X137905465Y-90616359D01*
X137844956Y-90762440D01*
X137844955Y-90762442D01*
X137824318Y-90919201D01*
X137824318Y-90919204D01*
X137844955Y-91075962D01*
X137865145Y-91124705D01*
X137872613Y-91194175D01*
X137841337Y-91256654D01*
X137781248Y-91292306D01*
X137711423Y-91289811D01*
X137662902Y-91259838D01*
X137186819Y-90783755D01*
X137153334Y-90722432D01*
X137150500Y-90696074D01*
X137150500Y-88595198D01*
X145657118Y-88595198D01*
X145657118Y-88595201D01*
X145677755Y-88751960D01*
X145677756Y-88751962D01*
X145738264Y-88898041D01*
X145834518Y-89023482D01*
X145959959Y-89119736D01*
X146106038Y-89180244D01*
X146184419Y-89190563D01*
X146262799Y-89200882D01*
X146262800Y-89200882D01*
X146262801Y-89200882D01*
X146315054Y-89194002D01*
X146419562Y-89180244D01*
X146565641Y-89119736D01*
X146691082Y-89023482D01*
X146691083Y-89023479D01*
X146693893Y-89021324D01*
X146759063Y-88996130D01*
X146769380Y-88995700D01*
X161617487Y-88995700D01*
X161684526Y-89015385D01*
X161692966Y-89021319D01*
X161697159Y-89024536D01*
X161843238Y-89085044D01*
X161921619Y-89095363D01*
X161999999Y-89105682D01*
X162000000Y-89105682D01*
X162000001Y-89105682D01*
X162052254Y-89098802D01*
X162156762Y-89085044D01*
X162302841Y-89024536D01*
X162428282Y-88928282D01*
X162524536Y-88802841D01*
X162585044Y-88656762D01*
X162605682Y-88500000D01*
X162604373Y-88490060D01*
X162585044Y-88343239D01*
X162585044Y-88343238D01*
X162524536Y-88197159D01*
X162428282Y-88071718D01*
X162302841Y-87975464D01*
X162261425Y-87958309D01*
X162156762Y-87914956D01*
X162156760Y-87914955D01*
X162000001Y-87894318D01*
X161999999Y-87894318D01*
X161843239Y-87914955D01*
X161843237Y-87914956D01*
X161697160Y-87975463D01*
X161571716Y-88071719D01*
X161514577Y-88146186D01*
X161458149Y-88187389D01*
X161416201Y-88194700D01*
X146769380Y-88194700D01*
X146702341Y-88175015D01*
X146693893Y-88169076D01*
X146691083Y-88166920D01*
X146691082Y-88166918D01*
X146565641Y-88070664D01*
X146553886Y-88065795D01*
X146419562Y-88010156D01*
X146419560Y-88010155D01*
X146262801Y-87989518D01*
X146262799Y-87989518D01*
X146106039Y-88010155D01*
X146106037Y-88010156D01*
X145959960Y-88070663D01*
X145834518Y-88166918D01*
X145738263Y-88292360D01*
X145677756Y-88438437D01*
X145677755Y-88438439D01*
X145657118Y-88595198D01*
X137150500Y-88595198D01*
X137150500Y-87918447D01*
X137170185Y-87851408D01*
X137222989Y-87805653D01*
X137292147Y-87795709D01*
X137321950Y-87803885D01*
X137333438Y-87808644D01*
X137371478Y-87813652D01*
X137490199Y-87829282D01*
X137490200Y-87829282D01*
X137490201Y-87829282D01*
X137542454Y-87822402D01*
X137646962Y-87808644D01*
X137793041Y-87748136D01*
X137918482Y-87651882D01*
X138014736Y-87526441D01*
X138075244Y-87380362D01*
X138095882Y-87223600D01*
X138095881Y-87223597D01*
X138096344Y-87220085D01*
X138124610Y-87156189D01*
X138131590Y-87148601D01*
X138381773Y-86898419D01*
X138443096Y-86864934D01*
X138469454Y-86862100D01*
X151817725Y-86862100D01*
X151817727Y-86862100D01*
X151919588Y-86834807D01*
X152010913Y-86782080D01*
X156842091Y-81950899D01*
X156903412Y-81917416D01*
X156973104Y-81922400D01*
G37*
G04 #@! TD.AperFunction*
G04 #@! TA.AperFunction,Conductor*
G36*
X161932784Y-80303185D02*
G01*
X161953426Y-80319819D01*
X162640653Y-81007046D01*
X162674138Y-81068369D01*
X162669154Y-81138061D01*
X162627282Y-81193994D01*
X162618250Y-81200153D01*
X162583703Y-81221543D01*
X162426127Y-81365193D01*
X162297632Y-81535346D01*
X162202596Y-81726205D01*
X162202596Y-81726207D01*
X162144244Y-81931289D01*
X162133471Y-82047551D01*
X162107685Y-82112488D01*
X162063130Y-82144404D01*
X162099503Y-82165268D01*
X162131693Y-82227281D01*
X162133470Y-82239647D01*
X162144244Y-82355910D01*
X162195965Y-82537689D01*
X162202596Y-82560992D01*
X162202596Y-82560994D01*
X162297632Y-82751853D01*
X162363451Y-82839010D01*
X162426128Y-82922007D01*
X162583698Y-83065652D01*
X162764981Y-83177898D01*
X162963802Y-83254921D01*
X163160613Y-83291711D01*
X163222893Y-83323379D01*
X163258166Y-83383692D01*
X163255232Y-83453500D01*
X163215023Y-83510640D01*
X163160613Y-83535488D01*
X162963802Y-83572279D01*
X162963799Y-83572279D01*
X162963799Y-83572280D01*
X162764982Y-83649301D01*
X162764980Y-83649302D01*
X162583699Y-83761547D01*
X162426127Y-83905193D01*
X162297632Y-84075346D01*
X162202596Y-84266205D01*
X162202596Y-84266207D01*
X162144244Y-84471289D01*
X162133471Y-84587551D01*
X162107685Y-84652488D01*
X162063130Y-84684404D01*
X162099503Y-84705268D01*
X162131693Y-84767281D01*
X162133470Y-84779647D01*
X162144244Y-84895910D01*
X162197675Y-85083699D01*
X162202596Y-85100992D01*
X162202596Y-85100994D01*
X162297632Y-85291853D01*
X162426127Y-85462006D01*
X162426128Y-85462007D01*
X162580486Y-85602724D01*
X162586251Y-85607979D01*
X162622532Y-85667691D01*
X162620771Y-85737538D01*
X162581527Y-85795346D01*
X162517260Y-85822760D01*
X162502712Y-85823616D01*
X161517288Y-85823616D01*
X161450249Y-85803931D01*
X161404494Y-85751127D01*
X161394550Y-85681969D01*
X161423575Y-85618413D01*
X161433749Y-85607979D01*
X161436302Y-85605652D01*
X161593872Y-85462007D01*
X161722366Y-85291855D01*
X161785301Y-85165463D01*
X161817403Y-85100994D01*
X161817403Y-85100993D01*
X161817405Y-85100989D01*
X161875756Y-84895910D01*
X161886529Y-84779647D01*
X161912315Y-84714711D01*
X161956869Y-84682794D01*
X161920497Y-84661931D01*
X161888307Y-84599918D01*
X161886529Y-84587551D01*
X161885204Y-84573253D01*
X161875756Y-84471290D01*
X161817405Y-84266211D01*
X161817403Y-84266206D01*
X161817403Y-84266205D01*
X161722367Y-84075346D01*
X161593872Y-83905193D01*
X161570459Y-83883849D01*
X161436302Y-83761548D01*
X161255019Y-83649302D01*
X161255017Y-83649301D01*
X161126464Y-83599500D01*
X161056198Y-83572279D01*
X160859385Y-83535488D01*
X160797106Y-83503821D01*
X160761833Y-83443508D01*
X160764767Y-83373700D01*
X160804976Y-83316560D01*
X160859384Y-83291711D01*
X161056198Y-83254921D01*
X161255019Y-83177898D01*
X161436302Y-83065652D01*
X161593872Y-82922007D01*
X161722366Y-82751855D01*
X161733628Y-82729237D01*
X161817403Y-82560994D01*
X161817403Y-82560993D01*
X161817405Y-82560989D01*
X161875756Y-82355910D01*
X161886529Y-82239647D01*
X161912315Y-82174711D01*
X161956869Y-82142794D01*
X161920497Y-82121931D01*
X161888307Y-82059918D01*
X161886529Y-82047551D01*
X161884878Y-82029736D01*
X161875756Y-81931290D01*
X161817405Y-81726211D01*
X161817403Y-81726206D01*
X161817403Y-81726205D01*
X161722367Y-81535346D01*
X161593872Y-81365193D01*
X161586103Y-81358111D01*
X161436302Y-81221548D01*
X161255019Y-81109302D01*
X161255008Y-81109297D01*
X161178806Y-81079776D01*
X161123404Y-81037204D01*
X161108295Y-81005593D01*
X161107515Y-81005917D01*
X161104407Y-80998413D01*
X161086428Y-80967273D01*
X161051680Y-80907087D01*
X160977113Y-80832520D01*
X160977112Y-80832519D01*
X160972782Y-80828189D01*
X160972771Y-80828179D01*
X160639774Y-80495181D01*
X160606289Y-80433858D01*
X160611273Y-80364166D01*
X160653145Y-80308233D01*
X160718609Y-80283816D01*
X160727455Y-80283500D01*
X161865745Y-80283500D01*
X161932784Y-80303185D01*
G37*
G04 #@! TD.AperFunction*
G04 #@! TA.AperFunction,Conductor*
G36*
X163872384Y-79642785D02*
G01*
X163893026Y-79659419D01*
X165217709Y-80984102D01*
X165251194Y-81045425D01*
X165246210Y-81115117D01*
X165204338Y-81171050D01*
X165195306Y-81177210D01*
X165123699Y-81221547D01*
X164966127Y-81365193D01*
X164837632Y-81535346D01*
X164742596Y-81726205D01*
X164742596Y-81726207D01*
X164684244Y-81931289D01*
X164673471Y-82047551D01*
X164647685Y-82112488D01*
X164603130Y-82144404D01*
X164639503Y-82165268D01*
X164671693Y-82227281D01*
X164673470Y-82239647D01*
X164684244Y-82355910D01*
X164735965Y-82537689D01*
X164742596Y-82560992D01*
X164742596Y-82560994D01*
X164837632Y-82751853D01*
X164903451Y-82839010D01*
X164966128Y-82922007D01*
X165123698Y-83065652D01*
X165304981Y-83177898D01*
X165503802Y-83254921D01*
X165700613Y-83291711D01*
X165762893Y-83323379D01*
X165798166Y-83383692D01*
X165795232Y-83453500D01*
X165755023Y-83510640D01*
X165700613Y-83535488D01*
X165503802Y-83572279D01*
X165503799Y-83572279D01*
X165503799Y-83572280D01*
X165304982Y-83649301D01*
X165304980Y-83649302D01*
X165123699Y-83761547D01*
X164966127Y-83905193D01*
X164837632Y-84075346D01*
X164742596Y-84266205D01*
X164742596Y-84266207D01*
X164684244Y-84471289D01*
X164673471Y-84587551D01*
X164647685Y-84652488D01*
X164603130Y-84684404D01*
X164639503Y-84705268D01*
X164671693Y-84767281D01*
X164673470Y-84779647D01*
X164684244Y-84895910D01*
X164737675Y-85083699D01*
X164742596Y-85100992D01*
X164742596Y-85100994D01*
X164837632Y-85291853D01*
X164966127Y-85462006D01*
X164966128Y-85462007D01*
X165120486Y-85602724D01*
X165126251Y-85607979D01*
X165162532Y-85667691D01*
X165160771Y-85737538D01*
X165121527Y-85795346D01*
X165057260Y-85822760D01*
X165042712Y-85823616D01*
X164057288Y-85823616D01*
X163990249Y-85803931D01*
X163944494Y-85751127D01*
X163934550Y-85681969D01*
X163963575Y-85618413D01*
X163973749Y-85607979D01*
X163976302Y-85605652D01*
X164133872Y-85462007D01*
X164262366Y-85291855D01*
X164325301Y-85165463D01*
X164357403Y-85100994D01*
X164357403Y-85100993D01*
X164357405Y-85100989D01*
X164415756Y-84895910D01*
X164426529Y-84779647D01*
X164452315Y-84714711D01*
X164496869Y-84682794D01*
X164460497Y-84661931D01*
X164428307Y-84599918D01*
X164426529Y-84587551D01*
X164425204Y-84573253D01*
X164415756Y-84471290D01*
X164357405Y-84266211D01*
X164357403Y-84266206D01*
X164357403Y-84266205D01*
X164262367Y-84075346D01*
X164133872Y-83905193D01*
X164110459Y-83883849D01*
X163976302Y-83761548D01*
X163795019Y-83649302D01*
X163795017Y-83649301D01*
X163666464Y-83599500D01*
X163596198Y-83572279D01*
X163399385Y-83535488D01*
X163337106Y-83503821D01*
X163301833Y-83443508D01*
X163304767Y-83373700D01*
X163344976Y-83316560D01*
X163399384Y-83291711D01*
X163596198Y-83254921D01*
X163795019Y-83177898D01*
X163976302Y-83065652D01*
X164133872Y-82922007D01*
X164262366Y-82751855D01*
X164273628Y-82729237D01*
X164357403Y-82560994D01*
X164357403Y-82560993D01*
X164357405Y-82560989D01*
X164415756Y-82355910D01*
X164426529Y-82239647D01*
X164452315Y-82174711D01*
X164496869Y-82142794D01*
X164460497Y-82121931D01*
X164428307Y-82059918D01*
X164426529Y-82047551D01*
X164424878Y-82029736D01*
X164415756Y-81931290D01*
X164357405Y-81726211D01*
X164357403Y-81726206D01*
X164357403Y-81726205D01*
X164262367Y-81535346D01*
X164133872Y-81365193D01*
X164126103Y-81358111D01*
X163976302Y-81221548D01*
X163896438Y-81172098D01*
X163795022Y-81109303D01*
X163743262Y-81089251D01*
X163687861Y-81046677D01*
X163668283Y-81005719D01*
X163644407Y-80916613D01*
X163638907Y-80907087D01*
X163591680Y-80825287D01*
X163517113Y-80750720D01*
X163517112Y-80750719D01*
X163512782Y-80746389D01*
X163512771Y-80746379D01*
X162601174Y-79834781D01*
X162567689Y-79773458D01*
X162572673Y-79703766D01*
X162614545Y-79647833D01*
X162680009Y-79623416D01*
X162688855Y-79623100D01*
X163805345Y-79623100D01*
X163872384Y-79642785D01*
G37*
G04 #@! TD.AperFunction*
G04 #@! TA.AperFunction,Conductor*
G36*
X153461383Y-82004985D02*
G01*
X153507138Y-82057789D01*
X153517082Y-82126947D01*
X153488057Y-82190503D01*
X153482025Y-82196981D01*
X151000426Y-84678581D01*
X150939103Y-84712066D01*
X150912745Y-84714900D01*
X150006580Y-84714900D01*
X149939541Y-84695215D01*
X149931093Y-84689276D01*
X149928283Y-84687120D01*
X149928282Y-84687118D01*
X149802841Y-84590864D01*
X149760324Y-84573253D01*
X149656762Y-84530356D01*
X149656760Y-84530355D01*
X149500001Y-84509718D01*
X149499999Y-84509718D01*
X149343239Y-84530355D01*
X149343237Y-84530356D01*
X149197160Y-84590863D01*
X149173890Y-84608718D01*
X149071718Y-84687118D01*
X149071716Y-84687120D01*
X149068907Y-84689276D01*
X149003737Y-84714470D01*
X148993420Y-84714900D01*
X139965326Y-84714900D01*
X139898287Y-84695215D01*
X139852532Y-84642411D01*
X139842588Y-84573253D01*
X139871613Y-84509697D01*
X139877645Y-84503219D01*
X139944045Y-84436819D01*
X140005368Y-84403334D01*
X140031726Y-84400500D01*
X143458925Y-84400500D01*
X143458927Y-84400500D01*
X143560788Y-84373207D01*
X143652113Y-84320480D01*
X144088744Y-83883847D01*
X144150065Y-83850364D01*
X144219756Y-83855348D01*
X144221218Y-83855904D01*
X144235196Y-83861319D01*
X144235197Y-83861319D01*
X144235202Y-83861321D01*
X144444790Y-83900500D01*
X144444792Y-83900500D01*
X144658008Y-83900500D01*
X144658010Y-83900500D01*
X144867598Y-83861321D01*
X145066419Y-83784298D01*
X145247702Y-83672052D01*
X145405272Y-83528407D01*
X145533766Y-83358255D01*
X145551132Y-83323379D01*
X145628803Y-83167394D01*
X145628803Y-83167393D01*
X145628805Y-83167389D01*
X145687156Y-82962310D01*
X145706829Y-82750000D01*
X145687156Y-82537690D01*
X145628805Y-82332611D01*
X145628803Y-82332606D01*
X145628803Y-82332605D01*
X145545132Y-82164571D01*
X145532871Y-82095786D01*
X145559744Y-82031291D01*
X145617220Y-81991564D01*
X145656132Y-81985300D01*
X153394344Y-81985300D01*
X153461383Y-82004985D01*
G37*
G04 #@! TD.AperFunction*
G04 #@! TA.AperFunction,Conductor*
G36*
X166544282Y-83133585D02*
G01*
X166589143Y-83187150D01*
X166599500Y-83236760D01*
X166599500Y-83590439D01*
X166579815Y-83657478D01*
X166527011Y-83703233D01*
X166457853Y-83713177D01*
X166410223Y-83695866D01*
X166335024Y-83649305D01*
X166335021Y-83649303D01*
X166335019Y-83649302D01*
X166335018Y-83649301D01*
X166335017Y-83649301D01*
X166206464Y-83599500D01*
X166136198Y-83572279D01*
X165939385Y-83535488D01*
X165877106Y-83503821D01*
X165841833Y-83443508D01*
X165844767Y-83373700D01*
X165884976Y-83316560D01*
X165939384Y-83291711D01*
X166136198Y-83254921D01*
X166335019Y-83177898D01*
X166410222Y-83131333D01*
X166477582Y-83112777D01*
X166544282Y-83133585D01*
G37*
G04 #@! TD.AperFunction*
G04 #@! TA.AperFunction,Conductor*
G36*
X160137826Y-83124695D02*
G01*
X160148912Y-83130798D01*
X160224981Y-83177898D01*
X160423802Y-83254921D01*
X160620613Y-83291711D01*
X160682893Y-83323379D01*
X160718166Y-83383692D01*
X160715232Y-83453500D01*
X160675023Y-83510640D01*
X160620613Y-83535488D01*
X160423802Y-83572279D01*
X160423799Y-83572279D01*
X160423799Y-83572280D01*
X160224982Y-83649301D01*
X160224978Y-83649303D01*
X160179776Y-83677291D01*
X160112415Y-83695845D01*
X160045716Y-83675037D01*
X160000855Y-83621471D01*
X159990500Y-83571863D01*
X159990500Y-83367708D01*
X159986984Y-83354588D01*
X159986983Y-83354584D01*
X159984172Y-83344094D01*
X159963870Y-83268322D01*
X159965533Y-83198474D01*
X160004696Y-83140612D01*
X160068924Y-83113108D01*
X160137826Y-83124695D01*
G37*
G04 #@! TD.AperFunction*
G04 #@! TA.AperFunction,Conductor*
G36*
X143242228Y-80637051D02*
G01*
X143284105Y-80686651D01*
X143377799Y-80887578D01*
X143448940Y-80989176D01*
X143471267Y-81055382D01*
X143454257Y-81123150D01*
X143403309Y-81170963D01*
X143347365Y-81184300D01*
X143228673Y-81184300D01*
X143126810Y-81211593D01*
X143035487Y-81264320D01*
X143035484Y-81264322D01*
X142625130Y-81674675D01*
X142563807Y-81708160D01*
X142494115Y-81703176D01*
X142492656Y-81702621D01*
X142327603Y-81638680D01*
X142327598Y-81638679D01*
X142130785Y-81601888D01*
X142068506Y-81570221D01*
X142033233Y-81509908D01*
X142036167Y-81440100D01*
X142076376Y-81382960D01*
X142130784Y-81358111D01*
X142327598Y-81321321D01*
X142526419Y-81244298D01*
X142707702Y-81132052D01*
X142865272Y-80988407D01*
X142993766Y-80818255D01*
X143060725Y-80683781D01*
X143108225Y-80632548D01*
X143175888Y-80615126D01*
X143242228Y-80637051D01*
G37*
G04 #@! TD.AperFunction*
G04 #@! TA.AperFunction,Conductor*
G36*
X173009421Y-77001343D02*
G01*
X173033395Y-77005040D01*
X173056460Y-77008598D01*
X173092510Y-77019991D01*
X173126576Y-77036832D01*
X173157515Y-77058555D01*
X173184924Y-77084878D01*
X173207879Y-77114913D01*
X173226083Y-77148271D01*
X173238923Y-77183832D01*
X173247187Y-77226015D01*
X173249500Y-77249854D01*
X173249500Y-127740491D01*
X173248050Y-127759395D01*
X173240790Y-127806459D01*
X173229399Y-127842506D01*
X173212560Y-127876569D01*
X173190835Y-127907511D01*
X173164512Y-127934919D01*
X173134477Y-127957874D01*
X173133955Y-127958159D01*
X173101119Y-127976076D01*
X173065564Y-127988913D01*
X173023386Y-127997175D01*
X172999508Y-127999487D01*
X101074181Y-127969813D01*
X101073719Y-127969783D01*
X101065892Y-127969783D01*
X101009510Y-127969783D01*
X100990605Y-127968333D01*
X100943543Y-127961073D01*
X100907495Y-127949681D01*
X100873437Y-127932844D01*
X100842497Y-127911120D01*
X100828795Y-127897961D01*
X100815093Y-127884801D01*
X100792137Y-127854762D01*
X100773938Y-127821409D01*
X100761101Y-127785854D01*
X100752835Y-127743652D01*
X100750524Y-127719732D01*
X100767584Y-106599998D01*
X103794318Y-106599998D01*
X103794318Y-106600001D01*
X103814955Y-106756760D01*
X103814956Y-106756762D01*
X103875464Y-106902841D01*
X103971718Y-107028282D01*
X103971720Y-107028283D01*
X103973876Y-107031093D01*
X103999070Y-107096263D01*
X103999500Y-107106580D01*
X103999500Y-109893419D01*
X103979815Y-109960458D01*
X103973876Y-109968905D01*
X103875464Y-110097157D01*
X103814956Y-110243237D01*
X103814955Y-110243239D01*
X103794318Y-110399998D01*
X103794318Y-110400001D01*
X103814955Y-110556760D01*
X103814956Y-110556762D01*
X103875464Y-110702841D01*
X103971718Y-110828282D01*
X104097159Y-110924536D01*
X104243238Y-110985044D01*
X104321619Y-110995363D01*
X104399999Y-111005682D01*
X104400000Y-111005682D01*
X104400001Y-111005682D01*
X104452254Y-110998802D01*
X104556762Y-110985044D01*
X104702841Y-110924536D01*
X104828282Y-110828282D01*
X104924536Y-110702841D01*
X104985044Y-110556762D01*
X105005682Y-110400000D01*
X104985044Y-110243238D01*
X104924536Y-110097159D01*
X104924535Y-110097158D01*
X104924535Y-110097157D01*
X104826124Y-109968905D01*
X104800930Y-109903736D01*
X104800500Y-109893419D01*
X104800500Y-107106580D01*
X104820185Y-107039541D01*
X104826124Y-107031093D01*
X104828279Y-107028283D01*
X104828282Y-107028282D01*
X104924536Y-106902841D01*
X104985044Y-106756762D01*
X104998802Y-106652254D01*
X105005682Y-106600001D01*
X105005682Y-106599998D01*
X104985044Y-106443239D01*
X104985044Y-106443238D01*
X104924536Y-106297159D01*
X104828282Y-106171718D01*
X104702841Y-106075464D01*
X104702585Y-106075358D01*
X104556762Y-106014956D01*
X104556760Y-106014955D01*
X104400001Y-105994318D01*
X104399999Y-105994318D01*
X104243239Y-106014955D01*
X104243237Y-106014956D01*
X104097160Y-106075463D01*
X103971718Y-106171718D01*
X103875463Y-106297160D01*
X103814956Y-106443237D01*
X103814955Y-106443239D01*
X103794318Y-106599998D01*
X100767584Y-106599998D01*
X100782608Y-88000000D01*
X101630138Y-88000000D01*
X102433012Y-88000000D01*
X102415795Y-88009940D01*
X102359940Y-88065795D01*
X102320444Y-88134204D01*
X102300000Y-88210504D01*
X102300000Y-88289496D01*
X102320444Y-88365796D01*
X102359940Y-88434205D01*
X102415795Y-88490060D01*
X102433012Y-88500000D01*
X101630138Y-88500000D01*
X101638430Y-88541690D01*
X101638430Y-88541692D01*
X101713807Y-88723671D01*
X101713814Y-88723684D01*
X101823248Y-88887462D01*
X101823251Y-88887466D01*
X101962533Y-89026748D01*
X101962537Y-89026751D01*
X102126315Y-89136185D01*
X102126328Y-89136192D01*
X102308306Y-89211569D01*
X102308318Y-89211572D01*
X102501504Y-89249999D01*
X102501508Y-89250000D01*
X102750000Y-89250000D01*
X102750000Y-88550000D01*
X103250000Y-88550000D01*
X103250000Y-89250000D01*
X103498492Y-89250000D01*
X103498495Y-89249999D01*
X103691681Y-89211572D01*
X103691693Y-89211569D01*
X103873671Y-89136192D01*
X103873684Y-89136185D01*
X104037462Y-89026751D01*
X104037466Y-89026748D01*
X104176748Y-88887466D01*
X104176751Y-88887462D01*
X104272398Y-88744318D01*
X104326010Y-88699513D01*
X104395335Y-88690806D01*
X104458363Y-88720960D01*
X104495082Y-88780403D01*
X104499500Y-88813209D01*
X104499500Y-89873742D01*
X104479815Y-89940781D01*
X104476073Y-89946103D01*
X104475465Y-89947156D01*
X104414956Y-90093237D01*
X104414955Y-90093239D01*
X104394318Y-90249998D01*
X104394318Y-90250001D01*
X104414955Y-90406760D01*
X104414957Y-90406765D01*
X104475461Y-90552836D01*
X104479526Y-90559876D01*
X104477783Y-90560882D01*
X104499069Y-90615932D01*
X104499500Y-90626257D01*
X104499500Y-94373742D01*
X104479815Y-94440781D01*
X104476073Y-94446103D01*
X104475465Y-94447156D01*
X104414956Y-94593237D01*
X104414955Y-94593239D01*
X104394318Y-94749998D01*
X104394318Y-94750001D01*
X104414955Y-94906760D01*
X104414957Y-94906765D01*
X104475461Y-95052836D01*
X104479526Y-95059876D01*
X104477783Y-95060882D01*
X104499069Y-95115932D01*
X104499500Y-95126257D01*
X104499500Y-96326790D01*
X104479815Y-96393829D01*
X104427011Y-96439584D01*
X104357853Y-96449528D01*
X104294297Y-96420503D01*
X104272398Y-96395681D01*
X104176751Y-96252537D01*
X104176748Y-96252533D01*
X104037466Y-96113251D01*
X104037462Y-96113248D01*
X103873684Y-96003814D01*
X103873671Y-96003807D01*
X103691693Y-95928430D01*
X103691681Y-95928427D01*
X103498495Y-95890000D01*
X103250000Y-95890000D01*
X103250000Y-96590000D01*
X102750000Y-96590000D01*
X102750000Y-95890000D01*
X102501504Y-95890000D01*
X102308318Y-95928427D01*
X102308306Y-95928430D01*
X102126328Y-96003807D01*
X102126315Y-96003814D01*
X101962537Y-96113248D01*
X101962533Y-96113251D01*
X101823251Y-96252533D01*
X101823248Y-96252537D01*
X101713814Y-96416315D01*
X101713807Y-96416328D01*
X101638430Y-96598307D01*
X101638430Y-96598309D01*
X101630138Y-96640000D01*
X102433012Y-96640000D01*
X102415795Y-96649940D01*
X102359940Y-96705795D01*
X102320444Y-96774204D01*
X102300000Y-96850504D01*
X102300000Y-96929496D01*
X102320444Y-97005796D01*
X102359940Y-97074205D01*
X102415795Y-97130060D01*
X102433012Y-97140000D01*
X101630138Y-97140000D01*
X101638430Y-97181690D01*
X101638430Y-97181692D01*
X101713807Y-97363671D01*
X101713814Y-97363684D01*
X101823248Y-97527462D01*
X101823251Y-97527466D01*
X101962533Y-97666748D01*
X101962537Y-97666751D01*
X102126315Y-97776185D01*
X102126328Y-97776192D01*
X102308306Y-97851569D01*
X102308318Y-97851572D01*
X102501504Y-97889999D01*
X102501508Y-97890000D01*
X102750000Y-97890000D01*
X102750000Y-97190000D01*
X103250000Y-97190000D01*
X103250000Y-97890000D01*
X103498492Y-97890000D01*
X103498495Y-97889999D01*
X103691681Y-97851572D01*
X103691693Y-97851569D01*
X103873671Y-97776192D01*
X103873684Y-97776185D01*
X104037462Y-97666751D01*
X104037466Y-97666748D01*
X104176748Y-97527466D01*
X104176751Y-97527462D01*
X104272398Y-97384318D01*
X104326010Y-97339513D01*
X104395335Y-97330806D01*
X104458363Y-97360960D01*
X104495082Y-97420403D01*
X104499500Y-97453209D01*
X104499500Y-97826891D01*
X104533608Y-97954187D01*
X104545127Y-97974138D01*
X104599500Y-98068314D01*
X104599502Y-98068316D01*
X105999538Y-99468352D01*
X106033023Y-99529675D01*
X106034141Y-99536088D01*
X106034454Y-99537258D01*
X106034456Y-99537262D01*
X106094964Y-99683341D01*
X106191218Y-99808782D01*
X106316659Y-99905036D01*
X106462738Y-99965544D01*
X106462743Y-99965544D01*
X106470594Y-99967649D01*
X106470072Y-99969593D01*
X106524044Y-99993467D01*
X106531648Y-100000462D01*
X107713181Y-101181994D01*
X107746666Y-101243317D01*
X107749500Y-101269675D01*
X107749500Y-113014241D01*
X107783608Y-113141537D01*
X107786924Y-113147280D01*
X107849500Y-113255664D01*
X115601950Y-121008114D01*
X115695136Y-121101300D01*
X115809264Y-121167192D01*
X115936558Y-121201300D01*
X118876801Y-121201300D01*
X118943840Y-121220985D01*
X118987801Y-121270029D01*
X119007232Y-121309053D01*
X119135727Y-121479206D01*
X119135728Y-121479207D01*
X119293298Y-121622852D01*
X119293300Y-121622853D01*
X119293301Y-121622854D01*
X119361611Y-121665150D01*
X119408247Y-121717178D01*
X119419351Y-121786160D01*
X119391398Y-121850194D01*
X119333263Y-121888950D01*
X119308937Y-121893935D01*
X119236902Y-121901294D01*
X119070480Y-121956441D01*
X119070475Y-121956443D01*
X118921254Y-122048484D01*
X118797284Y-122172454D01*
X118705243Y-122321675D01*
X118705241Y-122321680D01*
X118650094Y-122488102D01*
X118650093Y-122488109D01*
X118639600Y-122590813D01*
X118639600Y-122990800D01*
X119556588Y-122990800D01*
X119523675Y-123047807D01*
X119489600Y-123174974D01*
X119489600Y-123306626D01*
X119523675Y-123433793D01*
X119556588Y-123490800D01*
X118639601Y-123490800D01*
X118639601Y-123890786D01*
X118650094Y-123993497D01*
X118705241Y-124159919D01*
X118705243Y-124159924D01*
X118797284Y-124309145D01*
X118921254Y-124433115D01*
X119070475Y-124525156D01*
X119070480Y-124525158D01*
X119236902Y-124580305D01*
X119236909Y-124580306D01*
X119339619Y-124590799D01*
X119739599Y-124590799D01*
X119739600Y-124590798D01*
X119739600Y-123673812D01*
X119796607Y-123706725D01*
X119923774Y-123740800D01*
X120055426Y-123740800D01*
X120182593Y-123706725D01*
X120239600Y-123673812D01*
X120239600Y-124590799D01*
X120639572Y-124590799D01*
X120639586Y-124590798D01*
X120742297Y-124580305D01*
X120908719Y-124525158D01*
X120908724Y-124525156D01*
X121057945Y-124433115D01*
X121181915Y-124309145D01*
X121273956Y-124159924D01*
X121273958Y-124159919D01*
X121329105Y-123993497D01*
X121329106Y-123993489D01*
X121336015Y-123925869D01*
X121362411Y-123861177D01*
X121419592Y-123821025D01*
X121489403Y-123818162D01*
X121549680Y-123853496D01*
X121558327Y-123863744D01*
X121656312Y-123993497D01*
X121675728Y-124019207D01*
X121833298Y-124162852D01*
X122014581Y-124275098D01*
X122213402Y-124352121D01*
X122422990Y-124391300D01*
X122422992Y-124391300D01*
X122636208Y-124391300D01*
X122636210Y-124391300D01*
X122845798Y-124352121D01*
X123044619Y-124275098D01*
X123225902Y-124162852D01*
X123383472Y-124019207D01*
X123511966Y-123849055D01*
X123527927Y-123817000D01*
X123607003Y-123658194D01*
X123607003Y-123658193D01*
X123607005Y-123658189D01*
X123665356Y-123453110D01*
X123676129Y-123336847D01*
X123701915Y-123271911D01*
X123746469Y-123239994D01*
X123710097Y-123219131D01*
X123677907Y-123157118D01*
X123676129Y-123144751D01*
X123674207Y-123124007D01*
X123665356Y-123028490D01*
X123607005Y-122823411D01*
X123607003Y-122823406D01*
X123607003Y-122823405D01*
X123510983Y-122630571D01*
X123498722Y-122561786D01*
X123525595Y-122497291D01*
X123583071Y-122457564D01*
X123621983Y-122451300D01*
X123977217Y-122451300D01*
X124044256Y-122470985D01*
X124090011Y-122523789D01*
X124099955Y-122592947D01*
X124088217Y-122630571D01*
X123992196Y-122823405D01*
X123992196Y-122823407D01*
X123933844Y-123028489D01*
X123923071Y-123144751D01*
X123897285Y-123209688D01*
X123852730Y-123241604D01*
X123889103Y-123262468D01*
X123921293Y-123324481D01*
X123923070Y-123336847D01*
X123933844Y-123453110D01*
X123987275Y-123640899D01*
X123992196Y-123658192D01*
X123992196Y-123658194D01*
X124087232Y-123849053D01*
X124202786Y-124002069D01*
X124215728Y-124019207D01*
X124373298Y-124162852D01*
X124554581Y-124275098D01*
X124753402Y-124352121D01*
X124962990Y-124391300D01*
X124962992Y-124391300D01*
X125176208Y-124391300D01*
X125176210Y-124391300D01*
X125385798Y-124352121D01*
X125584619Y-124275098D01*
X125765902Y-124162852D01*
X125923472Y-124019207D01*
X126051966Y-123849055D01*
X126067927Y-123817000D01*
X126147003Y-123658194D01*
X126147003Y-123658193D01*
X126147005Y-123658189D01*
X126205356Y-123453110D01*
X126216129Y-123336847D01*
X126241915Y-123271911D01*
X126286469Y-123239994D01*
X126250097Y-123219131D01*
X126217907Y-123157118D01*
X126216129Y-123144751D01*
X126214207Y-123124007D01*
X126205356Y-123028490D01*
X126147005Y-122823411D01*
X126147003Y-122823406D01*
X126147003Y-122823405D01*
X126050983Y-122630571D01*
X126038722Y-122561786D01*
X126065595Y-122497291D01*
X126123071Y-122457564D01*
X126161983Y-122451300D01*
X126517217Y-122451300D01*
X126584256Y-122470985D01*
X126630011Y-122523789D01*
X126639955Y-122592947D01*
X126628217Y-122630571D01*
X126532196Y-122823405D01*
X126532196Y-122823407D01*
X126473844Y-123028489D01*
X126463071Y-123144751D01*
X126437285Y-123209688D01*
X126392730Y-123241604D01*
X126429103Y-123262468D01*
X126461293Y-123324481D01*
X126463070Y-123336847D01*
X126473844Y-123453110D01*
X126527275Y-123640899D01*
X126532196Y-123658192D01*
X126532196Y-123658194D01*
X126627232Y-123849053D01*
X126742786Y-124002069D01*
X126755728Y-124019207D01*
X126913298Y-124162852D01*
X127094581Y-124275098D01*
X127293402Y-124352121D01*
X127502990Y-124391300D01*
X127502992Y-124391300D01*
X127716208Y-124391300D01*
X127716210Y-124391300D01*
X127925798Y-124352121D01*
X128124619Y-124275098D01*
X128305902Y-124162852D01*
X128463472Y-124019207D01*
X128591966Y-123849055D01*
X128607927Y-123817000D01*
X128687003Y-123658194D01*
X128687003Y-123658193D01*
X128687005Y-123658189D01*
X128745356Y-123453110D01*
X128765029Y-123240800D01*
X128745356Y-123028490D01*
X128687005Y-122823411D01*
X128687003Y-122823406D01*
X128687003Y-122823405D01*
X128590983Y-122630571D01*
X128578722Y-122561786D01*
X128605595Y-122497291D01*
X128663071Y-122457564D01*
X128701983Y-122451300D01*
X130162671Y-122451300D01*
X130229710Y-122470985D01*
X130275465Y-122523789D01*
X130285409Y-122592947D01*
X130261047Y-122650786D01*
X130225464Y-122697157D01*
X130164956Y-122843237D01*
X130164956Y-122843238D01*
X130143855Y-123003513D01*
X130115588Y-123067409D01*
X130108597Y-123075008D01*
X129141930Y-124041675D01*
X129080607Y-124075160D01*
X129070436Y-124076933D01*
X128981289Y-124088670D01*
X128847377Y-124144137D01*
X128732379Y-124232379D01*
X128644137Y-124347377D01*
X128588671Y-124481287D01*
X128588670Y-124481291D01*
X128569750Y-124624999D01*
X128569750Y-124625000D01*
X128588670Y-124768708D01*
X128588671Y-124768712D01*
X128644137Y-124902622D01*
X128644138Y-124902624D01*
X128644139Y-124902625D01*
X128732379Y-125017621D01*
X128847375Y-125105861D01*
X128981291Y-125161330D01*
X129108280Y-125178048D01*
X129124999Y-125180250D01*
X129125000Y-125180250D01*
X129125001Y-125180250D01*
X129139977Y-125178278D01*
X129268709Y-125161330D01*
X129402625Y-125105861D01*
X129517621Y-125017621D01*
X129605861Y-124902625D01*
X129661330Y-124768709D01*
X129673066Y-124679562D01*
X129701331Y-124615668D01*
X129708311Y-124608080D01*
X130674991Y-123641400D01*
X130736312Y-123607917D01*
X130746485Y-123606144D01*
X130749997Y-123605681D01*
X130750000Y-123605682D01*
X130906762Y-123585044D01*
X131052841Y-123524536D01*
X131178282Y-123428282D01*
X131274536Y-123302841D01*
X131335044Y-123156762D01*
X131354302Y-123010485D01*
X131355682Y-123000001D01*
X131355682Y-122999998D01*
X131335044Y-122843239D01*
X131335044Y-122843238D01*
X131274536Y-122697159D01*
X131274535Y-122697158D01*
X131274535Y-122697157D01*
X131238953Y-122650786D01*
X131213759Y-122585617D01*
X131227797Y-122517172D01*
X131276611Y-122467183D01*
X131337329Y-122451300D01*
X138920525Y-122451300D01*
X138987564Y-122470985D01*
X139033319Y-122523789D01*
X139043883Y-122587903D01*
X139035800Y-122667013D01*
X139035800Y-123067000D01*
X139952788Y-123067000D01*
X139919875Y-123124007D01*
X139885800Y-123251174D01*
X139885800Y-123382826D01*
X139919875Y-123509993D01*
X139952788Y-123567000D01*
X139035801Y-123567000D01*
X139035801Y-123966986D01*
X139046294Y-124069697D01*
X139101441Y-124236119D01*
X139101443Y-124236124D01*
X139193484Y-124385345D01*
X139317454Y-124509315D01*
X139466675Y-124601356D01*
X139466680Y-124601358D01*
X139633102Y-124656505D01*
X139633109Y-124656506D01*
X139735819Y-124666999D01*
X140135799Y-124666999D01*
X140135800Y-124666998D01*
X140135800Y-123750012D01*
X140192807Y-123782925D01*
X140319974Y-123817000D01*
X140451626Y-123817000D01*
X140578793Y-123782925D01*
X140635800Y-123750012D01*
X140635800Y-124666999D01*
X141035772Y-124666999D01*
X141035786Y-124666998D01*
X141138497Y-124656505D01*
X141304919Y-124601358D01*
X141304924Y-124601356D01*
X141454145Y-124509315D01*
X141578115Y-124385345D01*
X141670156Y-124236124D01*
X141670158Y-124236119D01*
X141725305Y-124069697D01*
X141725306Y-124069689D01*
X141732215Y-124002069D01*
X141758611Y-123937377D01*
X141815792Y-123897225D01*
X141885603Y-123894362D01*
X141945880Y-123929696D01*
X141954524Y-123939940D01*
X142001442Y-124002069D01*
X142052512Y-124069697D01*
X142071928Y-124095407D01*
X142229498Y-124239052D01*
X142410781Y-124351298D01*
X142609602Y-124428321D01*
X142819190Y-124467500D01*
X142819192Y-124467500D01*
X143032408Y-124467500D01*
X143032410Y-124467500D01*
X143241998Y-124428321D01*
X143440819Y-124351298D01*
X143622102Y-124239052D01*
X143779672Y-124095407D01*
X143908166Y-123925255D01*
X143940073Y-123861177D01*
X144003203Y-123734394D01*
X144003203Y-123734393D01*
X144003205Y-123734389D01*
X144061556Y-123529310D01*
X144072329Y-123413047D01*
X144098115Y-123348111D01*
X144142669Y-123316194D01*
X144106297Y-123295331D01*
X144074107Y-123233318D01*
X144072329Y-123220951D01*
X144071285Y-123209688D01*
X144061556Y-123104690D01*
X144003205Y-122899611D01*
X144003203Y-122899606D01*
X144003203Y-122899605D01*
X143907183Y-122706771D01*
X143894922Y-122637986D01*
X143921795Y-122573491D01*
X143979271Y-122533764D01*
X144018183Y-122527500D01*
X144373417Y-122527500D01*
X144440456Y-122547185D01*
X144486211Y-122599989D01*
X144496155Y-122669147D01*
X144484417Y-122706771D01*
X144388396Y-122899605D01*
X144388396Y-122899607D01*
X144330044Y-123104689D01*
X144319271Y-123220951D01*
X144293485Y-123285888D01*
X144248930Y-123317804D01*
X144285303Y-123338668D01*
X144317493Y-123400681D01*
X144319270Y-123413047D01*
X144330044Y-123529310D01*
X144383475Y-123717099D01*
X144388396Y-123734392D01*
X144388396Y-123734394D01*
X144483432Y-123925253D01*
X144593828Y-124071439D01*
X144611928Y-124095407D01*
X144769498Y-124239052D01*
X144950781Y-124351298D01*
X145149602Y-124428321D01*
X145359190Y-124467500D01*
X145359192Y-124467500D01*
X145572408Y-124467500D01*
X145572410Y-124467500D01*
X145781998Y-124428321D01*
X145980819Y-124351298D01*
X146162102Y-124239052D01*
X146319672Y-124095407D01*
X146448166Y-123925255D01*
X146480073Y-123861177D01*
X146543203Y-123734394D01*
X146543203Y-123734393D01*
X146543205Y-123734389D01*
X146601556Y-123529310D01*
X146612329Y-123413047D01*
X146638115Y-123348111D01*
X146682669Y-123316194D01*
X146646297Y-123295331D01*
X146614107Y-123233318D01*
X146612329Y-123220951D01*
X146611285Y-123209688D01*
X146601556Y-123104690D01*
X146543205Y-122899611D01*
X146543203Y-122899606D01*
X146543203Y-122899605D01*
X146447183Y-122706771D01*
X146434922Y-122637986D01*
X146461795Y-122573491D01*
X146519271Y-122533764D01*
X146558183Y-122527500D01*
X146913417Y-122527500D01*
X146980456Y-122547185D01*
X147026211Y-122599989D01*
X147036155Y-122669147D01*
X147024417Y-122706771D01*
X146928396Y-122899605D01*
X146928396Y-122899607D01*
X146870044Y-123104689D01*
X146859271Y-123220951D01*
X146833485Y-123285888D01*
X146788930Y-123317804D01*
X146825303Y-123338668D01*
X146857493Y-123400681D01*
X146859270Y-123413047D01*
X146870044Y-123529310D01*
X146923475Y-123717099D01*
X146928396Y-123734392D01*
X146928396Y-123734394D01*
X147023432Y-123925253D01*
X147133828Y-124071439D01*
X147151928Y-124095407D01*
X147309498Y-124239052D01*
X147490781Y-124351298D01*
X147689602Y-124428321D01*
X147899190Y-124467500D01*
X147899192Y-124467500D01*
X148112408Y-124467500D01*
X148112410Y-124467500D01*
X148321998Y-124428321D01*
X148520819Y-124351298D01*
X148702102Y-124239052D01*
X148859672Y-124095407D01*
X148988166Y-123925255D01*
X149020073Y-123861177D01*
X149083203Y-123734394D01*
X149083203Y-123734393D01*
X149083205Y-123734389D01*
X149141556Y-123529310D01*
X149161229Y-123317000D01*
X149141556Y-123104690D01*
X149083205Y-122899611D01*
X149083203Y-122899606D01*
X149083203Y-122899605D01*
X148988167Y-122708746D01*
X148929131Y-122630571D01*
X148864511Y-122545001D01*
X148839820Y-122479642D01*
X148854385Y-122411308D01*
X148875782Y-122382598D01*
X152900499Y-118357882D01*
X152966392Y-118243753D01*
X153000500Y-118116460D01*
X153000500Y-117984675D01*
X153000500Y-112756875D01*
X153020185Y-112689836D01*
X153036814Y-112669199D01*
X156638321Y-109067691D01*
X156699642Y-109034208D01*
X156769334Y-109039192D01*
X156825267Y-109081064D01*
X156849684Y-109146528D01*
X156850000Y-109155374D01*
X156850000Y-109325600D01*
X157766988Y-109325600D01*
X157734075Y-109382607D01*
X157700000Y-109509774D01*
X157700000Y-109641426D01*
X157734075Y-109768593D01*
X157766988Y-109825600D01*
X156850001Y-109825600D01*
X156850001Y-110225586D01*
X156860494Y-110328297D01*
X156915641Y-110494719D01*
X156915643Y-110494724D01*
X157007684Y-110643945D01*
X157131654Y-110767915D01*
X157280875Y-110859956D01*
X157280880Y-110859958D01*
X157447302Y-110915105D01*
X157447309Y-110915106D01*
X157550019Y-110925599D01*
X157949999Y-110925599D01*
X157950000Y-110925598D01*
X157950000Y-110008612D01*
X158007007Y-110041525D01*
X158134174Y-110075600D01*
X158265826Y-110075600D01*
X158392993Y-110041525D01*
X158450000Y-110008612D01*
X158450000Y-110925599D01*
X158849972Y-110925599D01*
X158849986Y-110925598D01*
X158952697Y-110915105D01*
X159119119Y-110859958D01*
X159119124Y-110859956D01*
X159268345Y-110767915D01*
X159392315Y-110643945D01*
X159484356Y-110494724D01*
X159484358Y-110494719D01*
X159539505Y-110328297D01*
X159539506Y-110328289D01*
X159546415Y-110260669D01*
X159572811Y-110195977D01*
X159629992Y-110155825D01*
X159699803Y-110152962D01*
X159760080Y-110188296D01*
X159768727Y-110198544D01*
X159866712Y-110328297D01*
X159886128Y-110354007D01*
X160043698Y-110497652D01*
X160224981Y-110609898D01*
X160423802Y-110686921D01*
X160633390Y-110726100D01*
X160633392Y-110726100D01*
X160846608Y-110726100D01*
X160846610Y-110726100D01*
X161056198Y-110686921D01*
X161255019Y-110609898D01*
X161436302Y-110497652D01*
X161593872Y-110354007D01*
X161722366Y-110183855D01*
X161737749Y-110152962D01*
X161817403Y-109992994D01*
X161817403Y-109992993D01*
X161817405Y-109992989D01*
X161875756Y-109787910D01*
X161886529Y-109671647D01*
X161912315Y-109606711D01*
X161956869Y-109574794D01*
X161920497Y-109553931D01*
X161888307Y-109491918D01*
X161886529Y-109479551D01*
X161885849Y-109472213D01*
X161875756Y-109363290D01*
X161817405Y-109158211D01*
X161817403Y-109158206D01*
X161817403Y-109158205D01*
X161722367Y-108967346D01*
X161593872Y-108797193D01*
X161436302Y-108653548D01*
X161255019Y-108541302D01*
X161255017Y-108541301D01*
X161155608Y-108502790D01*
X161056198Y-108464279D01*
X160859385Y-108427488D01*
X160797106Y-108395821D01*
X160761833Y-108335508D01*
X160764767Y-108265700D01*
X160804976Y-108208560D01*
X160859384Y-108183711D01*
X161056198Y-108146921D01*
X161255019Y-108069898D01*
X161436302Y-107957652D01*
X161593872Y-107814007D01*
X161722366Y-107643855D01*
X161722367Y-107643853D01*
X161817403Y-107452994D01*
X161817403Y-107452993D01*
X161817405Y-107452989D01*
X161875756Y-107247910D01*
X161886529Y-107131647D01*
X161912315Y-107066711D01*
X161956869Y-107034794D01*
X161920497Y-107013931D01*
X161888307Y-106951918D01*
X161886529Y-106939551D01*
X161883127Y-106902839D01*
X161875756Y-106823290D01*
X161817405Y-106618211D01*
X161817403Y-106618206D01*
X161817403Y-106618205D01*
X161722367Y-106427346D01*
X161593872Y-106257193D01*
X161558010Y-106224500D01*
X161436302Y-106113548D01*
X161255019Y-106001302D01*
X161255017Y-106001301D01*
X161155608Y-105962790D01*
X161056198Y-105924279D01*
X160846610Y-105885100D01*
X160633390Y-105885100D01*
X160423802Y-105924279D01*
X160423799Y-105924279D01*
X160423799Y-105924280D01*
X160224982Y-106001301D01*
X160224980Y-106001302D01*
X160043699Y-106113547D01*
X159886127Y-106257193D01*
X159757632Y-106427346D01*
X159662596Y-106618205D01*
X159662596Y-106618207D01*
X159604244Y-106823289D01*
X159593471Y-106939551D01*
X159567685Y-107004488D01*
X159523130Y-107036404D01*
X159559503Y-107057268D01*
X159591693Y-107119281D01*
X159593470Y-107131647D01*
X159604244Y-107247910D01*
X159654846Y-107425756D01*
X159662596Y-107452992D01*
X159662596Y-107452994D01*
X159757632Y-107643853D01*
X159842898Y-107756762D01*
X159886128Y-107814007D01*
X160043698Y-107957652D01*
X160224981Y-108069898D01*
X160423802Y-108146921D01*
X160620613Y-108183711D01*
X160682893Y-108215379D01*
X160718166Y-108275692D01*
X160715232Y-108345500D01*
X160675023Y-108402640D01*
X160620613Y-108427488D01*
X160423802Y-108464279D01*
X160423799Y-108464279D01*
X160423799Y-108464280D01*
X160224982Y-108541301D01*
X160224980Y-108541302D01*
X160043699Y-108653547D01*
X159886127Y-108797193D01*
X159768726Y-108952656D01*
X159712616Y-108994292D01*
X159642904Y-108998983D01*
X159581723Y-108965241D01*
X159548496Y-108903777D01*
X159546414Y-108890530D01*
X159539505Y-108822903D01*
X159484358Y-108656480D01*
X159484356Y-108656475D01*
X159392315Y-108507254D01*
X159268345Y-108383284D01*
X159119124Y-108291243D01*
X159119119Y-108291241D01*
X158952697Y-108236094D01*
X158952690Y-108236093D01*
X158880662Y-108228734D01*
X158815971Y-108202337D01*
X158775820Y-108145156D01*
X158772958Y-108075345D01*
X158808292Y-108015068D01*
X158827982Y-107999953D01*
X158896302Y-107957652D01*
X159053872Y-107814007D01*
X159182366Y-107643855D01*
X159182367Y-107643853D01*
X159277403Y-107452994D01*
X159277403Y-107452993D01*
X159277405Y-107452989D01*
X159335756Y-107247910D01*
X159346529Y-107131647D01*
X159372315Y-107066711D01*
X159416869Y-107034794D01*
X159380497Y-107013931D01*
X159348307Y-106951918D01*
X159346529Y-106939551D01*
X159343127Y-106902839D01*
X159335756Y-106823290D01*
X159277405Y-106618211D01*
X159277403Y-106618206D01*
X159277403Y-106618205D01*
X159182367Y-106427346D01*
X159053872Y-106257193D01*
X159018010Y-106224500D01*
X158896302Y-106113548D01*
X158812499Y-106061659D01*
X158759222Y-106028671D01*
X158712587Y-105976643D01*
X158700500Y-105923244D01*
X158700500Y-102764925D01*
X158720185Y-102697886D01*
X158736815Y-102677248D01*
X159312277Y-102101785D01*
X159373598Y-102068302D01*
X159443289Y-102073286D01*
X159499223Y-102115157D01*
X159523640Y-102180622D01*
X159514518Y-102236919D01*
X159491103Y-102293449D01*
X159491102Y-102293450D01*
X159470465Y-102450209D01*
X159470465Y-102450212D01*
X159491102Y-102606971D01*
X159491103Y-102606973D01*
X159545611Y-102738568D01*
X159551611Y-102753052D01*
X159647865Y-102878493D01*
X159773306Y-102974747D01*
X159919385Y-103035255D01*
X159997766Y-103045574D01*
X160076146Y-103055893D01*
X160076147Y-103055893D01*
X160076148Y-103055893D01*
X160128401Y-103049013D01*
X160232909Y-103035255D01*
X160378988Y-102974747D01*
X160504429Y-102878493D01*
X160517227Y-102861813D01*
X160573655Y-102820611D01*
X160615603Y-102813300D01*
X161545545Y-102813300D01*
X161612584Y-102832985D01*
X161633226Y-102849619D01*
X162631181Y-103847573D01*
X162664666Y-103908896D01*
X162667500Y-103935254D01*
X162667500Y-105992592D01*
X162647815Y-106059631D01*
X162608779Y-106098018D01*
X162583699Y-106113546D01*
X162426127Y-106257193D01*
X162297632Y-106427346D01*
X162202596Y-106618205D01*
X162202596Y-106618207D01*
X162144244Y-106823289D01*
X162133471Y-106939551D01*
X162107685Y-107004488D01*
X162063130Y-107036404D01*
X162099503Y-107057268D01*
X162131693Y-107119281D01*
X162133470Y-107131647D01*
X162144244Y-107247910D01*
X162194846Y-107425756D01*
X162202596Y-107452992D01*
X162202596Y-107452994D01*
X162297632Y-107643853D01*
X162382898Y-107756762D01*
X162426128Y-107814007D01*
X162583698Y-107957652D01*
X162764981Y-108069898D01*
X162963802Y-108146921D01*
X163160613Y-108183711D01*
X163222893Y-108215379D01*
X163258166Y-108275692D01*
X163255232Y-108345500D01*
X163215023Y-108402640D01*
X163160613Y-108427488D01*
X162963802Y-108464279D01*
X162963799Y-108464279D01*
X162963799Y-108464280D01*
X162764982Y-108541301D01*
X162764980Y-108541302D01*
X162583699Y-108653547D01*
X162426127Y-108797193D01*
X162297632Y-108967346D01*
X162202596Y-109158205D01*
X162202596Y-109158207D01*
X162144244Y-109363289D01*
X162133471Y-109479551D01*
X162107685Y-109544488D01*
X162063130Y-109576404D01*
X162099503Y-109597268D01*
X162131693Y-109659281D01*
X162133470Y-109671647D01*
X162144244Y-109787910D01*
X162197675Y-109975699D01*
X162202596Y-109992992D01*
X162202596Y-109992994D01*
X162297632Y-110183853D01*
X162426127Y-110354006D01*
X162426128Y-110354007D01*
X162583698Y-110497652D01*
X162764981Y-110609898D01*
X162963802Y-110686921D01*
X163173390Y-110726100D01*
X163173392Y-110726100D01*
X163386608Y-110726100D01*
X163386610Y-110726100D01*
X163596198Y-110686921D01*
X163795019Y-110609898D01*
X163976302Y-110497652D01*
X164133872Y-110354007D01*
X164262366Y-110183855D01*
X164277749Y-110152962D01*
X164357403Y-109992994D01*
X164357403Y-109992993D01*
X164357405Y-109992989D01*
X164415756Y-109787910D01*
X164426529Y-109671647D01*
X164452315Y-109606711D01*
X164496869Y-109574794D01*
X164460497Y-109553931D01*
X164428307Y-109491918D01*
X164426529Y-109479551D01*
X164425849Y-109472213D01*
X164415756Y-109363290D01*
X164357405Y-109158211D01*
X164357403Y-109158206D01*
X164357403Y-109158205D01*
X164262367Y-108967346D01*
X164133872Y-108797193D01*
X163976302Y-108653548D01*
X163795019Y-108541302D01*
X163795017Y-108541301D01*
X163695608Y-108502790D01*
X163596198Y-108464279D01*
X163399385Y-108427488D01*
X163337106Y-108395821D01*
X163301833Y-108335508D01*
X163304767Y-108265700D01*
X163344976Y-108208560D01*
X163399384Y-108183711D01*
X163596198Y-108146921D01*
X163795019Y-108069898D01*
X163976302Y-107957652D01*
X164133872Y-107814007D01*
X164262366Y-107643855D01*
X164262367Y-107643853D01*
X164357403Y-107452994D01*
X164357403Y-107452993D01*
X164357405Y-107452989D01*
X164415756Y-107247910D01*
X164426529Y-107131647D01*
X164452315Y-107066711D01*
X164496869Y-107034794D01*
X164460497Y-107013931D01*
X164428307Y-106951918D01*
X164426529Y-106939551D01*
X164423127Y-106902839D01*
X164415756Y-106823290D01*
X164357405Y-106618211D01*
X164357403Y-106618206D01*
X164357403Y-106618205D01*
X164262367Y-106427346D01*
X164133872Y-106257193D01*
X164098010Y-106224500D01*
X163976302Y-106113548D01*
X163795019Y-106001302D01*
X163795014Y-106001300D01*
X163731366Y-105976643D01*
X163596198Y-105924279D01*
X163596195Y-105924278D01*
X163596190Y-105924277D01*
X163569712Y-105919327D01*
X163507432Y-105887657D01*
X163472160Y-105827344D01*
X163468500Y-105797439D01*
X163468500Y-103780729D01*
X163468501Y-103780716D01*
X163468501Y-103665274D01*
X163463375Y-103646144D01*
X163441207Y-103563413D01*
X163404884Y-103500500D01*
X163388480Y-103472087D01*
X163313913Y-103397520D01*
X163313912Y-103397519D01*
X163309582Y-103393189D01*
X163309571Y-103393179D01*
X162179374Y-102262981D01*
X162145889Y-102201658D01*
X162150873Y-102131966D01*
X162192745Y-102076033D01*
X162258209Y-102051616D01*
X162267055Y-102051300D01*
X163333545Y-102051300D01*
X163400584Y-102070985D01*
X163421226Y-102087619D01*
X165145781Y-103812174D01*
X165179266Y-103873497D01*
X165182100Y-103899855D01*
X165182100Y-106008319D01*
X165162415Y-106075358D01*
X165127770Y-106109429D01*
X165128272Y-106110094D01*
X165123700Y-106113546D01*
X164966127Y-106257193D01*
X164837632Y-106427346D01*
X164742596Y-106618205D01*
X164742596Y-106618207D01*
X164684244Y-106823289D01*
X164673471Y-106939551D01*
X164647685Y-107004488D01*
X164603130Y-107036404D01*
X164639503Y-107057268D01*
X164671693Y-107119281D01*
X164673470Y-107131647D01*
X164684244Y-107247910D01*
X164734846Y-107425756D01*
X164742596Y-107452992D01*
X164742596Y-107452994D01*
X164837632Y-107643853D01*
X164922898Y-107756762D01*
X164966128Y-107814007D01*
X165123698Y-107957652D01*
X165304981Y-108069898D01*
X165503802Y-108146921D01*
X165700613Y-108183711D01*
X165762893Y-108215379D01*
X165798166Y-108275692D01*
X165795232Y-108345500D01*
X165755023Y-108402640D01*
X165700613Y-108427488D01*
X165503802Y-108464279D01*
X165503799Y-108464279D01*
X165503799Y-108464280D01*
X165304982Y-108541301D01*
X165304980Y-108541302D01*
X165123699Y-108653547D01*
X164966127Y-108797193D01*
X164837632Y-108967346D01*
X164742596Y-109158205D01*
X164742596Y-109158207D01*
X164684244Y-109363289D01*
X164673471Y-109479551D01*
X164647685Y-109544488D01*
X164603130Y-109576404D01*
X164639503Y-109597268D01*
X164671693Y-109659281D01*
X164673470Y-109671647D01*
X164684244Y-109787910D01*
X164737675Y-109975699D01*
X164742596Y-109992992D01*
X164742596Y-109992994D01*
X164837632Y-110183853D01*
X164966127Y-110354006D01*
X164966128Y-110354007D01*
X165123698Y-110497652D01*
X165304981Y-110609898D01*
X165503802Y-110686921D01*
X165713390Y-110726100D01*
X165713392Y-110726100D01*
X165926608Y-110726100D01*
X165926610Y-110726100D01*
X166136198Y-110686921D01*
X166335019Y-110609898D01*
X166516302Y-110497652D01*
X166673872Y-110354007D01*
X166802366Y-110183855D01*
X166817749Y-110152962D01*
X166897403Y-109992994D01*
X166897403Y-109992993D01*
X166897405Y-109992989D01*
X166955756Y-109787910D01*
X166975429Y-109575600D01*
X166955756Y-109363290D01*
X166897405Y-109158211D01*
X166897403Y-109158206D01*
X166897403Y-109158205D01*
X166802367Y-108967346D01*
X166673872Y-108797193D01*
X166516302Y-108653548D01*
X166335019Y-108541302D01*
X166335017Y-108541301D01*
X166235608Y-108502790D01*
X166136198Y-108464279D01*
X165939385Y-108427488D01*
X165877106Y-108395821D01*
X165841833Y-108335508D01*
X165844767Y-108265700D01*
X165884976Y-108208560D01*
X165939384Y-108183711D01*
X166136198Y-108146921D01*
X166335019Y-108069898D01*
X166516302Y-107957652D01*
X166673872Y-107814007D01*
X166802366Y-107643855D01*
X166802367Y-107643853D01*
X166897403Y-107452994D01*
X166897403Y-107452993D01*
X166897405Y-107452989D01*
X166955756Y-107247910D01*
X166975429Y-107035600D01*
X166955756Y-106823290D01*
X166897405Y-106618211D01*
X166897403Y-106618206D01*
X166897403Y-106618205D01*
X166802367Y-106427346D01*
X166673872Y-106257193D01*
X166638010Y-106224500D01*
X166516302Y-106113548D01*
X166335019Y-106001302D01*
X166335017Y-106001301D01*
X166136199Y-105924279D01*
X166136193Y-105924277D01*
X166084313Y-105914579D01*
X166022033Y-105882911D01*
X165986761Y-105822598D01*
X165983100Y-105792691D01*
X165983100Y-103629875D01*
X165983100Y-103629873D01*
X165955807Y-103528013D01*
X165955807Y-103528012D01*
X165903080Y-103436687D01*
X163919168Y-101452775D01*
X163885683Y-101391452D01*
X163890667Y-101321760D01*
X163919168Y-101277413D01*
X164492895Y-100703686D01*
X167505304Y-97691274D01*
X167505309Y-97691271D01*
X167515512Y-97681067D01*
X167515514Y-97681067D01*
X167608700Y-97587881D01*
X167674592Y-97473753D01*
X167679969Y-97453686D01*
X167708700Y-97346460D01*
X167708700Y-97214675D01*
X167708700Y-88392308D01*
X167674592Y-88265014D01*
X167608700Y-88150886D01*
X167515514Y-88057700D01*
X165478161Y-86020347D01*
X165444676Y-85959024D01*
X165449660Y-85889332D01*
X165491532Y-85833399D01*
X165556996Y-85808982D01*
X165588622Y-85810776D01*
X165713390Y-85834100D01*
X165713392Y-85834100D01*
X165926608Y-85834100D01*
X165926610Y-85834100D01*
X166136198Y-85794921D01*
X166335019Y-85717898D01*
X166516302Y-85605652D01*
X166673872Y-85462007D01*
X166802366Y-85291855D01*
X166865301Y-85165463D01*
X166897403Y-85100994D01*
X166897403Y-85100993D01*
X166897405Y-85100989D01*
X166955756Y-84895910D01*
X166975429Y-84683600D01*
X166968872Y-84612848D01*
X166982286Y-84544282D01*
X167004659Y-84513731D01*
X167235703Y-84282688D01*
X167235708Y-84282684D01*
X167245911Y-84272480D01*
X167245913Y-84272480D01*
X167320480Y-84197913D01*
X167373207Y-84106587D01*
X167377074Y-84092154D01*
X167387640Y-84052726D01*
X167396460Y-84019807D01*
X167400501Y-84004727D01*
X167400501Y-83899273D01*
X167400501Y-83891678D01*
X167400500Y-83891660D01*
X167400500Y-80647275D01*
X167400500Y-80647273D01*
X167373207Y-80545413D01*
X167320480Y-80454087D01*
X167245913Y-80379520D01*
X165145913Y-78279520D01*
X165100250Y-78253156D01*
X165054589Y-78226793D01*
X165003657Y-78213146D01*
X164952727Y-78199500D01*
X164952726Y-78199500D01*
X156660339Y-78199500D01*
X156660323Y-78199499D01*
X156652727Y-78199499D01*
X156547273Y-78199499D01*
X156479366Y-78217695D01*
X156445412Y-78226793D01*
X156354084Y-78279522D01*
X153485626Y-81147981D01*
X153424303Y-81181466D01*
X153397945Y-81184300D01*
X145755435Y-81184300D01*
X145688396Y-81164615D01*
X145642641Y-81111811D01*
X145632697Y-81042653D01*
X145653860Y-80989176D01*
X145725000Y-80887578D01*
X145824829Y-80673492D01*
X145824832Y-80673486D01*
X145882036Y-80460000D01*
X144984412Y-80460000D01*
X145017325Y-80402993D01*
X145051400Y-80275826D01*
X145051400Y-80144174D01*
X145017325Y-80017007D01*
X144984412Y-79960000D01*
X145882036Y-79960000D01*
X145882035Y-79959999D01*
X145824832Y-79746513D01*
X145824829Y-79746507D01*
X145725000Y-79532422D01*
X145724999Y-79532420D01*
X145589513Y-79338926D01*
X145589508Y-79338920D01*
X145422482Y-79171894D01*
X145228978Y-79036399D01*
X145014892Y-78936570D01*
X145014886Y-78936567D01*
X144801400Y-78879364D01*
X144801400Y-79776988D01*
X144744393Y-79744075D01*
X144617226Y-79710000D01*
X144485574Y-79710000D01*
X144358407Y-79744075D01*
X144301400Y-79776988D01*
X144301400Y-78879364D01*
X144301399Y-78879364D01*
X144087913Y-78936567D01*
X144087907Y-78936570D01*
X143873822Y-79036399D01*
X143873820Y-79036400D01*
X143680326Y-79171886D01*
X143680320Y-79171891D01*
X143513291Y-79338920D01*
X143513286Y-79338926D01*
X143377800Y-79532420D01*
X143377799Y-79532422D01*
X143284105Y-79733348D01*
X143237932Y-79785787D01*
X143170739Y-79804939D01*
X143103857Y-79784723D01*
X143060724Y-79736216D01*
X142993766Y-79601745D01*
X142865272Y-79431593D01*
X142707702Y-79287948D01*
X142526419Y-79175702D01*
X142526417Y-79175701D01*
X142427008Y-79137190D01*
X142327598Y-79098679D01*
X142118010Y-79059500D01*
X141904790Y-79059500D01*
X141695202Y-79098679D01*
X141695199Y-79098679D01*
X141695199Y-79098680D01*
X141496382Y-79175701D01*
X141496380Y-79175702D01*
X141315099Y-79287947D01*
X141157527Y-79431593D01*
X141029032Y-79601746D01*
X140933996Y-79792605D01*
X140933996Y-79792607D01*
X140875644Y-79997689D01*
X140864871Y-80113951D01*
X140839085Y-80178888D01*
X140794530Y-80210804D01*
X140830903Y-80231668D01*
X140863093Y-80293681D01*
X140864870Y-80306047D01*
X140875644Y-80422310D01*
X140929075Y-80610099D01*
X140933996Y-80627392D01*
X140933996Y-80627394D01*
X141029032Y-80818253D01*
X141154277Y-80984102D01*
X141157528Y-80988407D01*
X141315098Y-81132052D01*
X141496381Y-81244298D01*
X141695202Y-81321321D01*
X141892013Y-81358111D01*
X141954293Y-81389779D01*
X141989566Y-81450092D01*
X141986632Y-81519900D01*
X141946423Y-81577040D01*
X141892013Y-81601888D01*
X141695202Y-81638679D01*
X141695199Y-81638679D01*
X141695199Y-81638680D01*
X141496382Y-81715701D01*
X141496380Y-81715702D01*
X141315099Y-81827947D01*
X141157527Y-81971593D01*
X141029032Y-82141746D01*
X140933996Y-82332605D01*
X140933996Y-82332607D01*
X140875644Y-82537689D01*
X140869370Y-82605394D01*
X140843583Y-82670331D01*
X140786783Y-82711018D01*
X140717002Y-82714538D01*
X140656395Y-82679772D01*
X140624206Y-82617759D01*
X140621899Y-82593952D01*
X140621899Y-81855143D01*
X140621899Y-81855136D01*
X140621897Y-81855117D01*
X140618986Y-81830012D01*
X140618985Y-81830010D01*
X140618985Y-81830009D01*
X140573606Y-81727235D01*
X140494165Y-81647794D01*
X140473524Y-81638680D01*
X140391392Y-81602415D01*
X140366268Y-81599500D01*
X139637643Y-81599500D01*
X139570604Y-81579815D01*
X139524849Y-81527011D01*
X139514905Y-81457853D01*
X139543930Y-81394297D01*
X139602708Y-81356523D01*
X139614841Y-81353614D01*
X139787598Y-81321321D01*
X139986419Y-81244298D01*
X140167702Y-81132052D01*
X140325272Y-80988407D01*
X140453766Y-80818255D01*
X140477702Y-80770185D01*
X140548803Y-80627394D01*
X140548803Y-80627393D01*
X140548805Y-80627389D01*
X140607156Y-80422310D01*
X140617929Y-80306047D01*
X140643715Y-80241111D01*
X140688269Y-80209194D01*
X140651897Y-80188331D01*
X140619707Y-80126318D01*
X140617929Y-80113951D01*
X140617249Y-80106613D01*
X140607156Y-79997690D01*
X140548805Y-79792611D01*
X140548803Y-79792606D01*
X140548803Y-79792605D01*
X140453767Y-79601746D01*
X140325272Y-79431593D01*
X140167702Y-79287948D01*
X139986419Y-79175702D01*
X139986417Y-79175701D01*
X139887008Y-79137190D01*
X139787598Y-79098679D01*
X139578010Y-79059500D01*
X139364790Y-79059500D01*
X139155202Y-79098679D01*
X139155199Y-79098679D01*
X139155199Y-79098680D01*
X138956382Y-79175701D01*
X138956380Y-79175702D01*
X138775099Y-79287947D01*
X138617527Y-79431593D01*
X138489032Y-79601746D01*
X138393996Y-79792605D01*
X138393996Y-79792607D01*
X138335644Y-79997689D01*
X138322071Y-80144174D01*
X138315971Y-80210000D01*
X138335644Y-80422310D01*
X138389075Y-80610099D01*
X138393996Y-80627392D01*
X138393996Y-80627394D01*
X138489032Y-80818253D01*
X138614277Y-80984102D01*
X138617528Y-80988407D01*
X138775098Y-81132052D01*
X138956381Y-81244298D01*
X139155202Y-81321321D01*
X139327944Y-81353612D01*
X139390223Y-81385279D01*
X139425496Y-81445591D01*
X139422562Y-81515400D01*
X139382353Y-81572540D01*
X139317635Y-81598871D01*
X139305157Y-81599500D01*
X138576543Y-81599500D01*
X138576517Y-81599502D01*
X138551412Y-81602413D01*
X138551408Y-81602415D01*
X138448635Y-81647793D01*
X138369194Y-81727234D01*
X138323815Y-81830006D01*
X138323815Y-81830008D01*
X138320900Y-81855131D01*
X138320900Y-83644856D01*
X138320902Y-83644882D01*
X138323813Y-83669987D01*
X138323815Y-83669991D01*
X138369193Y-83772764D01*
X138369194Y-83772765D01*
X138448635Y-83852206D01*
X138551409Y-83897585D01*
X138576535Y-83900500D01*
X139048216Y-83900499D01*
X139115254Y-83920183D01*
X139161009Y-83972987D01*
X139170953Y-84042146D01*
X139141928Y-84105702D01*
X139135896Y-84112180D01*
X136429522Y-86818555D01*
X136429518Y-86818561D01*
X136376792Y-86909883D01*
X136376793Y-86909884D01*
X136349500Y-87011744D01*
X136349500Y-90966055D01*
X136376793Y-91067918D01*
X136403156Y-91113579D01*
X136429520Y-91159242D01*
X136429522Y-91159244D01*
X137826714Y-92556436D01*
X137860199Y-92617759D01*
X137861972Y-92627931D01*
X137871607Y-92701119D01*
X137932115Y-92847197D01*
X137932116Y-92847199D01*
X138028370Y-92972640D01*
X138028372Y-92972641D01*
X138030528Y-92975451D01*
X138055722Y-93040621D01*
X138056152Y-93050938D01*
X138056152Y-94526093D01*
X138036467Y-94593132D01*
X138019833Y-94613774D01*
X136356922Y-96276684D01*
X136356918Y-96276690D01*
X136304192Y-96368012D01*
X136304193Y-96368013D01*
X136276900Y-96469873D01*
X136276900Y-103793419D01*
X136257215Y-103860458D01*
X136251276Y-103868905D01*
X136152864Y-103997157D01*
X136092356Y-104143237D01*
X136092355Y-104143239D01*
X136071718Y-104299998D01*
X136071718Y-104300001D01*
X136092355Y-104456760D01*
X136092356Y-104456762D01*
X136152864Y-104602841D01*
X136249118Y-104728282D01*
X136374559Y-104824536D01*
X136520638Y-104885044D01*
X136599019Y-104895363D01*
X136677399Y-104905682D01*
X136677400Y-104905682D01*
X136677401Y-104905682D01*
X136716590Y-104900522D01*
X136834162Y-104885044D01*
X136892850Y-104860734D01*
X136962316Y-104853266D01*
X137024795Y-104884540D01*
X137060448Y-104944629D01*
X137064300Y-104975296D01*
X137064300Y-115606745D01*
X137044615Y-115673784D01*
X137027981Y-115694426D01*
X135938226Y-116784181D01*
X135876903Y-116817666D01*
X135850545Y-116820500D01*
X128506177Y-116820500D01*
X128439138Y-116800815D01*
X128393383Y-116748011D01*
X128383439Y-116678853D01*
X128412464Y-116615297D01*
X128458723Y-116581939D01*
X128531641Y-116551736D01*
X128657082Y-116455482D01*
X128657083Y-116455479D01*
X128659893Y-116453324D01*
X128725063Y-116428130D01*
X128735380Y-116427700D01*
X130025525Y-116427700D01*
X130025527Y-116427700D01*
X130127388Y-116400407D01*
X130218713Y-116347680D01*
X133103103Y-113463287D01*
X133103108Y-113463284D01*
X133113311Y-113453080D01*
X133113313Y-113453080D01*
X133187880Y-113378513D01*
X133240607Y-113287187D01*
X133267901Y-113185327D01*
X133267901Y-113079873D01*
X133267901Y-113072278D01*
X133267900Y-113072260D01*
X133267900Y-96663329D01*
X133287585Y-96596290D01*
X133316412Y-96564954D01*
X133346482Y-96541882D01*
X133442736Y-96416441D01*
X133503244Y-96270362D01*
X133523882Y-96113600D01*
X133503244Y-95956838D01*
X133442736Y-95810759D01*
X133346482Y-95685318D01*
X133221041Y-95589064D01*
X133191148Y-95576682D01*
X133074962Y-95528556D01*
X133074960Y-95528555D01*
X132918201Y-95507918D01*
X132918199Y-95507918D01*
X132761439Y-95528555D01*
X132761437Y-95528556D01*
X132615360Y-95589063D01*
X132489918Y-95685318D01*
X132393663Y-95810760D01*
X132333156Y-95956837D01*
X132333155Y-95956839D01*
X132312518Y-96113598D01*
X132312518Y-96113601D01*
X132333155Y-96270360D01*
X132333157Y-96270365D01*
X132393661Y-96416436D01*
X132393661Y-96416437D01*
X132393663Y-96416439D01*
X132393664Y-96416441D01*
X132441276Y-96478491D01*
X132466470Y-96543659D01*
X132466900Y-96553976D01*
X132466900Y-102288061D01*
X132447215Y-102355100D01*
X132394411Y-102400855D01*
X132326715Y-102411000D01*
X132200001Y-102394318D01*
X132199999Y-102394318D01*
X132043239Y-102414955D01*
X132043234Y-102414957D01*
X131897163Y-102475461D01*
X131890124Y-102479526D01*
X131889117Y-102477783D01*
X131834068Y-102499069D01*
X131823743Y-102499500D01*
X130934107Y-102499500D01*
X130806812Y-102533608D01*
X130692686Y-102599500D01*
X130692683Y-102599502D01*
X128229005Y-105063181D01*
X128167682Y-105096666D01*
X128141324Y-105099500D01*
X108874500Y-105099500D01*
X108807461Y-105079815D01*
X108761706Y-105027011D01*
X108750500Y-104975500D01*
X108750500Y-100945110D01*
X108750500Y-100945108D01*
X108716392Y-100817814D01*
X108650500Y-100703686D01*
X108557314Y-100610500D01*
X108557313Y-100610499D01*
X108552983Y-100606169D01*
X108552972Y-100606159D01*
X107239462Y-99292648D01*
X107205977Y-99231325D01*
X107204861Y-99224923D01*
X107204544Y-99223743D01*
X107204544Y-99223738D01*
X107144036Y-99077659D01*
X107047782Y-98952218D01*
X106922341Y-98855964D01*
X106922339Y-98855963D01*
X106776258Y-98795454D01*
X106768411Y-98793352D01*
X106768930Y-98791411D01*
X106714943Y-98767523D01*
X106707352Y-98760538D01*
X105536819Y-97590005D01*
X105503334Y-97528682D01*
X105500500Y-97502324D01*
X105500500Y-97399663D01*
X105520185Y-97332624D01*
X105572989Y-97286869D01*
X105642147Y-97276925D01*
X105705703Y-97305950D01*
X105739062Y-97352213D01*
X105743809Y-97363674D01*
X105743814Y-97363684D01*
X105853248Y-97527462D01*
X105853251Y-97527466D01*
X105992533Y-97666748D01*
X105992537Y-97666751D01*
X106156315Y-97776185D01*
X106156328Y-97776192D01*
X106338306Y-97851569D01*
X106338318Y-97851572D01*
X106531504Y-97889999D01*
X106531508Y-97890000D01*
X106930000Y-97890000D01*
X106930000Y-97190000D01*
X107430000Y-97190000D01*
X107430000Y-97890000D01*
X107828492Y-97890000D01*
X107828495Y-97889999D01*
X108021681Y-97851572D01*
X108021693Y-97851569D01*
X108203671Y-97776192D01*
X108203684Y-97776185D01*
X108367462Y-97666751D01*
X108367466Y-97666748D01*
X108506748Y-97527466D01*
X108506751Y-97527462D01*
X108616185Y-97363684D01*
X108616192Y-97363671D01*
X108691569Y-97181692D01*
X108691569Y-97181690D01*
X108699862Y-97140000D01*
X107896988Y-97140000D01*
X107914205Y-97130060D01*
X107970060Y-97074205D01*
X108009556Y-97005796D01*
X108030000Y-96929496D01*
X108030000Y-96850504D01*
X108009556Y-96774204D01*
X107970060Y-96705795D01*
X107914205Y-96649940D01*
X107896988Y-96640000D01*
X108699862Y-96640000D01*
X108691569Y-96598309D01*
X108691569Y-96598307D01*
X108616192Y-96416328D01*
X108616185Y-96416315D01*
X108506751Y-96252537D01*
X108506748Y-96252533D01*
X108367466Y-96113251D01*
X108367462Y-96113248D01*
X108203684Y-96003814D01*
X108203671Y-96003807D01*
X108021693Y-95928430D01*
X108021681Y-95928427D01*
X107828495Y-95890000D01*
X107430000Y-95890000D01*
X107430000Y-96590000D01*
X106930000Y-96590000D01*
X106930000Y-95933821D01*
X106949685Y-95866782D01*
X106966319Y-95846140D01*
X107001700Y-95810759D01*
X107060495Y-95751964D01*
X107123095Y-95643536D01*
X107155500Y-95522601D01*
X107155500Y-95397399D01*
X107123095Y-95276464D01*
X107060495Y-95168036D01*
X106971964Y-95079505D01*
X106863536Y-95016905D01*
X106863537Y-95016905D01*
X106823224Y-95006103D01*
X106742601Y-94984500D01*
X106617399Y-94984500D01*
X106536775Y-95006103D01*
X106496463Y-95016905D01*
X106388037Y-95079504D01*
X106388034Y-95079506D01*
X106299506Y-95168034D01*
X106299504Y-95168037D01*
X106236905Y-95276463D01*
X106229611Y-95303686D01*
X106204500Y-95397399D01*
X106204500Y-95522601D01*
X106236905Y-95643536D01*
X106261027Y-95685318D01*
X106299504Y-95751962D01*
X106299506Y-95751965D01*
X106304426Y-95756885D01*
X106337911Y-95818208D01*
X106332927Y-95887900D01*
X106291055Y-95943833D01*
X106264198Y-95959127D01*
X106156325Y-96003809D01*
X106156315Y-96003814D01*
X105992537Y-96113248D01*
X105992533Y-96113251D01*
X105853251Y-96252533D01*
X105853248Y-96252537D01*
X105743814Y-96416315D01*
X105743809Y-96416325D01*
X105739061Y-96427789D01*
X105695220Y-96482192D01*
X105628926Y-96504257D01*
X105561226Y-96486978D01*
X105513616Y-96435840D01*
X105500500Y-96380336D01*
X105500500Y-95126257D01*
X105520185Y-95059218D01*
X105523924Y-95053900D01*
X105524532Y-95052845D01*
X105524536Y-95052841D01*
X105585044Y-94906762D01*
X105605682Y-94750000D01*
X105604491Y-94740957D01*
X105585044Y-94593239D01*
X105585044Y-94593238D01*
X105524536Y-94447159D01*
X105524534Y-94447156D01*
X105520472Y-94440119D01*
X105522213Y-94439113D01*
X105500930Y-94384057D01*
X105500500Y-94373742D01*
X105500500Y-90626257D01*
X105520185Y-90559218D01*
X105523924Y-90553900D01*
X105524532Y-90552845D01*
X105524536Y-90552841D01*
X105585044Y-90406762D01*
X105605682Y-90250000D01*
X105585044Y-90093238D01*
X105524536Y-89947159D01*
X105524534Y-89947156D01*
X105520472Y-89940119D01*
X105522213Y-89939113D01*
X105500930Y-89884057D01*
X105500500Y-89873742D01*
X105500500Y-88759663D01*
X105520185Y-88692624D01*
X105572989Y-88646869D01*
X105642147Y-88636925D01*
X105705703Y-88665950D01*
X105739062Y-88712213D01*
X105743809Y-88723674D01*
X105743814Y-88723684D01*
X105853248Y-88887462D01*
X105853251Y-88887466D01*
X105992533Y-89026748D01*
X105992537Y-89026751D01*
X106156315Y-89136185D01*
X106156328Y-89136192D01*
X106264197Y-89180872D01*
X106318601Y-89224712D01*
X106340666Y-89291006D01*
X106323387Y-89358706D01*
X106304430Y-89383110D01*
X106299508Y-89388032D01*
X106299504Y-89388037D01*
X106236905Y-89496463D01*
X106226805Y-89534156D01*
X106204500Y-89617399D01*
X106204500Y-89742601D01*
X106236905Y-89863536D01*
X106299505Y-89971964D01*
X106388036Y-90060495D01*
X106496464Y-90123095D01*
X106617399Y-90155500D01*
X106617401Y-90155500D01*
X106742599Y-90155500D01*
X106742601Y-90155500D01*
X106863536Y-90123095D01*
X106971964Y-90060495D01*
X107060495Y-89971964D01*
X107123095Y-89863536D01*
X107155500Y-89742601D01*
X107155500Y-89617399D01*
X107123095Y-89496464D01*
X107060495Y-89388036D01*
X106971964Y-89299505D01*
X106966319Y-89293860D01*
X106932834Y-89232537D01*
X106930000Y-89206179D01*
X106930000Y-88550000D01*
X107430000Y-88550000D01*
X107430000Y-89250000D01*
X107828492Y-89250000D01*
X107828495Y-89249999D01*
X108021681Y-89211572D01*
X108021693Y-89211569D01*
X108203671Y-89136192D01*
X108203684Y-89136185D01*
X108367462Y-89026751D01*
X108367466Y-89026748D01*
X108506748Y-88887466D01*
X108506751Y-88887462D01*
X108616185Y-88723684D01*
X108616192Y-88723671D01*
X108691569Y-88541692D01*
X108691569Y-88541690D01*
X108699862Y-88500000D01*
X107896988Y-88500000D01*
X107914205Y-88490060D01*
X107970060Y-88434205D01*
X108009556Y-88365796D01*
X108030000Y-88289496D01*
X108030000Y-88210504D01*
X108009556Y-88134204D01*
X107970060Y-88065795D01*
X107914205Y-88009940D01*
X107896988Y-88000000D01*
X108699862Y-88000000D01*
X108691569Y-87958309D01*
X108691569Y-87958307D01*
X108616192Y-87776328D01*
X108616185Y-87776315D01*
X108506751Y-87612537D01*
X108506748Y-87612533D01*
X108367466Y-87473251D01*
X108367462Y-87473248D01*
X108203684Y-87363814D01*
X108203671Y-87363807D01*
X108021693Y-87288430D01*
X108021681Y-87288427D01*
X107828495Y-87250000D01*
X107430000Y-87250000D01*
X107430000Y-87950000D01*
X106930000Y-87950000D01*
X106930000Y-87250000D01*
X106757173Y-87250000D01*
X106690134Y-87230315D01*
X106644379Y-87177511D01*
X106634435Y-87108353D01*
X106663460Y-87044797D01*
X106669471Y-87038340D01*
X107875084Y-85832727D01*
X107936405Y-85799244D01*
X107946561Y-85797474D01*
X108031209Y-85786330D01*
X108165125Y-85730861D01*
X108280121Y-85642621D01*
X108368361Y-85527625D01*
X108423830Y-85393709D01*
X108434972Y-85309077D01*
X108463237Y-85245183D01*
X108470217Y-85237595D01*
X112920995Y-80786819D01*
X112982318Y-80753334D01*
X113008676Y-80750500D01*
X125018118Y-80750500D01*
X125085157Y-80770185D01*
X125124496Y-80814071D01*
X125125615Y-80813379D01*
X125128635Y-80818257D01*
X125253877Y-80984102D01*
X125257128Y-80988407D01*
X125414698Y-81132052D01*
X125595981Y-81244298D01*
X125794802Y-81321321D01*
X125967544Y-81353612D01*
X126029823Y-81385279D01*
X126065096Y-81445591D01*
X126062162Y-81515400D01*
X126021953Y-81572540D01*
X125957235Y-81598871D01*
X125944757Y-81599500D01*
X125216143Y-81599500D01*
X125216117Y-81599502D01*
X125191012Y-81602413D01*
X125191008Y-81602415D01*
X125088235Y-81647793D01*
X125008794Y-81727234D01*
X124963415Y-81830006D01*
X124963415Y-81830008D01*
X124960500Y-81855131D01*
X124960500Y-83644856D01*
X124960502Y-83644882D01*
X124963413Y-83669987D01*
X124963415Y-83669991D01*
X125008793Y-83772764D01*
X125008794Y-83772765D01*
X125088235Y-83852206D01*
X125191009Y-83897585D01*
X125216135Y-83900500D01*
X127005864Y-83900499D01*
X127005879Y-83900497D01*
X127005882Y-83900497D01*
X127030987Y-83897586D01*
X127030988Y-83897585D01*
X127030991Y-83897585D01*
X127133765Y-83852206D01*
X127213206Y-83772765D01*
X127213206Y-83772764D01*
X127221331Y-83764640D01*
X127224237Y-83767546D01*
X127261362Y-83737183D01*
X127330776Y-83729212D01*
X127393480Y-83760034D01*
X127397324Y-83763717D01*
X129565179Y-85931571D01*
X129565189Y-85931582D01*
X129569519Y-85935912D01*
X129569520Y-85935913D01*
X129644087Y-86010480D01*
X129644089Y-86010481D01*
X129644090Y-86010482D01*
X129684765Y-86033965D01*
X129684767Y-86033967D01*
X129684768Y-86033967D01*
X129731762Y-86061100D01*
X129735412Y-86063207D01*
X129837273Y-86090500D01*
X130125620Y-86090500D01*
X130192659Y-86110185D01*
X130201107Y-86116124D01*
X130203916Y-86118279D01*
X130203918Y-86118282D01*
X130329359Y-86214536D01*
X130475438Y-86275044D01*
X130553819Y-86285363D01*
X130632199Y-86295682D01*
X130632200Y-86295682D01*
X130632201Y-86295682D01*
X130684454Y-86288802D01*
X130788962Y-86275044D01*
X130935041Y-86214536D01*
X131060482Y-86118282D01*
X131156736Y-85992841D01*
X131217244Y-85846762D01*
X131237882Y-85690000D01*
X131231644Y-85642621D01*
X131217244Y-85533239D01*
X131217244Y-85533238D01*
X131156736Y-85387159D01*
X131060482Y-85261718D01*
X130935041Y-85165464D01*
X130788962Y-85104956D01*
X130788960Y-85104955D01*
X130632201Y-85084318D01*
X130632199Y-85084318D01*
X130475439Y-85104955D01*
X130475437Y-85104956D01*
X130329360Y-85165463D01*
X130329359Y-85165464D01*
X130203918Y-85261718D01*
X130203916Y-85261720D01*
X130201107Y-85263876D01*
X130135937Y-85289070D01*
X130125620Y-85289500D01*
X130107254Y-85289500D01*
X130040215Y-85269815D01*
X130019573Y-85253181D01*
X128847523Y-84081130D01*
X128814038Y-84019807D01*
X128819022Y-83950115D01*
X128860894Y-83894182D01*
X128912416Y-83871561D01*
X128967198Y-83861321D01*
X129166019Y-83784298D01*
X129347302Y-83672052D01*
X129504872Y-83528407D01*
X129633366Y-83358255D01*
X129650732Y-83323379D01*
X129728403Y-83167394D01*
X129728403Y-83167393D01*
X129728405Y-83167389D01*
X129786756Y-82962310D01*
X129797529Y-82846047D01*
X129823315Y-82781111D01*
X129867869Y-82749194D01*
X129831497Y-82728331D01*
X129799307Y-82666318D01*
X129797529Y-82653951D01*
X129794175Y-82617759D01*
X129786756Y-82537690D01*
X129728405Y-82332611D01*
X129728403Y-82332606D01*
X129728403Y-82332605D01*
X129633367Y-82141746D01*
X129504872Y-81971593D01*
X129377133Y-81855143D01*
X129347302Y-81827948D01*
X129166019Y-81715702D01*
X129166017Y-81715701D01*
X129060115Y-81674675D01*
X128967198Y-81638679D01*
X128770385Y-81601888D01*
X128708106Y-81570221D01*
X128672833Y-81509908D01*
X128675767Y-81440100D01*
X128715976Y-81382960D01*
X128770384Y-81358111D01*
X128967198Y-81321321D01*
X129166019Y-81244298D01*
X129347302Y-81132052D01*
X129504872Y-80988407D01*
X129633366Y-80818255D01*
X129700325Y-80683781D01*
X129747825Y-80632548D01*
X129815488Y-80615126D01*
X129881828Y-80637051D01*
X129923705Y-80686651D01*
X130017399Y-80887578D01*
X130152894Y-81081082D01*
X130319917Y-81248105D01*
X130513421Y-81383600D01*
X130712573Y-81476466D01*
X130765012Y-81522638D01*
X130784164Y-81589832D01*
X130763948Y-81656713D01*
X130710783Y-81702048D01*
X130704968Y-81704472D01*
X130697771Y-81707260D01*
X130675982Y-81715701D01*
X130675980Y-81715702D01*
X130494699Y-81827947D01*
X130337127Y-81971593D01*
X130208632Y-82141746D01*
X130113596Y-82332605D01*
X130113596Y-82332607D01*
X130055244Y-82537689D01*
X130044471Y-82653951D01*
X130018685Y-82718888D01*
X129974130Y-82750804D01*
X130010503Y-82771668D01*
X130042693Y-82833681D01*
X130044470Y-82846047D01*
X130055244Y-82962310D01*
X130103185Y-83130804D01*
X130113596Y-83167392D01*
X130113596Y-83167394D01*
X130208632Y-83358253D01*
X130318561Y-83503821D01*
X130337128Y-83528407D01*
X130494698Y-83672052D01*
X130675981Y-83784298D01*
X130874802Y-83861321D01*
X131084390Y-83900500D01*
X131084392Y-83900500D01*
X131297608Y-83900500D01*
X131297610Y-83900500D01*
X131507198Y-83861321D01*
X131706019Y-83784298D01*
X131887302Y-83672052D01*
X132044872Y-83528407D01*
X132173366Y-83358255D01*
X132190732Y-83323379D01*
X132268403Y-83167394D01*
X132268403Y-83167393D01*
X132268405Y-83167389D01*
X132326756Y-82962310D01*
X132346429Y-82750000D01*
X132326756Y-82537690D01*
X132268405Y-82332611D01*
X132268403Y-82332606D01*
X132268403Y-82332605D01*
X132173367Y-82141746D01*
X132044872Y-81971593D01*
X131917133Y-81855143D01*
X131887302Y-81827948D01*
X131706019Y-81715702D01*
X131706014Y-81715700D01*
X131699129Y-81713032D01*
X131677037Y-81704474D01*
X131621636Y-81661903D01*
X131598045Y-81596136D01*
X131613756Y-81528056D01*
X131663779Y-81479276D01*
X131669426Y-81476466D01*
X131868578Y-81383599D01*
X132062082Y-81248105D01*
X132229105Y-81081082D01*
X132364600Y-80887578D01*
X132464429Y-80673492D01*
X132464432Y-80673486D01*
X132521636Y-80460000D01*
X131624012Y-80460000D01*
X131656925Y-80402993D01*
X131691000Y-80275826D01*
X131691000Y-80144174D01*
X131656925Y-80017007D01*
X131624012Y-79960000D01*
X132521636Y-79960000D01*
X132521635Y-79959999D01*
X132464432Y-79746513D01*
X132464429Y-79746507D01*
X132364600Y-79532422D01*
X132364599Y-79532420D01*
X132229113Y-79338926D01*
X132229108Y-79338920D01*
X132062082Y-79171894D01*
X131868578Y-79036399D01*
X131654492Y-78936570D01*
X131654486Y-78936567D01*
X131441000Y-78879364D01*
X131441000Y-79776988D01*
X131383993Y-79744075D01*
X131256826Y-79710000D01*
X131125174Y-79710000D01*
X130998007Y-79744075D01*
X130941000Y-79776988D01*
X130941000Y-78879364D01*
X130940999Y-78879364D01*
X130727513Y-78936567D01*
X130727507Y-78936570D01*
X130513422Y-79036399D01*
X130513420Y-79036400D01*
X130319926Y-79171886D01*
X130319920Y-79171891D01*
X130152891Y-79338920D01*
X130152886Y-79338926D01*
X130017400Y-79532420D01*
X130017399Y-79532422D01*
X129923705Y-79733348D01*
X129877532Y-79785787D01*
X129810339Y-79804939D01*
X129743457Y-79784723D01*
X129700324Y-79736216D01*
X129633366Y-79601745D01*
X129504872Y-79431593D01*
X129347302Y-79287948D01*
X129166019Y-79175702D01*
X129166017Y-79175701D01*
X129066608Y-79137190D01*
X128967198Y-79098679D01*
X128757610Y-79059500D01*
X128544390Y-79059500D01*
X128334802Y-79098679D01*
X128334799Y-79098679D01*
X128334799Y-79098680D01*
X128135982Y-79175701D01*
X128135980Y-79175702D01*
X127954699Y-79287947D01*
X127797127Y-79431593D01*
X127668632Y-79601746D01*
X127573596Y-79792605D01*
X127573596Y-79792607D01*
X127515244Y-79997689D01*
X127504471Y-80113951D01*
X127478685Y-80178888D01*
X127434130Y-80210804D01*
X127470503Y-80231668D01*
X127502693Y-80293681D01*
X127504470Y-80306047D01*
X127515244Y-80422310D01*
X127568675Y-80610099D01*
X127573596Y-80627392D01*
X127573596Y-80627394D01*
X127668632Y-80818253D01*
X127773331Y-80956895D01*
X127798023Y-81022256D01*
X127790892Y-81055708D01*
X127822159Y-81048516D01*
X127887909Y-81072152D01*
X127898315Y-81080652D01*
X127954698Y-81132052D01*
X128135981Y-81244298D01*
X128334802Y-81321321D01*
X128531613Y-81358111D01*
X128593893Y-81389779D01*
X128629166Y-81450092D01*
X128626232Y-81519900D01*
X128586023Y-81577040D01*
X128531613Y-81601888D01*
X128334802Y-81638679D01*
X128334799Y-81638679D01*
X128334799Y-81638680D01*
X128135982Y-81715701D01*
X128135975Y-81715705D01*
X127989777Y-81806227D01*
X127922417Y-81824782D01*
X127855717Y-81803974D01*
X127810856Y-81750409D01*
X127800500Y-81700800D01*
X127800500Y-81446275D01*
X127800500Y-81446273D01*
X127778775Y-81365193D01*
X127778775Y-81365191D01*
X127773208Y-81344414D01*
X127759875Y-81321321D01*
X127720480Y-81253087D01*
X127720478Y-81253085D01*
X127720477Y-81253083D01*
X127716411Y-81247784D01*
X127691216Y-81182615D01*
X127698276Y-81148189D01*
X127666051Y-81155342D01*
X127600485Y-81131201D01*
X127586696Y-81119303D01*
X127219194Y-80751801D01*
X127185709Y-80690478D01*
X127187609Y-80630185D01*
X127191894Y-80615126D01*
X127246756Y-80422310D01*
X127257529Y-80306047D01*
X127283315Y-80241111D01*
X127327869Y-80209194D01*
X127291497Y-80188331D01*
X127259307Y-80126318D01*
X127257529Y-80113951D01*
X127256849Y-80106613D01*
X127246756Y-79997690D01*
X127188405Y-79792611D01*
X127188403Y-79792606D01*
X127188403Y-79792605D01*
X127093367Y-79601746D01*
X126964872Y-79431593D01*
X126807302Y-79287948D01*
X126626019Y-79175702D01*
X126626017Y-79175701D01*
X126526608Y-79137190D01*
X126427198Y-79098679D01*
X126217610Y-79059500D01*
X126004390Y-79059500D01*
X125794802Y-79098679D01*
X125794799Y-79098679D01*
X125794799Y-79098680D01*
X125595982Y-79175701D01*
X125595980Y-79175702D01*
X125414699Y-79287947D01*
X125257127Y-79431593D01*
X125128635Y-79601742D01*
X125117843Y-79623416D01*
X125089283Y-79680772D01*
X125041782Y-79732008D01*
X124978284Y-79749500D01*
X112684107Y-79749500D01*
X112556812Y-79783608D01*
X112442686Y-79849500D01*
X112442683Y-79849502D01*
X107487003Y-84805182D01*
X107482052Y-84811635D01*
X107481043Y-84810861D01*
X107448361Y-84843543D01*
X107449135Y-84844552D01*
X107442682Y-84849503D01*
X107358586Y-84933600D01*
X107349500Y-84942686D01*
X107349498Y-84942688D01*
X106017142Y-86275044D01*
X104675245Y-87616940D01*
X104675244Y-87616940D01*
X104675245Y-87616941D01*
X104599500Y-87692686D01*
X104533606Y-87806816D01*
X104530773Y-87813657D01*
X104486930Y-87868059D01*
X104420636Y-87890122D01*
X104352937Y-87872841D01*
X104305328Y-87821703D01*
X104301651Y-87813652D01*
X104286189Y-87776322D01*
X104286185Y-87776315D01*
X104176751Y-87612537D01*
X104176748Y-87612533D01*
X104037466Y-87473251D01*
X104037462Y-87473248D01*
X103873684Y-87363814D01*
X103873671Y-87363807D01*
X103691693Y-87288430D01*
X103691681Y-87288427D01*
X103498495Y-87250000D01*
X103250000Y-87250000D01*
X103250000Y-87950000D01*
X102750000Y-87950000D01*
X102750000Y-87250000D01*
X102501504Y-87250000D01*
X102308318Y-87288427D01*
X102308306Y-87288430D01*
X102126328Y-87363807D01*
X102126315Y-87363814D01*
X101962537Y-87473248D01*
X101962533Y-87473251D01*
X101823251Y-87612533D01*
X101823248Y-87612537D01*
X101713814Y-87776315D01*
X101713807Y-87776328D01*
X101638430Y-87958307D01*
X101638430Y-87958309D01*
X101630138Y-88000000D01*
X100782608Y-88000000D01*
X100791207Y-77354800D01*
X100791270Y-77353850D01*
X100791269Y-77346206D01*
X100791271Y-77346202D01*
X100791268Y-77289813D01*
X100792715Y-77270923D01*
X100799976Y-77223836D01*
X100811364Y-77187795D01*
X100828211Y-77153713D01*
X100849926Y-77122783D01*
X100876261Y-77095360D01*
X100906293Y-77072406D01*
X100939663Y-77054195D01*
X100975213Y-77041359D01*
X101017219Y-77033128D01*
X101040990Y-77030816D01*
X172990467Y-76999894D01*
X173009421Y-77001343D01*
G37*
G04 #@! TD.AperFunction*
G04 #@! TD*
M02*
