%TF.GenerationSoftware,KiCad,Pcbnew,8.0.6-8.0.6-0~ubuntu24.04.1*%
%TF.CreationDate,2024-11-11T15:03:02+01:00*%
%TF.ProjectId,PicoMother,5069636f-4d6f-4746-9865-722e6b696361,1*%
%TF.SameCoordinates,Original*%
%TF.FileFunction,Drillmap*%
%TF.FilePolarity,Positive*%
%FSLAX45Y45*%
G04 Gerber Fmt 4.5, Leading zero omitted, Abs format (unit mm)*
G04 Created by KiCad (PCBNEW 8.0.6-8.0.6-0~ubuntu24.04.1) date 2024-11-11 15:03:02*
%MOMM*%
%LPD*%
G01*
G04 APERTURE LIST*
%ADD10C,0.050000*%
%ADD11C,0.200000*%
%ADD12C,0.100000*%
G04 APERTURE END LIST*
D10*
X10029077Y-7728033D02*
G75*
G02*
X10101105Y-7653028I75063J3D01*
G01*
X17375000Y-7721967D02*
X17375000Y-12775000D01*
X10025000Y-12775000D02*
X10029077Y-7728033D01*
X17302972Y-12850000D02*
X10100000Y-12847028D01*
X17375000Y-12775000D02*
G75*
G02*
X17302972Y-12849999I-75060J0D01*
G01*
X10101105Y-7653033D02*
X17300000Y-7649939D01*
X17300000Y-7649939D02*
G75*
G02*
X17375000Y-7721967I0J-75061D01*
G01*
X10100000Y-12847028D02*
G75*
G02*
X10025003Y-12775000I0J75058D01*
G01*
D11*
D12*
X10185000Y-7745000D02*
X10215000Y-7775000D01*
X10215000Y-7745000D02*
X10185000Y-7775000D01*
X10185000Y-8367000D02*
X10215000Y-8397000D01*
X10215000Y-8367000D02*
X10185000Y-8397000D01*
X10185000Y-9860000D02*
X10215000Y-9890000D01*
X10215000Y-9860000D02*
X10185000Y-9890000D01*
X10185000Y-10275000D02*
X10215000Y-10305000D01*
X10215000Y-10275000D02*
X10185000Y-10305000D01*
X10185000Y-11885000D02*
X10215000Y-11915000D01*
X10215000Y-11885000D02*
X10185000Y-11915000D01*
X10185000Y-12285000D02*
X10215000Y-12315000D01*
X10215000Y-12285000D02*
X10185000Y-12315000D01*
X10185000Y-12710000D02*
X10215000Y-12740000D01*
X10215000Y-12710000D02*
X10185000Y-12740000D01*
X10425000Y-10645000D02*
X10455000Y-10675000D01*
X10455000Y-10645000D02*
X10425000Y-10675000D01*
X10425000Y-11025000D02*
X10455000Y-11055000D01*
X10455000Y-11025000D02*
X10425000Y-11055000D01*
X10485000Y-9010000D02*
X10515000Y-9040000D01*
X10515000Y-9010000D02*
X10485000Y-9040000D01*
X10485000Y-9460000D02*
X10515000Y-9490000D01*
X10515000Y-9460000D02*
X10485000Y-9490000D01*
X10510000Y-10835000D02*
X10540000Y-10865000D01*
X10540000Y-10835000D02*
X10510000Y-10865000D01*
X10526000Y-10526000D02*
X10556000Y-10556000D01*
X10556000Y-10526000D02*
X10526000Y-10556000D01*
X10526000Y-11415000D02*
X10556000Y-11445000D01*
X10556000Y-11415000D02*
X10526000Y-11445000D01*
X10625000Y-11045000D02*
X10655000Y-11075000D01*
X10655000Y-11045000D02*
X10625000Y-11075000D01*
X10646950Y-9923050D02*
X10676950Y-9953050D01*
X10676950Y-9923050D02*
X10646950Y-9953050D01*
X10773750Y-8510000D02*
X10803750Y-8540000D01*
X10803750Y-8510000D02*
X10773750Y-8540000D01*
X10891760Y-11059400D02*
X10921760Y-11089400D01*
X10921760Y-11059400D02*
X10891760Y-11089400D01*
X10960000Y-7745000D02*
X10990000Y-7775000D01*
X10990000Y-7745000D02*
X10960000Y-7775000D01*
X10960000Y-8710000D02*
X10990000Y-8740000D01*
X10990000Y-8710000D02*
X10960000Y-8740000D01*
X10960000Y-10275000D02*
X10990000Y-10305000D01*
X10990000Y-10275000D02*
X10960000Y-10305000D01*
X10960000Y-11885000D02*
X10990000Y-11915000D01*
X10990000Y-11885000D02*
X10960000Y-11915000D01*
X10960000Y-12285000D02*
X10990000Y-12315000D01*
X10990000Y-12285000D02*
X10960000Y-12315000D01*
X10960000Y-12710000D02*
X10990000Y-12740000D01*
X10990000Y-12710000D02*
X10960000Y-12740000D01*
X10985000Y-11265000D02*
X11015000Y-11295000D01*
X11015000Y-11265000D02*
X10985000Y-11295000D01*
X11034000Y-10780000D02*
X11064000Y-10810000D01*
X11064000Y-10780000D02*
X11034000Y-10810000D01*
X11069560Y-11056860D02*
X11099560Y-11086860D01*
X11099560Y-11056860D02*
X11069560Y-11086860D01*
X11235000Y-8910000D02*
X11265000Y-8940000D01*
X11265000Y-8910000D02*
X11235000Y-8940000D01*
X11260000Y-9635000D02*
X11290000Y-9665000D01*
X11290000Y-9635000D02*
X11260000Y-9665000D01*
X11495000Y-11465000D02*
X11525000Y-11495000D01*
X11525000Y-11465000D02*
X11495000Y-11495000D01*
X11542000Y-10780000D02*
X11572000Y-10810000D01*
X11572000Y-10780000D02*
X11542000Y-10810000D01*
X11615000Y-7745000D02*
X11645000Y-7775000D01*
X11645000Y-7745000D02*
X11615000Y-7775000D01*
X11615000Y-8405000D02*
X11645000Y-8435000D01*
X11645000Y-8405000D02*
X11615000Y-8435000D01*
X11660000Y-10090000D02*
X11690000Y-10120000D01*
X11690000Y-10090000D02*
X11660000Y-10120000D01*
X11810000Y-12185000D02*
X11840000Y-12215000D01*
X11840000Y-12185000D02*
X11810000Y-12215000D01*
X11915000Y-10041250D02*
X11945000Y-10071250D01*
X11945000Y-10041250D02*
X11915000Y-10071250D01*
X11932040Y-11404840D02*
X11962040Y-11434840D01*
X11962040Y-11404840D02*
X11932040Y-11434840D01*
X12110000Y-9485000D02*
X12140000Y-9515000D01*
X12140000Y-9485000D02*
X12110000Y-9515000D01*
X12177000Y-10907000D02*
X12207000Y-10937000D01*
X12207000Y-10907000D02*
X12177000Y-10937000D01*
X12205000Y-10261250D02*
X12235000Y-10291250D01*
X12235000Y-10261250D02*
X12205000Y-10291250D01*
X12304000Y-9002000D02*
X12334000Y-9032000D01*
X12334000Y-9002000D02*
X12304000Y-9032000D01*
X12304000Y-9383000D02*
X12334000Y-9413000D01*
X12334000Y-9383000D02*
X12304000Y-9413000D01*
X12310000Y-8405000D02*
X12340000Y-8435000D01*
X12340000Y-8405000D02*
X12310000Y-8435000D01*
X12315000Y-7745000D02*
X12345000Y-7775000D01*
X12345000Y-7745000D02*
X12315000Y-7775000D01*
X12427040Y-10769840D02*
X12457040Y-10799840D01*
X12457040Y-10769840D02*
X12427040Y-10799840D01*
X12427040Y-11531840D02*
X12457040Y-11561840D01*
X12457040Y-11531840D02*
X12427040Y-11561840D01*
X12435000Y-11810000D02*
X12465000Y-11840000D01*
X12465000Y-11810000D02*
X12435000Y-11840000D01*
X12625000Y-11925000D02*
X12655000Y-11955000D01*
X12655000Y-11925000D02*
X12625000Y-11955000D01*
X12685000Y-9891000D02*
X12715000Y-9921000D01*
X12715000Y-9891000D02*
X12685000Y-9921000D01*
X12685000Y-10399000D02*
X12715000Y-10429000D01*
X12715000Y-10399000D02*
X12685000Y-10429000D01*
X12709280Y-11203800D02*
X12739280Y-11233800D01*
X12739280Y-11203800D02*
X12709280Y-11233800D01*
X12807880Y-11587720D02*
X12837880Y-11617720D01*
X12837880Y-11587720D02*
X12807880Y-11617720D01*
X12897500Y-12447500D02*
X12927500Y-12477500D01*
X12927500Y-12447500D02*
X12897500Y-12477500D01*
X12945000Y-10745000D02*
X12975000Y-10775000D01*
X12975000Y-10745000D02*
X12945000Y-10775000D01*
X13048220Y-8554000D02*
X13078220Y-8584000D01*
X13078220Y-8554000D02*
X13048220Y-8584000D01*
X13060000Y-12285000D02*
X13090000Y-12315000D01*
X13090000Y-12285000D02*
X13060000Y-12315000D01*
X13066000Y-11288000D02*
X13096000Y-11318000D01*
X13096000Y-11288000D02*
X13066000Y-11318000D01*
X13145000Y-8985000D02*
X13175000Y-9015000D01*
X13175000Y-8985000D02*
X13145000Y-9015000D01*
X13205000Y-10285000D02*
X13235000Y-10315000D01*
X13235000Y-10285000D02*
X13205000Y-10315000D01*
X13276820Y-9596360D02*
X13306820Y-9626360D01*
X13306820Y-9596360D02*
X13276820Y-9626360D01*
X13305000Y-12425000D02*
X13335000Y-12455000D01*
X13335000Y-12425000D02*
X13305000Y-12455000D01*
X13385000Y-11455000D02*
X13415000Y-11485000D01*
X13415000Y-11455000D02*
X13385000Y-11485000D01*
X13385000Y-12005000D02*
X13415000Y-12035000D01*
X13415000Y-12005000D02*
X13385000Y-12035000D01*
X13385000Y-12735000D02*
X13415000Y-12765000D01*
X13415000Y-12735000D02*
X13385000Y-12765000D01*
X13465000Y-10185000D02*
X13495000Y-10215000D01*
X13495000Y-10185000D02*
X13465000Y-10215000D01*
X13505000Y-7745000D02*
X13535000Y-7775000D01*
X13535000Y-7745000D02*
X13505000Y-7775000D01*
X13510000Y-8285000D02*
X13540000Y-8315000D01*
X13540000Y-8285000D02*
X13510000Y-8315000D01*
X13652740Y-10415000D02*
X13682740Y-10445000D01*
X13682740Y-10415000D02*
X13652740Y-10445000D01*
X13721320Y-9667480D02*
X13751320Y-9697480D01*
X13751320Y-9667480D02*
X13721320Y-9697480D01*
X13734020Y-8707360D02*
X13764020Y-8737360D01*
X13764020Y-8707360D02*
X13734020Y-8737360D01*
X13808967Y-9797003D02*
X13838967Y-9827003D01*
X13838967Y-9797003D02*
X13808967Y-9827003D01*
X13828000Y-8996920D02*
X13858000Y-9026920D01*
X13858000Y-8996920D02*
X13828000Y-9026920D01*
X13828000Y-9076920D02*
X13858000Y-9106920D01*
X13858000Y-9076920D02*
X13828000Y-9106920D01*
X13828000Y-9159480D02*
X13858000Y-9189480D01*
X13858000Y-9159480D02*
X13828000Y-9189480D01*
X13830665Y-9239436D02*
X13860665Y-9269436D01*
X13860665Y-9239436D02*
X13830665Y-9269436D01*
X13873720Y-8562580D02*
X13903720Y-8592580D01*
X13903720Y-8562580D02*
X13873720Y-8592580D01*
X13888960Y-9798090D02*
X13918960Y-9828090D01*
X13918960Y-9798090D02*
X13888960Y-9828090D01*
X13960080Y-8562580D02*
X13990080Y-8592580D01*
X13990080Y-8562580D02*
X13960080Y-8592580D01*
X13995000Y-10435000D02*
X14025000Y-10465000D01*
X14025000Y-10435000D02*
X13995000Y-10465000D01*
X14053880Y-8925800D02*
X14083880Y-8955800D01*
X14083880Y-8925800D02*
X14053880Y-8955800D01*
X14053880Y-9332200D02*
X14083880Y-9362200D01*
X14083880Y-9332200D02*
X14053880Y-9362200D01*
X14125000Y-9785000D02*
X14155000Y-9815000D01*
X14155000Y-9785000D02*
X14125000Y-9815000D01*
X14209000Y-10653000D02*
X14239000Y-10683000D01*
X14239000Y-10653000D02*
X14209000Y-10683000D01*
X14209000Y-11669000D02*
X14239000Y-11699000D01*
X14239000Y-11669000D02*
X14209000Y-11699000D01*
X14365000Y-9475000D02*
X14395000Y-9505000D01*
X14395000Y-9475000D02*
X14365000Y-9505000D01*
X14405000Y-10545000D02*
X14435000Y-10575000D01*
X14435000Y-10545000D02*
X14405000Y-10575000D01*
X14585000Y-9815000D02*
X14615000Y-9845000D01*
X14615000Y-9815000D02*
X14585000Y-9845000D01*
X14590000Y-9596360D02*
X14620000Y-9626360D01*
X14620000Y-9596360D02*
X14590000Y-9626360D01*
X14611280Y-8844520D02*
X14641280Y-8874520D01*
X14641280Y-8844520D02*
X14611280Y-8874520D01*
X14615000Y-7745000D02*
X14645000Y-7775000D01*
X14645000Y-7745000D02*
X14615000Y-7775000D01*
X14686520Y-9499840D02*
X14716520Y-9529840D01*
X14716520Y-9499840D02*
X14686520Y-9529840D01*
X14689060Y-9344900D02*
X14719060Y-9374900D01*
X14719060Y-9344900D02*
X14689060Y-9374900D01*
X14695000Y-10455000D02*
X14725000Y-10485000D01*
X14725000Y-10455000D02*
X14695000Y-10485000D01*
X14735000Y-8310000D02*
X14765000Y-8340000D01*
X14765000Y-8310000D02*
X14735000Y-8340000D01*
X14855000Y-8995000D02*
X14885000Y-9025000D01*
X14885000Y-8995000D02*
X14855000Y-9025000D01*
X14935000Y-8496540D02*
X14965000Y-8526540D01*
X14965000Y-8496540D02*
X14935000Y-8526540D01*
X14995000Y-9295000D02*
X15025000Y-9325000D01*
X15025000Y-9295000D02*
X14995000Y-9325000D01*
X15005000Y-10275000D02*
X15035000Y-10305000D01*
X15035000Y-10275000D02*
X15005000Y-10305000D01*
X15098000Y-11415000D02*
X15128000Y-11445000D01*
X15128000Y-11415000D02*
X15098000Y-11445000D01*
X15109583Y-10335417D02*
X15139583Y-10365417D01*
X15139583Y-10335417D02*
X15109583Y-10365417D01*
X15222460Y-10150080D02*
X15252460Y-10180080D01*
X15252460Y-10150080D02*
X15222460Y-10180080D01*
X15535000Y-9685000D02*
X15565000Y-9715000D01*
X15565000Y-9685000D02*
X15535000Y-9715000D01*
X15733000Y-11796000D02*
X15763000Y-11826000D01*
X15763000Y-11796000D02*
X15733000Y-11826000D01*
X15733000Y-12310000D02*
X15763000Y-12340000D01*
X15763000Y-12310000D02*
X15733000Y-12340000D01*
X15735000Y-12735000D02*
X15765000Y-12765000D01*
X15765000Y-12735000D02*
X15735000Y-12765000D01*
X15795000Y-7745000D02*
X15825000Y-7775000D01*
X15825000Y-7745000D02*
X15795000Y-7775000D01*
X15805000Y-8615000D02*
X15835000Y-8645000D01*
X15835000Y-8615000D02*
X15805000Y-8645000D01*
X15810000Y-11225000D02*
X15840000Y-11255000D01*
X15840000Y-11225000D02*
X15810000Y-11255000D01*
X15989540Y-10150080D02*
X16019540Y-10180080D01*
X16019540Y-10150080D02*
X15989540Y-10180080D01*
X15992615Y-10230021D02*
X16022615Y-10260021D01*
X16022615Y-10230021D02*
X15992615Y-10260021D01*
X16185000Y-8325000D02*
X16215000Y-8355000D01*
X16215000Y-8325000D02*
X16185000Y-8355000D01*
X16185000Y-8835000D02*
X16215000Y-8865000D01*
X16215000Y-8835000D02*
X16185000Y-8865000D01*
X16185000Y-11225000D02*
X16215000Y-11255000D01*
X16215000Y-11225000D02*
X16185000Y-11255000D01*
X16235000Y-12735000D02*
X16265000Y-12765000D01*
X16265000Y-12735000D02*
X16235000Y-12765000D01*
X16241000Y-11796000D02*
X16271000Y-11826000D01*
X16271000Y-11796000D02*
X16241000Y-11826000D01*
X16241000Y-12304000D02*
X16271000Y-12334000D01*
X16271000Y-12304000D02*
X16241000Y-12334000D01*
X16285000Y-9935000D02*
X16315000Y-9965000D01*
X16315000Y-9935000D02*
X16285000Y-9965000D01*
X16435000Y-8325000D02*
X16465000Y-8355000D01*
X16465000Y-8325000D02*
X16435000Y-8355000D01*
X16465000Y-11225000D02*
X16495000Y-11255000D01*
X16495000Y-11225000D02*
X16465000Y-11255000D01*
X16585000Y-9935000D02*
X16615000Y-9965000D01*
X16615000Y-9935000D02*
X16585000Y-9965000D01*
X16876000Y-7745000D02*
X16906000Y-7775000D01*
X16906000Y-7745000D02*
X16876000Y-7775000D01*
X16876000Y-8494000D02*
X16906000Y-8524000D01*
X16906000Y-8494000D02*
X16876000Y-8524000D01*
X16876000Y-9129000D02*
X16906000Y-9159000D01*
X16906000Y-9129000D02*
X16876000Y-9159000D01*
X16876000Y-9764000D02*
X16906000Y-9794000D01*
X16906000Y-9764000D02*
X16876000Y-9794000D01*
X16876000Y-10399000D02*
X16906000Y-10429000D01*
X16906000Y-10399000D02*
X16876000Y-10429000D01*
X16876000Y-11034000D02*
X16906000Y-11064000D01*
X16906000Y-11034000D02*
X16876000Y-11064000D01*
X16876000Y-11669000D02*
X16906000Y-11699000D01*
X16906000Y-11669000D02*
X16876000Y-11699000D01*
X16876000Y-12304000D02*
X16906000Y-12334000D01*
X16906000Y-12304000D02*
X16876000Y-12334000D01*
X16885000Y-12735000D02*
X16915000Y-12765000D01*
X16915000Y-12735000D02*
X16885000Y-12765000D01*
X17257000Y-7745000D02*
X17287000Y-7775000D01*
X17287000Y-7745000D02*
X17257000Y-7775000D01*
X17257000Y-8494000D02*
X17287000Y-8524000D01*
X17287000Y-8494000D02*
X17257000Y-8524000D01*
X17257000Y-9129000D02*
X17287000Y-9159000D01*
X17287000Y-9129000D02*
X17257000Y-9159000D01*
X17257000Y-9764000D02*
X17287000Y-9794000D01*
X17287000Y-9764000D02*
X17257000Y-9794000D01*
X17257000Y-10399000D02*
X17287000Y-10429000D01*
X17287000Y-10399000D02*
X17257000Y-10429000D01*
X17257000Y-11034000D02*
X17287000Y-11064000D01*
X17287000Y-11034000D02*
X17257000Y-11064000D01*
X17257000Y-11669000D02*
X17287000Y-11699000D01*
X17287000Y-11669000D02*
X17257000Y-11699000D01*
X17257000Y-12304000D02*
X17287000Y-12334000D01*
X17287000Y-12304000D02*
X17257000Y-12334000D01*
X17260000Y-12735000D02*
X17290000Y-12765000D01*
X17290000Y-12735000D02*
X17260000Y-12765000D01*
X10330000Y-8825000D02*
G75*
G02*
X10270000Y-8825000I-30000J0D01*
G01*
X10270000Y-8825000D02*
G75*
G02*
X10330000Y-8825000I30000J0D01*
G01*
X10340000Y-8795000D02*
X10260000Y-8795000D01*
X10260000Y-8855000D02*
G75*
G02*
X10260000Y-8795000I0J30000D01*
G01*
X10260000Y-8855000D02*
X10340000Y-8855000D01*
X10340000Y-8855000D02*
G75*
G03*
X10340000Y-8795000I0J30000D01*
G01*
X10330000Y-9689000D02*
G75*
G02*
X10270000Y-9689000I-30000J0D01*
G01*
X10270000Y-9689000D02*
G75*
G02*
X10330000Y-9689000I30000J0D01*
G01*
X10340000Y-9659000D02*
X10260000Y-9659000D01*
X10260000Y-9719000D02*
G75*
G02*
X10260000Y-9659000I0J30000D01*
G01*
X10260000Y-9719000D02*
X10340000Y-9719000D01*
X10340000Y-9719000D02*
G75*
G03*
X10340000Y-9659000I0J30000D01*
G01*
X10748000Y-8825000D02*
G75*
G02*
X10688000Y-8825000I-30000J0D01*
G01*
X10688000Y-8825000D02*
G75*
G02*
X10748000Y-8825000I30000J0D01*
G01*
X10773000Y-8795000D02*
X10663000Y-8795000D01*
X10663000Y-8855000D02*
G75*
G02*
X10663000Y-8795000I0J30000D01*
G01*
X10663000Y-8855000D02*
X10773000Y-8855000D01*
X10773000Y-8855000D02*
G75*
G03*
X10773000Y-8795000I0J30000D01*
G01*
X10748000Y-9689000D02*
G75*
G02*
X10688000Y-9689000I-30000J0D01*
G01*
X10688000Y-9689000D02*
G75*
G02*
X10748000Y-9689000I30000J0D01*
G01*
X10773000Y-9659000D02*
X10663000Y-9659000D01*
X10663000Y-9719000D02*
G75*
G02*
X10663000Y-9659000I0J30000D01*
G01*
X10663000Y-9719000D02*
X10773000Y-9719000D01*
X10773000Y-9719000D02*
G75*
G03*
X10773000Y-9659000I0J30000D01*
G01*
X11998960Y-12020080D02*
X11998960Y-12120080D01*
X11948960Y-12070080D02*
X12048960Y-12070080D01*
X11998960Y-12274080D02*
X11998960Y-12374080D01*
X11948960Y-12324080D02*
X12048960Y-12324080D01*
X12252960Y-12020080D02*
X12252960Y-12120080D01*
X12202960Y-12070080D02*
X12302960Y-12070080D01*
X12252960Y-12274080D02*
X12252960Y-12374080D01*
X12202960Y-12324080D02*
X12302960Y-12324080D01*
X12506960Y-12020080D02*
X12506960Y-12120080D01*
X12456960Y-12070080D02*
X12556960Y-12070080D01*
X12506960Y-12274080D02*
X12506960Y-12374080D01*
X12456960Y-12324080D02*
X12556960Y-12324080D01*
X12611100Y-7971000D02*
X12611100Y-8071000D01*
X12561100Y-8021000D02*
X12661100Y-8021000D01*
X12611100Y-8225000D02*
X12611100Y-8325000D01*
X12561100Y-8275000D02*
X12661100Y-8275000D01*
X12760960Y-12020080D02*
X12760960Y-12120080D01*
X12710960Y-12070080D02*
X12810960Y-12070080D01*
X12760960Y-12274080D02*
X12760960Y-12374080D01*
X12710960Y-12324080D02*
X12810960Y-12324080D01*
X12865100Y-7971000D02*
X12865100Y-8071000D01*
X12815100Y-8021000D02*
X12915100Y-8021000D01*
X12865100Y-8225000D02*
X12865100Y-8325000D01*
X12815100Y-8275000D02*
X12915100Y-8275000D01*
X13119100Y-7971000D02*
X13119100Y-8071000D01*
X13069100Y-8021000D02*
X13169100Y-8021000D01*
X13119100Y-8225000D02*
X13119100Y-8325000D01*
X13069100Y-8275000D02*
X13169100Y-8275000D01*
X13947140Y-7971000D02*
X13947140Y-8071000D01*
X13897140Y-8021000D02*
X13997140Y-8021000D01*
X13947140Y-8225000D02*
X13947140Y-8325000D01*
X13897140Y-8275000D02*
X13997140Y-8275000D01*
X14038580Y-12027700D02*
X14038580Y-12127700D01*
X13988580Y-12077700D02*
X14088580Y-12077700D01*
X14038580Y-12281700D02*
X14038580Y-12381700D01*
X13988580Y-12331700D02*
X14088580Y-12331700D01*
X14201140Y-7971000D02*
X14201140Y-8071000D01*
X14151140Y-8021000D02*
X14251140Y-8021000D01*
X14201140Y-8225000D02*
X14201140Y-8325000D01*
X14151140Y-8275000D02*
X14251140Y-8275000D01*
X14292580Y-12027700D02*
X14292580Y-12127700D01*
X14242580Y-12077700D02*
X14342580Y-12077700D01*
X14292580Y-12281700D02*
X14292580Y-12381700D01*
X14242580Y-12331700D02*
X14342580Y-12331700D01*
X14455140Y-7971000D02*
X14455140Y-8071000D01*
X14405140Y-8021000D02*
X14505140Y-8021000D01*
X14455140Y-8225000D02*
X14455140Y-8325000D01*
X14405140Y-8275000D02*
X14505140Y-8275000D01*
X14546580Y-12027700D02*
X14546580Y-12127700D01*
X14496580Y-12077700D02*
X14596580Y-12077700D01*
X14546580Y-12281700D02*
X14546580Y-12381700D01*
X14496580Y-12331700D02*
X14596580Y-12331700D01*
X14800580Y-12027700D02*
X14800580Y-12127700D01*
X14750580Y-12077700D02*
X14850580Y-12077700D01*
X14800580Y-12281700D02*
X14800580Y-12381700D01*
X14750580Y-12331700D02*
X14850580Y-12331700D01*
X15820000Y-8164360D02*
X15820000Y-8264360D01*
X15770000Y-8214360D02*
X15870000Y-8214360D01*
X15820000Y-8418360D02*
X15820000Y-8518360D01*
X15770000Y-8468360D02*
X15870000Y-8468360D01*
X15820000Y-9386100D02*
X15820000Y-9486100D01*
X15770000Y-9436100D02*
X15870000Y-9436100D01*
X15820000Y-9640100D02*
X15820000Y-9740100D01*
X15770000Y-9690100D02*
X15870000Y-9690100D01*
X15820000Y-10653560D02*
X15820000Y-10753560D01*
X15770000Y-10703560D02*
X15870000Y-10703560D01*
X15820000Y-10907560D02*
X15820000Y-11007560D01*
X15770000Y-10957560D02*
X15870000Y-10957560D01*
X16074000Y-8164360D02*
X16074000Y-8264360D01*
X16024000Y-8214360D02*
X16124000Y-8214360D01*
X16074000Y-8418360D02*
X16074000Y-8518360D01*
X16024000Y-8468360D02*
X16124000Y-8468360D01*
X16074000Y-9386100D02*
X16074000Y-9486100D01*
X16024000Y-9436100D02*
X16124000Y-9436100D01*
X16074000Y-9640100D02*
X16074000Y-9740100D01*
X16024000Y-9690100D02*
X16124000Y-9690100D01*
X16074000Y-10653560D02*
X16074000Y-10753560D01*
X16024000Y-10703560D02*
X16124000Y-10703560D01*
X16074000Y-10907560D02*
X16074000Y-11007560D01*
X16024000Y-10957560D02*
X16124000Y-10957560D01*
X16328000Y-8164360D02*
X16328000Y-8264360D01*
X16278000Y-8214360D02*
X16378000Y-8214360D01*
X16328000Y-8418360D02*
X16328000Y-8518360D01*
X16278000Y-8468360D02*
X16378000Y-8468360D01*
X16328000Y-9386100D02*
X16328000Y-9486100D01*
X16278000Y-9436100D02*
X16378000Y-9436100D01*
X16328000Y-9640100D02*
X16328000Y-9740100D01*
X16278000Y-9690100D02*
X16378000Y-9690100D01*
X16328000Y-10653560D02*
X16328000Y-10753560D01*
X16278000Y-10703560D02*
X16378000Y-10703560D01*
X16328000Y-10907560D02*
X16328000Y-11007560D01*
X16278000Y-10957560D02*
X16378000Y-10957560D01*
X16582000Y-8164360D02*
X16582000Y-8264360D01*
X16532000Y-8214360D02*
X16632000Y-8214360D01*
X16582000Y-8418360D02*
X16582000Y-8518360D01*
X16532000Y-8468360D02*
X16632000Y-8468360D01*
X16582000Y-9386100D02*
X16582000Y-9486100D01*
X16532000Y-9436100D02*
X16632000Y-9436100D01*
X16582000Y-9640100D02*
X16582000Y-9740100D01*
X16532000Y-9690100D02*
X16632000Y-9690100D01*
X16582000Y-10653560D02*
X16582000Y-10753560D01*
X16532000Y-10703560D02*
X16632000Y-10703560D01*
X16582000Y-10907560D02*
X16582000Y-11007560D01*
X16532000Y-10957560D02*
X16632000Y-10957560D01*
D11*
X10283277Y-13163984D02*
X10283277Y-12963984D01*
X10283277Y-12963984D02*
X10330896Y-12963984D01*
X10330896Y-12963984D02*
X10359467Y-12973508D01*
X10359467Y-12973508D02*
X10378515Y-12992555D01*
X10378515Y-12992555D02*
X10388039Y-13011603D01*
X10388039Y-13011603D02*
X10397563Y-13049698D01*
X10397563Y-13049698D02*
X10397563Y-13078269D01*
X10397563Y-13078269D02*
X10388039Y-13116365D01*
X10388039Y-13116365D02*
X10378515Y-13135412D01*
X10378515Y-13135412D02*
X10359467Y-13154460D01*
X10359467Y-13154460D02*
X10330896Y-13163984D01*
X10330896Y-13163984D02*
X10283277Y-13163984D01*
X10483277Y-13163984D02*
X10483277Y-13030650D01*
X10483277Y-13068746D02*
X10492801Y-13049698D01*
X10492801Y-13049698D02*
X10502324Y-13040174D01*
X10502324Y-13040174D02*
X10521372Y-13030650D01*
X10521372Y-13030650D02*
X10540420Y-13030650D01*
X10607086Y-13163984D02*
X10607086Y-13030650D01*
X10607086Y-12963984D02*
X10597563Y-12973508D01*
X10597563Y-12973508D02*
X10607086Y-12983031D01*
X10607086Y-12983031D02*
X10616610Y-12973508D01*
X10616610Y-12973508D02*
X10607086Y-12963984D01*
X10607086Y-12963984D02*
X10607086Y-12983031D01*
X10730896Y-13163984D02*
X10711848Y-13154460D01*
X10711848Y-13154460D02*
X10702324Y-13135412D01*
X10702324Y-13135412D02*
X10702324Y-12963984D01*
X10835658Y-13163984D02*
X10816610Y-13154460D01*
X10816610Y-13154460D02*
X10807086Y-13135412D01*
X10807086Y-13135412D02*
X10807086Y-12963984D01*
X11064229Y-13163984D02*
X11064229Y-12963984D01*
X11064229Y-12963984D02*
X11130896Y-13106841D01*
X11130896Y-13106841D02*
X11197562Y-12963984D01*
X11197562Y-12963984D02*
X11197562Y-13163984D01*
X11378515Y-13163984D02*
X11378515Y-13059222D01*
X11378515Y-13059222D02*
X11368991Y-13040174D01*
X11368991Y-13040174D02*
X11349943Y-13030650D01*
X11349943Y-13030650D02*
X11311848Y-13030650D01*
X11311848Y-13030650D02*
X11292801Y-13040174D01*
X11378515Y-13154460D02*
X11359467Y-13163984D01*
X11359467Y-13163984D02*
X11311848Y-13163984D01*
X11311848Y-13163984D02*
X11292801Y-13154460D01*
X11292801Y-13154460D02*
X11283277Y-13135412D01*
X11283277Y-13135412D02*
X11283277Y-13116365D01*
X11283277Y-13116365D02*
X11292801Y-13097317D01*
X11292801Y-13097317D02*
X11311848Y-13087793D01*
X11311848Y-13087793D02*
X11359467Y-13087793D01*
X11359467Y-13087793D02*
X11378515Y-13078269D01*
X11473753Y-13030650D02*
X11473753Y-13230650D01*
X11473753Y-13040174D02*
X11492801Y-13030650D01*
X11492801Y-13030650D02*
X11530896Y-13030650D01*
X11530896Y-13030650D02*
X11549943Y-13040174D01*
X11549943Y-13040174D02*
X11559467Y-13049698D01*
X11559467Y-13049698D02*
X11568991Y-13068746D01*
X11568991Y-13068746D02*
X11568991Y-13125888D01*
X11568991Y-13125888D02*
X11559467Y-13144936D01*
X11559467Y-13144936D02*
X11549943Y-13154460D01*
X11549943Y-13154460D02*
X11530896Y-13163984D01*
X11530896Y-13163984D02*
X11492801Y-13163984D01*
X11492801Y-13163984D02*
X11473753Y-13154460D01*
X11654705Y-13144936D02*
X11664229Y-13154460D01*
X11664229Y-13154460D02*
X11654705Y-13163984D01*
X11654705Y-13163984D02*
X11645182Y-13154460D01*
X11645182Y-13154460D02*
X11654705Y-13144936D01*
X11654705Y-13144936D02*
X11654705Y-13163984D01*
X11654705Y-13040174D02*
X11664229Y-13049698D01*
X11664229Y-13049698D02*
X11654705Y-13059222D01*
X11654705Y-13059222D02*
X11645182Y-13049698D01*
X11645182Y-13049698D02*
X11654705Y-13040174D01*
X11654705Y-13040174D02*
X11654705Y-13059222D01*
D12*
X9992500Y-13477500D02*
X10022500Y-13507500D01*
X10022500Y-13477500D02*
X9992500Y-13507500D01*
D11*
X10321372Y-13383984D02*
X10340420Y-13383984D01*
X10340420Y-13383984D02*
X10359467Y-13393508D01*
X10359467Y-13393508D02*
X10368991Y-13403031D01*
X10368991Y-13403031D02*
X10378515Y-13422079D01*
X10378515Y-13422079D02*
X10388039Y-13460174D01*
X10388039Y-13460174D02*
X10388039Y-13507793D01*
X10388039Y-13507793D02*
X10378515Y-13545888D01*
X10378515Y-13545888D02*
X10368991Y-13564936D01*
X10368991Y-13564936D02*
X10359467Y-13574460D01*
X10359467Y-13574460D02*
X10340420Y-13583984D01*
X10340420Y-13583984D02*
X10321372Y-13583984D01*
X10321372Y-13583984D02*
X10302324Y-13574460D01*
X10302324Y-13574460D02*
X10292801Y-13564936D01*
X10292801Y-13564936D02*
X10283277Y-13545888D01*
X10283277Y-13545888D02*
X10273753Y-13507793D01*
X10273753Y-13507793D02*
X10273753Y-13460174D01*
X10273753Y-13460174D02*
X10283277Y-13422079D01*
X10283277Y-13422079D02*
X10292801Y-13403031D01*
X10292801Y-13403031D02*
X10302324Y-13393508D01*
X10302324Y-13393508D02*
X10321372Y-13383984D01*
X10473753Y-13564936D02*
X10483277Y-13574460D01*
X10483277Y-13574460D02*
X10473753Y-13583984D01*
X10473753Y-13583984D02*
X10464229Y-13574460D01*
X10464229Y-13574460D02*
X10473753Y-13564936D01*
X10473753Y-13564936D02*
X10473753Y-13583984D01*
X10549944Y-13383984D02*
X10673753Y-13383984D01*
X10673753Y-13383984D02*
X10607086Y-13460174D01*
X10607086Y-13460174D02*
X10635658Y-13460174D01*
X10635658Y-13460174D02*
X10654705Y-13469698D01*
X10654705Y-13469698D02*
X10664229Y-13479222D01*
X10664229Y-13479222D02*
X10673753Y-13498269D01*
X10673753Y-13498269D02*
X10673753Y-13545888D01*
X10673753Y-13545888D02*
X10664229Y-13564936D01*
X10664229Y-13564936D02*
X10654705Y-13574460D01*
X10654705Y-13574460D02*
X10635658Y-13583984D01*
X10635658Y-13583984D02*
X10578515Y-13583984D01*
X10578515Y-13583984D02*
X10559467Y-13574460D01*
X10559467Y-13574460D02*
X10549944Y-13564936D01*
X10797563Y-13383984D02*
X10816610Y-13383984D01*
X10816610Y-13383984D02*
X10835658Y-13393508D01*
X10835658Y-13393508D02*
X10845182Y-13403031D01*
X10845182Y-13403031D02*
X10854705Y-13422079D01*
X10854705Y-13422079D02*
X10864229Y-13460174D01*
X10864229Y-13460174D02*
X10864229Y-13507793D01*
X10864229Y-13507793D02*
X10854705Y-13545888D01*
X10854705Y-13545888D02*
X10845182Y-13564936D01*
X10845182Y-13564936D02*
X10835658Y-13574460D01*
X10835658Y-13574460D02*
X10816610Y-13583984D01*
X10816610Y-13583984D02*
X10797563Y-13583984D01*
X10797563Y-13583984D02*
X10778515Y-13574460D01*
X10778515Y-13574460D02*
X10768991Y-13564936D01*
X10768991Y-13564936D02*
X10759467Y-13545888D01*
X10759467Y-13545888D02*
X10749944Y-13507793D01*
X10749944Y-13507793D02*
X10749944Y-13460174D01*
X10749944Y-13460174D02*
X10759467Y-13422079D01*
X10759467Y-13422079D02*
X10768991Y-13403031D01*
X10768991Y-13403031D02*
X10778515Y-13393508D01*
X10778515Y-13393508D02*
X10797563Y-13383984D01*
X10988039Y-13383984D02*
X11007086Y-13383984D01*
X11007086Y-13383984D02*
X11026134Y-13393508D01*
X11026134Y-13393508D02*
X11035658Y-13403031D01*
X11035658Y-13403031D02*
X11045182Y-13422079D01*
X11045182Y-13422079D02*
X11054705Y-13460174D01*
X11054705Y-13460174D02*
X11054705Y-13507793D01*
X11054705Y-13507793D02*
X11045182Y-13545888D01*
X11045182Y-13545888D02*
X11035658Y-13564936D01*
X11035658Y-13564936D02*
X11026134Y-13574460D01*
X11026134Y-13574460D02*
X11007086Y-13583984D01*
X11007086Y-13583984D02*
X10988039Y-13583984D01*
X10988039Y-13583984D02*
X10968991Y-13574460D01*
X10968991Y-13574460D02*
X10959467Y-13564936D01*
X10959467Y-13564936D02*
X10949944Y-13545888D01*
X10949944Y-13545888D02*
X10940420Y-13507793D01*
X10940420Y-13507793D02*
X10940420Y-13460174D01*
X10940420Y-13460174D02*
X10949944Y-13422079D01*
X10949944Y-13422079D02*
X10959467Y-13403031D01*
X10959467Y-13403031D02*
X10968991Y-13393508D01*
X10968991Y-13393508D02*
X10988039Y-13383984D01*
X11140420Y-13583984D02*
X11140420Y-13450650D01*
X11140420Y-13469698D02*
X11149944Y-13460174D01*
X11149944Y-13460174D02*
X11168991Y-13450650D01*
X11168991Y-13450650D02*
X11197563Y-13450650D01*
X11197563Y-13450650D02*
X11216610Y-13460174D01*
X11216610Y-13460174D02*
X11226134Y-13479222D01*
X11226134Y-13479222D02*
X11226134Y-13583984D01*
X11226134Y-13479222D02*
X11235658Y-13460174D01*
X11235658Y-13460174D02*
X11254705Y-13450650D01*
X11254705Y-13450650D02*
X11283277Y-13450650D01*
X11283277Y-13450650D02*
X11302324Y-13460174D01*
X11302324Y-13460174D02*
X11311848Y-13479222D01*
X11311848Y-13479222D02*
X11311848Y-13583984D01*
X11407086Y-13583984D02*
X11407086Y-13450650D01*
X11407086Y-13469698D02*
X11416610Y-13460174D01*
X11416610Y-13460174D02*
X11435658Y-13450650D01*
X11435658Y-13450650D02*
X11464229Y-13450650D01*
X11464229Y-13450650D02*
X11483277Y-13460174D01*
X11483277Y-13460174D02*
X11492801Y-13479222D01*
X11492801Y-13479222D02*
X11492801Y-13583984D01*
X11492801Y-13479222D02*
X11502324Y-13460174D01*
X11502324Y-13460174D02*
X11521372Y-13450650D01*
X11521372Y-13450650D02*
X11549943Y-13450650D01*
X11549943Y-13450650D02*
X11568991Y-13460174D01*
X11568991Y-13460174D02*
X11578515Y-13479222D01*
X11578515Y-13479222D02*
X11578515Y-13583984D01*
X11968991Y-13374460D02*
X11797563Y-13631603D01*
X12226134Y-13383984D02*
X12245182Y-13383984D01*
X12245182Y-13383984D02*
X12264229Y-13393508D01*
X12264229Y-13393508D02*
X12273753Y-13403031D01*
X12273753Y-13403031D02*
X12283277Y-13422079D01*
X12283277Y-13422079D02*
X12292801Y-13460174D01*
X12292801Y-13460174D02*
X12292801Y-13507793D01*
X12292801Y-13507793D02*
X12283277Y-13545888D01*
X12283277Y-13545888D02*
X12273753Y-13564936D01*
X12273753Y-13564936D02*
X12264229Y-13574460D01*
X12264229Y-13574460D02*
X12245182Y-13583984D01*
X12245182Y-13583984D02*
X12226134Y-13583984D01*
X12226134Y-13583984D02*
X12207086Y-13574460D01*
X12207086Y-13574460D02*
X12197563Y-13564936D01*
X12197563Y-13564936D02*
X12188039Y-13545888D01*
X12188039Y-13545888D02*
X12178515Y-13507793D01*
X12178515Y-13507793D02*
X12178515Y-13460174D01*
X12178515Y-13460174D02*
X12188039Y-13422079D01*
X12188039Y-13422079D02*
X12197563Y-13403031D01*
X12197563Y-13403031D02*
X12207086Y-13393508D01*
X12207086Y-13393508D02*
X12226134Y-13383984D01*
X12378515Y-13564936D02*
X12388039Y-13574460D01*
X12388039Y-13574460D02*
X12378515Y-13583984D01*
X12378515Y-13583984D02*
X12368991Y-13574460D01*
X12368991Y-13574460D02*
X12378515Y-13564936D01*
X12378515Y-13564936D02*
X12378515Y-13583984D01*
X12511848Y-13383984D02*
X12530896Y-13383984D01*
X12530896Y-13383984D02*
X12549944Y-13393508D01*
X12549944Y-13393508D02*
X12559467Y-13403031D01*
X12559467Y-13403031D02*
X12568991Y-13422079D01*
X12568991Y-13422079D02*
X12578515Y-13460174D01*
X12578515Y-13460174D02*
X12578515Y-13507793D01*
X12578515Y-13507793D02*
X12568991Y-13545888D01*
X12568991Y-13545888D02*
X12559467Y-13564936D01*
X12559467Y-13564936D02*
X12549944Y-13574460D01*
X12549944Y-13574460D02*
X12530896Y-13583984D01*
X12530896Y-13583984D02*
X12511848Y-13583984D01*
X12511848Y-13583984D02*
X12492801Y-13574460D01*
X12492801Y-13574460D02*
X12483277Y-13564936D01*
X12483277Y-13564936D02*
X12473753Y-13545888D01*
X12473753Y-13545888D02*
X12464229Y-13507793D01*
X12464229Y-13507793D02*
X12464229Y-13460174D01*
X12464229Y-13460174D02*
X12473753Y-13422079D01*
X12473753Y-13422079D02*
X12483277Y-13403031D01*
X12483277Y-13403031D02*
X12492801Y-13393508D01*
X12492801Y-13393508D02*
X12511848Y-13383984D01*
X12768991Y-13583984D02*
X12654706Y-13583984D01*
X12711848Y-13583984D02*
X12711848Y-13383984D01*
X12711848Y-13383984D02*
X12692801Y-13412555D01*
X12692801Y-13412555D02*
X12673753Y-13431603D01*
X12673753Y-13431603D02*
X12654706Y-13441127D01*
X12959467Y-13583984D02*
X12845182Y-13583984D01*
X12902325Y-13583984D02*
X12902325Y-13383984D01*
X12902325Y-13383984D02*
X12883277Y-13412555D01*
X12883277Y-13412555D02*
X12864229Y-13431603D01*
X12864229Y-13431603D02*
X12845182Y-13441127D01*
X13073753Y-13469698D02*
X13054706Y-13460174D01*
X13054706Y-13460174D02*
X13045182Y-13450650D01*
X13045182Y-13450650D02*
X13035658Y-13431603D01*
X13035658Y-13431603D02*
X13035658Y-13422079D01*
X13035658Y-13422079D02*
X13045182Y-13403031D01*
X13045182Y-13403031D02*
X13054706Y-13393508D01*
X13054706Y-13393508D02*
X13073753Y-13383984D01*
X13073753Y-13383984D02*
X13111848Y-13383984D01*
X13111848Y-13383984D02*
X13130896Y-13393508D01*
X13130896Y-13393508D02*
X13140420Y-13403031D01*
X13140420Y-13403031D02*
X13149944Y-13422079D01*
X13149944Y-13422079D02*
X13149944Y-13431603D01*
X13149944Y-13431603D02*
X13140420Y-13450650D01*
X13140420Y-13450650D02*
X13130896Y-13460174D01*
X13130896Y-13460174D02*
X13111848Y-13469698D01*
X13111848Y-13469698D02*
X13073753Y-13469698D01*
X13073753Y-13469698D02*
X13054706Y-13479222D01*
X13054706Y-13479222D02*
X13045182Y-13488746D01*
X13045182Y-13488746D02*
X13035658Y-13507793D01*
X13035658Y-13507793D02*
X13035658Y-13545888D01*
X13035658Y-13545888D02*
X13045182Y-13564936D01*
X13045182Y-13564936D02*
X13054706Y-13574460D01*
X13054706Y-13574460D02*
X13073753Y-13583984D01*
X13073753Y-13583984D02*
X13111848Y-13583984D01*
X13111848Y-13583984D02*
X13130896Y-13574460D01*
X13130896Y-13574460D02*
X13140420Y-13564936D01*
X13140420Y-13564936D02*
X13149944Y-13545888D01*
X13149944Y-13545888D02*
X13149944Y-13507793D01*
X13149944Y-13507793D02*
X13140420Y-13488746D01*
X13140420Y-13488746D02*
X13130896Y-13479222D01*
X13130896Y-13479222D02*
X13111848Y-13469698D01*
X13226134Y-13383984D02*
X13226134Y-13422079D01*
X13302325Y-13383984D02*
X13302325Y-13422079D01*
X13597563Y-13660174D02*
X13588039Y-13650650D01*
X13588039Y-13650650D02*
X13568991Y-13622079D01*
X13568991Y-13622079D02*
X13559468Y-13603031D01*
X13559468Y-13603031D02*
X13549944Y-13574460D01*
X13549944Y-13574460D02*
X13540420Y-13526841D01*
X13540420Y-13526841D02*
X13540420Y-13488746D01*
X13540420Y-13488746D02*
X13549944Y-13441127D01*
X13549944Y-13441127D02*
X13559468Y-13412555D01*
X13559468Y-13412555D02*
X13568991Y-13393508D01*
X13568991Y-13393508D02*
X13588039Y-13364936D01*
X13588039Y-13364936D02*
X13597563Y-13355412D01*
X13778515Y-13583984D02*
X13664229Y-13583984D01*
X13721372Y-13583984D02*
X13721372Y-13383984D01*
X13721372Y-13383984D02*
X13702325Y-13412555D01*
X13702325Y-13412555D02*
X13683277Y-13431603D01*
X13683277Y-13431603D02*
X13664229Y-13441127D01*
X13845182Y-13383984D02*
X13968991Y-13383984D01*
X13968991Y-13383984D02*
X13902325Y-13460174D01*
X13902325Y-13460174D02*
X13930896Y-13460174D01*
X13930896Y-13460174D02*
X13949944Y-13469698D01*
X13949944Y-13469698D02*
X13959468Y-13479222D01*
X13959468Y-13479222D02*
X13968991Y-13498269D01*
X13968991Y-13498269D02*
X13968991Y-13545888D01*
X13968991Y-13545888D02*
X13959468Y-13564936D01*
X13959468Y-13564936D02*
X13949944Y-13574460D01*
X13949944Y-13574460D02*
X13930896Y-13583984D01*
X13930896Y-13583984D02*
X13873753Y-13583984D01*
X13873753Y-13583984D02*
X13854706Y-13574460D01*
X13854706Y-13574460D02*
X13845182Y-13564936D01*
X14083277Y-13469698D02*
X14064229Y-13460174D01*
X14064229Y-13460174D02*
X14054706Y-13450650D01*
X14054706Y-13450650D02*
X14045182Y-13431603D01*
X14045182Y-13431603D02*
X14045182Y-13422079D01*
X14045182Y-13422079D02*
X14054706Y-13403031D01*
X14054706Y-13403031D02*
X14064229Y-13393508D01*
X14064229Y-13393508D02*
X14083277Y-13383984D01*
X14083277Y-13383984D02*
X14121372Y-13383984D01*
X14121372Y-13383984D02*
X14140420Y-13393508D01*
X14140420Y-13393508D02*
X14149944Y-13403031D01*
X14149944Y-13403031D02*
X14159468Y-13422079D01*
X14159468Y-13422079D02*
X14159468Y-13431603D01*
X14159468Y-13431603D02*
X14149944Y-13450650D01*
X14149944Y-13450650D02*
X14140420Y-13460174D01*
X14140420Y-13460174D02*
X14121372Y-13469698D01*
X14121372Y-13469698D02*
X14083277Y-13469698D01*
X14083277Y-13469698D02*
X14064229Y-13479222D01*
X14064229Y-13479222D02*
X14054706Y-13488746D01*
X14054706Y-13488746D02*
X14045182Y-13507793D01*
X14045182Y-13507793D02*
X14045182Y-13545888D01*
X14045182Y-13545888D02*
X14054706Y-13564936D01*
X14054706Y-13564936D02*
X14064229Y-13574460D01*
X14064229Y-13574460D02*
X14083277Y-13583984D01*
X14083277Y-13583984D02*
X14121372Y-13583984D01*
X14121372Y-13583984D02*
X14140420Y-13574460D01*
X14140420Y-13574460D02*
X14149944Y-13564936D01*
X14149944Y-13564936D02*
X14159468Y-13545888D01*
X14159468Y-13545888D02*
X14159468Y-13507793D01*
X14159468Y-13507793D02*
X14149944Y-13488746D01*
X14149944Y-13488746D02*
X14140420Y-13479222D01*
X14140420Y-13479222D02*
X14121372Y-13469698D01*
X14397563Y-13583984D02*
X14397563Y-13383984D01*
X14483277Y-13583984D02*
X14483277Y-13479222D01*
X14483277Y-13479222D02*
X14473753Y-13460174D01*
X14473753Y-13460174D02*
X14454706Y-13450650D01*
X14454706Y-13450650D02*
X14426134Y-13450650D01*
X14426134Y-13450650D02*
X14407087Y-13460174D01*
X14407087Y-13460174D02*
X14397563Y-13469698D01*
X14607087Y-13583984D02*
X14588039Y-13574460D01*
X14588039Y-13574460D02*
X14578515Y-13564936D01*
X14578515Y-13564936D02*
X14568991Y-13545888D01*
X14568991Y-13545888D02*
X14568991Y-13488746D01*
X14568991Y-13488746D02*
X14578515Y-13469698D01*
X14578515Y-13469698D02*
X14588039Y-13460174D01*
X14588039Y-13460174D02*
X14607087Y-13450650D01*
X14607087Y-13450650D02*
X14635658Y-13450650D01*
X14635658Y-13450650D02*
X14654706Y-13460174D01*
X14654706Y-13460174D02*
X14664230Y-13469698D01*
X14664230Y-13469698D02*
X14673753Y-13488746D01*
X14673753Y-13488746D02*
X14673753Y-13545888D01*
X14673753Y-13545888D02*
X14664230Y-13564936D01*
X14664230Y-13564936D02*
X14654706Y-13574460D01*
X14654706Y-13574460D02*
X14635658Y-13583984D01*
X14635658Y-13583984D02*
X14607087Y-13583984D01*
X14788039Y-13583984D02*
X14768991Y-13574460D01*
X14768991Y-13574460D02*
X14759468Y-13555412D01*
X14759468Y-13555412D02*
X14759468Y-13383984D01*
X14940420Y-13574460D02*
X14921372Y-13583984D01*
X14921372Y-13583984D02*
X14883277Y-13583984D01*
X14883277Y-13583984D02*
X14864230Y-13574460D01*
X14864230Y-13574460D02*
X14854706Y-13555412D01*
X14854706Y-13555412D02*
X14854706Y-13479222D01*
X14854706Y-13479222D02*
X14864230Y-13460174D01*
X14864230Y-13460174D02*
X14883277Y-13450650D01*
X14883277Y-13450650D02*
X14921372Y-13450650D01*
X14921372Y-13450650D02*
X14940420Y-13460174D01*
X14940420Y-13460174D02*
X14949944Y-13479222D01*
X14949944Y-13479222D02*
X14949944Y-13498269D01*
X14949944Y-13498269D02*
X14854706Y-13517317D01*
X15026134Y-13574460D02*
X15045182Y-13583984D01*
X15045182Y-13583984D02*
X15083277Y-13583984D01*
X15083277Y-13583984D02*
X15102325Y-13574460D01*
X15102325Y-13574460D02*
X15111849Y-13555412D01*
X15111849Y-13555412D02*
X15111849Y-13545888D01*
X15111849Y-13545888D02*
X15102325Y-13526841D01*
X15102325Y-13526841D02*
X15083277Y-13517317D01*
X15083277Y-13517317D02*
X15054706Y-13517317D01*
X15054706Y-13517317D02*
X15035658Y-13507793D01*
X15035658Y-13507793D02*
X15026134Y-13488746D01*
X15026134Y-13488746D02*
X15026134Y-13479222D01*
X15026134Y-13479222D02*
X15035658Y-13460174D01*
X15035658Y-13460174D02*
X15054706Y-13450650D01*
X15054706Y-13450650D02*
X15083277Y-13450650D01*
X15083277Y-13450650D02*
X15102325Y-13460174D01*
X15178515Y-13660174D02*
X15188039Y-13650650D01*
X15188039Y-13650650D02*
X15207087Y-13622079D01*
X15207087Y-13622079D02*
X15216611Y-13603031D01*
X15216611Y-13603031D02*
X15226134Y-13574460D01*
X15226134Y-13574460D02*
X15235658Y-13526841D01*
X15235658Y-13526841D02*
X15235658Y-13488746D01*
X15235658Y-13488746D02*
X15226134Y-13441127D01*
X15226134Y-13441127D02*
X15216611Y-13412555D01*
X15216611Y-13412555D02*
X15207087Y-13393508D01*
X15207087Y-13393508D02*
X15188039Y-13364936D01*
X15188039Y-13364936D02*
X15178515Y-13355412D01*
D12*
X10022500Y-13756500D02*
G75*
G02*
X9962500Y-13756500I-30000J0D01*
G01*
X9962500Y-13756500D02*
G75*
G02*
X10022500Y-13756500I30000J0D01*
G01*
D11*
X10321372Y-13647984D02*
X10340420Y-13647984D01*
X10340420Y-13647984D02*
X10359467Y-13657508D01*
X10359467Y-13657508D02*
X10368991Y-13667031D01*
X10368991Y-13667031D02*
X10378515Y-13686079D01*
X10378515Y-13686079D02*
X10388039Y-13724174D01*
X10388039Y-13724174D02*
X10388039Y-13771793D01*
X10388039Y-13771793D02*
X10378515Y-13809888D01*
X10378515Y-13809888D02*
X10368991Y-13828936D01*
X10368991Y-13828936D02*
X10359467Y-13838460D01*
X10359467Y-13838460D02*
X10340420Y-13847984D01*
X10340420Y-13847984D02*
X10321372Y-13847984D01*
X10321372Y-13847984D02*
X10302324Y-13838460D01*
X10302324Y-13838460D02*
X10292801Y-13828936D01*
X10292801Y-13828936D02*
X10283277Y-13809888D01*
X10283277Y-13809888D02*
X10273753Y-13771793D01*
X10273753Y-13771793D02*
X10273753Y-13724174D01*
X10273753Y-13724174D02*
X10283277Y-13686079D01*
X10283277Y-13686079D02*
X10292801Y-13667031D01*
X10292801Y-13667031D02*
X10302324Y-13657508D01*
X10302324Y-13657508D02*
X10321372Y-13647984D01*
X10473753Y-13828936D02*
X10483277Y-13838460D01*
X10483277Y-13838460D02*
X10473753Y-13847984D01*
X10473753Y-13847984D02*
X10464229Y-13838460D01*
X10464229Y-13838460D02*
X10473753Y-13828936D01*
X10473753Y-13828936D02*
X10473753Y-13847984D01*
X10654705Y-13647984D02*
X10616610Y-13647984D01*
X10616610Y-13647984D02*
X10597563Y-13657508D01*
X10597563Y-13657508D02*
X10588039Y-13667031D01*
X10588039Y-13667031D02*
X10568991Y-13695603D01*
X10568991Y-13695603D02*
X10559467Y-13733698D01*
X10559467Y-13733698D02*
X10559467Y-13809888D01*
X10559467Y-13809888D02*
X10568991Y-13828936D01*
X10568991Y-13828936D02*
X10578515Y-13838460D01*
X10578515Y-13838460D02*
X10597563Y-13847984D01*
X10597563Y-13847984D02*
X10635658Y-13847984D01*
X10635658Y-13847984D02*
X10654705Y-13838460D01*
X10654705Y-13838460D02*
X10664229Y-13828936D01*
X10664229Y-13828936D02*
X10673753Y-13809888D01*
X10673753Y-13809888D02*
X10673753Y-13762269D01*
X10673753Y-13762269D02*
X10664229Y-13743222D01*
X10664229Y-13743222D02*
X10654705Y-13733698D01*
X10654705Y-13733698D02*
X10635658Y-13724174D01*
X10635658Y-13724174D02*
X10597563Y-13724174D01*
X10597563Y-13724174D02*
X10578515Y-13733698D01*
X10578515Y-13733698D02*
X10568991Y-13743222D01*
X10568991Y-13743222D02*
X10559467Y-13762269D01*
X10797563Y-13647984D02*
X10816610Y-13647984D01*
X10816610Y-13647984D02*
X10835658Y-13657508D01*
X10835658Y-13657508D02*
X10845182Y-13667031D01*
X10845182Y-13667031D02*
X10854705Y-13686079D01*
X10854705Y-13686079D02*
X10864229Y-13724174D01*
X10864229Y-13724174D02*
X10864229Y-13771793D01*
X10864229Y-13771793D02*
X10854705Y-13809888D01*
X10854705Y-13809888D02*
X10845182Y-13828936D01*
X10845182Y-13828936D02*
X10835658Y-13838460D01*
X10835658Y-13838460D02*
X10816610Y-13847984D01*
X10816610Y-13847984D02*
X10797563Y-13847984D01*
X10797563Y-13847984D02*
X10778515Y-13838460D01*
X10778515Y-13838460D02*
X10768991Y-13828936D01*
X10768991Y-13828936D02*
X10759467Y-13809888D01*
X10759467Y-13809888D02*
X10749944Y-13771793D01*
X10749944Y-13771793D02*
X10749944Y-13724174D01*
X10749944Y-13724174D02*
X10759467Y-13686079D01*
X10759467Y-13686079D02*
X10768991Y-13667031D01*
X10768991Y-13667031D02*
X10778515Y-13657508D01*
X10778515Y-13657508D02*
X10797563Y-13647984D01*
X10988039Y-13647984D02*
X11007086Y-13647984D01*
X11007086Y-13647984D02*
X11026134Y-13657508D01*
X11026134Y-13657508D02*
X11035658Y-13667031D01*
X11035658Y-13667031D02*
X11045182Y-13686079D01*
X11045182Y-13686079D02*
X11054705Y-13724174D01*
X11054705Y-13724174D02*
X11054705Y-13771793D01*
X11054705Y-13771793D02*
X11045182Y-13809888D01*
X11045182Y-13809888D02*
X11035658Y-13828936D01*
X11035658Y-13828936D02*
X11026134Y-13838460D01*
X11026134Y-13838460D02*
X11007086Y-13847984D01*
X11007086Y-13847984D02*
X10988039Y-13847984D01*
X10988039Y-13847984D02*
X10968991Y-13838460D01*
X10968991Y-13838460D02*
X10959467Y-13828936D01*
X10959467Y-13828936D02*
X10949944Y-13809888D01*
X10949944Y-13809888D02*
X10940420Y-13771793D01*
X10940420Y-13771793D02*
X10940420Y-13724174D01*
X10940420Y-13724174D02*
X10949944Y-13686079D01*
X10949944Y-13686079D02*
X10959467Y-13667031D01*
X10959467Y-13667031D02*
X10968991Y-13657508D01*
X10968991Y-13657508D02*
X10988039Y-13647984D01*
X11140420Y-13847984D02*
X11140420Y-13714650D01*
X11140420Y-13733698D02*
X11149944Y-13724174D01*
X11149944Y-13724174D02*
X11168991Y-13714650D01*
X11168991Y-13714650D02*
X11197563Y-13714650D01*
X11197563Y-13714650D02*
X11216610Y-13724174D01*
X11216610Y-13724174D02*
X11226134Y-13743222D01*
X11226134Y-13743222D02*
X11226134Y-13847984D01*
X11226134Y-13743222D02*
X11235658Y-13724174D01*
X11235658Y-13724174D02*
X11254705Y-13714650D01*
X11254705Y-13714650D02*
X11283277Y-13714650D01*
X11283277Y-13714650D02*
X11302324Y-13724174D01*
X11302324Y-13724174D02*
X11311848Y-13743222D01*
X11311848Y-13743222D02*
X11311848Y-13847984D01*
X11407086Y-13847984D02*
X11407086Y-13714650D01*
X11407086Y-13733698D02*
X11416610Y-13724174D01*
X11416610Y-13724174D02*
X11435658Y-13714650D01*
X11435658Y-13714650D02*
X11464229Y-13714650D01*
X11464229Y-13714650D02*
X11483277Y-13724174D01*
X11483277Y-13724174D02*
X11492801Y-13743222D01*
X11492801Y-13743222D02*
X11492801Y-13847984D01*
X11492801Y-13743222D02*
X11502324Y-13724174D01*
X11502324Y-13724174D02*
X11521372Y-13714650D01*
X11521372Y-13714650D02*
X11549943Y-13714650D01*
X11549943Y-13714650D02*
X11568991Y-13724174D01*
X11568991Y-13724174D02*
X11578515Y-13743222D01*
X11578515Y-13743222D02*
X11578515Y-13847984D01*
X11968991Y-13638460D02*
X11797563Y-13895603D01*
X12226134Y-13647984D02*
X12245182Y-13647984D01*
X12245182Y-13647984D02*
X12264229Y-13657508D01*
X12264229Y-13657508D02*
X12273753Y-13667031D01*
X12273753Y-13667031D02*
X12283277Y-13686079D01*
X12283277Y-13686079D02*
X12292801Y-13724174D01*
X12292801Y-13724174D02*
X12292801Y-13771793D01*
X12292801Y-13771793D02*
X12283277Y-13809888D01*
X12283277Y-13809888D02*
X12273753Y-13828936D01*
X12273753Y-13828936D02*
X12264229Y-13838460D01*
X12264229Y-13838460D02*
X12245182Y-13847984D01*
X12245182Y-13847984D02*
X12226134Y-13847984D01*
X12226134Y-13847984D02*
X12207086Y-13838460D01*
X12207086Y-13838460D02*
X12197563Y-13828936D01*
X12197563Y-13828936D02*
X12188039Y-13809888D01*
X12188039Y-13809888D02*
X12178515Y-13771793D01*
X12178515Y-13771793D02*
X12178515Y-13724174D01*
X12178515Y-13724174D02*
X12188039Y-13686079D01*
X12188039Y-13686079D02*
X12197563Y-13667031D01*
X12197563Y-13667031D02*
X12207086Y-13657508D01*
X12207086Y-13657508D02*
X12226134Y-13647984D01*
X12378515Y-13828936D02*
X12388039Y-13838460D01*
X12388039Y-13838460D02*
X12378515Y-13847984D01*
X12378515Y-13847984D02*
X12368991Y-13838460D01*
X12368991Y-13838460D02*
X12378515Y-13828936D01*
X12378515Y-13828936D02*
X12378515Y-13847984D01*
X12511848Y-13647984D02*
X12530896Y-13647984D01*
X12530896Y-13647984D02*
X12549944Y-13657508D01*
X12549944Y-13657508D02*
X12559467Y-13667031D01*
X12559467Y-13667031D02*
X12568991Y-13686079D01*
X12568991Y-13686079D02*
X12578515Y-13724174D01*
X12578515Y-13724174D02*
X12578515Y-13771793D01*
X12578515Y-13771793D02*
X12568991Y-13809888D01*
X12568991Y-13809888D02*
X12559467Y-13828936D01*
X12559467Y-13828936D02*
X12549944Y-13838460D01*
X12549944Y-13838460D02*
X12530896Y-13847984D01*
X12530896Y-13847984D02*
X12511848Y-13847984D01*
X12511848Y-13847984D02*
X12492801Y-13838460D01*
X12492801Y-13838460D02*
X12483277Y-13828936D01*
X12483277Y-13828936D02*
X12473753Y-13809888D01*
X12473753Y-13809888D02*
X12464229Y-13771793D01*
X12464229Y-13771793D02*
X12464229Y-13724174D01*
X12464229Y-13724174D02*
X12473753Y-13686079D01*
X12473753Y-13686079D02*
X12483277Y-13667031D01*
X12483277Y-13667031D02*
X12492801Y-13657508D01*
X12492801Y-13657508D02*
X12511848Y-13647984D01*
X12654706Y-13667031D02*
X12664229Y-13657508D01*
X12664229Y-13657508D02*
X12683277Y-13647984D01*
X12683277Y-13647984D02*
X12730896Y-13647984D01*
X12730896Y-13647984D02*
X12749944Y-13657508D01*
X12749944Y-13657508D02*
X12759467Y-13667031D01*
X12759467Y-13667031D02*
X12768991Y-13686079D01*
X12768991Y-13686079D02*
X12768991Y-13705127D01*
X12768991Y-13705127D02*
X12759467Y-13733698D01*
X12759467Y-13733698D02*
X12645182Y-13847984D01*
X12645182Y-13847984D02*
X12768991Y-13847984D01*
X12835658Y-13647984D02*
X12959467Y-13647984D01*
X12959467Y-13647984D02*
X12892801Y-13724174D01*
X12892801Y-13724174D02*
X12921372Y-13724174D01*
X12921372Y-13724174D02*
X12940420Y-13733698D01*
X12940420Y-13733698D02*
X12949944Y-13743222D01*
X12949944Y-13743222D02*
X12959467Y-13762269D01*
X12959467Y-13762269D02*
X12959467Y-13809888D01*
X12959467Y-13809888D02*
X12949944Y-13828936D01*
X12949944Y-13828936D02*
X12940420Y-13838460D01*
X12940420Y-13838460D02*
X12921372Y-13847984D01*
X12921372Y-13847984D02*
X12864229Y-13847984D01*
X12864229Y-13847984D02*
X12845182Y-13838460D01*
X12845182Y-13838460D02*
X12835658Y-13828936D01*
X13130896Y-13647984D02*
X13092801Y-13647984D01*
X13092801Y-13647984D02*
X13073753Y-13657508D01*
X13073753Y-13657508D02*
X13064229Y-13667031D01*
X13064229Y-13667031D02*
X13045182Y-13695603D01*
X13045182Y-13695603D02*
X13035658Y-13733698D01*
X13035658Y-13733698D02*
X13035658Y-13809888D01*
X13035658Y-13809888D02*
X13045182Y-13828936D01*
X13045182Y-13828936D02*
X13054706Y-13838460D01*
X13054706Y-13838460D02*
X13073753Y-13847984D01*
X13073753Y-13847984D02*
X13111848Y-13847984D01*
X13111848Y-13847984D02*
X13130896Y-13838460D01*
X13130896Y-13838460D02*
X13140420Y-13828936D01*
X13140420Y-13828936D02*
X13149944Y-13809888D01*
X13149944Y-13809888D02*
X13149944Y-13762269D01*
X13149944Y-13762269D02*
X13140420Y-13743222D01*
X13140420Y-13743222D02*
X13130896Y-13733698D01*
X13130896Y-13733698D02*
X13111848Y-13724174D01*
X13111848Y-13724174D02*
X13073753Y-13724174D01*
X13073753Y-13724174D02*
X13054706Y-13733698D01*
X13054706Y-13733698D02*
X13045182Y-13743222D01*
X13045182Y-13743222D02*
X13035658Y-13762269D01*
X13226134Y-13647984D02*
X13226134Y-13686079D01*
X13302325Y-13647984D02*
X13302325Y-13686079D01*
X13597563Y-13924174D02*
X13588039Y-13914650D01*
X13588039Y-13914650D02*
X13568991Y-13886079D01*
X13568991Y-13886079D02*
X13559468Y-13867031D01*
X13559468Y-13867031D02*
X13549944Y-13838460D01*
X13549944Y-13838460D02*
X13540420Y-13790841D01*
X13540420Y-13790841D02*
X13540420Y-13752746D01*
X13540420Y-13752746D02*
X13549944Y-13705127D01*
X13549944Y-13705127D02*
X13559468Y-13676555D01*
X13559468Y-13676555D02*
X13568991Y-13657508D01*
X13568991Y-13657508D02*
X13588039Y-13628936D01*
X13588039Y-13628936D02*
X13597563Y-13619412D01*
X13711848Y-13647984D02*
X13730896Y-13647984D01*
X13730896Y-13647984D02*
X13749944Y-13657508D01*
X13749944Y-13657508D02*
X13759468Y-13667031D01*
X13759468Y-13667031D02*
X13768991Y-13686079D01*
X13768991Y-13686079D02*
X13778515Y-13724174D01*
X13778515Y-13724174D02*
X13778515Y-13771793D01*
X13778515Y-13771793D02*
X13768991Y-13809888D01*
X13768991Y-13809888D02*
X13759468Y-13828936D01*
X13759468Y-13828936D02*
X13749944Y-13838460D01*
X13749944Y-13838460D02*
X13730896Y-13847984D01*
X13730896Y-13847984D02*
X13711848Y-13847984D01*
X13711848Y-13847984D02*
X13692801Y-13838460D01*
X13692801Y-13838460D02*
X13683277Y-13828936D01*
X13683277Y-13828936D02*
X13673753Y-13809888D01*
X13673753Y-13809888D02*
X13664229Y-13771793D01*
X13664229Y-13771793D02*
X13664229Y-13724174D01*
X13664229Y-13724174D02*
X13673753Y-13686079D01*
X13673753Y-13686079D02*
X13683277Y-13667031D01*
X13683277Y-13667031D02*
X13692801Y-13657508D01*
X13692801Y-13657508D02*
X13711848Y-13647984D01*
X14016610Y-13847984D02*
X14016610Y-13647984D01*
X14102325Y-13847984D02*
X14102325Y-13743222D01*
X14102325Y-13743222D02*
X14092801Y-13724174D01*
X14092801Y-13724174D02*
X14073753Y-13714650D01*
X14073753Y-13714650D02*
X14045182Y-13714650D01*
X14045182Y-13714650D02*
X14026134Y-13724174D01*
X14026134Y-13724174D02*
X14016610Y-13733698D01*
X14226134Y-13847984D02*
X14207087Y-13838460D01*
X14207087Y-13838460D02*
X14197563Y-13828936D01*
X14197563Y-13828936D02*
X14188039Y-13809888D01*
X14188039Y-13809888D02*
X14188039Y-13752746D01*
X14188039Y-13752746D02*
X14197563Y-13733698D01*
X14197563Y-13733698D02*
X14207087Y-13724174D01*
X14207087Y-13724174D02*
X14226134Y-13714650D01*
X14226134Y-13714650D02*
X14254706Y-13714650D01*
X14254706Y-13714650D02*
X14273753Y-13724174D01*
X14273753Y-13724174D02*
X14283277Y-13733698D01*
X14283277Y-13733698D02*
X14292801Y-13752746D01*
X14292801Y-13752746D02*
X14292801Y-13809888D01*
X14292801Y-13809888D02*
X14283277Y-13828936D01*
X14283277Y-13828936D02*
X14273753Y-13838460D01*
X14273753Y-13838460D02*
X14254706Y-13847984D01*
X14254706Y-13847984D02*
X14226134Y-13847984D01*
X14407087Y-13847984D02*
X14388039Y-13838460D01*
X14388039Y-13838460D02*
X14378515Y-13819412D01*
X14378515Y-13819412D02*
X14378515Y-13647984D01*
X14559468Y-13838460D02*
X14540420Y-13847984D01*
X14540420Y-13847984D02*
X14502325Y-13847984D01*
X14502325Y-13847984D02*
X14483277Y-13838460D01*
X14483277Y-13838460D02*
X14473753Y-13819412D01*
X14473753Y-13819412D02*
X14473753Y-13743222D01*
X14473753Y-13743222D02*
X14483277Y-13724174D01*
X14483277Y-13724174D02*
X14502325Y-13714650D01*
X14502325Y-13714650D02*
X14540420Y-13714650D01*
X14540420Y-13714650D02*
X14559468Y-13724174D01*
X14559468Y-13724174D02*
X14568991Y-13743222D01*
X14568991Y-13743222D02*
X14568991Y-13762269D01*
X14568991Y-13762269D02*
X14473753Y-13781317D01*
X14645182Y-13838460D02*
X14664230Y-13847984D01*
X14664230Y-13847984D02*
X14702325Y-13847984D01*
X14702325Y-13847984D02*
X14721372Y-13838460D01*
X14721372Y-13838460D02*
X14730896Y-13819412D01*
X14730896Y-13819412D02*
X14730896Y-13809888D01*
X14730896Y-13809888D02*
X14721372Y-13790841D01*
X14721372Y-13790841D02*
X14702325Y-13781317D01*
X14702325Y-13781317D02*
X14673753Y-13781317D01*
X14673753Y-13781317D02*
X14654706Y-13771793D01*
X14654706Y-13771793D02*
X14645182Y-13752746D01*
X14645182Y-13752746D02*
X14645182Y-13743222D01*
X14645182Y-13743222D02*
X14654706Y-13724174D01*
X14654706Y-13724174D02*
X14673753Y-13714650D01*
X14673753Y-13714650D02*
X14702325Y-13714650D01*
X14702325Y-13714650D02*
X14721372Y-13724174D01*
X14968992Y-13771793D02*
X15121373Y-13771793D01*
X15045182Y-13847984D02*
X15045182Y-13695603D01*
X15454706Y-13714650D02*
X15454706Y-13847984D01*
X15407087Y-13638460D02*
X15359468Y-13781317D01*
X15359468Y-13781317D02*
X15483277Y-13781317D01*
X15702325Y-13838460D02*
X15721373Y-13847984D01*
X15721373Y-13847984D02*
X15759468Y-13847984D01*
X15759468Y-13847984D02*
X15778515Y-13838460D01*
X15778515Y-13838460D02*
X15788039Y-13819412D01*
X15788039Y-13819412D02*
X15788039Y-13809888D01*
X15788039Y-13809888D02*
X15778515Y-13790841D01*
X15778515Y-13790841D02*
X15759468Y-13781317D01*
X15759468Y-13781317D02*
X15730896Y-13781317D01*
X15730896Y-13781317D02*
X15711849Y-13771793D01*
X15711849Y-13771793D02*
X15702325Y-13752746D01*
X15702325Y-13752746D02*
X15702325Y-13743222D01*
X15702325Y-13743222D02*
X15711849Y-13724174D01*
X15711849Y-13724174D02*
X15730896Y-13714650D01*
X15730896Y-13714650D02*
X15759468Y-13714650D01*
X15759468Y-13714650D02*
X15778515Y-13724174D01*
X15902325Y-13847984D02*
X15883277Y-13838460D01*
X15883277Y-13838460D02*
X15873754Y-13819412D01*
X15873754Y-13819412D02*
X15873754Y-13647984D01*
X16007087Y-13847984D02*
X15988039Y-13838460D01*
X15988039Y-13838460D02*
X15978515Y-13828936D01*
X15978515Y-13828936D02*
X15968992Y-13809888D01*
X15968992Y-13809888D02*
X15968992Y-13752746D01*
X15968992Y-13752746D02*
X15978515Y-13733698D01*
X15978515Y-13733698D02*
X15988039Y-13724174D01*
X15988039Y-13724174D02*
X16007087Y-13714650D01*
X16007087Y-13714650D02*
X16035658Y-13714650D01*
X16035658Y-13714650D02*
X16054706Y-13724174D01*
X16054706Y-13724174D02*
X16064230Y-13733698D01*
X16064230Y-13733698D02*
X16073754Y-13752746D01*
X16073754Y-13752746D02*
X16073754Y-13809888D01*
X16073754Y-13809888D02*
X16064230Y-13828936D01*
X16064230Y-13828936D02*
X16054706Y-13838460D01*
X16054706Y-13838460D02*
X16035658Y-13847984D01*
X16035658Y-13847984D02*
X16007087Y-13847984D01*
X16130896Y-13714650D02*
X16207087Y-13714650D01*
X16159468Y-13647984D02*
X16159468Y-13819412D01*
X16159468Y-13819412D02*
X16168992Y-13838460D01*
X16168992Y-13838460D02*
X16188039Y-13847984D01*
X16188039Y-13847984D02*
X16207087Y-13847984D01*
X16264230Y-13838460D02*
X16283277Y-13847984D01*
X16283277Y-13847984D02*
X16321373Y-13847984D01*
X16321373Y-13847984D02*
X16340420Y-13838460D01*
X16340420Y-13838460D02*
X16349944Y-13819412D01*
X16349944Y-13819412D02*
X16349944Y-13809888D01*
X16349944Y-13809888D02*
X16340420Y-13790841D01*
X16340420Y-13790841D02*
X16321373Y-13781317D01*
X16321373Y-13781317D02*
X16292801Y-13781317D01*
X16292801Y-13781317D02*
X16273754Y-13771793D01*
X16273754Y-13771793D02*
X16264230Y-13752746D01*
X16264230Y-13752746D02*
X16264230Y-13743222D01*
X16264230Y-13743222D02*
X16273754Y-13724174D01*
X16273754Y-13724174D02*
X16292801Y-13714650D01*
X16292801Y-13714650D02*
X16321373Y-13714650D01*
X16321373Y-13714650D02*
X16340420Y-13724174D01*
X16416611Y-13924174D02*
X16426135Y-13914650D01*
X16426135Y-13914650D02*
X16445182Y-13886079D01*
X16445182Y-13886079D02*
X16454706Y-13867031D01*
X16454706Y-13867031D02*
X16464230Y-13838460D01*
X16464230Y-13838460D02*
X16473754Y-13790841D01*
X16473754Y-13790841D02*
X16473754Y-13752746D01*
X16473754Y-13752746D02*
X16464230Y-13705127D01*
X16464230Y-13705127D02*
X16454706Y-13676555D01*
X16454706Y-13676555D02*
X16445182Y-13657508D01*
X16445182Y-13657508D02*
X16426135Y-13628936D01*
X16426135Y-13628936D02*
X16416611Y-13619412D01*
D12*
X9972500Y-13970500D02*
X9972500Y-14070500D01*
X9922500Y-14020500D02*
X10022500Y-14020500D01*
D11*
X10388039Y-14111984D02*
X10273753Y-14111984D01*
X10330896Y-14111984D02*
X10330896Y-13911984D01*
X10330896Y-13911984D02*
X10311848Y-13940555D01*
X10311848Y-13940555D02*
X10292801Y-13959603D01*
X10292801Y-13959603D02*
X10273753Y-13969127D01*
X10473753Y-14092936D02*
X10483277Y-14102460D01*
X10483277Y-14102460D02*
X10473753Y-14111984D01*
X10473753Y-14111984D02*
X10464229Y-14102460D01*
X10464229Y-14102460D02*
X10473753Y-14092936D01*
X10473753Y-14092936D02*
X10473753Y-14111984D01*
X10607086Y-13911984D02*
X10626134Y-13911984D01*
X10626134Y-13911984D02*
X10645182Y-13921508D01*
X10645182Y-13921508D02*
X10654705Y-13931031D01*
X10654705Y-13931031D02*
X10664229Y-13950079D01*
X10664229Y-13950079D02*
X10673753Y-13988174D01*
X10673753Y-13988174D02*
X10673753Y-14035793D01*
X10673753Y-14035793D02*
X10664229Y-14073888D01*
X10664229Y-14073888D02*
X10654705Y-14092936D01*
X10654705Y-14092936D02*
X10645182Y-14102460D01*
X10645182Y-14102460D02*
X10626134Y-14111984D01*
X10626134Y-14111984D02*
X10607086Y-14111984D01*
X10607086Y-14111984D02*
X10588039Y-14102460D01*
X10588039Y-14102460D02*
X10578515Y-14092936D01*
X10578515Y-14092936D02*
X10568991Y-14073888D01*
X10568991Y-14073888D02*
X10559467Y-14035793D01*
X10559467Y-14035793D02*
X10559467Y-13988174D01*
X10559467Y-13988174D02*
X10568991Y-13950079D01*
X10568991Y-13950079D02*
X10578515Y-13931031D01*
X10578515Y-13931031D02*
X10588039Y-13921508D01*
X10588039Y-13921508D02*
X10607086Y-13911984D01*
X10797563Y-13911984D02*
X10816610Y-13911984D01*
X10816610Y-13911984D02*
X10835658Y-13921508D01*
X10835658Y-13921508D02*
X10845182Y-13931031D01*
X10845182Y-13931031D02*
X10854705Y-13950079D01*
X10854705Y-13950079D02*
X10864229Y-13988174D01*
X10864229Y-13988174D02*
X10864229Y-14035793D01*
X10864229Y-14035793D02*
X10854705Y-14073888D01*
X10854705Y-14073888D02*
X10845182Y-14092936D01*
X10845182Y-14092936D02*
X10835658Y-14102460D01*
X10835658Y-14102460D02*
X10816610Y-14111984D01*
X10816610Y-14111984D02*
X10797563Y-14111984D01*
X10797563Y-14111984D02*
X10778515Y-14102460D01*
X10778515Y-14102460D02*
X10768991Y-14092936D01*
X10768991Y-14092936D02*
X10759467Y-14073888D01*
X10759467Y-14073888D02*
X10749944Y-14035793D01*
X10749944Y-14035793D02*
X10749944Y-13988174D01*
X10749944Y-13988174D02*
X10759467Y-13950079D01*
X10759467Y-13950079D02*
X10768991Y-13931031D01*
X10768991Y-13931031D02*
X10778515Y-13921508D01*
X10778515Y-13921508D02*
X10797563Y-13911984D01*
X10988039Y-13911984D02*
X11007086Y-13911984D01*
X11007086Y-13911984D02*
X11026134Y-13921508D01*
X11026134Y-13921508D02*
X11035658Y-13931031D01*
X11035658Y-13931031D02*
X11045182Y-13950079D01*
X11045182Y-13950079D02*
X11054705Y-13988174D01*
X11054705Y-13988174D02*
X11054705Y-14035793D01*
X11054705Y-14035793D02*
X11045182Y-14073888D01*
X11045182Y-14073888D02*
X11035658Y-14092936D01*
X11035658Y-14092936D02*
X11026134Y-14102460D01*
X11026134Y-14102460D02*
X11007086Y-14111984D01*
X11007086Y-14111984D02*
X10988039Y-14111984D01*
X10988039Y-14111984D02*
X10968991Y-14102460D01*
X10968991Y-14102460D02*
X10959467Y-14092936D01*
X10959467Y-14092936D02*
X10949944Y-14073888D01*
X10949944Y-14073888D02*
X10940420Y-14035793D01*
X10940420Y-14035793D02*
X10940420Y-13988174D01*
X10940420Y-13988174D02*
X10949944Y-13950079D01*
X10949944Y-13950079D02*
X10959467Y-13931031D01*
X10959467Y-13931031D02*
X10968991Y-13921508D01*
X10968991Y-13921508D02*
X10988039Y-13911984D01*
X11140420Y-14111984D02*
X11140420Y-13978650D01*
X11140420Y-13997698D02*
X11149944Y-13988174D01*
X11149944Y-13988174D02*
X11168991Y-13978650D01*
X11168991Y-13978650D02*
X11197563Y-13978650D01*
X11197563Y-13978650D02*
X11216610Y-13988174D01*
X11216610Y-13988174D02*
X11226134Y-14007222D01*
X11226134Y-14007222D02*
X11226134Y-14111984D01*
X11226134Y-14007222D02*
X11235658Y-13988174D01*
X11235658Y-13988174D02*
X11254705Y-13978650D01*
X11254705Y-13978650D02*
X11283277Y-13978650D01*
X11283277Y-13978650D02*
X11302324Y-13988174D01*
X11302324Y-13988174D02*
X11311848Y-14007222D01*
X11311848Y-14007222D02*
X11311848Y-14111984D01*
X11407086Y-14111984D02*
X11407086Y-13978650D01*
X11407086Y-13997698D02*
X11416610Y-13988174D01*
X11416610Y-13988174D02*
X11435658Y-13978650D01*
X11435658Y-13978650D02*
X11464229Y-13978650D01*
X11464229Y-13978650D02*
X11483277Y-13988174D01*
X11483277Y-13988174D02*
X11492801Y-14007222D01*
X11492801Y-14007222D02*
X11492801Y-14111984D01*
X11492801Y-14007222D02*
X11502324Y-13988174D01*
X11502324Y-13988174D02*
X11521372Y-13978650D01*
X11521372Y-13978650D02*
X11549943Y-13978650D01*
X11549943Y-13978650D02*
X11568991Y-13988174D01*
X11568991Y-13988174D02*
X11578515Y-14007222D01*
X11578515Y-14007222D02*
X11578515Y-14111984D01*
X11968991Y-13902460D02*
X11797563Y-14159603D01*
X12226134Y-13911984D02*
X12245182Y-13911984D01*
X12245182Y-13911984D02*
X12264229Y-13921508D01*
X12264229Y-13921508D02*
X12273753Y-13931031D01*
X12273753Y-13931031D02*
X12283277Y-13950079D01*
X12283277Y-13950079D02*
X12292801Y-13988174D01*
X12292801Y-13988174D02*
X12292801Y-14035793D01*
X12292801Y-14035793D02*
X12283277Y-14073888D01*
X12283277Y-14073888D02*
X12273753Y-14092936D01*
X12273753Y-14092936D02*
X12264229Y-14102460D01*
X12264229Y-14102460D02*
X12245182Y-14111984D01*
X12245182Y-14111984D02*
X12226134Y-14111984D01*
X12226134Y-14111984D02*
X12207086Y-14102460D01*
X12207086Y-14102460D02*
X12197563Y-14092936D01*
X12197563Y-14092936D02*
X12188039Y-14073888D01*
X12188039Y-14073888D02*
X12178515Y-14035793D01*
X12178515Y-14035793D02*
X12178515Y-13988174D01*
X12178515Y-13988174D02*
X12188039Y-13950079D01*
X12188039Y-13950079D02*
X12197563Y-13931031D01*
X12197563Y-13931031D02*
X12207086Y-13921508D01*
X12207086Y-13921508D02*
X12226134Y-13911984D01*
X12378515Y-14092936D02*
X12388039Y-14102460D01*
X12388039Y-14102460D02*
X12378515Y-14111984D01*
X12378515Y-14111984D02*
X12368991Y-14102460D01*
X12368991Y-14102460D02*
X12378515Y-14092936D01*
X12378515Y-14092936D02*
X12378515Y-14111984D01*
X12511848Y-13911984D02*
X12530896Y-13911984D01*
X12530896Y-13911984D02*
X12549944Y-13921508D01*
X12549944Y-13921508D02*
X12559467Y-13931031D01*
X12559467Y-13931031D02*
X12568991Y-13950079D01*
X12568991Y-13950079D02*
X12578515Y-13988174D01*
X12578515Y-13988174D02*
X12578515Y-14035793D01*
X12578515Y-14035793D02*
X12568991Y-14073888D01*
X12568991Y-14073888D02*
X12559467Y-14092936D01*
X12559467Y-14092936D02*
X12549944Y-14102460D01*
X12549944Y-14102460D02*
X12530896Y-14111984D01*
X12530896Y-14111984D02*
X12511848Y-14111984D01*
X12511848Y-14111984D02*
X12492801Y-14102460D01*
X12492801Y-14102460D02*
X12483277Y-14092936D01*
X12483277Y-14092936D02*
X12473753Y-14073888D01*
X12473753Y-14073888D02*
X12464229Y-14035793D01*
X12464229Y-14035793D02*
X12464229Y-13988174D01*
X12464229Y-13988174D02*
X12473753Y-13950079D01*
X12473753Y-13950079D02*
X12483277Y-13931031D01*
X12483277Y-13931031D02*
X12492801Y-13921508D01*
X12492801Y-13921508D02*
X12511848Y-13911984D01*
X12645182Y-13911984D02*
X12768991Y-13911984D01*
X12768991Y-13911984D02*
X12702325Y-13988174D01*
X12702325Y-13988174D02*
X12730896Y-13988174D01*
X12730896Y-13988174D02*
X12749944Y-13997698D01*
X12749944Y-13997698D02*
X12759467Y-14007222D01*
X12759467Y-14007222D02*
X12768991Y-14026269D01*
X12768991Y-14026269D02*
X12768991Y-14073888D01*
X12768991Y-14073888D02*
X12759467Y-14092936D01*
X12759467Y-14092936D02*
X12749944Y-14102460D01*
X12749944Y-14102460D02*
X12730896Y-14111984D01*
X12730896Y-14111984D02*
X12673753Y-14111984D01*
X12673753Y-14111984D02*
X12654706Y-14102460D01*
X12654706Y-14102460D02*
X12645182Y-14092936D01*
X12864229Y-14111984D02*
X12902325Y-14111984D01*
X12902325Y-14111984D02*
X12921372Y-14102460D01*
X12921372Y-14102460D02*
X12930896Y-14092936D01*
X12930896Y-14092936D02*
X12949944Y-14064365D01*
X12949944Y-14064365D02*
X12959467Y-14026269D01*
X12959467Y-14026269D02*
X12959467Y-13950079D01*
X12959467Y-13950079D02*
X12949944Y-13931031D01*
X12949944Y-13931031D02*
X12940420Y-13921508D01*
X12940420Y-13921508D02*
X12921372Y-13911984D01*
X12921372Y-13911984D02*
X12883277Y-13911984D01*
X12883277Y-13911984D02*
X12864229Y-13921508D01*
X12864229Y-13921508D02*
X12854706Y-13931031D01*
X12854706Y-13931031D02*
X12845182Y-13950079D01*
X12845182Y-13950079D02*
X12845182Y-13997698D01*
X12845182Y-13997698D02*
X12854706Y-14016746D01*
X12854706Y-14016746D02*
X12864229Y-14026269D01*
X12864229Y-14026269D02*
X12883277Y-14035793D01*
X12883277Y-14035793D02*
X12921372Y-14035793D01*
X12921372Y-14035793D02*
X12940420Y-14026269D01*
X12940420Y-14026269D02*
X12949944Y-14016746D01*
X12949944Y-14016746D02*
X12959467Y-13997698D01*
X13130896Y-13978650D02*
X13130896Y-14111984D01*
X13083277Y-13902460D02*
X13035658Y-14045317D01*
X13035658Y-14045317D02*
X13159467Y-14045317D01*
X13226134Y-13911984D02*
X13226134Y-13950079D01*
X13302325Y-13911984D02*
X13302325Y-13950079D01*
X13597563Y-14188174D02*
X13588039Y-14178650D01*
X13588039Y-14178650D02*
X13568991Y-14150079D01*
X13568991Y-14150079D02*
X13559468Y-14131031D01*
X13559468Y-14131031D02*
X13549944Y-14102460D01*
X13549944Y-14102460D02*
X13540420Y-14054841D01*
X13540420Y-14054841D02*
X13540420Y-14016746D01*
X13540420Y-14016746D02*
X13549944Y-13969127D01*
X13549944Y-13969127D02*
X13559468Y-13940555D01*
X13559468Y-13940555D02*
X13568991Y-13921508D01*
X13568991Y-13921508D02*
X13588039Y-13892936D01*
X13588039Y-13892936D02*
X13597563Y-13883412D01*
X13768991Y-13911984D02*
X13673753Y-13911984D01*
X13673753Y-13911984D02*
X13664229Y-14007222D01*
X13664229Y-14007222D02*
X13673753Y-13997698D01*
X13673753Y-13997698D02*
X13692801Y-13988174D01*
X13692801Y-13988174D02*
X13740420Y-13988174D01*
X13740420Y-13988174D02*
X13759468Y-13997698D01*
X13759468Y-13997698D02*
X13768991Y-14007222D01*
X13768991Y-14007222D02*
X13778515Y-14026269D01*
X13778515Y-14026269D02*
X13778515Y-14073888D01*
X13778515Y-14073888D02*
X13768991Y-14092936D01*
X13768991Y-14092936D02*
X13759468Y-14102460D01*
X13759468Y-14102460D02*
X13740420Y-14111984D01*
X13740420Y-14111984D02*
X13692801Y-14111984D01*
X13692801Y-14111984D02*
X13673753Y-14102460D01*
X13673753Y-14102460D02*
X13664229Y-14092936D01*
X13854706Y-13931031D02*
X13864229Y-13921508D01*
X13864229Y-13921508D02*
X13883277Y-13911984D01*
X13883277Y-13911984D02*
X13930896Y-13911984D01*
X13930896Y-13911984D02*
X13949944Y-13921508D01*
X13949944Y-13921508D02*
X13959468Y-13931031D01*
X13959468Y-13931031D02*
X13968991Y-13950079D01*
X13968991Y-13950079D02*
X13968991Y-13969127D01*
X13968991Y-13969127D02*
X13959468Y-13997698D01*
X13959468Y-13997698D02*
X13845182Y-14111984D01*
X13845182Y-14111984D02*
X13968991Y-14111984D01*
X14207087Y-14111984D02*
X14207087Y-13911984D01*
X14292801Y-14111984D02*
X14292801Y-14007222D01*
X14292801Y-14007222D02*
X14283277Y-13988174D01*
X14283277Y-13988174D02*
X14264230Y-13978650D01*
X14264230Y-13978650D02*
X14235658Y-13978650D01*
X14235658Y-13978650D02*
X14216610Y-13988174D01*
X14216610Y-13988174D02*
X14207087Y-13997698D01*
X14416610Y-14111984D02*
X14397563Y-14102460D01*
X14397563Y-14102460D02*
X14388039Y-14092936D01*
X14388039Y-14092936D02*
X14378515Y-14073888D01*
X14378515Y-14073888D02*
X14378515Y-14016746D01*
X14378515Y-14016746D02*
X14388039Y-13997698D01*
X14388039Y-13997698D02*
X14397563Y-13988174D01*
X14397563Y-13988174D02*
X14416610Y-13978650D01*
X14416610Y-13978650D02*
X14445182Y-13978650D01*
X14445182Y-13978650D02*
X14464230Y-13988174D01*
X14464230Y-13988174D02*
X14473753Y-13997698D01*
X14473753Y-13997698D02*
X14483277Y-14016746D01*
X14483277Y-14016746D02*
X14483277Y-14073888D01*
X14483277Y-14073888D02*
X14473753Y-14092936D01*
X14473753Y-14092936D02*
X14464230Y-14102460D01*
X14464230Y-14102460D02*
X14445182Y-14111984D01*
X14445182Y-14111984D02*
X14416610Y-14111984D01*
X14597563Y-14111984D02*
X14578515Y-14102460D01*
X14578515Y-14102460D02*
X14568991Y-14083412D01*
X14568991Y-14083412D02*
X14568991Y-13911984D01*
X14749944Y-14102460D02*
X14730896Y-14111984D01*
X14730896Y-14111984D02*
X14692801Y-14111984D01*
X14692801Y-14111984D02*
X14673753Y-14102460D01*
X14673753Y-14102460D02*
X14664230Y-14083412D01*
X14664230Y-14083412D02*
X14664230Y-14007222D01*
X14664230Y-14007222D02*
X14673753Y-13988174D01*
X14673753Y-13988174D02*
X14692801Y-13978650D01*
X14692801Y-13978650D02*
X14730896Y-13978650D01*
X14730896Y-13978650D02*
X14749944Y-13988174D01*
X14749944Y-13988174D02*
X14759468Y-14007222D01*
X14759468Y-14007222D02*
X14759468Y-14026269D01*
X14759468Y-14026269D02*
X14664230Y-14045317D01*
X14835658Y-14102460D02*
X14854706Y-14111984D01*
X14854706Y-14111984D02*
X14892801Y-14111984D01*
X14892801Y-14111984D02*
X14911849Y-14102460D01*
X14911849Y-14102460D02*
X14921372Y-14083412D01*
X14921372Y-14083412D02*
X14921372Y-14073888D01*
X14921372Y-14073888D02*
X14911849Y-14054841D01*
X14911849Y-14054841D02*
X14892801Y-14045317D01*
X14892801Y-14045317D02*
X14864230Y-14045317D01*
X14864230Y-14045317D02*
X14845182Y-14035793D01*
X14845182Y-14035793D02*
X14835658Y-14016746D01*
X14835658Y-14016746D02*
X14835658Y-14007222D01*
X14835658Y-14007222D02*
X14845182Y-13988174D01*
X14845182Y-13988174D02*
X14864230Y-13978650D01*
X14864230Y-13978650D02*
X14892801Y-13978650D01*
X14892801Y-13978650D02*
X14911849Y-13988174D01*
X14988039Y-14188174D02*
X14997563Y-14178650D01*
X14997563Y-14178650D02*
X15016611Y-14150079D01*
X15016611Y-14150079D02*
X15026134Y-14131031D01*
X15026134Y-14131031D02*
X15035658Y-14102460D01*
X15035658Y-14102460D02*
X15045182Y-14054841D01*
X15045182Y-14054841D02*
X15045182Y-14016746D01*
X15045182Y-14016746D02*
X15035658Y-13969127D01*
X15035658Y-13969127D02*
X15026134Y-13940555D01*
X15026134Y-13940555D02*
X15016611Y-13921508D01*
X15016611Y-13921508D02*
X14997563Y-13892936D01*
X14997563Y-13892936D02*
X14988039Y-13883412D01*
M02*
