M48
; DRILL file {KiCad 8.0.6-8.0.6-0~ubuntu24.04.1} date 2024-11-11T15:03:01+0100
; FORMAT={-:-/ absolute / metric / decimal}
; #@! TF.CreationDate,2024-11-11T15:03:01+01:00
; #@! TF.GenerationSoftware,Kicad,Pcbnew,8.0.6-8.0.6-0~ubuntu24.04.1
; #@! TF.FileFunction,Plated,1,2,PTH
FMAT,2
METRIC
; #@! TA.AperFunction,Plated,PTH,ViaDrill
T1C0.300
; #@! TA.AperFunction,Plated,PTH,ComponentDrill
T2C0.600
; #@! TA.AperFunction,Plated,PTH,ComponentDrill
T3C1.000
%
G90
G05
T1
X102.0Y-77.6
X102.0Y-83.82
X102.0Y-98.75
X102.0Y-102.9
X102.0Y-119.0
X102.0Y-123.0
X102.0Y-127.25
X104.4Y-106.6
X104.4Y-110.4
X105.0Y-90.25
X105.0Y-94.75
X105.25Y-108.5
X105.41Y-105.41
X105.41Y-114.3
X106.4Y-110.6
X106.62Y-99.38
X107.887Y-85.25
X109.068Y-110.744
X109.75Y-77.6
X109.75Y-87.25
X109.75Y-102.9
X109.75Y-119.0
X109.75Y-123.0
X109.75Y-127.25
X110.0Y-112.8
X110.49Y-107.95
X110.846Y-110.719
X112.5Y-89.25
X112.75Y-96.5
X115.1Y-114.8
X115.57Y-107.95
X116.3Y-77.6
X116.3Y-84.2
X116.75Y-101.05
X118.25Y-122.0
X119.3Y-100.562
X119.47Y-114.198
X121.25Y-95.0
X121.92Y-109.22
X122.2Y-102.762
X123.19Y-90.17
X123.19Y-93.98
X123.25Y-84.2
X123.3Y-77.6
X124.42Y-107.848
X124.42Y-115.468
X124.5Y-118.25
X126.4Y-119.4
X127.0Y-99.06
X127.0Y-104.14
X127.243Y-112.188
X128.229Y-116.027
X129.125Y-124.625
X129.6Y-107.6
X130.632Y-85.69
X130.75Y-123.0
X130.81Y-113.03
X131.6Y-90.0
X132.2Y-103.0
X132.918Y-96.114
X133.2Y-124.4
X134.0Y-114.7
X134.0Y-120.2
X134.0Y-127.5
X134.8Y-102.0
X135.2Y-77.6
X135.25Y-83.0
X136.677Y-104.3
X137.363Y-96.825
X137.49Y-87.224
X138.24Y-98.12
X138.43Y-90.119
X138.43Y-90.919
X138.43Y-91.745
X138.457Y-92.544
X138.887Y-85.776
X139.04Y-98.131
X139.751Y-85.776
X140.1Y-104.5
X140.689Y-89.408
X140.689Y-93.472
X141.4Y-98.0
X142.24Y-106.68
X142.24Y-116.84
X143.8Y-94.9
X144.2Y-105.6
X146.0Y-98.3
X146.05Y-96.114
X146.263Y-88.595
X146.3Y-77.6
X147.015Y-95.148
X147.041Y-93.599
X147.1Y-104.7
X147.5Y-83.25
X148.7Y-90.1
X149.5Y-85.115
X150.1Y-93.1
X150.2Y-102.9
X151.13Y-114.3
X151.246Y-103.504
X152.375Y-101.651
X155.5Y-97.0
X157.48Y-118.11
X157.48Y-123.25
X157.5Y-127.5
X158.1Y-77.6
X158.2Y-86.3
X158.25Y-112.4
X160.045Y-101.651
X160.076Y-102.45
X162.0Y-83.4
X162.0Y-88.5
X162.0Y-112.4
X162.5Y-127.5
X162.56Y-118.11
X162.56Y-123.19
X163.0Y-99.5
X164.5Y-83.4
X164.8Y-112.4
X166.0Y-99.5
X168.91Y-77.6
X168.91Y-85.09
X168.91Y-91.44
X168.91Y-97.79
X168.91Y-104.14
X168.91Y-110.49
X168.91Y-116.84
X168.91Y-123.19
X169.0Y-127.5
X172.72Y-77.6
X172.72Y-85.09
X172.72Y-91.44
X172.72Y-97.79
X172.72Y-104.14
X172.72Y-110.49
X172.72Y-116.84
X172.72Y-123.19
X172.75Y-127.5
T3
X119.99Y-120.701
X119.99Y-123.241
X122.53Y-120.701
X122.53Y-123.241
X125.07Y-120.701
X125.07Y-123.241
X126.111Y-80.21
X126.111Y-82.75
X127.61Y-120.701
X127.61Y-123.241
X128.651Y-80.21
X128.651Y-82.75
X131.191Y-80.21
X131.191Y-82.75
X139.471Y-80.21
X139.471Y-82.75
X140.386Y-120.777
X140.386Y-123.317
X142.011Y-80.21
X142.011Y-82.75
X142.926Y-120.777
X142.926Y-123.317
X144.551Y-80.21
X144.551Y-82.75
X145.466Y-120.777
X145.466Y-123.317
X148.006Y-120.777
X148.006Y-123.317
X158.2Y-82.144
X158.2Y-84.684
X158.2Y-94.361
X158.2Y-96.901
X158.2Y-107.036
X158.2Y-109.576
X160.74Y-82.144
X160.74Y-84.684
X160.74Y-94.361
X160.74Y-96.901
X160.74Y-107.036
X160.74Y-109.576
X163.28Y-82.144
X163.28Y-84.684
X163.28Y-94.361
X163.28Y-96.901
X163.28Y-107.036
X163.28Y-109.576
X165.82Y-82.144
X165.82Y-84.684
X165.82Y-94.361
X165.82Y-96.901
X165.82Y-107.036
X165.82Y-109.576
T2
X103.4Y-88.25G85X102.6Y-88.25
G05
X103.4Y-96.89G85X102.6Y-96.89
G05
X107.73Y-88.25G85X106.63Y-88.25
G05
X107.73Y-96.89G85X106.63Y-96.89
G05
M30
