%TF.GenerationSoftware,KiCad,Pcbnew,8.0.6-8.0.6-0~ubuntu24.04.1*%
%TF.CreationDate,2024-11-11T15:03:02+01:00*%
%TF.ProjectId,PicoMother,5069636f-4d6f-4746-9865-722e6b696361,1*%
%TF.SameCoordinates,Original*%
%TF.FileFunction,Drillmap*%
%TF.FilePolarity,Positive*%
%FSLAX45Y45*%
G04 Gerber Fmt 4.5, Leading zero omitted, Abs format (unit mm)*
G04 Created by KiCad (PCBNEW 8.0.6-8.0.6-0~ubuntu24.04.1) date 2024-11-11 15:03:02*
%MOMM*%
%LPD*%
G01*
G04 APERTURE LIST*
%ADD10C,0.050000*%
%ADD11C,0.200000*%
%ADD12C,0.100000*%
G04 APERTURE END LIST*
D10*
X10029077Y-7728033D02*
G75*
G02*
X10101105Y-7653028I75063J3D01*
G01*
X17375000Y-7721967D02*
X17375000Y-12775000D01*
X10025000Y-12775000D02*
X10029077Y-7728033D01*
X17302972Y-12850000D02*
X10100000Y-12847028D01*
X17375000Y-12775000D02*
G75*
G02*
X17302972Y-12849999I-75060J0D01*
G01*
X10101105Y-7653033D02*
X17300000Y-7649939D01*
X17300000Y-7649939D02*
G75*
G02*
X17375000Y-7721967I0J-75061D01*
G01*
X10100000Y-12847028D02*
G75*
G02*
X10025003Y-12775000I0J75058D01*
G01*
D11*
D12*
X10635500Y-8935500D02*
X10700500Y-9000500D01*
X10700500Y-8935500D02*
X10635500Y-9000500D01*
X10635500Y-9513500D02*
X10700500Y-9578500D01*
X10700500Y-9513500D02*
X10635500Y-9578500D01*
D11*
X10283277Y-13163984D02*
X10283277Y-12963984D01*
X10283277Y-12963984D02*
X10330896Y-12963984D01*
X10330896Y-12963984D02*
X10359467Y-12973508D01*
X10359467Y-12973508D02*
X10378515Y-12992555D01*
X10378515Y-12992555D02*
X10388039Y-13011603D01*
X10388039Y-13011603D02*
X10397563Y-13049698D01*
X10397563Y-13049698D02*
X10397563Y-13078269D01*
X10397563Y-13078269D02*
X10388039Y-13116365D01*
X10388039Y-13116365D02*
X10378515Y-13135412D01*
X10378515Y-13135412D02*
X10359467Y-13154460D01*
X10359467Y-13154460D02*
X10330896Y-13163984D01*
X10330896Y-13163984D02*
X10283277Y-13163984D01*
X10483277Y-13163984D02*
X10483277Y-13030650D01*
X10483277Y-13068746D02*
X10492801Y-13049698D01*
X10492801Y-13049698D02*
X10502324Y-13040174D01*
X10502324Y-13040174D02*
X10521372Y-13030650D01*
X10521372Y-13030650D02*
X10540420Y-13030650D01*
X10607086Y-13163984D02*
X10607086Y-13030650D01*
X10607086Y-12963984D02*
X10597563Y-12973508D01*
X10597563Y-12973508D02*
X10607086Y-12983031D01*
X10607086Y-12983031D02*
X10616610Y-12973508D01*
X10616610Y-12973508D02*
X10607086Y-12963984D01*
X10607086Y-12963984D02*
X10607086Y-12983031D01*
X10730896Y-13163984D02*
X10711848Y-13154460D01*
X10711848Y-13154460D02*
X10702324Y-13135412D01*
X10702324Y-13135412D02*
X10702324Y-12963984D01*
X10835658Y-13163984D02*
X10816610Y-13154460D01*
X10816610Y-13154460D02*
X10807086Y-13135412D01*
X10807086Y-13135412D02*
X10807086Y-12963984D01*
X11064229Y-13163984D02*
X11064229Y-12963984D01*
X11064229Y-12963984D02*
X11130896Y-13106841D01*
X11130896Y-13106841D02*
X11197562Y-12963984D01*
X11197562Y-12963984D02*
X11197562Y-13163984D01*
X11378515Y-13163984D02*
X11378515Y-13059222D01*
X11378515Y-13059222D02*
X11368991Y-13040174D01*
X11368991Y-13040174D02*
X11349943Y-13030650D01*
X11349943Y-13030650D02*
X11311848Y-13030650D01*
X11311848Y-13030650D02*
X11292801Y-13040174D01*
X11378515Y-13154460D02*
X11359467Y-13163984D01*
X11359467Y-13163984D02*
X11311848Y-13163984D01*
X11311848Y-13163984D02*
X11292801Y-13154460D01*
X11292801Y-13154460D02*
X11283277Y-13135412D01*
X11283277Y-13135412D02*
X11283277Y-13116365D01*
X11283277Y-13116365D02*
X11292801Y-13097317D01*
X11292801Y-13097317D02*
X11311848Y-13087793D01*
X11311848Y-13087793D02*
X11359467Y-13087793D01*
X11359467Y-13087793D02*
X11378515Y-13078269D01*
X11473753Y-13030650D02*
X11473753Y-13230650D01*
X11473753Y-13040174D02*
X11492801Y-13030650D01*
X11492801Y-13030650D02*
X11530896Y-13030650D01*
X11530896Y-13030650D02*
X11549943Y-13040174D01*
X11549943Y-13040174D02*
X11559467Y-13049698D01*
X11559467Y-13049698D02*
X11568991Y-13068746D01*
X11568991Y-13068746D02*
X11568991Y-13125888D01*
X11568991Y-13125888D02*
X11559467Y-13144936D01*
X11559467Y-13144936D02*
X11549943Y-13154460D01*
X11549943Y-13154460D02*
X11530896Y-13163984D01*
X11530896Y-13163984D02*
X11492801Y-13163984D01*
X11492801Y-13163984D02*
X11473753Y-13154460D01*
X11654705Y-13144936D02*
X11664229Y-13154460D01*
X11664229Y-13154460D02*
X11654705Y-13163984D01*
X11654705Y-13163984D02*
X11645182Y-13154460D01*
X11645182Y-13154460D02*
X11654705Y-13144936D01*
X11654705Y-13144936D02*
X11654705Y-13163984D01*
X11654705Y-13040174D02*
X11664229Y-13049698D01*
X11664229Y-13049698D02*
X11654705Y-13059222D01*
X11654705Y-13059222D02*
X11645182Y-13049698D01*
X11645182Y-13049698D02*
X11654705Y-13040174D01*
X11654705Y-13040174D02*
X11654705Y-13059222D01*
D12*
X9957500Y-13460000D02*
X10022500Y-13525000D01*
X10022500Y-13460000D02*
X9957500Y-13525000D01*
D11*
X10321372Y-13383984D02*
X10340420Y-13383984D01*
X10340420Y-13383984D02*
X10359467Y-13393508D01*
X10359467Y-13393508D02*
X10368991Y-13403031D01*
X10368991Y-13403031D02*
X10378515Y-13422079D01*
X10378515Y-13422079D02*
X10388039Y-13460174D01*
X10388039Y-13460174D02*
X10388039Y-13507793D01*
X10388039Y-13507793D02*
X10378515Y-13545888D01*
X10378515Y-13545888D02*
X10368991Y-13564936D01*
X10368991Y-13564936D02*
X10359467Y-13574460D01*
X10359467Y-13574460D02*
X10340420Y-13583984D01*
X10340420Y-13583984D02*
X10321372Y-13583984D01*
X10321372Y-13583984D02*
X10302324Y-13574460D01*
X10302324Y-13574460D02*
X10292801Y-13564936D01*
X10292801Y-13564936D02*
X10283277Y-13545888D01*
X10283277Y-13545888D02*
X10273753Y-13507793D01*
X10273753Y-13507793D02*
X10273753Y-13460174D01*
X10273753Y-13460174D02*
X10283277Y-13422079D01*
X10283277Y-13422079D02*
X10292801Y-13403031D01*
X10292801Y-13403031D02*
X10302324Y-13393508D01*
X10302324Y-13393508D02*
X10321372Y-13383984D01*
X10473753Y-13564936D02*
X10483277Y-13574460D01*
X10483277Y-13574460D02*
X10473753Y-13583984D01*
X10473753Y-13583984D02*
X10464229Y-13574460D01*
X10464229Y-13574460D02*
X10473753Y-13564936D01*
X10473753Y-13564936D02*
X10473753Y-13583984D01*
X10654705Y-13383984D02*
X10616610Y-13383984D01*
X10616610Y-13383984D02*
X10597563Y-13393508D01*
X10597563Y-13393508D02*
X10588039Y-13403031D01*
X10588039Y-13403031D02*
X10568991Y-13431603D01*
X10568991Y-13431603D02*
X10559467Y-13469698D01*
X10559467Y-13469698D02*
X10559467Y-13545888D01*
X10559467Y-13545888D02*
X10568991Y-13564936D01*
X10568991Y-13564936D02*
X10578515Y-13574460D01*
X10578515Y-13574460D02*
X10597563Y-13583984D01*
X10597563Y-13583984D02*
X10635658Y-13583984D01*
X10635658Y-13583984D02*
X10654705Y-13574460D01*
X10654705Y-13574460D02*
X10664229Y-13564936D01*
X10664229Y-13564936D02*
X10673753Y-13545888D01*
X10673753Y-13545888D02*
X10673753Y-13498269D01*
X10673753Y-13498269D02*
X10664229Y-13479222D01*
X10664229Y-13479222D02*
X10654705Y-13469698D01*
X10654705Y-13469698D02*
X10635658Y-13460174D01*
X10635658Y-13460174D02*
X10597563Y-13460174D01*
X10597563Y-13460174D02*
X10578515Y-13469698D01*
X10578515Y-13469698D02*
X10568991Y-13479222D01*
X10568991Y-13479222D02*
X10559467Y-13498269D01*
X10854705Y-13383984D02*
X10759467Y-13383984D01*
X10759467Y-13383984D02*
X10749944Y-13479222D01*
X10749944Y-13479222D02*
X10759467Y-13469698D01*
X10759467Y-13469698D02*
X10778515Y-13460174D01*
X10778515Y-13460174D02*
X10826134Y-13460174D01*
X10826134Y-13460174D02*
X10845182Y-13469698D01*
X10845182Y-13469698D02*
X10854705Y-13479222D01*
X10854705Y-13479222D02*
X10864229Y-13498269D01*
X10864229Y-13498269D02*
X10864229Y-13545888D01*
X10864229Y-13545888D02*
X10854705Y-13564936D01*
X10854705Y-13564936D02*
X10845182Y-13574460D01*
X10845182Y-13574460D02*
X10826134Y-13583984D01*
X10826134Y-13583984D02*
X10778515Y-13583984D01*
X10778515Y-13583984D02*
X10759467Y-13574460D01*
X10759467Y-13574460D02*
X10749944Y-13564936D01*
X10988039Y-13383984D02*
X11007086Y-13383984D01*
X11007086Y-13383984D02*
X11026134Y-13393508D01*
X11026134Y-13393508D02*
X11035658Y-13403031D01*
X11035658Y-13403031D02*
X11045182Y-13422079D01*
X11045182Y-13422079D02*
X11054705Y-13460174D01*
X11054705Y-13460174D02*
X11054705Y-13507793D01*
X11054705Y-13507793D02*
X11045182Y-13545888D01*
X11045182Y-13545888D02*
X11035658Y-13564936D01*
X11035658Y-13564936D02*
X11026134Y-13574460D01*
X11026134Y-13574460D02*
X11007086Y-13583984D01*
X11007086Y-13583984D02*
X10988039Y-13583984D01*
X10988039Y-13583984D02*
X10968991Y-13574460D01*
X10968991Y-13574460D02*
X10959467Y-13564936D01*
X10959467Y-13564936D02*
X10949944Y-13545888D01*
X10949944Y-13545888D02*
X10940420Y-13507793D01*
X10940420Y-13507793D02*
X10940420Y-13460174D01*
X10940420Y-13460174D02*
X10949944Y-13422079D01*
X10949944Y-13422079D02*
X10959467Y-13403031D01*
X10959467Y-13403031D02*
X10968991Y-13393508D01*
X10968991Y-13393508D02*
X10988039Y-13383984D01*
X11140420Y-13583984D02*
X11140420Y-13450650D01*
X11140420Y-13469698D02*
X11149944Y-13460174D01*
X11149944Y-13460174D02*
X11168991Y-13450650D01*
X11168991Y-13450650D02*
X11197563Y-13450650D01*
X11197563Y-13450650D02*
X11216610Y-13460174D01*
X11216610Y-13460174D02*
X11226134Y-13479222D01*
X11226134Y-13479222D02*
X11226134Y-13583984D01*
X11226134Y-13479222D02*
X11235658Y-13460174D01*
X11235658Y-13460174D02*
X11254705Y-13450650D01*
X11254705Y-13450650D02*
X11283277Y-13450650D01*
X11283277Y-13450650D02*
X11302324Y-13460174D01*
X11302324Y-13460174D02*
X11311848Y-13479222D01*
X11311848Y-13479222D02*
X11311848Y-13583984D01*
X11407086Y-13583984D02*
X11407086Y-13450650D01*
X11407086Y-13469698D02*
X11416610Y-13460174D01*
X11416610Y-13460174D02*
X11435658Y-13450650D01*
X11435658Y-13450650D02*
X11464229Y-13450650D01*
X11464229Y-13450650D02*
X11483277Y-13460174D01*
X11483277Y-13460174D02*
X11492801Y-13479222D01*
X11492801Y-13479222D02*
X11492801Y-13583984D01*
X11492801Y-13479222D02*
X11502324Y-13460174D01*
X11502324Y-13460174D02*
X11521372Y-13450650D01*
X11521372Y-13450650D02*
X11549943Y-13450650D01*
X11549943Y-13450650D02*
X11568991Y-13460174D01*
X11568991Y-13460174D02*
X11578515Y-13479222D01*
X11578515Y-13479222D02*
X11578515Y-13583984D01*
X11968991Y-13374460D02*
X11797563Y-13631603D01*
X12226134Y-13383984D02*
X12245182Y-13383984D01*
X12245182Y-13383984D02*
X12264229Y-13393508D01*
X12264229Y-13393508D02*
X12273753Y-13403031D01*
X12273753Y-13403031D02*
X12283277Y-13422079D01*
X12283277Y-13422079D02*
X12292801Y-13460174D01*
X12292801Y-13460174D02*
X12292801Y-13507793D01*
X12292801Y-13507793D02*
X12283277Y-13545888D01*
X12283277Y-13545888D02*
X12273753Y-13564936D01*
X12273753Y-13564936D02*
X12264229Y-13574460D01*
X12264229Y-13574460D02*
X12245182Y-13583984D01*
X12245182Y-13583984D02*
X12226134Y-13583984D01*
X12226134Y-13583984D02*
X12207086Y-13574460D01*
X12207086Y-13574460D02*
X12197563Y-13564936D01*
X12197563Y-13564936D02*
X12188039Y-13545888D01*
X12188039Y-13545888D02*
X12178515Y-13507793D01*
X12178515Y-13507793D02*
X12178515Y-13460174D01*
X12178515Y-13460174D02*
X12188039Y-13422079D01*
X12188039Y-13422079D02*
X12197563Y-13403031D01*
X12197563Y-13403031D02*
X12207086Y-13393508D01*
X12207086Y-13393508D02*
X12226134Y-13383984D01*
X12378515Y-13564936D02*
X12388039Y-13574460D01*
X12388039Y-13574460D02*
X12378515Y-13583984D01*
X12378515Y-13583984D02*
X12368991Y-13574460D01*
X12368991Y-13574460D02*
X12378515Y-13564936D01*
X12378515Y-13564936D02*
X12378515Y-13583984D01*
X12511848Y-13383984D02*
X12530896Y-13383984D01*
X12530896Y-13383984D02*
X12549944Y-13393508D01*
X12549944Y-13393508D02*
X12559467Y-13403031D01*
X12559467Y-13403031D02*
X12568991Y-13422079D01*
X12568991Y-13422079D02*
X12578515Y-13460174D01*
X12578515Y-13460174D02*
X12578515Y-13507793D01*
X12578515Y-13507793D02*
X12568991Y-13545888D01*
X12568991Y-13545888D02*
X12559467Y-13564936D01*
X12559467Y-13564936D02*
X12549944Y-13574460D01*
X12549944Y-13574460D02*
X12530896Y-13583984D01*
X12530896Y-13583984D02*
X12511848Y-13583984D01*
X12511848Y-13583984D02*
X12492801Y-13574460D01*
X12492801Y-13574460D02*
X12483277Y-13564936D01*
X12483277Y-13564936D02*
X12473753Y-13545888D01*
X12473753Y-13545888D02*
X12464229Y-13507793D01*
X12464229Y-13507793D02*
X12464229Y-13460174D01*
X12464229Y-13460174D02*
X12473753Y-13422079D01*
X12473753Y-13422079D02*
X12483277Y-13403031D01*
X12483277Y-13403031D02*
X12492801Y-13393508D01*
X12492801Y-13393508D02*
X12511848Y-13383984D01*
X12654706Y-13403031D02*
X12664229Y-13393508D01*
X12664229Y-13393508D02*
X12683277Y-13383984D01*
X12683277Y-13383984D02*
X12730896Y-13383984D01*
X12730896Y-13383984D02*
X12749944Y-13393508D01*
X12749944Y-13393508D02*
X12759467Y-13403031D01*
X12759467Y-13403031D02*
X12768991Y-13422079D01*
X12768991Y-13422079D02*
X12768991Y-13441127D01*
X12768991Y-13441127D02*
X12759467Y-13469698D01*
X12759467Y-13469698D02*
X12645182Y-13583984D01*
X12645182Y-13583984D02*
X12768991Y-13583984D01*
X12949944Y-13383984D02*
X12854706Y-13383984D01*
X12854706Y-13383984D02*
X12845182Y-13479222D01*
X12845182Y-13479222D02*
X12854706Y-13469698D01*
X12854706Y-13469698D02*
X12873753Y-13460174D01*
X12873753Y-13460174D02*
X12921372Y-13460174D01*
X12921372Y-13460174D02*
X12940420Y-13469698D01*
X12940420Y-13469698D02*
X12949944Y-13479222D01*
X12949944Y-13479222D02*
X12959467Y-13498269D01*
X12959467Y-13498269D02*
X12959467Y-13545888D01*
X12959467Y-13545888D02*
X12949944Y-13564936D01*
X12949944Y-13564936D02*
X12940420Y-13574460D01*
X12940420Y-13574460D02*
X12921372Y-13583984D01*
X12921372Y-13583984D02*
X12873753Y-13583984D01*
X12873753Y-13583984D02*
X12854706Y-13574460D01*
X12854706Y-13574460D02*
X12845182Y-13564936D01*
X13130896Y-13383984D02*
X13092801Y-13383984D01*
X13092801Y-13383984D02*
X13073753Y-13393508D01*
X13073753Y-13393508D02*
X13064229Y-13403031D01*
X13064229Y-13403031D02*
X13045182Y-13431603D01*
X13045182Y-13431603D02*
X13035658Y-13469698D01*
X13035658Y-13469698D02*
X13035658Y-13545888D01*
X13035658Y-13545888D02*
X13045182Y-13564936D01*
X13045182Y-13564936D02*
X13054706Y-13574460D01*
X13054706Y-13574460D02*
X13073753Y-13583984D01*
X13073753Y-13583984D02*
X13111848Y-13583984D01*
X13111848Y-13583984D02*
X13130896Y-13574460D01*
X13130896Y-13574460D02*
X13140420Y-13564936D01*
X13140420Y-13564936D02*
X13149944Y-13545888D01*
X13149944Y-13545888D02*
X13149944Y-13498269D01*
X13149944Y-13498269D02*
X13140420Y-13479222D01*
X13140420Y-13479222D02*
X13130896Y-13469698D01*
X13130896Y-13469698D02*
X13111848Y-13460174D01*
X13111848Y-13460174D02*
X13073753Y-13460174D01*
X13073753Y-13460174D02*
X13054706Y-13469698D01*
X13054706Y-13469698D02*
X13045182Y-13479222D01*
X13045182Y-13479222D02*
X13035658Y-13498269D01*
X13226134Y-13383984D02*
X13226134Y-13422079D01*
X13302325Y-13383984D02*
X13302325Y-13422079D01*
X13597563Y-13660174D02*
X13588039Y-13650650D01*
X13588039Y-13650650D02*
X13568991Y-13622079D01*
X13568991Y-13622079D02*
X13559468Y-13603031D01*
X13559468Y-13603031D02*
X13549944Y-13574460D01*
X13549944Y-13574460D02*
X13540420Y-13526841D01*
X13540420Y-13526841D02*
X13540420Y-13488746D01*
X13540420Y-13488746D02*
X13549944Y-13441127D01*
X13549944Y-13441127D02*
X13559468Y-13412555D01*
X13559468Y-13412555D02*
X13568991Y-13393508D01*
X13568991Y-13393508D02*
X13588039Y-13364936D01*
X13588039Y-13364936D02*
X13597563Y-13355412D01*
X13664229Y-13403031D02*
X13673753Y-13393508D01*
X13673753Y-13393508D02*
X13692801Y-13383984D01*
X13692801Y-13383984D02*
X13740420Y-13383984D01*
X13740420Y-13383984D02*
X13759468Y-13393508D01*
X13759468Y-13393508D02*
X13768991Y-13403031D01*
X13768991Y-13403031D02*
X13778515Y-13422079D01*
X13778515Y-13422079D02*
X13778515Y-13441127D01*
X13778515Y-13441127D02*
X13768991Y-13469698D01*
X13768991Y-13469698D02*
X13654706Y-13583984D01*
X13654706Y-13583984D02*
X13778515Y-13583984D01*
X14016610Y-13583984D02*
X14016610Y-13383984D01*
X14102325Y-13583984D02*
X14102325Y-13479222D01*
X14102325Y-13479222D02*
X14092801Y-13460174D01*
X14092801Y-13460174D02*
X14073753Y-13450650D01*
X14073753Y-13450650D02*
X14045182Y-13450650D01*
X14045182Y-13450650D02*
X14026134Y-13460174D01*
X14026134Y-13460174D02*
X14016610Y-13469698D01*
X14226134Y-13583984D02*
X14207087Y-13574460D01*
X14207087Y-13574460D02*
X14197563Y-13564936D01*
X14197563Y-13564936D02*
X14188039Y-13545888D01*
X14188039Y-13545888D02*
X14188039Y-13488746D01*
X14188039Y-13488746D02*
X14197563Y-13469698D01*
X14197563Y-13469698D02*
X14207087Y-13460174D01*
X14207087Y-13460174D02*
X14226134Y-13450650D01*
X14226134Y-13450650D02*
X14254706Y-13450650D01*
X14254706Y-13450650D02*
X14273753Y-13460174D01*
X14273753Y-13460174D02*
X14283277Y-13469698D01*
X14283277Y-13469698D02*
X14292801Y-13488746D01*
X14292801Y-13488746D02*
X14292801Y-13545888D01*
X14292801Y-13545888D02*
X14283277Y-13564936D01*
X14283277Y-13564936D02*
X14273753Y-13574460D01*
X14273753Y-13574460D02*
X14254706Y-13583984D01*
X14254706Y-13583984D02*
X14226134Y-13583984D01*
X14407087Y-13583984D02*
X14388039Y-13574460D01*
X14388039Y-13574460D02*
X14378515Y-13555412D01*
X14378515Y-13555412D02*
X14378515Y-13383984D01*
X14559468Y-13574460D02*
X14540420Y-13583984D01*
X14540420Y-13583984D02*
X14502325Y-13583984D01*
X14502325Y-13583984D02*
X14483277Y-13574460D01*
X14483277Y-13574460D02*
X14473753Y-13555412D01*
X14473753Y-13555412D02*
X14473753Y-13479222D01*
X14473753Y-13479222D02*
X14483277Y-13460174D01*
X14483277Y-13460174D02*
X14502325Y-13450650D01*
X14502325Y-13450650D02*
X14540420Y-13450650D01*
X14540420Y-13450650D02*
X14559468Y-13460174D01*
X14559468Y-13460174D02*
X14568991Y-13479222D01*
X14568991Y-13479222D02*
X14568991Y-13498269D01*
X14568991Y-13498269D02*
X14473753Y-13517317D01*
X14645182Y-13574460D02*
X14664230Y-13583984D01*
X14664230Y-13583984D02*
X14702325Y-13583984D01*
X14702325Y-13583984D02*
X14721372Y-13574460D01*
X14721372Y-13574460D02*
X14730896Y-13555412D01*
X14730896Y-13555412D02*
X14730896Y-13545888D01*
X14730896Y-13545888D02*
X14721372Y-13526841D01*
X14721372Y-13526841D02*
X14702325Y-13517317D01*
X14702325Y-13517317D02*
X14673753Y-13517317D01*
X14673753Y-13517317D02*
X14654706Y-13507793D01*
X14654706Y-13507793D02*
X14645182Y-13488746D01*
X14645182Y-13488746D02*
X14645182Y-13479222D01*
X14645182Y-13479222D02*
X14654706Y-13460174D01*
X14654706Y-13460174D02*
X14673753Y-13450650D01*
X14673753Y-13450650D02*
X14702325Y-13450650D01*
X14702325Y-13450650D02*
X14721372Y-13460174D01*
X14797563Y-13660174D02*
X14807087Y-13650650D01*
X14807087Y-13650650D02*
X14826134Y-13622079D01*
X14826134Y-13622079D02*
X14835658Y-13603031D01*
X14835658Y-13603031D02*
X14845182Y-13574460D01*
X14845182Y-13574460D02*
X14854706Y-13526841D01*
X14854706Y-13526841D02*
X14854706Y-13488746D01*
X14854706Y-13488746D02*
X14845182Y-13441127D01*
X14845182Y-13441127D02*
X14835658Y-13412555D01*
X14835658Y-13412555D02*
X14826134Y-13393508D01*
X14826134Y-13393508D02*
X14807087Y-13364936D01*
X14807087Y-13364936D02*
X14797563Y-13355412D01*
X15159468Y-13660174D02*
X15149944Y-13650650D01*
X15149944Y-13650650D02*
X15130896Y-13622079D01*
X15130896Y-13622079D02*
X15121372Y-13603031D01*
X15121372Y-13603031D02*
X15111849Y-13574460D01*
X15111849Y-13574460D02*
X15102325Y-13526841D01*
X15102325Y-13526841D02*
X15102325Y-13488746D01*
X15102325Y-13488746D02*
X15111849Y-13441127D01*
X15111849Y-13441127D02*
X15121372Y-13412555D01*
X15121372Y-13412555D02*
X15130896Y-13393508D01*
X15130896Y-13393508D02*
X15149944Y-13364936D01*
X15149944Y-13364936D02*
X15159468Y-13355412D01*
X15235658Y-13450650D02*
X15235658Y-13583984D01*
X15235658Y-13469698D02*
X15245182Y-13460174D01*
X15245182Y-13460174D02*
X15264230Y-13450650D01*
X15264230Y-13450650D02*
X15292801Y-13450650D01*
X15292801Y-13450650D02*
X15311849Y-13460174D01*
X15311849Y-13460174D02*
X15321372Y-13479222D01*
X15321372Y-13479222D02*
X15321372Y-13583984D01*
X15445182Y-13583984D02*
X15426134Y-13574460D01*
X15426134Y-13574460D02*
X15416611Y-13564936D01*
X15416611Y-13564936D02*
X15407087Y-13545888D01*
X15407087Y-13545888D02*
X15407087Y-13488746D01*
X15407087Y-13488746D02*
X15416611Y-13469698D01*
X15416611Y-13469698D02*
X15426134Y-13460174D01*
X15426134Y-13460174D02*
X15445182Y-13450650D01*
X15445182Y-13450650D02*
X15473753Y-13450650D01*
X15473753Y-13450650D02*
X15492801Y-13460174D01*
X15492801Y-13460174D02*
X15502325Y-13469698D01*
X15502325Y-13469698D02*
X15511849Y-13488746D01*
X15511849Y-13488746D02*
X15511849Y-13545888D01*
X15511849Y-13545888D02*
X15502325Y-13564936D01*
X15502325Y-13564936D02*
X15492801Y-13574460D01*
X15492801Y-13574460D02*
X15473753Y-13583984D01*
X15473753Y-13583984D02*
X15445182Y-13583984D01*
X15568992Y-13450650D02*
X15645182Y-13450650D01*
X15597563Y-13383984D02*
X15597563Y-13555412D01*
X15597563Y-13555412D02*
X15607087Y-13574460D01*
X15607087Y-13574460D02*
X15626134Y-13583984D01*
X15626134Y-13583984D02*
X15645182Y-13583984D01*
X15864230Y-13450650D02*
X15864230Y-13650650D01*
X15864230Y-13460174D02*
X15883277Y-13450650D01*
X15883277Y-13450650D02*
X15921373Y-13450650D01*
X15921373Y-13450650D02*
X15940420Y-13460174D01*
X15940420Y-13460174D02*
X15949944Y-13469698D01*
X15949944Y-13469698D02*
X15959468Y-13488746D01*
X15959468Y-13488746D02*
X15959468Y-13545888D01*
X15959468Y-13545888D02*
X15949944Y-13564936D01*
X15949944Y-13564936D02*
X15940420Y-13574460D01*
X15940420Y-13574460D02*
X15921373Y-13583984D01*
X15921373Y-13583984D02*
X15883277Y-13583984D01*
X15883277Y-13583984D02*
X15864230Y-13574460D01*
X16073753Y-13583984D02*
X16054706Y-13574460D01*
X16054706Y-13574460D02*
X16045182Y-13555412D01*
X16045182Y-13555412D02*
X16045182Y-13383984D01*
X16235658Y-13583984D02*
X16235658Y-13479222D01*
X16235658Y-13479222D02*
X16226134Y-13460174D01*
X16226134Y-13460174D02*
X16207087Y-13450650D01*
X16207087Y-13450650D02*
X16168992Y-13450650D01*
X16168992Y-13450650D02*
X16149944Y-13460174D01*
X16235658Y-13574460D02*
X16216611Y-13583984D01*
X16216611Y-13583984D02*
X16168992Y-13583984D01*
X16168992Y-13583984D02*
X16149944Y-13574460D01*
X16149944Y-13574460D02*
X16140420Y-13555412D01*
X16140420Y-13555412D02*
X16140420Y-13536365D01*
X16140420Y-13536365D02*
X16149944Y-13517317D01*
X16149944Y-13517317D02*
X16168992Y-13507793D01*
X16168992Y-13507793D02*
X16216611Y-13507793D01*
X16216611Y-13507793D02*
X16235658Y-13498269D01*
X16302325Y-13450650D02*
X16378515Y-13450650D01*
X16330896Y-13383984D02*
X16330896Y-13555412D01*
X16330896Y-13555412D02*
X16340420Y-13574460D01*
X16340420Y-13574460D02*
X16359468Y-13583984D01*
X16359468Y-13583984D02*
X16378515Y-13583984D01*
X16521373Y-13574460D02*
X16502325Y-13583984D01*
X16502325Y-13583984D02*
X16464230Y-13583984D01*
X16464230Y-13583984D02*
X16445182Y-13574460D01*
X16445182Y-13574460D02*
X16435658Y-13555412D01*
X16435658Y-13555412D02*
X16435658Y-13479222D01*
X16435658Y-13479222D02*
X16445182Y-13460174D01*
X16445182Y-13460174D02*
X16464230Y-13450650D01*
X16464230Y-13450650D02*
X16502325Y-13450650D01*
X16502325Y-13450650D02*
X16521373Y-13460174D01*
X16521373Y-13460174D02*
X16530896Y-13479222D01*
X16530896Y-13479222D02*
X16530896Y-13498269D01*
X16530896Y-13498269D02*
X16435658Y-13517317D01*
X16702325Y-13583984D02*
X16702325Y-13383984D01*
X16702325Y-13574460D02*
X16683277Y-13583984D01*
X16683277Y-13583984D02*
X16645182Y-13583984D01*
X16645182Y-13583984D02*
X16626134Y-13574460D01*
X16626134Y-13574460D02*
X16616611Y-13564936D01*
X16616611Y-13564936D02*
X16607087Y-13545888D01*
X16607087Y-13545888D02*
X16607087Y-13488746D01*
X16607087Y-13488746D02*
X16616611Y-13469698D01*
X16616611Y-13469698D02*
X16626134Y-13460174D01*
X16626134Y-13460174D02*
X16645182Y-13450650D01*
X16645182Y-13450650D02*
X16683277Y-13450650D01*
X16683277Y-13450650D02*
X16702325Y-13460174D01*
X16778516Y-13660174D02*
X16788039Y-13650650D01*
X16788039Y-13650650D02*
X16807087Y-13622079D01*
X16807087Y-13622079D02*
X16816611Y-13603031D01*
X16816611Y-13603031D02*
X16826135Y-13574460D01*
X16826135Y-13574460D02*
X16835658Y-13526841D01*
X16835658Y-13526841D02*
X16835658Y-13488746D01*
X16835658Y-13488746D02*
X16826135Y-13441127D01*
X16826135Y-13441127D02*
X16816611Y-13412555D01*
X16816611Y-13412555D02*
X16807087Y-13393508D01*
X16807087Y-13393508D02*
X16788039Y-13364936D01*
X16788039Y-13364936D02*
X16778516Y-13355412D01*
M02*
