G04 #@! TF.GenerationSoftware,KiCad,Pcbnew,8.0.6-8.0.6-0~ubuntu24.04.1*
G04 #@! TF.CreationDate,2024-11-11T15:02:52+01:00*
G04 #@! TF.ProjectId,PicoMother,5069636f-4d6f-4746-9865-722e6b696361,1*
G04 #@! TF.SameCoordinates,Original*
G04 #@! TF.FileFunction,Soldermask,Top*
G04 #@! TF.FilePolarity,Negative*
%FSLAX46Y46*%
G04 Gerber Fmt 4.6, Leading zero omitted, Abs format (unit mm)*
G04 Created by KiCad (PCBNEW 8.0.6-8.0.6-0~ubuntu24.04.1) date 2024-11-11 15:02:52*
%MOMM*%
%LPD*%
G01*
G04 APERTURE LIST*
G04 Aperture macros list*
%AMRoundRect*
0 Rectangle with rounded corners*
0 $1 Rounding radius*
0 $2 $3 $4 $5 $6 $7 $8 $9 X,Y pos of 4 corners*
0 Add a 4 corners polygon primitive as box body*
4,1,4,$2,$3,$4,$5,$6,$7,$8,$9,$2,$3,0*
0 Add four circle primitives for the rounded corners*
1,1,$1+$1,$2,$3*
1,1,$1+$1,$4,$5*
1,1,$1+$1,$6,$7*
1,1,$1+$1,$8,$9*
0 Add four rect primitives between the rounded corners*
20,1,$1+$1,$2,$3,$4,$5,0*
20,1,$1+$1,$4,$5,$6,$7,0*
20,1,$1+$1,$6,$7,$8,$9,0*
20,1,$1+$1,$8,$9,$2,$3,0*%
G04 Aperture macros list end*
%ADD10RoundRect,0.237500X-0.237500X0.250000X-0.237500X-0.250000X0.237500X-0.250000X0.237500X0.250000X0*%
%ADD11RoundRect,0.237500X-0.250000X-0.237500X0.250000X-0.237500X0.250000X0.237500X-0.250000X0.237500X0*%
%ADD12RoundRect,0.250000X0.600000X-0.600000X0.600000X0.600000X-0.600000X0.600000X-0.600000X-0.600000X0*%
%ADD13C,1.700000*%
%ADD14RoundRect,0.237500X0.237500X-0.300000X0.237500X0.300000X-0.237500X0.300000X-0.237500X-0.300000X0*%
%ADD15R,0.550000X1.600000*%
%ADD16R,1.600000X0.550000*%
%ADD17RoundRect,0.237500X0.300000X0.237500X-0.300000X0.237500X-0.300000X-0.237500X0.300000X-0.237500X0*%
%ADD18RoundRect,0.237500X-0.237500X0.300000X-0.237500X-0.300000X0.237500X-0.300000X0.237500X0.300000X0*%
%ADD19RoundRect,0.237500X0.237500X-0.287500X0.237500X0.287500X-0.237500X0.287500X-0.237500X-0.287500X0*%
%ADD20RoundRect,0.237500X0.237500X-0.250000X0.237500X0.250000X-0.237500X0.250000X-0.237500X-0.250000X0*%
%ADD21R,1.100000X0.850000*%
%ADD22R,1.100000X0.750000*%
%ADD23R,1.000000X1.200000*%
%ADD24R,1.350000X1.550000*%
%ADD25R,1.350000X1.900000*%
%ADD26R,1.800000X1.170000*%
%ADD27RoundRect,0.237500X0.250000X0.237500X-0.250000X0.237500X-0.250000X-0.237500X0.250000X-0.237500X0*%
%ADD28R,2.800000X1.000000*%
%ADD29R,1.700000X1.700000*%
%ADD30O,1.700000X1.700000*%
%ADD31RoundRect,0.237500X0.287500X0.237500X-0.287500X0.237500X-0.287500X-0.237500X0.287500X-0.237500X0*%
%ADD32RoundRect,0.150000X-0.825000X-0.150000X0.825000X-0.150000X0.825000X0.150000X-0.825000X0.150000X0*%
%ADD33RoundRect,0.150000X0.150000X-0.587500X0.150000X0.587500X-0.150000X0.587500X-0.150000X-0.587500X0*%
%ADD34R,2.100000X1.800000*%
%ADD35RoundRect,0.237500X-0.300000X-0.237500X0.300000X-0.237500X0.300000X0.237500X-0.300000X0.237500X0*%
%ADD36C,0.650000*%
%ADD37RoundRect,0.150000X-0.425000X0.150000X-0.425000X-0.150000X0.425000X-0.150000X0.425000X0.150000X0*%
%ADD38RoundRect,0.075000X-0.500000X0.075000X-0.500000X-0.075000X0.500000X-0.075000X0.500000X0.075000X0*%
%ADD39O,2.100000X1.000000*%
%ADD40O,1.800000X1.000000*%
G04 APERTURE END LIST*
D10*
G04 #@! TO.C,R8*
X123200000Y-80487500D03*
X123200000Y-82312500D03*
G04 #@! TD*
D11*
G04 #@! TO.C,R1*
X119993600Y-98382000D03*
X121818600Y-98382000D03*
G04 #@! TD*
D12*
G04 #@! TO.C,J5*
X119989600Y-123240800D03*
D13*
X119989600Y-120700800D03*
X122529600Y-123240800D03*
X122529600Y-120700800D03*
X125069600Y-123240800D03*
X125069600Y-120700800D03*
X127609600Y-123240800D03*
X127609600Y-120700800D03*
G04 #@! TD*
D11*
G04 #@! TO.C,R11*
X111837500Y-92000000D03*
X113662500Y-92000000D03*
G04 #@! TD*
D14*
G04 #@! TO.C,C4*
X139800000Y-102775000D03*
X139800000Y-101050000D03*
G04 #@! TD*
D11*
G04 #@! TO.C,R13*
X134087500Y-85000000D03*
X135912500Y-85000000D03*
G04 #@! TD*
D15*
G04 #@! TO.C,U5*
X120447400Y-96384000D03*
X121247400Y-96384000D03*
X122047400Y-96384000D03*
X122847400Y-96384000D03*
X123647400Y-96384000D03*
X124447400Y-96384000D03*
X125247400Y-96384000D03*
X126047400Y-96384000D03*
D16*
X127497400Y-94934000D03*
X127497400Y-94134000D03*
X127497400Y-93334000D03*
X127497400Y-92534000D03*
X127497400Y-91734000D03*
X127497400Y-90934000D03*
X127497400Y-90134000D03*
X127497400Y-89334000D03*
D15*
X126047400Y-87884000D03*
X125247400Y-87884000D03*
X124447400Y-87884000D03*
X123647400Y-87884000D03*
X122847400Y-87884000D03*
X122047400Y-87884000D03*
X121247400Y-87884000D03*
X120447400Y-87884000D03*
D16*
X118997400Y-89334000D03*
X118997400Y-90134000D03*
X118997400Y-90934000D03*
X118997400Y-91734000D03*
X118997400Y-92534000D03*
X118997400Y-93334000D03*
X118997400Y-94134000D03*
X118997400Y-94934000D03*
G04 #@! TD*
D10*
G04 #@! TO.C,R20*
X151250000Y-92087500D03*
X151250000Y-93912500D03*
G04 #@! TD*
D17*
G04 #@! TO.C,C3*
X133892198Y-111468050D03*
X132167198Y-111468050D03*
G04 #@! TD*
D11*
G04 #@! TO.C,R12*
X111837500Y-93500000D03*
X113662500Y-93500000D03*
G04 #@! TD*
G04 #@! TO.C,R7*
X142567700Y-98382000D03*
X144392700Y-98382000D03*
G04 #@! TD*
D12*
G04 #@! TO.C,J3*
X158200000Y-109575600D03*
D13*
X158200000Y-107035600D03*
X160740000Y-109575600D03*
X160740000Y-107035600D03*
X163280000Y-109575600D03*
X163280000Y-107035600D03*
X165820000Y-109575600D03*
X165820000Y-107035600D03*
G04 #@! TD*
D18*
G04 #@! TO.C,C11*
X124500000Y-101050000D03*
X124500000Y-102775000D03*
G04 #@! TD*
D19*
G04 #@! TO.C,D10*
X113000000Y-125125000D03*
X113000000Y-123375000D03*
G04 #@! TD*
D20*
G04 #@! TO.C,R9*
X130632200Y-88662500D03*
X130632200Y-86837500D03*
G04 #@! TD*
D15*
G04 #@! TO.C,U4*
X138288800Y-96384000D03*
X139088800Y-96384000D03*
X139888800Y-96384000D03*
X140688800Y-96384000D03*
X141488800Y-96384000D03*
X142288800Y-96384000D03*
X143088800Y-96384000D03*
X143888800Y-96384000D03*
D16*
X145338800Y-94934000D03*
X145338800Y-94134000D03*
X145338800Y-93334000D03*
X145338800Y-92534000D03*
X145338800Y-91734000D03*
X145338800Y-90934000D03*
X145338800Y-90134000D03*
X145338800Y-89334000D03*
D15*
X143888800Y-87884000D03*
X143088800Y-87884000D03*
X142288800Y-87884000D03*
X141488800Y-87884000D03*
X140688800Y-87884000D03*
X139888800Y-87884000D03*
X139088800Y-87884000D03*
X138288800Y-87884000D03*
D16*
X136838800Y-89334000D03*
X136838800Y-90134000D03*
X136838800Y-90934000D03*
X136838800Y-91734000D03*
X136838800Y-92534000D03*
X136838800Y-93334000D03*
X136838800Y-94134000D03*
X136838800Y-94934000D03*
G04 #@! TD*
D18*
G04 #@! TO.C,C5*
X147400000Y-101050000D03*
X147400000Y-102775000D03*
G04 #@! TD*
D14*
G04 #@! TO.C,C6*
X138000000Y-101137500D03*
X138000000Y-99412500D03*
G04 #@! TD*
D19*
G04 #@! TO.C,D5*
X130632200Y-93125000D03*
X130632200Y-91375000D03*
G04 #@! TD*
D21*
G04 #@! TO.C,J6*
X102220600Y-113899800D03*
X102220600Y-112799800D03*
X102220600Y-111699800D03*
X102220600Y-110599800D03*
X102220600Y-109499800D03*
X102220600Y-108399800D03*
X102220600Y-107299800D03*
D22*
X102220600Y-106249800D03*
D23*
X108370600Y-116534800D03*
X112070600Y-116534800D03*
D24*
X102345600Y-116359800D03*
D25*
X113045600Y-113034800D03*
X113045600Y-107064800D03*
D26*
X102570600Y-105039800D03*
G04 #@! TD*
D14*
G04 #@! TO.C,C7*
X116800000Y-91694000D03*
X116800000Y-89969000D03*
G04 #@! TD*
D20*
G04 #@! TO.C,R18*
X127242800Y-112188000D03*
X127242800Y-110363000D03*
G04 #@! TD*
G04 #@! TO.C,R3*
X110000000Y-91162500D03*
X110000000Y-89337500D03*
G04 #@! TD*
D27*
G04 #@! TO.C,R6*
X109756000Y-100584000D03*
X107931000Y-100584000D03*
G04 #@! TD*
D18*
G04 #@! TO.C,C1*
X134600000Y-89137500D03*
X134600000Y-90862500D03*
G04 #@! TD*
D20*
G04 #@! TO.C,R17*
X116778000Y-114804200D03*
X116778000Y-112979200D03*
G04 #@! TD*
D12*
G04 #@! TO.C,J2*
X158200000Y-96901000D03*
D13*
X158200000Y-94361000D03*
X160740000Y-96901000D03*
X160740000Y-94361000D03*
X163280000Y-96901000D03*
X163280000Y-94361000D03*
X165820000Y-96901000D03*
X165820000Y-94361000D03*
G04 #@! TD*
D28*
G04 #@! TO.C,SW1*
X144900000Y-113956600D03*
X139100000Y-113956600D03*
X144900000Y-109956600D03*
X139100000Y-109956600D03*
G04 #@! TD*
D29*
G04 #@! TO.C,J8*
X126111000Y-82750000D03*
D30*
X126111000Y-80210000D03*
X128651000Y-82750000D03*
X128651000Y-80210000D03*
X131191000Y-82750000D03*
X131191000Y-80210000D03*
G04 #@! TD*
D17*
G04 #@! TO.C,C2*
X133062500Y-105800000D03*
X131337500Y-105800000D03*
G04 #@! TD*
D31*
G04 #@! TO.C,D1*
X105206800Y-100584000D03*
X103456800Y-100584000D03*
G04 #@! TD*
D32*
G04 #@! TO.C,U1*
X119470400Y-107848400D03*
X119470400Y-109118400D03*
X119470400Y-110388400D03*
X119470400Y-111658400D03*
X119470400Y-112928400D03*
X119470400Y-114198400D03*
X119470400Y-115468400D03*
X124420400Y-115468400D03*
X124420400Y-114198400D03*
X124420400Y-112928400D03*
X124420400Y-111658400D03*
X124420400Y-110388400D03*
X124420400Y-109118400D03*
X124420400Y-107848400D03*
G04 #@! TD*
D10*
G04 #@! TO.C,R19*
X151250000Y-80087500D03*
X151250000Y-81912500D03*
G04 #@! TD*
D14*
G04 #@! TO.C,C13*
X116800000Y-102775000D03*
X116800000Y-101050000D03*
G04 #@! TD*
D10*
G04 #@! TO.C,R21*
X151250000Y-104587500D03*
X151250000Y-106412500D03*
G04 #@! TD*
D19*
G04 #@! TO.C,D7*
X151250000Y-98075000D03*
X151250000Y-96325000D03*
G04 #@! TD*
D10*
G04 #@! TO.C,R4*
X110000000Y-94587500D03*
X110000000Y-96412500D03*
G04 #@! TD*
D33*
G04 #@! TO.C,U2*
X132140698Y-109518750D03*
X134040698Y-109518750D03*
X133090698Y-107643750D03*
G04 #@! TD*
D34*
G04 #@! TO.C,Y1*
X145084800Y-100562500D03*
X142184800Y-100562500D03*
X142184800Y-102762500D03*
X145084800Y-102762500D03*
G04 #@! TD*
D27*
G04 #@! TO.C,R2*
X132918200Y-96113600D03*
X131093200Y-96113600D03*
G04 #@! TD*
D10*
G04 #@! TO.C,R22*
X155000000Y-119337500D03*
X155000000Y-121162500D03*
G04 #@! TD*
D35*
G04 #@! TO.C,C9*
X107887500Y-85250000D03*
X109612500Y-85250000D03*
G04 #@! TD*
D19*
G04 #@! TO.C,D8*
X151250000Y-110775000D03*
X151250000Y-109025000D03*
G04 #@! TD*
D10*
G04 #@! TO.C,R23*
X113000000Y-119337500D03*
X113000000Y-121162500D03*
G04 #@! TD*
D19*
G04 #@! TO.C,D4*
X151250000Y-85875000D03*
X151250000Y-84125000D03*
G04 #@! TD*
D11*
G04 #@! TO.C,R14*
X138087500Y-106400000D03*
X139912500Y-106400000D03*
G04 #@! TD*
D20*
G04 #@! TO.C,R15*
X127242800Y-115998000D03*
X127242800Y-114173000D03*
G04 #@! TD*
D19*
G04 #@! TO.C,D6*
X132664200Y-93125000D03*
X132664200Y-91375000D03*
G04 #@! TD*
D20*
G04 #@! TO.C,R10*
X132664200Y-88662500D03*
X132664200Y-86837500D03*
G04 #@! TD*
D12*
G04 #@! TO.C,J1*
X158200000Y-84683600D03*
D13*
X158200000Y-82143600D03*
X160740000Y-84683600D03*
X160740000Y-82143600D03*
X163280000Y-84683600D03*
X163280000Y-82143600D03*
X165820000Y-84683600D03*
X165820000Y-82143600D03*
G04 #@! TD*
D34*
G04 #@! TO.C,Y4*
X122200000Y-100562500D03*
X119300000Y-100562500D03*
X119300000Y-102762500D03*
X122200000Y-102762500D03*
G04 #@! TD*
D10*
G04 #@! TO.C,R16*
X116905000Y-107342300D03*
X116905000Y-109167300D03*
G04 #@! TD*
D12*
G04 #@! TO.C,J4*
X140385800Y-123317000D03*
D13*
X140385800Y-120777000D03*
X142925800Y-123317000D03*
X142925800Y-120777000D03*
X145465800Y-123317000D03*
X145465800Y-120777000D03*
X148005800Y-123317000D03*
X148005800Y-120777000D03*
G04 #@! TD*
D11*
G04 #@! TO.C,R5*
X131118600Y-97800000D03*
X132943600Y-97800000D03*
G04 #@! TD*
D19*
G04 #@! TO.C,D9*
X155000000Y-125125000D03*
X155000000Y-123375000D03*
G04 #@! TD*
D29*
G04 #@! TO.C,J7*
X139471400Y-82750000D03*
D30*
X139471400Y-80210000D03*
X142011400Y-82750000D03*
X142011400Y-80210000D03*
X144551400Y-82750000D03*
X144551400Y-80210000D03*
G04 #@! TD*
D36*
G04 #@! TO.C,J9*
X106680000Y-89680000D03*
X106680000Y-95460000D03*
D37*
X107755000Y-89370000D03*
X107755000Y-90170000D03*
D38*
X107755000Y-91320000D03*
X107755000Y-92320000D03*
X107755000Y-92820000D03*
X107755000Y-93820000D03*
D37*
X107755000Y-94970000D03*
X107755000Y-95770000D03*
X107755000Y-95770000D03*
X107755000Y-94970000D03*
D38*
X107755000Y-94320000D03*
X107755000Y-93320000D03*
X107755000Y-91820000D03*
X107755000Y-90820000D03*
D37*
X107755000Y-90170000D03*
X107755000Y-89370000D03*
D39*
X107180000Y-88250000D03*
D40*
X103000000Y-88250000D03*
D39*
X107180000Y-96890000D03*
D40*
X103000000Y-96890000D03*
G04 #@! TD*
M02*
