G04 #@! TF.GenerationSoftware,KiCad,Pcbnew,8.0.6-8.0.6-0~ubuntu24.04.1*
G04 #@! TF.CreationDate,2024-11-11T15:02:52+01:00*
G04 #@! TF.ProjectId,PicoMother,5069636f-4d6f-4746-9865-722e6b696361,1*
G04 #@! TF.SameCoordinates,Original*
G04 #@! TF.FileFunction,Legend,Bot*
G04 #@! TF.FilePolarity,Positive*
%FSLAX46Y46*%
G04 Gerber Fmt 4.6, Leading zero omitted, Abs format (unit mm)*
G04 Created by KiCad (PCBNEW 8.0.6-8.0.6-0~ubuntu24.04.1) date 2024-11-11 15:02:52*
%MOMM*%
%LPD*%
G01*
G04 APERTURE LIST*
%ADD10C,0.250000*%
%ADD11C,0.200000*%
%ADD12C,0.150000*%
%ADD13C,0.100000*%
G04 APERTURE END LIST*
D10*
X145100000Y-109500000D02*
X153900000Y-116500000D01*
D11*
X148000000Y-77700000D02*
X148000000Y-87300000D01*
D12*
X155889286Y-107885498D02*
X156139286Y-107528355D01*
X156317857Y-107885498D02*
X156317857Y-107135498D01*
X156317857Y-107135498D02*
X156032143Y-107135498D01*
X156032143Y-107135498D02*
X155960714Y-107171212D01*
X155960714Y-107171212D02*
X155925000Y-107206926D01*
X155925000Y-107206926D02*
X155889286Y-107278355D01*
X155889286Y-107278355D02*
X155889286Y-107385498D01*
X155889286Y-107385498D02*
X155925000Y-107456926D01*
X155925000Y-107456926D02*
X155960714Y-107492641D01*
X155960714Y-107492641D02*
X156032143Y-107528355D01*
X156032143Y-107528355D02*
X156317857Y-107528355D01*
X155603571Y-107849784D02*
X155496429Y-107885498D01*
X155496429Y-107885498D02*
X155317857Y-107885498D01*
X155317857Y-107885498D02*
X155246429Y-107849784D01*
X155246429Y-107849784D02*
X155210714Y-107814069D01*
X155210714Y-107814069D02*
X155175000Y-107742641D01*
X155175000Y-107742641D02*
X155175000Y-107671212D01*
X155175000Y-107671212D02*
X155210714Y-107599784D01*
X155210714Y-107599784D02*
X155246429Y-107564069D01*
X155246429Y-107564069D02*
X155317857Y-107528355D01*
X155317857Y-107528355D02*
X155460714Y-107492641D01*
X155460714Y-107492641D02*
X155532143Y-107456926D01*
X155532143Y-107456926D02*
X155567857Y-107421212D01*
X155567857Y-107421212D02*
X155603571Y-107349784D01*
X155603571Y-107349784D02*
X155603571Y-107278355D01*
X155603571Y-107278355D02*
X155567857Y-107206926D01*
X155567857Y-107206926D02*
X155532143Y-107171212D01*
X155532143Y-107171212D02*
X155460714Y-107135498D01*
X155460714Y-107135498D02*
X155282143Y-107135498D01*
X155282143Y-107135498D02*
X155175000Y-107171212D01*
X154960714Y-107135498D02*
X154532143Y-107135498D01*
X154746428Y-107885498D02*
X154746428Y-107135498D01*
X154353571Y-107135498D02*
X153889285Y-107135498D01*
X153889285Y-107135498D02*
X154139285Y-107421212D01*
X154139285Y-107421212D02*
X154032142Y-107421212D01*
X154032142Y-107421212D02*
X153960714Y-107456926D01*
X153960714Y-107456926D02*
X153924999Y-107492641D01*
X153924999Y-107492641D02*
X153889285Y-107564069D01*
X153889285Y-107564069D02*
X153889285Y-107742641D01*
X153889285Y-107742641D02*
X153924999Y-107814069D01*
X153924999Y-107814069D02*
X153960714Y-107849784D01*
X153960714Y-107849784D02*
X154032142Y-107885498D01*
X154032142Y-107885498D02*
X154246428Y-107885498D01*
X154246428Y-107885498D02*
X154317856Y-107849784D01*
X154317856Y-107849784D02*
X154353571Y-107814069D01*
X153567856Y-107599784D02*
X152996428Y-107599784D01*
X152639285Y-107385498D02*
X152067857Y-107599784D01*
X152067857Y-107599784D02*
X152639285Y-107814069D01*
X151139285Y-107885498D02*
X151139285Y-107135498D01*
X151139285Y-107135498D02*
X150853571Y-107135498D01*
X150853571Y-107135498D02*
X150782142Y-107171212D01*
X150782142Y-107171212D02*
X150746428Y-107206926D01*
X150746428Y-107206926D02*
X150710714Y-107278355D01*
X150710714Y-107278355D02*
X150710714Y-107385498D01*
X150710714Y-107385498D02*
X150746428Y-107456926D01*
X150746428Y-107456926D02*
X150782142Y-107492641D01*
X150782142Y-107492641D02*
X150853571Y-107528355D01*
X150853571Y-107528355D02*
X151139285Y-107528355D01*
X150139285Y-107492641D02*
X150032142Y-107528355D01*
X150032142Y-107528355D02*
X149996428Y-107564069D01*
X149996428Y-107564069D02*
X149960714Y-107635498D01*
X149960714Y-107635498D02*
X149960714Y-107742641D01*
X149960714Y-107742641D02*
X149996428Y-107814069D01*
X149996428Y-107814069D02*
X150032142Y-107849784D01*
X150032142Y-107849784D02*
X150103571Y-107885498D01*
X150103571Y-107885498D02*
X150389285Y-107885498D01*
X150389285Y-107885498D02*
X150389285Y-107135498D01*
X150389285Y-107135498D02*
X150139285Y-107135498D01*
X150139285Y-107135498D02*
X150067857Y-107171212D01*
X150067857Y-107171212D02*
X150032142Y-107206926D01*
X150032142Y-107206926D02*
X149996428Y-107278355D01*
X149996428Y-107278355D02*
X149996428Y-107349784D01*
X149996428Y-107349784D02*
X150032142Y-107421212D01*
X150032142Y-107421212D02*
X150067857Y-107456926D01*
X150067857Y-107456926D02*
X150139285Y-107492641D01*
X150139285Y-107492641D02*
X150389285Y-107492641D01*
X149246428Y-107885498D02*
X149674999Y-107885498D01*
X149460714Y-107885498D02*
X149460714Y-107135498D01*
X149460714Y-107135498D02*
X149532142Y-107242641D01*
X149532142Y-107242641D02*
X149603571Y-107314069D01*
X149603571Y-107314069D02*
X149674999Y-107349784D01*
X155889286Y-109021527D02*
X155925000Y-109057242D01*
X155925000Y-109057242D02*
X156032143Y-109092956D01*
X156032143Y-109092956D02*
X156103571Y-109092956D01*
X156103571Y-109092956D02*
X156210714Y-109057242D01*
X156210714Y-109057242D02*
X156282143Y-108985813D01*
X156282143Y-108985813D02*
X156317857Y-108914384D01*
X156317857Y-108914384D02*
X156353571Y-108771527D01*
X156353571Y-108771527D02*
X156353571Y-108664384D01*
X156353571Y-108664384D02*
X156317857Y-108521527D01*
X156317857Y-108521527D02*
X156282143Y-108450099D01*
X156282143Y-108450099D02*
X156210714Y-108378670D01*
X156210714Y-108378670D02*
X156103571Y-108342956D01*
X156103571Y-108342956D02*
X156032143Y-108342956D01*
X156032143Y-108342956D02*
X155925000Y-108378670D01*
X155925000Y-108378670D02*
X155889286Y-108414384D01*
X155603571Y-109057242D02*
X155496429Y-109092956D01*
X155496429Y-109092956D02*
X155317857Y-109092956D01*
X155317857Y-109092956D02*
X155246429Y-109057242D01*
X155246429Y-109057242D02*
X155210714Y-109021527D01*
X155210714Y-109021527D02*
X155175000Y-108950099D01*
X155175000Y-108950099D02*
X155175000Y-108878670D01*
X155175000Y-108878670D02*
X155210714Y-108807242D01*
X155210714Y-108807242D02*
X155246429Y-108771527D01*
X155246429Y-108771527D02*
X155317857Y-108735813D01*
X155317857Y-108735813D02*
X155460714Y-108700099D01*
X155460714Y-108700099D02*
X155532143Y-108664384D01*
X155532143Y-108664384D02*
X155567857Y-108628670D01*
X155567857Y-108628670D02*
X155603571Y-108557242D01*
X155603571Y-108557242D02*
X155603571Y-108485813D01*
X155603571Y-108485813D02*
X155567857Y-108414384D01*
X155567857Y-108414384D02*
X155532143Y-108378670D01*
X155532143Y-108378670D02*
X155460714Y-108342956D01*
X155460714Y-108342956D02*
X155282143Y-108342956D01*
X155282143Y-108342956D02*
X155175000Y-108378670D01*
X154925000Y-108342956D02*
X154460714Y-108342956D01*
X154460714Y-108342956D02*
X154710714Y-108628670D01*
X154710714Y-108628670D02*
X154603571Y-108628670D01*
X154603571Y-108628670D02*
X154532143Y-108664384D01*
X154532143Y-108664384D02*
X154496428Y-108700099D01*
X154496428Y-108700099D02*
X154460714Y-108771527D01*
X154460714Y-108771527D02*
X154460714Y-108950099D01*
X154460714Y-108950099D02*
X154496428Y-109021527D01*
X154496428Y-109021527D02*
X154532143Y-109057242D01*
X154532143Y-109057242D02*
X154603571Y-109092956D01*
X154603571Y-109092956D02*
X154817857Y-109092956D01*
X154817857Y-109092956D02*
X154889285Y-109057242D01*
X154889285Y-109057242D02*
X154925000Y-109021527D01*
X153567856Y-108807242D02*
X152996428Y-108807242D01*
X152639285Y-108592956D02*
X152067857Y-108807242D01*
X152067857Y-108807242D02*
X152639285Y-109021527D01*
X151139285Y-109092956D02*
X151139285Y-108342956D01*
X151139285Y-108342956D02*
X150853571Y-108342956D01*
X150853571Y-108342956D02*
X150782142Y-108378670D01*
X150782142Y-108378670D02*
X150746428Y-108414384D01*
X150746428Y-108414384D02*
X150710714Y-108485813D01*
X150710714Y-108485813D02*
X150710714Y-108592956D01*
X150710714Y-108592956D02*
X150746428Y-108664384D01*
X150746428Y-108664384D02*
X150782142Y-108700099D01*
X150782142Y-108700099D02*
X150853571Y-108735813D01*
X150853571Y-108735813D02*
X151139285Y-108735813D01*
X150139285Y-108700099D02*
X150032142Y-108735813D01*
X150032142Y-108735813D02*
X149996428Y-108771527D01*
X149996428Y-108771527D02*
X149960714Y-108842956D01*
X149960714Y-108842956D02*
X149960714Y-108950099D01*
X149960714Y-108950099D02*
X149996428Y-109021527D01*
X149996428Y-109021527D02*
X150032142Y-109057242D01*
X150032142Y-109057242D02*
X150103571Y-109092956D01*
X150103571Y-109092956D02*
X150389285Y-109092956D01*
X150389285Y-109092956D02*
X150389285Y-108342956D01*
X150389285Y-108342956D02*
X150139285Y-108342956D01*
X150139285Y-108342956D02*
X150067857Y-108378670D01*
X150067857Y-108378670D02*
X150032142Y-108414384D01*
X150032142Y-108414384D02*
X149996428Y-108485813D01*
X149996428Y-108485813D02*
X149996428Y-108557242D01*
X149996428Y-108557242D02*
X150032142Y-108628670D01*
X150032142Y-108628670D02*
X150067857Y-108664384D01*
X150067857Y-108664384D02*
X150139285Y-108700099D01*
X150139285Y-108700099D02*
X150389285Y-108700099D01*
X149674999Y-108414384D02*
X149639285Y-108378670D01*
X149639285Y-108378670D02*
X149567857Y-108342956D01*
X149567857Y-108342956D02*
X149389285Y-108342956D01*
X149389285Y-108342956D02*
X149317857Y-108378670D01*
X149317857Y-108378670D02*
X149282142Y-108414384D01*
X149282142Y-108414384D02*
X149246428Y-108485813D01*
X149246428Y-108485813D02*
X149246428Y-108557242D01*
X149246428Y-108557242D02*
X149282142Y-108664384D01*
X149282142Y-108664384D02*
X149710714Y-109092956D01*
X149710714Y-109092956D02*
X149246428Y-109092956D01*
X156157142Y-110300414D02*
X156157142Y-109550414D01*
X155799999Y-110300414D02*
X155799999Y-109550414D01*
X155799999Y-109550414D02*
X155371428Y-110300414D01*
X155371428Y-110300414D02*
X155371428Y-109550414D01*
X155121428Y-109550414D02*
X154692857Y-109550414D01*
X154907142Y-110300414D02*
X154907142Y-109550414D01*
X154514285Y-109550414D02*
X154049999Y-109550414D01*
X154049999Y-109550414D02*
X154299999Y-109836128D01*
X154299999Y-109836128D02*
X154192856Y-109836128D01*
X154192856Y-109836128D02*
X154121428Y-109871842D01*
X154121428Y-109871842D02*
X154085713Y-109907557D01*
X154085713Y-109907557D02*
X154049999Y-109978985D01*
X154049999Y-109978985D02*
X154049999Y-110157557D01*
X154049999Y-110157557D02*
X154085713Y-110228985D01*
X154085713Y-110228985D02*
X154121428Y-110264700D01*
X154121428Y-110264700D02*
X154192856Y-110300414D01*
X154192856Y-110300414D02*
X154407142Y-110300414D01*
X154407142Y-110300414D02*
X154478570Y-110264700D01*
X154478570Y-110264700D02*
X154514285Y-110228985D01*
X153728570Y-110014700D02*
X153157142Y-110014700D01*
X152799999Y-109800414D02*
X152228571Y-110014700D01*
X152228571Y-110014700D02*
X152799999Y-110228985D01*
X151299999Y-110300414D02*
X151299999Y-109550414D01*
X151299999Y-109550414D02*
X151014285Y-109550414D01*
X151014285Y-109550414D02*
X150942856Y-109586128D01*
X150942856Y-109586128D02*
X150907142Y-109621842D01*
X150907142Y-109621842D02*
X150871428Y-109693271D01*
X150871428Y-109693271D02*
X150871428Y-109800414D01*
X150871428Y-109800414D02*
X150907142Y-109871842D01*
X150907142Y-109871842D02*
X150942856Y-109907557D01*
X150942856Y-109907557D02*
X151014285Y-109943271D01*
X151014285Y-109943271D02*
X151299999Y-109943271D01*
X150299999Y-109907557D02*
X150192856Y-109943271D01*
X150192856Y-109943271D02*
X150157142Y-109978985D01*
X150157142Y-109978985D02*
X150121428Y-110050414D01*
X150121428Y-110050414D02*
X150121428Y-110157557D01*
X150121428Y-110157557D02*
X150157142Y-110228985D01*
X150157142Y-110228985D02*
X150192856Y-110264700D01*
X150192856Y-110264700D02*
X150264285Y-110300414D01*
X150264285Y-110300414D02*
X150549999Y-110300414D01*
X150549999Y-110300414D02*
X150549999Y-109550414D01*
X150549999Y-109550414D02*
X150299999Y-109550414D01*
X150299999Y-109550414D02*
X150228571Y-109586128D01*
X150228571Y-109586128D02*
X150192856Y-109621842D01*
X150192856Y-109621842D02*
X150157142Y-109693271D01*
X150157142Y-109693271D02*
X150157142Y-109764700D01*
X150157142Y-109764700D02*
X150192856Y-109836128D01*
X150192856Y-109836128D02*
X150228571Y-109871842D01*
X150228571Y-109871842D02*
X150299999Y-109907557D01*
X150299999Y-109907557D02*
X150549999Y-109907557D01*
X149657142Y-109550414D02*
X149585713Y-109550414D01*
X149585713Y-109550414D02*
X149514285Y-109586128D01*
X149514285Y-109586128D02*
X149478571Y-109621842D01*
X149478571Y-109621842D02*
X149442856Y-109693271D01*
X149442856Y-109693271D02*
X149407142Y-109836128D01*
X149407142Y-109836128D02*
X149407142Y-110014700D01*
X149407142Y-110014700D02*
X149442856Y-110157557D01*
X149442856Y-110157557D02*
X149478571Y-110228985D01*
X149478571Y-110228985D02*
X149514285Y-110264700D01*
X149514285Y-110264700D02*
X149585713Y-110300414D01*
X149585713Y-110300414D02*
X149657142Y-110300414D01*
X149657142Y-110300414D02*
X149728571Y-110264700D01*
X149728571Y-110264700D02*
X149764285Y-110228985D01*
X149764285Y-110228985D02*
X149799999Y-110157557D01*
X149799999Y-110157557D02*
X149835713Y-110014700D01*
X149835713Y-110014700D02*
X149835713Y-109836128D01*
X149835713Y-109836128D02*
X149799999Y-109693271D01*
X149799999Y-109693271D02*
X149764285Y-109621842D01*
X149764285Y-109621842D02*
X149728571Y-109586128D01*
X149728571Y-109586128D02*
X149657142Y-109550414D01*
D13*
X164015163Y-98533609D02*
X164015163Y-98033609D01*
X164015163Y-98033609D02*
X163848496Y-98390752D01*
X163848496Y-98390752D02*
X163681830Y-98033609D01*
X163681830Y-98033609D02*
X163681830Y-98533609D01*
X163443734Y-98533609D02*
X163443734Y-98033609D01*
X163229448Y-98509800D02*
X163158020Y-98533609D01*
X163158020Y-98533609D02*
X163038972Y-98533609D01*
X163038972Y-98533609D02*
X162991353Y-98509800D01*
X162991353Y-98509800D02*
X162967544Y-98485990D01*
X162967544Y-98485990D02*
X162943734Y-98438371D01*
X162943734Y-98438371D02*
X162943734Y-98390752D01*
X162943734Y-98390752D02*
X162967544Y-98343133D01*
X162967544Y-98343133D02*
X162991353Y-98319323D01*
X162991353Y-98319323D02*
X163038972Y-98295514D01*
X163038972Y-98295514D02*
X163134210Y-98271704D01*
X163134210Y-98271704D02*
X163181829Y-98247895D01*
X163181829Y-98247895D02*
X163205639Y-98224085D01*
X163205639Y-98224085D02*
X163229448Y-98176466D01*
X163229448Y-98176466D02*
X163229448Y-98128847D01*
X163229448Y-98128847D02*
X163205639Y-98081228D01*
X163205639Y-98081228D02*
X163181829Y-98057419D01*
X163181829Y-98057419D02*
X163134210Y-98033609D01*
X163134210Y-98033609D02*
X163015163Y-98033609D01*
X163015163Y-98033609D02*
X162943734Y-98057419D01*
X162634211Y-98033609D02*
X162538973Y-98033609D01*
X162538973Y-98033609D02*
X162491354Y-98057419D01*
X162491354Y-98057419D02*
X162443735Y-98105038D01*
X162443735Y-98105038D02*
X162419925Y-98200276D01*
X162419925Y-98200276D02*
X162419925Y-98366942D01*
X162419925Y-98366942D02*
X162443735Y-98462180D01*
X162443735Y-98462180D02*
X162491354Y-98509800D01*
X162491354Y-98509800D02*
X162538973Y-98533609D01*
X162538973Y-98533609D02*
X162634211Y-98533609D01*
X162634211Y-98533609D02*
X162681830Y-98509800D01*
X162681830Y-98509800D02*
X162729449Y-98462180D01*
X162729449Y-98462180D02*
X162753258Y-98366942D01*
X162753258Y-98366942D02*
X162753258Y-98200276D01*
X162753258Y-98200276D02*
X162729449Y-98105038D01*
X162729449Y-98105038D02*
X162681830Y-98057419D01*
X162681830Y-98057419D02*
X162634211Y-98033609D01*
X158553258Y-85857419D02*
X158600877Y-85833609D01*
X158600877Y-85833609D02*
X158672306Y-85833609D01*
X158672306Y-85833609D02*
X158743734Y-85857419D01*
X158743734Y-85857419D02*
X158791353Y-85905038D01*
X158791353Y-85905038D02*
X158815163Y-85952657D01*
X158815163Y-85952657D02*
X158838972Y-86047895D01*
X158838972Y-86047895D02*
X158838972Y-86119323D01*
X158838972Y-86119323D02*
X158815163Y-86214561D01*
X158815163Y-86214561D02*
X158791353Y-86262180D01*
X158791353Y-86262180D02*
X158743734Y-86309800D01*
X158743734Y-86309800D02*
X158672306Y-86333609D01*
X158672306Y-86333609D02*
X158624687Y-86333609D01*
X158624687Y-86333609D02*
X158553258Y-86309800D01*
X158553258Y-86309800D02*
X158529449Y-86285990D01*
X158529449Y-86285990D02*
X158529449Y-86119323D01*
X158529449Y-86119323D02*
X158624687Y-86119323D01*
X158315163Y-86333609D02*
X158315163Y-85833609D01*
X158315163Y-85833609D02*
X158029449Y-86333609D01*
X158029449Y-86333609D02*
X158029449Y-85833609D01*
X157791353Y-86333609D02*
X157791353Y-85833609D01*
X157791353Y-85833609D02*
X157672305Y-85833609D01*
X157672305Y-85833609D02*
X157600877Y-85857419D01*
X157600877Y-85857419D02*
X157553258Y-85905038D01*
X157553258Y-85905038D02*
X157529448Y-85952657D01*
X157529448Y-85952657D02*
X157505639Y-86047895D01*
X157505639Y-86047895D02*
X157505639Y-86119323D01*
X157505639Y-86119323D02*
X157529448Y-86214561D01*
X157529448Y-86214561D02*
X157553258Y-86262180D01*
X157553258Y-86262180D02*
X157600877Y-86309800D01*
X157600877Y-86309800D02*
X157672305Y-86333609D01*
X157672305Y-86333609D02*
X157791353Y-86333609D01*
D12*
X147189286Y-115585498D02*
X147439286Y-115228355D01*
X147617857Y-115585498D02*
X147617857Y-114835498D01*
X147617857Y-114835498D02*
X147332143Y-114835498D01*
X147332143Y-114835498D02*
X147260714Y-114871212D01*
X147260714Y-114871212D02*
X147225000Y-114906926D01*
X147225000Y-114906926D02*
X147189286Y-114978355D01*
X147189286Y-114978355D02*
X147189286Y-115085498D01*
X147189286Y-115085498D02*
X147225000Y-115156926D01*
X147225000Y-115156926D02*
X147260714Y-115192641D01*
X147260714Y-115192641D02*
X147332143Y-115228355D01*
X147332143Y-115228355D02*
X147617857Y-115228355D01*
X146903571Y-115549784D02*
X146796429Y-115585498D01*
X146796429Y-115585498D02*
X146617857Y-115585498D01*
X146617857Y-115585498D02*
X146546429Y-115549784D01*
X146546429Y-115549784D02*
X146510714Y-115514069D01*
X146510714Y-115514069D02*
X146475000Y-115442641D01*
X146475000Y-115442641D02*
X146475000Y-115371212D01*
X146475000Y-115371212D02*
X146510714Y-115299784D01*
X146510714Y-115299784D02*
X146546429Y-115264069D01*
X146546429Y-115264069D02*
X146617857Y-115228355D01*
X146617857Y-115228355D02*
X146760714Y-115192641D01*
X146760714Y-115192641D02*
X146832143Y-115156926D01*
X146832143Y-115156926D02*
X146867857Y-115121212D01*
X146867857Y-115121212D02*
X146903571Y-115049784D01*
X146903571Y-115049784D02*
X146903571Y-114978355D01*
X146903571Y-114978355D02*
X146867857Y-114906926D01*
X146867857Y-114906926D02*
X146832143Y-114871212D01*
X146832143Y-114871212D02*
X146760714Y-114835498D01*
X146760714Y-114835498D02*
X146582143Y-114835498D01*
X146582143Y-114835498D02*
X146475000Y-114871212D01*
X146260714Y-114835498D02*
X145832143Y-114835498D01*
X146046428Y-115585498D02*
X146046428Y-114835498D01*
X145260714Y-115085498D02*
X145260714Y-115585498D01*
X145439285Y-114799784D02*
X145617856Y-115335498D01*
X145617856Y-115335498D02*
X145153571Y-115335498D01*
X144867856Y-115299784D02*
X144296428Y-115299784D01*
X143939285Y-115085498D02*
X143367857Y-115299784D01*
X143367857Y-115299784D02*
X143939285Y-115514069D01*
X142439285Y-115585498D02*
X142439285Y-114835498D01*
X142439285Y-114835498D02*
X142153571Y-114835498D01*
X142153571Y-114835498D02*
X142082142Y-114871212D01*
X142082142Y-114871212D02*
X142046428Y-114906926D01*
X142046428Y-114906926D02*
X142010714Y-114978355D01*
X142010714Y-114978355D02*
X142010714Y-115085498D01*
X142010714Y-115085498D02*
X142046428Y-115156926D01*
X142046428Y-115156926D02*
X142082142Y-115192641D01*
X142082142Y-115192641D02*
X142153571Y-115228355D01*
X142153571Y-115228355D02*
X142439285Y-115228355D01*
X141689285Y-115585498D02*
X141689285Y-114835498D01*
X141689285Y-114835498D02*
X141510714Y-114835498D01*
X141510714Y-114835498D02*
X141403571Y-114871212D01*
X141403571Y-114871212D02*
X141332142Y-114942641D01*
X141332142Y-114942641D02*
X141296428Y-115014069D01*
X141296428Y-115014069D02*
X141260714Y-115156926D01*
X141260714Y-115156926D02*
X141260714Y-115264069D01*
X141260714Y-115264069D02*
X141296428Y-115406926D01*
X141296428Y-115406926D02*
X141332142Y-115478355D01*
X141332142Y-115478355D02*
X141403571Y-115549784D01*
X141403571Y-115549784D02*
X141510714Y-115585498D01*
X141510714Y-115585498D02*
X141689285Y-115585498D01*
X140617857Y-114835498D02*
X140760714Y-114835498D01*
X140760714Y-114835498D02*
X140832142Y-114871212D01*
X140832142Y-114871212D02*
X140867857Y-114906926D01*
X140867857Y-114906926D02*
X140939285Y-115014069D01*
X140939285Y-115014069D02*
X140974999Y-115156926D01*
X140974999Y-115156926D02*
X140974999Y-115442641D01*
X140974999Y-115442641D02*
X140939285Y-115514069D01*
X140939285Y-115514069D02*
X140903571Y-115549784D01*
X140903571Y-115549784D02*
X140832142Y-115585498D01*
X140832142Y-115585498D02*
X140689285Y-115585498D01*
X140689285Y-115585498D02*
X140617857Y-115549784D01*
X140617857Y-115549784D02*
X140582142Y-115514069D01*
X140582142Y-115514069D02*
X140546428Y-115442641D01*
X140546428Y-115442641D02*
X140546428Y-115264069D01*
X140546428Y-115264069D02*
X140582142Y-115192641D01*
X140582142Y-115192641D02*
X140617857Y-115156926D01*
X140617857Y-115156926D02*
X140689285Y-115121212D01*
X140689285Y-115121212D02*
X140832142Y-115121212D01*
X140832142Y-115121212D02*
X140903571Y-115156926D01*
X140903571Y-115156926D02*
X140939285Y-115192641D01*
X140939285Y-115192641D02*
X140974999Y-115264069D01*
X147189286Y-116721527D02*
X147225000Y-116757242D01*
X147225000Y-116757242D02*
X147332143Y-116792956D01*
X147332143Y-116792956D02*
X147403571Y-116792956D01*
X147403571Y-116792956D02*
X147510714Y-116757242D01*
X147510714Y-116757242D02*
X147582143Y-116685813D01*
X147582143Y-116685813D02*
X147617857Y-116614384D01*
X147617857Y-116614384D02*
X147653571Y-116471527D01*
X147653571Y-116471527D02*
X147653571Y-116364384D01*
X147653571Y-116364384D02*
X147617857Y-116221527D01*
X147617857Y-116221527D02*
X147582143Y-116150099D01*
X147582143Y-116150099D02*
X147510714Y-116078670D01*
X147510714Y-116078670D02*
X147403571Y-116042956D01*
X147403571Y-116042956D02*
X147332143Y-116042956D01*
X147332143Y-116042956D02*
X147225000Y-116078670D01*
X147225000Y-116078670D02*
X147189286Y-116114384D01*
X146903571Y-116757242D02*
X146796429Y-116792956D01*
X146796429Y-116792956D02*
X146617857Y-116792956D01*
X146617857Y-116792956D02*
X146546429Y-116757242D01*
X146546429Y-116757242D02*
X146510714Y-116721527D01*
X146510714Y-116721527D02*
X146475000Y-116650099D01*
X146475000Y-116650099D02*
X146475000Y-116578670D01*
X146475000Y-116578670D02*
X146510714Y-116507242D01*
X146510714Y-116507242D02*
X146546429Y-116471527D01*
X146546429Y-116471527D02*
X146617857Y-116435813D01*
X146617857Y-116435813D02*
X146760714Y-116400099D01*
X146760714Y-116400099D02*
X146832143Y-116364384D01*
X146832143Y-116364384D02*
X146867857Y-116328670D01*
X146867857Y-116328670D02*
X146903571Y-116257242D01*
X146903571Y-116257242D02*
X146903571Y-116185813D01*
X146903571Y-116185813D02*
X146867857Y-116114384D01*
X146867857Y-116114384D02*
X146832143Y-116078670D01*
X146832143Y-116078670D02*
X146760714Y-116042956D01*
X146760714Y-116042956D02*
X146582143Y-116042956D01*
X146582143Y-116042956D02*
X146475000Y-116078670D01*
X145832143Y-116292956D02*
X145832143Y-116792956D01*
X146010714Y-116007242D02*
X146189285Y-116542956D01*
X146189285Y-116542956D02*
X145725000Y-116542956D01*
X144867856Y-116507242D02*
X144296428Y-116507242D01*
X143939285Y-116292956D02*
X143367857Y-116507242D01*
X143367857Y-116507242D02*
X143939285Y-116721527D01*
X142439285Y-116792956D02*
X142439285Y-116042956D01*
X142439285Y-116042956D02*
X142153571Y-116042956D01*
X142153571Y-116042956D02*
X142082142Y-116078670D01*
X142082142Y-116078670D02*
X142046428Y-116114384D01*
X142046428Y-116114384D02*
X142010714Y-116185813D01*
X142010714Y-116185813D02*
X142010714Y-116292956D01*
X142010714Y-116292956D02*
X142046428Y-116364384D01*
X142046428Y-116364384D02*
X142082142Y-116400099D01*
X142082142Y-116400099D02*
X142153571Y-116435813D01*
X142153571Y-116435813D02*
X142439285Y-116435813D01*
X141689285Y-116792956D02*
X141689285Y-116042956D01*
X141689285Y-116042956D02*
X141510714Y-116042956D01*
X141510714Y-116042956D02*
X141403571Y-116078670D01*
X141403571Y-116078670D02*
X141332142Y-116150099D01*
X141332142Y-116150099D02*
X141296428Y-116221527D01*
X141296428Y-116221527D02*
X141260714Y-116364384D01*
X141260714Y-116364384D02*
X141260714Y-116471527D01*
X141260714Y-116471527D02*
X141296428Y-116614384D01*
X141296428Y-116614384D02*
X141332142Y-116685813D01*
X141332142Y-116685813D02*
X141403571Y-116757242D01*
X141403571Y-116757242D02*
X141510714Y-116792956D01*
X141510714Y-116792956D02*
X141689285Y-116792956D01*
X141010714Y-116042956D02*
X140510714Y-116042956D01*
X140510714Y-116042956D02*
X140832142Y-116792956D01*
X147457142Y-118000414D02*
X147457142Y-117250414D01*
X147099999Y-118000414D02*
X147099999Y-117250414D01*
X147099999Y-117250414D02*
X146671428Y-118000414D01*
X146671428Y-118000414D02*
X146671428Y-117250414D01*
X146421428Y-117250414D02*
X145992857Y-117250414D01*
X146207142Y-118000414D02*
X146207142Y-117250414D01*
X145421428Y-117500414D02*
X145421428Y-118000414D01*
X145599999Y-117214700D02*
X145778570Y-117750414D01*
X145778570Y-117750414D02*
X145314285Y-117750414D01*
X145028570Y-117714700D02*
X144457142Y-117714700D01*
X144099999Y-117500414D02*
X143528571Y-117714700D01*
X143528571Y-117714700D02*
X144099999Y-117928985D01*
X142599999Y-118000414D02*
X142599999Y-117250414D01*
X142599999Y-117250414D02*
X142314285Y-117250414D01*
X142314285Y-117250414D02*
X142242856Y-117286128D01*
X142242856Y-117286128D02*
X142207142Y-117321842D01*
X142207142Y-117321842D02*
X142171428Y-117393271D01*
X142171428Y-117393271D02*
X142171428Y-117500414D01*
X142171428Y-117500414D02*
X142207142Y-117571842D01*
X142207142Y-117571842D02*
X142242856Y-117607557D01*
X142242856Y-117607557D02*
X142314285Y-117643271D01*
X142314285Y-117643271D02*
X142599999Y-117643271D01*
X141849999Y-118000414D02*
X141849999Y-117250414D01*
X141849999Y-117250414D02*
X141671428Y-117250414D01*
X141671428Y-117250414D02*
X141564285Y-117286128D01*
X141564285Y-117286128D02*
X141492856Y-117357557D01*
X141492856Y-117357557D02*
X141457142Y-117428985D01*
X141457142Y-117428985D02*
X141421428Y-117571842D01*
X141421428Y-117571842D02*
X141421428Y-117678985D01*
X141421428Y-117678985D02*
X141457142Y-117821842D01*
X141457142Y-117821842D02*
X141492856Y-117893271D01*
X141492856Y-117893271D02*
X141564285Y-117964700D01*
X141564285Y-117964700D02*
X141671428Y-118000414D01*
X141671428Y-118000414D02*
X141849999Y-118000414D01*
X140742856Y-117250414D02*
X141099999Y-117250414D01*
X141099999Y-117250414D02*
X141135713Y-117607557D01*
X141135713Y-117607557D02*
X141099999Y-117571842D01*
X141099999Y-117571842D02*
X141028571Y-117536128D01*
X141028571Y-117536128D02*
X140849999Y-117536128D01*
X140849999Y-117536128D02*
X140778571Y-117571842D01*
X140778571Y-117571842D02*
X140742856Y-117607557D01*
X140742856Y-117607557D02*
X140707142Y-117678985D01*
X140707142Y-117678985D02*
X140707142Y-117857557D01*
X140707142Y-117857557D02*
X140742856Y-117928985D01*
X140742856Y-117928985D02*
X140778571Y-117964700D01*
X140778571Y-117964700D02*
X140849999Y-118000414D01*
X140849999Y-118000414D02*
X141028571Y-118000414D01*
X141028571Y-118000414D02*
X141099999Y-117964700D01*
X141099999Y-117964700D02*
X141135713Y-117928985D01*
D13*
X158553258Y-110657419D02*
X158600877Y-110633609D01*
X158600877Y-110633609D02*
X158672306Y-110633609D01*
X158672306Y-110633609D02*
X158743734Y-110657419D01*
X158743734Y-110657419D02*
X158791353Y-110705038D01*
X158791353Y-110705038D02*
X158815163Y-110752657D01*
X158815163Y-110752657D02*
X158838972Y-110847895D01*
X158838972Y-110847895D02*
X158838972Y-110919323D01*
X158838972Y-110919323D02*
X158815163Y-111014561D01*
X158815163Y-111014561D02*
X158791353Y-111062180D01*
X158791353Y-111062180D02*
X158743734Y-111109800D01*
X158743734Y-111109800D02*
X158672306Y-111133609D01*
X158672306Y-111133609D02*
X158624687Y-111133609D01*
X158624687Y-111133609D02*
X158553258Y-111109800D01*
X158553258Y-111109800D02*
X158529449Y-111085990D01*
X158529449Y-111085990D02*
X158529449Y-110919323D01*
X158529449Y-110919323D02*
X158624687Y-110919323D01*
X158315163Y-111133609D02*
X158315163Y-110633609D01*
X158315163Y-110633609D02*
X158029449Y-111133609D01*
X158029449Y-111133609D02*
X158029449Y-110633609D01*
X157791353Y-111133609D02*
X157791353Y-110633609D01*
X157791353Y-110633609D02*
X157672305Y-110633609D01*
X157672305Y-110633609D02*
X157600877Y-110657419D01*
X157600877Y-110657419D02*
X157553258Y-110705038D01*
X157553258Y-110705038D02*
X157529448Y-110752657D01*
X157529448Y-110752657D02*
X157505639Y-110847895D01*
X157505639Y-110847895D02*
X157505639Y-110919323D01*
X157505639Y-110919323D02*
X157529448Y-111014561D01*
X157529448Y-111014561D02*
X157553258Y-111062180D01*
X157553258Y-111062180D02*
X157600877Y-111109800D01*
X157600877Y-111109800D02*
X157672305Y-111133609D01*
X157672305Y-111133609D02*
X157791353Y-111133609D01*
X158553258Y-98057419D02*
X158600877Y-98033609D01*
X158600877Y-98033609D02*
X158672306Y-98033609D01*
X158672306Y-98033609D02*
X158743734Y-98057419D01*
X158743734Y-98057419D02*
X158791353Y-98105038D01*
X158791353Y-98105038D02*
X158815163Y-98152657D01*
X158815163Y-98152657D02*
X158838972Y-98247895D01*
X158838972Y-98247895D02*
X158838972Y-98319323D01*
X158838972Y-98319323D02*
X158815163Y-98414561D01*
X158815163Y-98414561D02*
X158791353Y-98462180D01*
X158791353Y-98462180D02*
X158743734Y-98509800D01*
X158743734Y-98509800D02*
X158672306Y-98533609D01*
X158672306Y-98533609D02*
X158624687Y-98533609D01*
X158624687Y-98533609D02*
X158553258Y-98509800D01*
X158553258Y-98509800D02*
X158529449Y-98485990D01*
X158529449Y-98485990D02*
X158529449Y-98319323D01*
X158529449Y-98319323D02*
X158624687Y-98319323D01*
X158315163Y-98533609D02*
X158315163Y-98033609D01*
X158315163Y-98033609D02*
X158029449Y-98533609D01*
X158029449Y-98533609D02*
X158029449Y-98033609D01*
X157791353Y-98533609D02*
X157791353Y-98033609D01*
X157791353Y-98033609D02*
X157672305Y-98033609D01*
X157672305Y-98033609D02*
X157600877Y-98057419D01*
X157600877Y-98057419D02*
X157553258Y-98105038D01*
X157553258Y-98105038D02*
X157529448Y-98152657D01*
X157529448Y-98152657D02*
X157505639Y-98247895D01*
X157505639Y-98247895D02*
X157505639Y-98319323D01*
X157505639Y-98319323D02*
X157529448Y-98414561D01*
X157529448Y-98414561D02*
X157553258Y-98462180D01*
X157553258Y-98462180D02*
X157600877Y-98509800D01*
X157600877Y-98509800D02*
X157672305Y-98533609D01*
X157672305Y-98533609D02*
X157791353Y-98533609D01*
X165929449Y-93085990D02*
X165953258Y-93109800D01*
X165953258Y-93109800D02*
X166024687Y-93133609D01*
X166024687Y-93133609D02*
X166072306Y-93133609D01*
X166072306Y-93133609D02*
X166143734Y-93109800D01*
X166143734Y-93109800D02*
X166191353Y-93062180D01*
X166191353Y-93062180D02*
X166215163Y-93014561D01*
X166215163Y-93014561D02*
X166238972Y-92919323D01*
X166238972Y-92919323D02*
X166238972Y-92847895D01*
X166238972Y-92847895D02*
X166215163Y-92752657D01*
X166215163Y-92752657D02*
X166191353Y-92705038D01*
X166191353Y-92705038D02*
X166143734Y-92657419D01*
X166143734Y-92657419D02*
X166072306Y-92633609D01*
X166072306Y-92633609D02*
X166024687Y-92633609D01*
X166024687Y-92633609D02*
X165953258Y-92657419D01*
X165953258Y-92657419D02*
X165929449Y-92681228D01*
X165738972Y-93109800D02*
X165667544Y-93133609D01*
X165667544Y-93133609D02*
X165548496Y-93133609D01*
X165548496Y-93133609D02*
X165500877Y-93109800D01*
X165500877Y-93109800D02*
X165477068Y-93085990D01*
X165477068Y-93085990D02*
X165453258Y-93038371D01*
X165453258Y-93038371D02*
X165453258Y-92990752D01*
X165453258Y-92990752D02*
X165477068Y-92943133D01*
X165477068Y-92943133D02*
X165500877Y-92919323D01*
X165500877Y-92919323D02*
X165548496Y-92895514D01*
X165548496Y-92895514D02*
X165643734Y-92871704D01*
X165643734Y-92871704D02*
X165691353Y-92847895D01*
X165691353Y-92847895D02*
X165715163Y-92824085D01*
X165715163Y-92824085D02*
X165738972Y-92776466D01*
X165738972Y-92776466D02*
X165738972Y-92728847D01*
X165738972Y-92728847D02*
X165715163Y-92681228D01*
X165715163Y-92681228D02*
X165691353Y-92657419D01*
X165691353Y-92657419D02*
X165643734Y-92633609D01*
X165643734Y-92633609D02*
X165524687Y-92633609D01*
X165524687Y-92633609D02*
X165453258Y-92657419D01*
X165262782Y-92681228D02*
X165238973Y-92657419D01*
X165238973Y-92657419D02*
X165191354Y-92633609D01*
X165191354Y-92633609D02*
X165072306Y-92633609D01*
X165072306Y-92633609D02*
X165024687Y-92657419D01*
X165024687Y-92657419D02*
X165000878Y-92681228D01*
X165000878Y-92681228D02*
X164977068Y-92728847D01*
X164977068Y-92728847D02*
X164977068Y-92776466D01*
X164977068Y-92776466D02*
X165000878Y-92847895D01*
X165000878Y-92847895D02*
X165286592Y-93133609D01*
X165286592Y-93133609D02*
X164977068Y-93133609D01*
X161215163Y-93133609D02*
X161215163Y-92633609D01*
X160977068Y-93133609D02*
X160977068Y-92633609D01*
X160977068Y-92633609D02*
X160691354Y-93133609D01*
X160691354Y-93133609D02*
X160691354Y-92633609D01*
X160524686Y-92633609D02*
X160238972Y-92633609D01*
X160381829Y-93133609D02*
X160381829Y-92633609D01*
X160096115Y-92681228D02*
X160072306Y-92657419D01*
X160072306Y-92657419D02*
X160024687Y-92633609D01*
X160024687Y-92633609D02*
X159905639Y-92633609D01*
X159905639Y-92633609D02*
X159858020Y-92657419D01*
X159858020Y-92657419D02*
X159834211Y-92681228D01*
X159834211Y-92681228D02*
X159810401Y-92728847D01*
X159810401Y-92728847D02*
X159810401Y-92776466D01*
X159810401Y-92776466D02*
X159834211Y-92847895D01*
X159834211Y-92847895D02*
X160119925Y-93133609D01*
X160119925Y-93133609D02*
X159810401Y-93133609D01*
D11*
X129487469Y-85495790D02*
X129582707Y-85448171D01*
X129582707Y-85448171D02*
X129630326Y-85400552D01*
X129630326Y-85400552D02*
X129677945Y-85305314D01*
X129677945Y-85305314D02*
X129677945Y-85257695D01*
X129677945Y-85257695D02*
X129630326Y-85162457D01*
X129630326Y-85162457D02*
X129582707Y-85114838D01*
X129582707Y-85114838D02*
X129487469Y-85067219D01*
X129487469Y-85067219D02*
X129296993Y-85067219D01*
X129296993Y-85067219D02*
X129201755Y-85114838D01*
X129201755Y-85114838D02*
X129154136Y-85162457D01*
X129154136Y-85162457D02*
X129106517Y-85257695D01*
X129106517Y-85257695D02*
X129106517Y-85305314D01*
X129106517Y-85305314D02*
X129154136Y-85400552D01*
X129154136Y-85400552D02*
X129201755Y-85448171D01*
X129201755Y-85448171D02*
X129296993Y-85495790D01*
X129296993Y-85495790D02*
X129487469Y-85495790D01*
X129487469Y-85495790D02*
X129582707Y-85543409D01*
X129582707Y-85543409D02*
X129630326Y-85591028D01*
X129630326Y-85591028D02*
X129677945Y-85686266D01*
X129677945Y-85686266D02*
X129677945Y-85876742D01*
X129677945Y-85876742D02*
X129630326Y-85971980D01*
X129630326Y-85971980D02*
X129582707Y-86019600D01*
X129582707Y-86019600D02*
X129487469Y-86067219D01*
X129487469Y-86067219D02*
X129296993Y-86067219D01*
X129296993Y-86067219D02*
X129201755Y-86019600D01*
X129201755Y-86019600D02*
X129154136Y-85971980D01*
X129154136Y-85971980D02*
X129106517Y-85876742D01*
X129106517Y-85876742D02*
X129106517Y-85686266D01*
X129106517Y-85686266D02*
X129154136Y-85591028D01*
X129154136Y-85591028D02*
X129201755Y-85543409D01*
X129201755Y-85543409D02*
X129296993Y-85495790D01*
X128249374Y-85400552D02*
X128249374Y-86067219D01*
X128677945Y-85400552D02*
X128677945Y-85924361D01*
X128677945Y-85924361D02*
X128630326Y-86019600D01*
X128630326Y-86019600D02*
X128535088Y-86067219D01*
X128535088Y-86067219D02*
X128392231Y-86067219D01*
X128392231Y-86067219D02*
X128296993Y-86019600D01*
X128296993Y-86019600D02*
X128249374Y-85971980D01*
X127820802Y-85162457D02*
X127773183Y-85114838D01*
X127773183Y-85114838D02*
X127677945Y-85067219D01*
X127677945Y-85067219D02*
X127439850Y-85067219D01*
X127439850Y-85067219D02*
X127344612Y-85114838D01*
X127344612Y-85114838D02*
X127296993Y-85162457D01*
X127296993Y-85162457D02*
X127249374Y-85257695D01*
X127249374Y-85257695D02*
X127249374Y-85352933D01*
X127249374Y-85352933D02*
X127296993Y-85495790D01*
X127296993Y-85495790D02*
X127868421Y-86067219D01*
X127868421Y-86067219D02*
X127249374Y-86067219D01*
D13*
X164015163Y-111133609D02*
X164015163Y-110633609D01*
X164015163Y-110633609D02*
X163848496Y-110990752D01*
X163848496Y-110990752D02*
X163681830Y-110633609D01*
X163681830Y-110633609D02*
X163681830Y-111133609D01*
X163443734Y-111133609D02*
X163443734Y-110633609D01*
X163229448Y-111109800D02*
X163158020Y-111133609D01*
X163158020Y-111133609D02*
X163038972Y-111133609D01*
X163038972Y-111133609D02*
X162991353Y-111109800D01*
X162991353Y-111109800D02*
X162967544Y-111085990D01*
X162967544Y-111085990D02*
X162943734Y-111038371D01*
X162943734Y-111038371D02*
X162943734Y-110990752D01*
X162943734Y-110990752D02*
X162967544Y-110943133D01*
X162967544Y-110943133D02*
X162991353Y-110919323D01*
X162991353Y-110919323D02*
X163038972Y-110895514D01*
X163038972Y-110895514D02*
X163134210Y-110871704D01*
X163134210Y-110871704D02*
X163181829Y-110847895D01*
X163181829Y-110847895D02*
X163205639Y-110824085D01*
X163205639Y-110824085D02*
X163229448Y-110776466D01*
X163229448Y-110776466D02*
X163229448Y-110728847D01*
X163229448Y-110728847D02*
X163205639Y-110681228D01*
X163205639Y-110681228D02*
X163181829Y-110657419D01*
X163181829Y-110657419D02*
X163134210Y-110633609D01*
X163134210Y-110633609D02*
X163015163Y-110633609D01*
X163015163Y-110633609D02*
X162943734Y-110657419D01*
X162634211Y-110633609D02*
X162538973Y-110633609D01*
X162538973Y-110633609D02*
X162491354Y-110657419D01*
X162491354Y-110657419D02*
X162443735Y-110705038D01*
X162443735Y-110705038D02*
X162419925Y-110800276D01*
X162419925Y-110800276D02*
X162419925Y-110966942D01*
X162419925Y-110966942D02*
X162443735Y-111062180D01*
X162443735Y-111062180D02*
X162491354Y-111109800D01*
X162491354Y-111109800D02*
X162538973Y-111133609D01*
X162538973Y-111133609D02*
X162634211Y-111133609D01*
X162634211Y-111133609D02*
X162681830Y-111109800D01*
X162681830Y-111109800D02*
X162729449Y-111062180D01*
X162729449Y-111062180D02*
X162753258Y-110966942D01*
X162753258Y-110966942D02*
X162753258Y-110800276D01*
X162753258Y-110800276D02*
X162729449Y-110705038D01*
X162729449Y-110705038D02*
X162681830Y-110657419D01*
X162681830Y-110657419D02*
X162634211Y-110633609D01*
X131553258Y-78457419D02*
X131600877Y-78433609D01*
X131600877Y-78433609D02*
X131672306Y-78433609D01*
X131672306Y-78433609D02*
X131743734Y-78457419D01*
X131743734Y-78457419D02*
X131791353Y-78505038D01*
X131791353Y-78505038D02*
X131815163Y-78552657D01*
X131815163Y-78552657D02*
X131838972Y-78647895D01*
X131838972Y-78647895D02*
X131838972Y-78719323D01*
X131838972Y-78719323D02*
X131815163Y-78814561D01*
X131815163Y-78814561D02*
X131791353Y-78862180D01*
X131791353Y-78862180D02*
X131743734Y-78909800D01*
X131743734Y-78909800D02*
X131672306Y-78933609D01*
X131672306Y-78933609D02*
X131624687Y-78933609D01*
X131624687Y-78933609D02*
X131553258Y-78909800D01*
X131553258Y-78909800D02*
X131529449Y-78885990D01*
X131529449Y-78885990D02*
X131529449Y-78719323D01*
X131529449Y-78719323D02*
X131624687Y-78719323D01*
X131315163Y-78933609D02*
X131315163Y-78433609D01*
X131315163Y-78433609D02*
X131029449Y-78933609D01*
X131029449Y-78933609D02*
X131029449Y-78433609D01*
X130791353Y-78933609D02*
X130791353Y-78433609D01*
X130791353Y-78433609D02*
X130672305Y-78433609D01*
X130672305Y-78433609D02*
X130600877Y-78457419D01*
X130600877Y-78457419D02*
X130553258Y-78505038D01*
X130553258Y-78505038D02*
X130529448Y-78552657D01*
X130529448Y-78552657D02*
X130505639Y-78647895D01*
X130505639Y-78647895D02*
X130505639Y-78719323D01*
X130505639Y-78719323D02*
X130529448Y-78814561D01*
X130529448Y-78814561D02*
X130553258Y-78862180D01*
X130553258Y-78862180D02*
X130600877Y-78909800D01*
X130600877Y-78909800D02*
X130672305Y-78933609D01*
X130672305Y-78933609D02*
X130791353Y-78933609D01*
D11*
X169144612Y-82867219D02*
X169144612Y-83581504D01*
X169144612Y-83581504D02*
X169192231Y-83724361D01*
X169192231Y-83724361D02*
X169287469Y-83819600D01*
X169287469Y-83819600D02*
X169430326Y-83867219D01*
X169430326Y-83867219D02*
X169525564Y-83867219D01*
X168144612Y-83867219D02*
X168716040Y-83867219D01*
X168430326Y-83867219D02*
X168430326Y-82867219D01*
X168430326Y-82867219D02*
X168525564Y-83010076D01*
X168525564Y-83010076D02*
X168620802Y-83105314D01*
X168620802Y-83105314D02*
X168716040Y-83152933D01*
D13*
X128238972Y-124909800D02*
X128167544Y-124933609D01*
X128167544Y-124933609D02*
X128048496Y-124933609D01*
X128048496Y-124933609D02*
X128000877Y-124909800D01*
X128000877Y-124909800D02*
X127977068Y-124885990D01*
X127977068Y-124885990D02*
X127953258Y-124838371D01*
X127953258Y-124838371D02*
X127953258Y-124790752D01*
X127953258Y-124790752D02*
X127977068Y-124743133D01*
X127977068Y-124743133D02*
X128000877Y-124719323D01*
X128000877Y-124719323D02*
X128048496Y-124695514D01*
X128048496Y-124695514D02*
X128143734Y-124671704D01*
X128143734Y-124671704D02*
X128191353Y-124647895D01*
X128191353Y-124647895D02*
X128215163Y-124624085D01*
X128215163Y-124624085D02*
X128238972Y-124576466D01*
X128238972Y-124576466D02*
X128238972Y-124528847D01*
X128238972Y-124528847D02*
X128215163Y-124481228D01*
X128215163Y-124481228D02*
X128191353Y-124457419D01*
X128191353Y-124457419D02*
X128143734Y-124433609D01*
X128143734Y-124433609D02*
X128024687Y-124433609D01*
X128024687Y-124433609D02*
X127953258Y-124457419D01*
X127453259Y-124885990D02*
X127477068Y-124909800D01*
X127477068Y-124909800D02*
X127548497Y-124933609D01*
X127548497Y-124933609D02*
X127596116Y-124933609D01*
X127596116Y-124933609D02*
X127667544Y-124909800D01*
X127667544Y-124909800D02*
X127715163Y-124862180D01*
X127715163Y-124862180D02*
X127738973Y-124814561D01*
X127738973Y-124814561D02*
X127762782Y-124719323D01*
X127762782Y-124719323D02*
X127762782Y-124647895D01*
X127762782Y-124647895D02*
X127738973Y-124552657D01*
X127738973Y-124552657D02*
X127715163Y-124505038D01*
X127715163Y-124505038D02*
X127667544Y-124457419D01*
X127667544Y-124457419D02*
X127596116Y-124433609D01*
X127596116Y-124433609D02*
X127548497Y-124433609D01*
X127548497Y-124433609D02*
X127477068Y-124457419D01*
X127477068Y-124457419D02*
X127453259Y-124481228D01*
X127238973Y-124933609D02*
X127238973Y-124433609D01*
X126953259Y-124933609D02*
X127167544Y-124647895D01*
X126953259Y-124433609D02*
X127238973Y-124719323D01*
X161415163Y-98533609D02*
X161415163Y-98033609D01*
X161415163Y-98033609D02*
X161248496Y-98390752D01*
X161248496Y-98390752D02*
X161081830Y-98033609D01*
X161081830Y-98033609D02*
X161081830Y-98533609D01*
X160748496Y-98033609D02*
X160653258Y-98033609D01*
X160653258Y-98033609D02*
X160605639Y-98057419D01*
X160605639Y-98057419D02*
X160558020Y-98105038D01*
X160558020Y-98105038D02*
X160534210Y-98200276D01*
X160534210Y-98200276D02*
X160534210Y-98366942D01*
X160534210Y-98366942D02*
X160558020Y-98462180D01*
X160558020Y-98462180D02*
X160605639Y-98509800D01*
X160605639Y-98509800D02*
X160653258Y-98533609D01*
X160653258Y-98533609D02*
X160748496Y-98533609D01*
X160748496Y-98533609D02*
X160796115Y-98509800D01*
X160796115Y-98509800D02*
X160843734Y-98462180D01*
X160843734Y-98462180D02*
X160867543Y-98366942D01*
X160867543Y-98366942D02*
X160867543Y-98200276D01*
X160867543Y-98200276D02*
X160843734Y-98105038D01*
X160843734Y-98105038D02*
X160796115Y-98057419D01*
X160796115Y-98057419D02*
X160748496Y-98033609D01*
X160343733Y-98509800D02*
X160272305Y-98533609D01*
X160272305Y-98533609D02*
X160153257Y-98533609D01*
X160153257Y-98533609D02*
X160105638Y-98509800D01*
X160105638Y-98509800D02*
X160081829Y-98485990D01*
X160081829Y-98485990D02*
X160058019Y-98438371D01*
X160058019Y-98438371D02*
X160058019Y-98390752D01*
X160058019Y-98390752D02*
X160081829Y-98343133D01*
X160081829Y-98343133D02*
X160105638Y-98319323D01*
X160105638Y-98319323D02*
X160153257Y-98295514D01*
X160153257Y-98295514D02*
X160248495Y-98271704D01*
X160248495Y-98271704D02*
X160296114Y-98247895D01*
X160296114Y-98247895D02*
X160319924Y-98224085D01*
X160319924Y-98224085D02*
X160343733Y-98176466D01*
X160343733Y-98176466D02*
X160343733Y-98128847D01*
X160343733Y-98128847D02*
X160319924Y-98081228D01*
X160319924Y-98081228D02*
X160296114Y-98057419D01*
X160296114Y-98057419D02*
X160248495Y-98033609D01*
X160248495Y-98033609D02*
X160129448Y-98033609D01*
X160129448Y-98033609D02*
X160058019Y-98057419D01*
X159843734Y-98533609D02*
X159843734Y-98033609D01*
D12*
X155889286Y-82685498D02*
X156139286Y-82328355D01*
X156317857Y-82685498D02*
X156317857Y-81935498D01*
X156317857Y-81935498D02*
X156032143Y-81935498D01*
X156032143Y-81935498D02*
X155960714Y-81971212D01*
X155960714Y-81971212D02*
X155925000Y-82006926D01*
X155925000Y-82006926D02*
X155889286Y-82078355D01*
X155889286Y-82078355D02*
X155889286Y-82185498D01*
X155889286Y-82185498D02*
X155925000Y-82256926D01*
X155925000Y-82256926D02*
X155960714Y-82292641D01*
X155960714Y-82292641D02*
X156032143Y-82328355D01*
X156032143Y-82328355D02*
X156317857Y-82328355D01*
X155603571Y-82649784D02*
X155496429Y-82685498D01*
X155496429Y-82685498D02*
X155317857Y-82685498D01*
X155317857Y-82685498D02*
X155246429Y-82649784D01*
X155246429Y-82649784D02*
X155210714Y-82614069D01*
X155210714Y-82614069D02*
X155175000Y-82542641D01*
X155175000Y-82542641D02*
X155175000Y-82471212D01*
X155175000Y-82471212D02*
X155210714Y-82399784D01*
X155210714Y-82399784D02*
X155246429Y-82364069D01*
X155246429Y-82364069D02*
X155317857Y-82328355D01*
X155317857Y-82328355D02*
X155460714Y-82292641D01*
X155460714Y-82292641D02*
X155532143Y-82256926D01*
X155532143Y-82256926D02*
X155567857Y-82221212D01*
X155567857Y-82221212D02*
X155603571Y-82149784D01*
X155603571Y-82149784D02*
X155603571Y-82078355D01*
X155603571Y-82078355D02*
X155567857Y-82006926D01*
X155567857Y-82006926D02*
X155532143Y-81971212D01*
X155532143Y-81971212D02*
X155460714Y-81935498D01*
X155460714Y-81935498D02*
X155282143Y-81935498D01*
X155282143Y-81935498D02*
X155175000Y-81971212D01*
X154960714Y-81935498D02*
X154532143Y-81935498D01*
X154746428Y-82685498D02*
X154746428Y-81935498D01*
X153889285Y-82685498D02*
X154317856Y-82685498D01*
X154103571Y-82685498D02*
X154103571Y-81935498D01*
X154103571Y-81935498D02*
X154174999Y-82042641D01*
X154174999Y-82042641D02*
X154246428Y-82114069D01*
X154246428Y-82114069D02*
X154317856Y-82149784D01*
X153567856Y-82399784D02*
X152996428Y-82399784D01*
X152639285Y-82185498D02*
X152067857Y-82399784D01*
X152067857Y-82399784D02*
X152639285Y-82614069D01*
X151139285Y-82685498D02*
X151139285Y-81935498D01*
X151139285Y-81935498D02*
X150853571Y-81935498D01*
X150853571Y-81935498D02*
X150782142Y-81971212D01*
X150782142Y-81971212D02*
X150746428Y-82006926D01*
X150746428Y-82006926D02*
X150710714Y-82078355D01*
X150710714Y-82078355D02*
X150710714Y-82185498D01*
X150710714Y-82185498D02*
X150746428Y-82256926D01*
X150746428Y-82256926D02*
X150782142Y-82292641D01*
X150782142Y-82292641D02*
X150853571Y-82328355D01*
X150853571Y-82328355D02*
X151139285Y-82328355D01*
X149960714Y-82614069D02*
X149996428Y-82649784D01*
X149996428Y-82649784D02*
X150103571Y-82685498D01*
X150103571Y-82685498D02*
X150174999Y-82685498D01*
X150174999Y-82685498D02*
X150282142Y-82649784D01*
X150282142Y-82649784D02*
X150353571Y-82578355D01*
X150353571Y-82578355D02*
X150389285Y-82506926D01*
X150389285Y-82506926D02*
X150424999Y-82364069D01*
X150424999Y-82364069D02*
X150424999Y-82256926D01*
X150424999Y-82256926D02*
X150389285Y-82114069D01*
X150389285Y-82114069D02*
X150353571Y-82042641D01*
X150353571Y-82042641D02*
X150282142Y-81971212D01*
X150282142Y-81971212D02*
X150174999Y-81935498D01*
X150174999Y-81935498D02*
X150103571Y-81935498D01*
X150103571Y-81935498D02*
X149996428Y-81971212D01*
X149996428Y-81971212D02*
X149960714Y-82006926D01*
X149496428Y-81935498D02*
X149424999Y-81935498D01*
X149424999Y-81935498D02*
X149353571Y-81971212D01*
X149353571Y-81971212D02*
X149317857Y-82006926D01*
X149317857Y-82006926D02*
X149282142Y-82078355D01*
X149282142Y-82078355D02*
X149246428Y-82221212D01*
X149246428Y-82221212D02*
X149246428Y-82399784D01*
X149246428Y-82399784D02*
X149282142Y-82542641D01*
X149282142Y-82542641D02*
X149317857Y-82614069D01*
X149317857Y-82614069D02*
X149353571Y-82649784D01*
X149353571Y-82649784D02*
X149424999Y-82685498D01*
X149424999Y-82685498D02*
X149496428Y-82685498D01*
X149496428Y-82685498D02*
X149567857Y-82649784D01*
X149567857Y-82649784D02*
X149603571Y-82614069D01*
X149603571Y-82614069D02*
X149639285Y-82542641D01*
X149639285Y-82542641D02*
X149674999Y-82399784D01*
X149674999Y-82399784D02*
X149674999Y-82221212D01*
X149674999Y-82221212D02*
X149639285Y-82078355D01*
X149639285Y-82078355D02*
X149603571Y-82006926D01*
X149603571Y-82006926D02*
X149567857Y-81971212D01*
X149567857Y-81971212D02*
X149496428Y-81935498D01*
X155889286Y-83821527D02*
X155925000Y-83857242D01*
X155925000Y-83857242D02*
X156032143Y-83892956D01*
X156032143Y-83892956D02*
X156103571Y-83892956D01*
X156103571Y-83892956D02*
X156210714Y-83857242D01*
X156210714Y-83857242D02*
X156282143Y-83785813D01*
X156282143Y-83785813D02*
X156317857Y-83714384D01*
X156317857Y-83714384D02*
X156353571Y-83571527D01*
X156353571Y-83571527D02*
X156353571Y-83464384D01*
X156353571Y-83464384D02*
X156317857Y-83321527D01*
X156317857Y-83321527D02*
X156282143Y-83250099D01*
X156282143Y-83250099D02*
X156210714Y-83178670D01*
X156210714Y-83178670D02*
X156103571Y-83142956D01*
X156103571Y-83142956D02*
X156032143Y-83142956D01*
X156032143Y-83142956D02*
X155925000Y-83178670D01*
X155925000Y-83178670D02*
X155889286Y-83214384D01*
X155603571Y-83857242D02*
X155496429Y-83892956D01*
X155496429Y-83892956D02*
X155317857Y-83892956D01*
X155317857Y-83892956D02*
X155246429Y-83857242D01*
X155246429Y-83857242D02*
X155210714Y-83821527D01*
X155210714Y-83821527D02*
X155175000Y-83750099D01*
X155175000Y-83750099D02*
X155175000Y-83678670D01*
X155175000Y-83678670D02*
X155210714Y-83607242D01*
X155210714Y-83607242D02*
X155246429Y-83571527D01*
X155246429Y-83571527D02*
X155317857Y-83535813D01*
X155317857Y-83535813D02*
X155460714Y-83500099D01*
X155460714Y-83500099D02*
X155532143Y-83464384D01*
X155532143Y-83464384D02*
X155567857Y-83428670D01*
X155567857Y-83428670D02*
X155603571Y-83357242D01*
X155603571Y-83357242D02*
X155603571Y-83285813D01*
X155603571Y-83285813D02*
X155567857Y-83214384D01*
X155567857Y-83214384D02*
X155532143Y-83178670D01*
X155532143Y-83178670D02*
X155460714Y-83142956D01*
X155460714Y-83142956D02*
X155282143Y-83142956D01*
X155282143Y-83142956D02*
X155175000Y-83178670D01*
X154460714Y-83892956D02*
X154889285Y-83892956D01*
X154675000Y-83892956D02*
X154675000Y-83142956D01*
X154675000Y-83142956D02*
X154746428Y-83250099D01*
X154746428Y-83250099D02*
X154817857Y-83321527D01*
X154817857Y-83321527D02*
X154889285Y-83357242D01*
X153567856Y-83607242D02*
X152996428Y-83607242D01*
X152639285Y-83392956D02*
X152067857Y-83607242D01*
X152067857Y-83607242D02*
X152639285Y-83821527D01*
X151139285Y-83892956D02*
X151139285Y-83142956D01*
X151139285Y-83142956D02*
X150853571Y-83142956D01*
X150853571Y-83142956D02*
X150782142Y-83178670D01*
X150782142Y-83178670D02*
X150746428Y-83214384D01*
X150746428Y-83214384D02*
X150710714Y-83285813D01*
X150710714Y-83285813D02*
X150710714Y-83392956D01*
X150710714Y-83392956D02*
X150746428Y-83464384D01*
X150746428Y-83464384D02*
X150782142Y-83500099D01*
X150782142Y-83500099D02*
X150853571Y-83535813D01*
X150853571Y-83535813D02*
X151139285Y-83535813D01*
X149960714Y-83821527D02*
X149996428Y-83857242D01*
X149996428Y-83857242D02*
X150103571Y-83892956D01*
X150103571Y-83892956D02*
X150174999Y-83892956D01*
X150174999Y-83892956D02*
X150282142Y-83857242D01*
X150282142Y-83857242D02*
X150353571Y-83785813D01*
X150353571Y-83785813D02*
X150389285Y-83714384D01*
X150389285Y-83714384D02*
X150424999Y-83571527D01*
X150424999Y-83571527D02*
X150424999Y-83464384D01*
X150424999Y-83464384D02*
X150389285Y-83321527D01*
X150389285Y-83321527D02*
X150353571Y-83250099D01*
X150353571Y-83250099D02*
X150282142Y-83178670D01*
X150282142Y-83178670D02*
X150174999Y-83142956D01*
X150174999Y-83142956D02*
X150103571Y-83142956D01*
X150103571Y-83142956D02*
X149996428Y-83178670D01*
X149996428Y-83178670D02*
X149960714Y-83214384D01*
X149246428Y-83892956D02*
X149674999Y-83892956D01*
X149460714Y-83892956D02*
X149460714Y-83142956D01*
X149460714Y-83142956D02*
X149532142Y-83250099D01*
X149532142Y-83250099D02*
X149603571Y-83321527D01*
X149603571Y-83321527D02*
X149674999Y-83357242D01*
X156157142Y-85100414D02*
X156157142Y-84350414D01*
X155799999Y-85100414D02*
X155799999Y-84350414D01*
X155799999Y-84350414D02*
X155371428Y-85100414D01*
X155371428Y-85100414D02*
X155371428Y-84350414D01*
X155121428Y-84350414D02*
X154692857Y-84350414D01*
X154907142Y-85100414D02*
X154907142Y-84350414D01*
X154049999Y-85100414D02*
X154478570Y-85100414D01*
X154264285Y-85100414D02*
X154264285Y-84350414D01*
X154264285Y-84350414D02*
X154335713Y-84457557D01*
X154335713Y-84457557D02*
X154407142Y-84528985D01*
X154407142Y-84528985D02*
X154478570Y-84564700D01*
X153728570Y-84814700D02*
X153157142Y-84814700D01*
X152799999Y-84600414D02*
X152228571Y-84814700D01*
X152228571Y-84814700D02*
X152799999Y-85028985D01*
X151299999Y-85100414D02*
X151299999Y-84350414D01*
X151299999Y-84350414D02*
X151014285Y-84350414D01*
X151014285Y-84350414D02*
X150942856Y-84386128D01*
X150942856Y-84386128D02*
X150907142Y-84421842D01*
X150907142Y-84421842D02*
X150871428Y-84493271D01*
X150871428Y-84493271D02*
X150871428Y-84600414D01*
X150871428Y-84600414D02*
X150907142Y-84671842D01*
X150907142Y-84671842D02*
X150942856Y-84707557D01*
X150942856Y-84707557D02*
X151014285Y-84743271D01*
X151014285Y-84743271D02*
X151299999Y-84743271D01*
X150121428Y-85028985D02*
X150157142Y-85064700D01*
X150157142Y-85064700D02*
X150264285Y-85100414D01*
X150264285Y-85100414D02*
X150335713Y-85100414D01*
X150335713Y-85100414D02*
X150442856Y-85064700D01*
X150442856Y-85064700D02*
X150514285Y-84993271D01*
X150514285Y-84993271D02*
X150549999Y-84921842D01*
X150549999Y-84921842D02*
X150585713Y-84778985D01*
X150585713Y-84778985D02*
X150585713Y-84671842D01*
X150585713Y-84671842D02*
X150549999Y-84528985D01*
X150549999Y-84528985D02*
X150514285Y-84457557D01*
X150514285Y-84457557D02*
X150442856Y-84386128D01*
X150442856Y-84386128D02*
X150335713Y-84350414D01*
X150335713Y-84350414D02*
X150264285Y-84350414D01*
X150264285Y-84350414D02*
X150157142Y-84386128D01*
X150157142Y-84386128D02*
X150121428Y-84421842D01*
X149835713Y-84421842D02*
X149799999Y-84386128D01*
X149799999Y-84386128D02*
X149728571Y-84350414D01*
X149728571Y-84350414D02*
X149549999Y-84350414D01*
X149549999Y-84350414D02*
X149478571Y-84386128D01*
X149478571Y-84386128D02*
X149442856Y-84421842D01*
X149442856Y-84421842D02*
X149407142Y-84493271D01*
X149407142Y-84493271D02*
X149407142Y-84564700D01*
X149407142Y-84564700D02*
X149442856Y-84671842D01*
X149442856Y-84671842D02*
X149871428Y-85100414D01*
X149871428Y-85100414D02*
X149407142Y-85100414D01*
D13*
X166438972Y-111109800D02*
X166367544Y-111133609D01*
X166367544Y-111133609D02*
X166248496Y-111133609D01*
X166248496Y-111133609D02*
X166200877Y-111109800D01*
X166200877Y-111109800D02*
X166177068Y-111085990D01*
X166177068Y-111085990D02*
X166153258Y-111038371D01*
X166153258Y-111038371D02*
X166153258Y-110990752D01*
X166153258Y-110990752D02*
X166177068Y-110943133D01*
X166177068Y-110943133D02*
X166200877Y-110919323D01*
X166200877Y-110919323D02*
X166248496Y-110895514D01*
X166248496Y-110895514D02*
X166343734Y-110871704D01*
X166343734Y-110871704D02*
X166391353Y-110847895D01*
X166391353Y-110847895D02*
X166415163Y-110824085D01*
X166415163Y-110824085D02*
X166438972Y-110776466D01*
X166438972Y-110776466D02*
X166438972Y-110728847D01*
X166438972Y-110728847D02*
X166415163Y-110681228D01*
X166415163Y-110681228D02*
X166391353Y-110657419D01*
X166391353Y-110657419D02*
X166343734Y-110633609D01*
X166343734Y-110633609D02*
X166224687Y-110633609D01*
X166224687Y-110633609D02*
X166153258Y-110657419D01*
X165653259Y-111085990D02*
X165677068Y-111109800D01*
X165677068Y-111109800D02*
X165748497Y-111133609D01*
X165748497Y-111133609D02*
X165796116Y-111133609D01*
X165796116Y-111133609D02*
X165867544Y-111109800D01*
X165867544Y-111109800D02*
X165915163Y-111062180D01*
X165915163Y-111062180D02*
X165938973Y-111014561D01*
X165938973Y-111014561D02*
X165962782Y-110919323D01*
X165962782Y-110919323D02*
X165962782Y-110847895D01*
X165962782Y-110847895D02*
X165938973Y-110752657D01*
X165938973Y-110752657D02*
X165915163Y-110705038D01*
X165915163Y-110705038D02*
X165867544Y-110657419D01*
X165867544Y-110657419D02*
X165796116Y-110633609D01*
X165796116Y-110633609D02*
X165748497Y-110633609D01*
X165748497Y-110633609D02*
X165677068Y-110657419D01*
X165677068Y-110657419D02*
X165653259Y-110681228D01*
X165438973Y-111133609D02*
X165438973Y-110633609D01*
X165153259Y-111133609D02*
X165367544Y-110847895D01*
X165153259Y-110633609D02*
X165438973Y-110919323D01*
X129238972Y-84659800D02*
X129167544Y-84683609D01*
X129167544Y-84683609D02*
X129048496Y-84683609D01*
X129048496Y-84683609D02*
X129000877Y-84659800D01*
X129000877Y-84659800D02*
X128977068Y-84635990D01*
X128977068Y-84635990D02*
X128953258Y-84588371D01*
X128953258Y-84588371D02*
X128953258Y-84540752D01*
X128953258Y-84540752D02*
X128977068Y-84493133D01*
X128977068Y-84493133D02*
X129000877Y-84469323D01*
X129000877Y-84469323D02*
X129048496Y-84445514D01*
X129048496Y-84445514D02*
X129143734Y-84421704D01*
X129143734Y-84421704D02*
X129191353Y-84397895D01*
X129191353Y-84397895D02*
X129215163Y-84374085D01*
X129215163Y-84374085D02*
X129238972Y-84326466D01*
X129238972Y-84326466D02*
X129238972Y-84278847D01*
X129238972Y-84278847D02*
X129215163Y-84231228D01*
X129215163Y-84231228D02*
X129191353Y-84207419D01*
X129191353Y-84207419D02*
X129143734Y-84183609D01*
X129143734Y-84183609D02*
X129024687Y-84183609D01*
X129024687Y-84183609D02*
X128953258Y-84207419D01*
X128453259Y-84635990D02*
X128477068Y-84659800D01*
X128477068Y-84659800D02*
X128548497Y-84683609D01*
X128548497Y-84683609D02*
X128596116Y-84683609D01*
X128596116Y-84683609D02*
X128667544Y-84659800D01*
X128667544Y-84659800D02*
X128715163Y-84612180D01*
X128715163Y-84612180D02*
X128738973Y-84564561D01*
X128738973Y-84564561D02*
X128762782Y-84469323D01*
X128762782Y-84469323D02*
X128762782Y-84397895D01*
X128762782Y-84397895D02*
X128738973Y-84302657D01*
X128738973Y-84302657D02*
X128715163Y-84255038D01*
X128715163Y-84255038D02*
X128667544Y-84207419D01*
X128667544Y-84207419D02*
X128596116Y-84183609D01*
X128596116Y-84183609D02*
X128548497Y-84183609D01*
X128548497Y-84183609D02*
X128477068Y-84207419D01*
X128477068Y-84207419D02*
X128453259Y-84231228D01*
X128238973Y-84683609D02*
X128238973Y-84183609D01*
X127953259Y-84683609D02*
X128167544Y-84397895D01*
X127953259Y-84183609D02*
X128238973Y-84469323D01*
X120353258Y-124457419D02*
X120400877Y-124433609D01*
X120400877Y-124433609D02*
X120472306Y-124433609D01*
X120472306Y-124433609D02*
X120543734Y-124457419D01*
X120543734Y-124457419D02*
X120591353Y-124505038D01*
X120591353Y-124505038D02*
X120615163Y-124552657D01*
X120615163Y-124552657D02*
X120638972Y-124647895D01*
X120638972Y-124647895D02*
X120638972Y-124719323D01*
X120638972Y-124719323D02*
X120615163Y-124814561D01*
X120615163Y-124814561D02*
X120591353Y-124862180D01*
X120591353Y-124862180D02*
X120543734Y-124909800D01*
X120543734Y-124909800D02*
X120472306Y-124933609D01*
X120472306Y-124933609D02*
X120424687Y-124933609D01*
X120424687Y-124933609D02*
X120353258Y-124909800D01*
X120353258Y-124909800D02*
X120329449Y-124885990D01*
X120329449Y-124885990D02*
X120329449Y-124719323D01*
X120329449Y-124719323D02*
X120424687Y-124719323D01*
X120115163Y-124933609D02*
X120115163Y-124433609D01*
X120115163Y-124433609D02*
X119829449Y-124933609D01*
X119829449Y-124933609D02*
X119829449Y-124433609D01*
X119591353Y-124933609D02*
X119591353Y-124433609D01*
X119591353Y-124433609D02*
X119472305Y-124433609D01*
X119472305Y-124433609D02*
X119400877Y-124457419D01*
X119400877Y-124457419D02*
X119353258Y-124505038D01*
X119353258Y-124505038D02*
X119329448Y-124552657D01*
X119329448Y-124552657D02*
X119305639Y-124647895D01*
X119305639Y-124647895D02*
X119305639Y-124719323D01*
X119305639Y-124719323D02*
X119329448Y-124814561D01*
X119329448Y-124814561D02*
X119353258Y-124862180D01*
X119353258Y-124862180D02*
X119400877Y-124909800D01*
X119400877Y-124909800D02*
X119472305Y-124933609D01*
X119472305Y-124933609D02*
X119591353Y-124933609D01*
X158886591Y-80433609D02*
X158719925Y-80933609D01*
X158719925Y-80933609D02*
X158553258Y-80433609D01*
X158100878Y-80885990D02*
X158124687Y-80909800D01*
X158124687Y-80909800D02*
X158196116Y-80933609D01*
X158196116Y-80933609D02*
X158243735Y-80933609D01*
X158243735Y-80933609D02*
X158315163Y-80909800D01*
X158315163Y-80909800D02*
X158362782Y-80862180D01*
X158362782Y-80862180D02*
X158386592Y-80814561D01*
X158386592Y-80814561D02*
X158410401Y-80719323D01*
X158410401Y-80719323D02*
X158410401Y-80647895D01*
X158410401Y-80647895D02*
X158386592Y-80552657D01*
X158386592Y-80552657D02*
X158362782Y-80505038D01*
X158362782Y-80505038D02*
X158315163Y-80457419D01*
X158315163Y-80457419D02*
X158243735Y-80433609D01*
X158243735Y-80433609D02*
X158196116Y-80433609D01*
X158196116Y-80433609D02*
X158124687Y-80457419D01*
X158124687Y-80457419D02*
X158100878Y-80481228D01*
X157600878Y-80885990D02*
X157624687Y-80909800D01*
X157624687Y-80909800D02*
X157696116Y-80933609D01*
X157696116Y-80933609D02*
X157743735Y-80933609D01*
X157743735Y-80933609D02*
X157815163Y-80909800D01*
X157815163Y-80909800D02*
X157862782Y-80862180D01*
X157862782Y-80862180D02*
X157886592Y-80814561D01*
X157886592Y-80814561D02*
X157910401Y-80719323D01*
X157910401Y-80719323D02*
X157910401Y-80647895D01*
X157910401Y-80647895D02*
X157886592Y-80552657D01*
X157886592Y-80552657D02*
X157862782Y-80505038D01*
X157862782Y-80505038D02*
X157815163Y-80457419D01*
X157815163Y-80457419D02*
X157743735Y-80433609D01*
X157743735Y-80433609D02*
X157696116Y-80433609D01*
X157696116Y-80433609D02*
X157624687Y-80457419D01*
X157624687Y-80457419D02*
X157600878Y-80481228D01*
X144779449Y-84683609D02*
X144946115Y-84445514D01*
X145065163Y-84683609D02*
X145065163Y-84183609D01*
X145065163Y-84183609D02*
X144874687Y-84183609D01*
X144874687Y-84183609D02*
X144827068Y-84207419D01*
X144827068Y-84207419D02*
X144803258Y-84231228D01*
X144803258Y-84231228D02*
X144779449Y-84278847D01*
X144779449Y-84278847D02*
X144779449Y-84350276D01*
X144779449Y-84350276D02*
X144803258Y-84397895D01*
X144803258Y-84397895D02*
X144827068Y-84421704D01*
X144827068Y-84421704D02*
X144874687Y-84445514D01*
X144874687Y-84445514D02*
X145065163Y-84445514D01*
X144588972Y-84659800D02*
X144517544Y-84683609D01*
X144517544Y-84683609D02*
X144398496Y-84683609D01*
X144398496Y-84683609D02*
X144350877Y-84659800D01*
X144350877Y-84659800D02*
X144327068Y-84635990D01*
X144327068Y-84635990D02*
X144303258Y-84588371D01*
X144303258Y-84588371D02*
X144303258Y-84540752D01*
X144303258Y-84540752D02*
X144327068Y-84493133D01*
X144327068Y-84493133D02*
X144350877Y-84469323D01*
X144350877Y-84469323D02*
X144398496Y-84445514D01*
X144398496Y-84445514D02*
X144493734Y-84421704D01*
X144493734Y-84421704D02*
X144541353Y-84397895D01*
X144541353Y-84397895D02*
X144565163Y-84374085D01*
X144565163Y-84374085D02*
X144588972Y-84326466D01*
X144588972Y-84326466D02*
X144588972Y-84278847D01*
X144588972Y-84278847D02*
X144565163Y-84231228D01*
X144565163Y-84231228D02*
X144541353Y-84207419D01*
X144541353Y-84207419D02*
X144493734Y-84183609D01*
X144493734Y-84183609D02*
X144374687Y-84183609D01*
X144374687Y-84183609D02*
X144303258Y-84207419D01*
X144160401Y-84183609D02*
X143874687Y-84183609D01*
X144017544Y-84683609D02*
X144017544Y-84183609D01*
X163729449Y-80933609D02*
X163896115Y-80695514D01*
X164015163Y-80933609D02*
X164015163Y-80433609D01*
X164015163Y-80433609D02*
X163824687Y-80433609D01*
X163824687Y-80433609D02*
X163777068Y-80457419D01*
X163777068Y-80457419D02*
X163753258Y-80481228D01*
X163753258Y-80481228D02*
X163729449Y-80528847D01*
X163729449Y-80528847D02*
X163729449Y-80600276D01*
X163729449Y-80600276D02*
X163753258Y-80647895D01*
X163753258Y-80647895D02*
X163777068Y-80671704D01*
X163777068Y-80671704D02*
X163824687Y-80695514D01*
X163824687Y-80695514D02*
X164015163Y-80695514D01*
X163538972Y-80909800D02*
X163467544Y-80933609D01*
X163467544Y-80933609D02*
X163348496Y-80933609D01*
X163348496Y-80933609D02*
X163300877Y-80909800D01*
X163300877Y-80909800D02*
X163277068Y-80885990D01*
X163277068Y-80885990D02*
X163253258Y-80838371D01*
X163253258Y-80838371D02*
X163253258Y-80790752D01*
X163253258Y-80790752D02*
X163277068Y-80743133D01*
X163277068Y-80743133D02*
X163300877Y-80719323D01*
X163300877Y-80719323D02*
X163348496Y-80695514D01*
X163348496Y-80695514D02*
X163443734Y-80671704D01*
X163443734Y-80671704D02*
X163491353Y-80647895D01*
X163491353Y-80647895D02*
X163515163Y-80624085D01*
X163515163Y-80624085D02*
X163538972Y-80576466D01*
X163538972Y-80576466D02*
X163538972Y-80528847D01*
X163538972Y-80528847D02*
X163515163Y-80481228D01*
X163515163Y-80481228D02*
X163491353Y-80457419D01*
X163491353Y-80457419D02*
X163443734Y-80433609D01*
X163443734Y-80433609D02*
X163324687Y-80433609D01*
X163324687Y-80433609D02*
X163253258Y-80457419D01*
X163110401Y-80433609D02*
X162824687Y-80433609D01*
X162967544Y-80933609D02*
X162967544Y-80433609D01*
X162396116Y-80933609D02*
X162681830Y-80933609D01*
X162538973Y-80933609D02*
X162538973Y-80433609D01*
X162538973Y-80433609D02*
X162586592Y-80505038D01*
X162586592Y-80505038D02*
X162634211Y-80552657D01*
X162634211Y-80552657D02*
X162681830Y-80576466D01*
D11*
X151344612Y-121467219D02*
X151344612Y-122181504D01*
X151344612Y-122181504D02*
X151392231Y-122324361D01*
X151392231Y-122324361D02*
X151487469Y-122419600D01*
X151487469Y-122419600D02*
X151630326Y-122467219D01*
X151630326Y-122467219D02*
X151725564Y-122467219D01*
X150439850Y-121800552D02*
X150439850Y-122467219D01*
X150677945Y-121419600D02*
X150916040Y-122133885D01*
X150916040Y-122133885D02*
X150296993Y-122133885D01*
D13*
X161415163Y-80933609D02*
X161415163Y-80433609D01*
X161177068Y-80933609D02*
X161177068Y-80433609D01*
X161177068Y-80433609D02*
X160891354Y-80933609D01*
X160891354Y-80933609D02*
X160891354Y-80433609D01*
X160724686Y-80433609D02*
X160438972Y-80433609D01*
X160581829Y-80933609D02*
X160581829Y-80433609D01*
X160010401Y-80933609D02*
X160296115Y-80933609D01*
X160153258Y-80933609D02*
X160153258Y-80433609D01*
X160153258Y-80433609D02*
X160200877Y-80505038D01*
X160200877Y-80505038D02*
X160248496Y-80552657D01*
X160248496Y-80552657D02*
X160296115Y-80576466D01*
D12*
X127389286Y-115585498D02*
X127639286Y-115228355D01*
X127817857Y-115585498D02*
X127817857Y-114835498D01*
X127817857Y-114835498D02*
X127532143Y-114835498D01*
X127532143Y-114835498D02*
X127460714Y-114871212D01*
X127460714Y-114871212D02*
X127425000Y-114906926D01*
X127425000Y-114906926D02*
X127389286Y-114978355D01*
X127389286Y-114978355D02*
X127389286Y-115085498D01*
X127389286Y-115085498D02*
X127425000Y-115156926D01*
X127425000Y-115156926D02*
X127460714Y-115192641D01*
X127460714Y-115192641D02*
X127532143Y-115228355D01*
X127532143Y-115228355D02*
X127817857Y-115228355D01*
X127103571Y-115549784D02*
X126996429Y-115585498D01*
X126996429Y-115585498D02*
X126817857Y-115585498D01*
X126817857Y-115585498D02*
X126746429Y-115549784D01*
X126746429Y-115549784D02*
X126710714Y-115514069D01*
X126710714Y-115514069D02*
X126675000Y-115442641D01*
X126675000Y-115442641D02*
X126675000Y-115371212D01*
X126675000Y-115371212D02*
X126710714Y-115299784D01*
X126710714Y-115299784D02*
X126746429Y-115264069D01*
X126746429Y-115264069D02*
X126817857Y-115228355D01*
X126817857Y-115228355D02*
X126960714Y-115192641D01*
X126960714Y-115192641D02*
X127032143Y-115156926D01*
X127032143Y-115156926D02*
X127067857Y-115121212D01*
X127067857Y-115121212D02*
X127103571Y-115049784D01*
X127103571Y-115049784D02*
X127103571Y-114978355D01*
X127103571Y-114978355D02*
X127067857Y-114906926D01*
X127067857Y-114906926D02*
X127032143Y-114871212D01*
X127032143Y-114871212D02*
X126960714Y-114835498D01*
X126960714Y-114835498D02*
X126782143Y-114835498D01*
X126782143Y-114835498D02*
X126675000Y-114871212D01*
X126460714Y-114835498D02*
X126032143Y-114835498D01*
X126246428Y-115585498D02*
X126246428Y-114835498D01*
X125424999Y-114835498D02*
X125782142Y-114835498D01*
X125782142Y-114835498D02*
X125817856Y-115192641D01*
X125817856Y-115192641D02*
X125782142Y-115156926D01*
X125782142Y-115156926D02*
X125710714Y-115121212D01*
X125710714Y-115121212D02*
X125532142Y-115121212D01*
X125532142Y-115121212D02*
X125460714Y-115156926D01*
X125460714Y-115156926D02*
X125424999Y-115192641D01*
X125424999Y-115192641D02*
X125389285Y-115264069D01*
X125389285Y-115264069D02*
X125389285Y-115442641D01*
X125389285Y-115442641D02*
X125424999Y-115514069D01*
X125424999Y-115514069D02*
X125460714Y-115549784D01*
X125460714Y-115549784D02*
X125532142Y-115585498D01*
X125532142Y-115585498D02*
X125710714Y-115585498D01*
X125710714Y-115585498D02*
X125782142Y-115549784D01*
X125782142Y-115549784D02*
X125817856Y-115514069D01*
X125067856Y-115299784D02*
X124496428Y-115299784D01*
X124139285Y-115085498D02*
X123567857Y-115299784D01*
X123567857Y-115299784D02*
X124139285Y-115514069D01*
X122639285Y-115585498D02*
X122639285Y-114835498D01*
X122639285Y-114835498D02*
X122353571Y-114835498D01*
X122353571Y-114835498D02*
X122282142Y-114871212D01*
X122282142Y-114871212D02*
X122246428Y-114906926D01*
X122246428Y-114906926D02*
X122210714Y-114978355D01*
X122210714Y-114978355D02*
X122210714Y-115085498D01*
X122210714Y-115085498D02*
X122246428Y-115156926D01*
X122246428Y-115156926D02*
X122282142Y-115192641D01*
X122282142Y-115192641D02*
X122353571Y-115228355D01*
X122353571Y-115228355D02*
X122639285Y-115228355D01*
X121889285Y-115585498D02*
X121889285Y-114835498D01*
X121889285Y-114835498D02*
X121710714Y-114835498D01*
X121710714Y-114835498D02*
X121603571Y-114871212D01*
X121603571Y-114871212D02*
X121532142Y-114942641D01*
X121532142Y-114942641D02*
X121496428Y-115014069D01*
X121496428Y-115014069D02*
X121460714Y-115156926D01*
X121460714Y-115156926D02*
X121460714Y-115264069D01*
X121460714Y-115264069D02*
X121496428Y-115406926D01*
X121496428Y-115406926D02*
X121532142Y-115478355D01*
X121532142Y-115478355D02*
X121603571Y-115549784D01*
X121603571Y-115549784D02*
X121710714Y-115585498D01*
X121710714Y-115585498D02*
X121889285Y-115585498D01*
X121210714Y-114835498D02*
X120746428Y-114835498D01*
X120746428Y-114835498D02*
X120996428Y-115121212D01*
X120996428Y-115121212D02*
X120889285Y-115121212D01*
X120889285Y-115121212D02*
X120817857Y-115156926D01*
X120817857Y-115156926D02*
X120782142Y-115192641D01*
X120782142Y-115192641D02*
X120746428Y-115264069D01*
X120746428Y-115264069D02*
X120746428Y-115442641D01*
X120746428Y-115442641D02*
X120782142Y-115514069D01*
X120782142Y-115514069D02*
X120817857Y-115549784D01*
X120817857Y-115549784D02*
X120889285Y-115585498D01*
X120889285Y-115585498D02*
X121103571Y-115585498D01*
X121103571Y-115585498D02*
X121174999Y-115549784D01*
X121174999Y-115549784D02*
X121210714Y-115514069D01*
X127389286Y-116721527D02*
X127425000Y-116757242D01*
X127425000Y-116757242D02*
X127532143Y-116792956D01*
X127532143Y-116792956D02*
X127603571Y-116792956D01*
X127603571Y-116792956D02*
X127710714Y-116757242D01*
X127710714Y-116757242D02*
X127782143Y-116685813D01*
X127782143Y-116685813D02*
X127817857Y-116614384D01*
X127817857Y-116614384D02*
X127853571Y-116471527D01*
X127853571Y-116471527D02*
X127853571Y-116364384D01*
X127853571Y-116364384D02*
X127817857Y-116221527D01*
X127817857Y-116221527D02*
X127782143Y-116150099D01*
X127782143Y-116150099D02*
X127710714Y-116078670D01*
X127710714Y-116078670D02*
X127603571Y-116042956D01*
X127603571Y-116042956D02*
X127532143Y-116042956D01*
X127532143Y-116042956D02*
X127425000Y-116078670D01*
X127425000Y-116078670D02*
X127389286Y-116114384D01*
X127103571Y-116757242D02*
X126996429Y-116792956D01*
X126996429Y-116792956D02*
X126817857Y-116792956D01*
X126817857Y-116792956D02*
X126746429Y-116757242D01*
X126746429Y-116757242D02*
X126710714Y-116721527D01*
X126710714Y-116721527D02*
X126675000Y-116650099D01*
X126675000Y-116650099D02*
X126675000Y-116578670D01*
X126675000Y-116578670D02*
X126710714Y-116507242D01*
X126710714Y-116507242D02*
X126746429Y-116471527D01*
X126746429Y-116471527D02*
X126817857Y-116435813D01*
X126817857Y-116435813D02*
X126960714Y-116400099D01*
X126960714Y-116400099D02*
X127032143Y-116364384D01*
X127032143Y-116364384D02*
X127067857Y-116328670D01*
X127067857Y-116328670D02*
X127103571Y-116257242D01*
X127103571Y-116257242D02*
X127103571Y-116185813D01*
X127103571Y-116185813D02*
X127067857Y-116114384D01*
X127067857Y-116114384D02*
X127032143Y-116078670D01*
X127032143Y-116078670D02*
X126960714Y-116042956D01*
X126960714Y-116042956D02*
X126782143Y-116042956D01*
X126782143Y-116042956D02*
X126675000Y-116078670D01*
X125996428Y-116042956D02*
X126353571Y-116042956D01*
X126353571Y-116042956D02*
X126389285Y-116400099D01*
X126389285Y-116400099D02*
X126353571Y-116364384D01*
X126353571Y-116364384D02*
X126282143Y-116328670D01*
X126282143Y-116328670D02*
X126103571Y-116328670D01*
X126103571Y-116328670D02*
X126032143Y-116364384D01*
X126032143Y-116364384D02*
X125996428Y-116400099D01*
X125996428Y-116400099D02*
X125960714Y-116471527D01*
X125960714Y-116471527D02*
X125960714Y-116650099D01*
X125960714Y-116650099D02*
X125996428Y-116721527D01*
X125996428Y-116721527D02*
X126032143Y-116757242D01*
X126032143Y-116757242D02*
X126103571Y-116792956D01*
X126103571Y-116792956D02*
X126282143Y-116792956D01*
X126282143Y-116792956D02*
X126353571Y-116757242D01*
X126353571Y-116757242D02*
X126389285Y-116721527D01*
X125067856Y-116507242D02*
X124496428Y-116507242D01*
X124139285Y-116292956D02*
X123567857Y-116507242D01*
X123567857Y-116507242D02*
X124139285Y-116721527D01*
X122639285Y-116792956D02*
X122639285Y-116042956D01*
X122639285Y-116042956D02*
X122353571Y-116042956D01*
X122353571Y-116042956D02*
X122282142Y-116078670D01*
X122282142Y-116078670D02*
X122246428Y-116114384D01*
X122246428Y-116114384D02*
X122210714Y-116185813D01*
X122210714Y-116185813D02*
X122210714Y-116292956D01*
X122210714Y-116292956D02*
X122246428Y-116364384D01*
X122246428Y-116364384D02*
X122282142Y-116400099D01*
X122282142Y-116400099D02*
X122353571Y-116435813D01*
X122353571Y-116435813D02*
X122639285Y-116435813D01*
X121889285Y-116792956D02*
X121889285Y-116042956D01*
X121889285Y-116042956D02*
X121710714Y-116042956D01*
X121710714Y-116042956D02*
X121603571Y-116078670D01*
X121603571Y-116078670D02*
X121532142Y-116150099D01*
X121532142Y-116150099D02*
X121496428Y-116221527D01*
X121496428Y-116221527D02*
X121460714Y-116364384D01*
X121460714Y-116364384D02*
X121460714Y-116471527D01*
X121460714Y-116471527D02*
X121496428Y-116614384D01*
X121496428Y-116614384D02*
X121532142Y-116685813D01*
X121532142Y-116685813D02*
X121603571Y-116757242D01*
X121603571Y-116757242D02*
X121710714Y-116792956D01*
X121710714Y-116792956D02*
X121889285Y-116792956D01*
X120817857Y-116292956D02*
X120817857Y-116792956D01*
X120996428Y-116007242D02*
X121174999Y-116542956D01*
X121174999Y-116542956D02*
X120710714Y-116542956D01*
X127657142Y-118000414D02*
X127657142Y-117250414D01*
X127299999Y-118000414D02*
X127299999Y-117250414D01*
X127299999Y-117250414D02*
X126871428Y-118000414D01*
X126871428Y-118000414D02*
X126871428Y-117250414D01*
X126621428Y-117250414D02*
X126192857Y-117250414D01*
X126407142Y-118000414D02*
X126407142Y-117250414D01*
X125585713Y-117250414D02*
X125942856Y-117250414D01*
X125942856Y-117250414D02*
X125978570Y-117607557D01*
X125978570Y-117607557D02*
X125942856Y-117571842D01*
X125942856Y-117571842D02*
X125871428Y-117536128D01*
X125871428Y-117536128D02*
X125692856Y-117536128D01*
X125692856Y-117536128D02*
X125621428Y-117571842D01*
X125621428Y-117571842D02*
X125585713Y-117607557D01*
X125585713Y-117607557D02*
X125549999Y-117678985D01*
X125549999Y-117678985D02*
X125549999Y-117857557D01*
X125549999Y-117857557D02*
X125585713Y-117928985D01*
X125585713Y-117928985D02*
X125621428Y-117964700D01*
X125621428Y-117964700D02*
X125692856Y-118000414D01*
X125692856Y-118000414D02*
X125871428Y-118000414D01*
X125871428Y-118000414D02*
X125942856Y-117964700D01*
X125942856Y-117964700D02*
X125978570Y-117928985D01*
X125228570Y-117714700D02*
X124657142Y-117714700D01*
X124299999Y-117500414D02*
X123728571Y-117714700D01*
X123728571Y-117714700D02*
X124299999Y-117928985D01*
X122799999Y-118000414D02*
X122799999Y-117250414D01*
X122799999Y-117250414D02*
X122514285Y-117250414D01*
X122514285Y-117250414D02*
X122442856Y-117286128D01*
X122442856Y-117286128D02*
X122407142Y-117321842D01*
X122407142Y-117321842D02*
X122371428Y-117393271D01*
X122371428Y-117393271D02*
X122371428Y-117500414D01*
X122371428Y-117500414D02*
X122407142Y-117571842D01*
X122407142Y-117571842D02*
X122442856Y-117607557D01*
X122442856Y-117607557D02*
X122514285Y-117643271D01*
X122514285Y-117643271D02*
X122799999Y-117643271D01*
X122049999Y-118000414D02*
X122049999Y-117250414D01*
X122049999Y-117250414D02*
X121871428Y-117250414D01*
X121871428Y-117250414D02*
X121764285Y-117286128D01*
X121764285Y-117286128D02*
X121692856Y-117357557D01*
X121692856Y-117357557D02*
X121657142Y-117428985D01*
X121657142Y-117428985D02*
X121621428Y-117571842D01*
X121621428Y-117571842D02*
X121621428Y-117678985D01*
X121621428Y-117678985D02*
X121657142Y-117821842D01*
X121657142Y-117821842D02*
X121692856Y-117893271D01*
X121692856Y-117893271D02*
X121764285Y-117964700D01*
X121764285Y-117964700D02*
X121871428Y-118000414D01*
X121871428Y-118000414D02*
X122049999Y-118000414D01*
X121335713Y-117321842D02*
X121299999Y-117286128D01*
X121299999Y-117286128D02*
X121228571Y-117250414D01*
X121228571Y-117250414D02*
X121049999Y-117250414D01*
X121049999Y-117250414D02*
X120978571Y-117286128D01*
X120978571Y-117286128D02*
X120942856Y-117321842D01*
X120942856Y-117321842D02*
X120907142Y-117393271D01*
X120907142Y-117393271D02*
X120907142Y-117464700D01*
X120907142Y-117464700D02*
X120942856Y-117571842D01*
X120942856Y-117571842D02*
X121371428Y-118000414D01*
X121371428Y-118000414D02*
X120907142Y-118000414D01*
D11*
X143125564Y-85267219D02*
X142506517Y-85267219D01*
X142506517Y-85267219D02*
X142839850Y-85648171D01*
X142839850Y-85648171D02*
X142696993Y-85648171D01*
X142696993Y-85648171D02*
X142601755Y-85695790D01*
X142601755Y-85695790D02*
X142554136Y-85743409D01*
X142554136Y-85743409D02*
X142506517Y-85838647D01*
X142506517Y-85838647D02*
X142506517Y-86076742D01*
X142506517Y-86076742D02*
X142554136Y-86171980D01*
X142554136Y-86171980D02*
X142601755Y-86219600D01*
X142601755Y-86219600D02*
X142696993Y-86267219D01*
X142696993Y-86267219D02*
X142982707Y-86267219D01*
X142982707Y-86267219D02*
X143077945Y-86219600D01*
X143077945Y-86219600D02*
X143125564Y-86171980D01*
X142125564Y-85362457D02*
X142077945Y-85314838D01*
X142077945Y-85314838D02*
X141982707Y-85267219D01*
X141982707Y-85267219D02*
X141744612Y-85267219D01*
X141744612Y-85267219D02*
X141649374Y-85314838D01*
X141649374Y-85314838D02*
X141601755Y-85362457D01*
X141601755Y-85362457D02*
X141554136Y-85457695D01*
X141554136Y-85457695D02*
X141554136Y-85552933D01*
X141554136Y-85552933D02*
X141601755Y-85695790D01*
X141601755Y-85695790D02*
X142173183Y-86267219D01*
X142173183Y-86267219D02*
X141554136Y-86267219D01*
X140982707Y-85695790D02*
X141077945Y-85648171D01*
X141077945Y-85648171D02*
X141125564Y-85600552D01*
X141125564Y-85600552D02*
X141173183Y-85505314D01*
X141173183Y-85505314D02*
X141173183Y-85457695D01*
X141173183Y-85457695D02*
X141125564Y-85362457D01*
X141125564Y-85362457D02*
X141077945Y-85314838D01*
X141077945Y-85314838D02*
X140982707Y-85267219D01*
X140982707Y-85267219D02*
X140792231Y-85267219D01*
X140792231Y-85267219D02*
X140696993Y-85314838D01*
X140696993Y-85314838D02*
X140649374Y-85362457D01*
X140649374Y-85362457D02*
X140601755Y-85457695D01*
X140601755Y-85457695D02*
X140601755Y-85505314D01*
X140601755Y-85505314D02*
X140649374Y-85600552D01*
X140649374Y-85600552D02*
X140696993Y-85648171D01*
X140696993Y-85648171D02*
X140792231Y-85695790D01*
X140792231Y-85695790D02*
X140982707Y-85695790D01*
X140982707Y-85695790D02*
X141077945Y-85743409D01*
X141077945Y-85743409D02*
X141125564Y-85791028D01*
X141125564Y-85791028D02*
X141173183Y-85886266D01*
X141173183Y-85886266D02*
X141173183Y-86076742D01*
X141173183Y-86076742D02*
X141125564Y-86171980D01*
X141125564Y-86171980D02*
X141077945Y-86219600D01*
X141077945Y-86219600D02*
X140982707Y-86267219D01*
X140982707Y-86267219D02*
X140792231Y-86267219D01*
X140792231Y-86267219D02*
X140696993Y-86219600D01*
X140696993Y-86219600D02*
X140649374Y-86171980D01*
X140649374Y-86171980D02*
X140601755Y-86076742D01*
X140601755Y-86076742D02*
X140601755Y-85886266D01*
X140601755Y-85886266D02*
X140649374Y-85791028D01*
X140649374Y-85791028D02*
X140696993Y-85743409D01*
X140696993Y-85743409D02*
X140792231Y-85695790D01*
X140173183Y-85600552D02*
X140173183Y-86600552D01*
X140173183Y-85648171D02*
X140077945Y-85600552D01*
X140077945Y-85600552D02*
X139887469Y-85600552D01*
X139887469Y-85600552D02*
X139792231Y-85648171D01*
X139792231Y-85648171D02*
X139744612Y-85695790D01*
X139744612Y-85695790D02*
X139696993Y-85791028D01*
X139696993Y-85791028D02*
X139696993Y-86076742D01*
X139696993Y-86076742D02*
X139744612Y-86171980D01*
X139744612Y-86171980D02*
X139792231Y-86219600D01*
X139792231Y-86219600D02*
X139887469Y-86267219D01*
X139887469Y-86267219D02*
X140077945Y-86267219D01*
X140077945Y-86267219D02*
X140173183Y-86219600D01*
D13*
X125529449Y-119533609D02*
X125696115Y-119295514D01*
X125815163Y-119533609D02*
X125815163Y-119033609D01*
X125815163Y-119033609D02*
X125624687Y-119033609D01*
X125624687Y-119033609D02*
X125577068Y-119057419D01*
X125577068Y-119057419D02*
X125553258Y-119081228D01*
X125553258Y-119081228D02*
X125529449Y-119128847D01*
X125529449Y-119128847D02*
X125529449Y-119200276D01*
X125529449Y-119200276D02*
X125553258Y-119247895D01*
X125553258Y-119247895D02*
X125577068Y-119271704D01*
X125577068Y-119271704D02*
X125624687Y-119295514D01*
X125624687Y-119295514D02*
X125815163Y-119295514D01*
X125338972Y-119509800D02*
X125267544Y-119533609D01*
X125267544Y-119533609D02*
X125148496Y-119533609D01*
X125148496Y-119533609D02*
X125100877Y-119509800D01*
X125100877Y-119509800D02*
X125077068Y-119485990D01*
X125077068Y-119485990D02*
X125053258Y-119438371D01*
X125053258Y-119438371D02*
X125053258Y-119390752D01*
X125053258Y-119390752D02*
X125077068Y-119343133D01*
X125077068Y-119343133D02*
X125100877Y-119319323D01*
X125100877Y-119319323D02*
X125148496Y-119295514D01*
X125148496Y-119295514D02*
X125243734Y-119271704D01*
X125243734Y-119271704D02*
X125291353Y-119247895D01*
X125291353Y-119247895D02*
X125315163Y-119224085D01*
X125315163Y-119224085D02*
X125338972Y-119176466D01*
X125338972Y-119176466D02*
X125338972Y-119128847D01*
X125338972Y-119128847D02*
X125315163Y-119081228D01*
X125315163Y-119081228D02*
X125291353Y-119057419D01*
X125291353Y-119057419D02*
X125243734Y-119033609D01*
X125243734Y-119033609D02*
X125124687Y-119033609D01*
X125124687Y-119033609D02*
X125053258Y-119057419D01*
X124910401Y-119033609D02*
X124624687Y-119033609D01*
X124767544Y-119533609D02*
X124767544Y-119033609D01*
X124219926Y-119033609D02*
X124458021Y-119033609D01*
X124458021Y-119033609D02*
X124481830Y-119271704D01*
X124481830Y-119271704D02*
X124458021Y-119247895D01*
X124458021Y-119247895D02*
X124410402Y-119224085D01*
X124410402Y-119224085D02*
X124291354Y-119224085D01*
X124291354Y-119224085D02*
X124243735Y-119247895D01*
X124243735Y-119247895D02*
X124219926Y-119271704D01*
X124219926Y-119271704D02*
X124196116Y-119319323D01*
X124196116Y-119319323D02*
X124196116Y-119438371D01*
X124196116Y-119438371D02*
X124219926Y-119485990D01*
X124219926Y-119485990D02*
X124243735Y-119509800D01*
X124243735Y-119509800D02*
X124291354Y-119533609D01*
X124291354Y-119533609D02*
X124410402Y-119533609D01*
X124410402Y-119533609D02*
X124458021Y-119509800D01*
X124458021Y-119509800D02*
X124481830Y-119485990D01*
X166438972Y-86309800D02*
X166367544Y-86333609D01*
X166367544Y-86333609D02*
X166248496Y-86333609D01*
X166248496Y-86333609D02*
X166200877Y-86309800D01*
X166200877Y-86309800D02*
X166177068Y-86285990D01*
X166177068Y-86285990D02*
X166153258Y-86238371D01*
X166153258Y-86238371D02*
X166153258Y-86190752D01*
X166153258Y-86190752D02*
X166177068Y-86143133D01*
X166177068Y-86143133D02*
X166200877Y-86119323D01*
X166200877Y-86119323D02*
X166248496Y-86095514D01*
X166248496Y-86095514D02*
X166343734Y-86071704D01*
X166343734Y-86071704D02*
X166391353Y-86047895D01*
X166391353Y-86047895D02*
X166415163Y-86024085D01*
X166415163Y-86024085D02*
X166438972Y-85976466D01*
X166438972Y-85976466D02*
X166438972Y-85928847D01*
X166438972Y-85928847D02*
X166415163Y-85881228D01*
X166415163Y-85881228D02*
X166391353Y-85857419D01*
X166391353Y-85857419D02*
X166343734Y-85833609D01*
X166343734Y-85833609D02*
X166224687Y-85833609D01*
X166224687Y-85833609D02*
X166153258Y-85857419D01*
X165653259Y-86285990D02*
X165677068Y-86309800D01*
X165677068Y-86309800D02*
X165748497Y-86333609D01*
X165748497Y-86333609D02*
X165796116Y-86333609D01*
X165796116Y-86333609D02*
X165867544Y-86309800D01*
X165867544Y-86309800D02*
X165915163Y-86262180D01*
X165915163Y-86262180D02*
X165938973Y-86214561D01*
X165938973Y-86214561D02*
X165962782Y-86119323D01*
X165962782Y-86119323D02*
X165962782Y-86047895D01*
X165962782Y-86047895D02*
X165938973Y-85952657D01*
X165938973Y-85952657D02*
X165915163Y-85905038D01*
X165915163Y-85905038D02*
X165867544Y-85857419D01*
X165867544Y-85857419D02*
X165796116Y-85833609D01*
X165796116Y-85833609D02*
X165748497Y-85833609D01*
X165748497Y-85833609D02*
X165677068Y-85857419D01*
X165677068Y-85857419D02*
X165653259Y-85881228D01*
X165438973Y-86333609D02*
X165438973Y-85833609D01*
X165153259Y-86333609D02*
X165367544Y-86047895D01*
X165153259Y-85833609D02*
X165438973Y-86119323D01*
X143615163Y-124933609D02*
X143615163Y-124433609D01*
X143615163Y-124433609D02*
X143448496Y-124790752D01*
X143448496Y-124790752D02*
X143281830Y-124433609D01*
X143281830Y-124433609D02*
X143281830Y-124933609D01*
X142948496Y-124433609D02*
X142853258Y-124433609D01*
X142853258Y-124433609D02*
X142805639Y-124457419D01*
X142805639Y-124457419D02*
X142758020Y-124505038D01*
X142758020Y-124505038D02*
X142734210Y-124600276D01*
X142734210Y-124600276D02*
X142734210Y-124766942D01*
X142734210Y-124766942D02*
X142758020Y-124862180D01*
X142758020Y-124862180D02*
X142805639Y-124909800D01*
X142805639Y-124909800D02*
X142853258Y-124933609D01*
X142853258Y-124933609D02*
X142948496Y-124933609D01*
X142948496Y-124933609D02*
X142996115Y-124909800D01*
X142996115Y-124909800D02*
X143043734Y-124862180D01*
X143043734Y-124862180D02*
X143067543Y-124766942D01*
X143067543Y-124766942D02*
X143067543Y-124600276D01*
X143067543Y-124600276D02*
X143043734Y-124505038D01*
X143043734Y-124505038D02*
X142996115Y-124457419D01*
X142996115Y-124457419D02*
X142948496Y-124433609D01*
X142543733Y-124909800D02*
X142472305Y-124933609D01*
X142472305Y-124933609D02*
X142353257Y-124933609D01*
X142353257Y-124933609D02*
X142305638Y-124909800D01*
X142305638Y-124909800D02*
X142281829Y-124885990D01*
X142281829Y-124885990D02*
X142258019Y-124838371D01*
X142258019Y-124838371D02*
X142258019Y-124790752D01*
X142258019Y-124790752D02*
X142281829Y-124743133D01*
X142281829Y-124743133D02*
X142305638Y-124719323D01*
X142305638Y-124719323D02*
X142353257Y-124695514D01*
X142353257Y-124695514D02*
X142448495Y-124671704D01*
X142448495Y-124671704D02*
X142496114Y-124647895D01*
X142496114Y-124647895D02*
X142519924Y-124624085D01*
X142519924Y-124624085D02*
X142543733Y-124576466D01*
X142543733Y-124576466D02*
X142543733Y-124528847D01*
X142543733Y-124528847D02*
X142519924Y-124481228D01*
X142519924Y-124481228D02*
X142496114Y-124457419D01*
X142496114Y-124457419D02*
X142448495Y-124433609D01*
X142448495Y-124433609D02*
X142329448Y-124433609D01*
X142329448Y-124433609D02*
X142258019Y-124457419D01*
X142043734Y-124933609D02*
X142043734Y-124433609D01*
X158686591Y-92633609D02*
X158519925Y-93133609D01*
X158519925Y-93133609D02*
X158353258Y-92633609D01*
X157900878Y-93085990D02*
X157924687Y-93109800D01*
X157924687Y-93109800D02*
X157996116Y-93133609D01*
X157996116Y-93133609D02*
X158043735Y-93133609D01*
X158043735Y-93133609D02*
X158115163Y-93109800D01*
X158115163Y-93109800D02*
X158162782Y-93062180D01*
X158162782Y-93062180D02*
X158186592Y-93014561D01*
X158186592Y-93014561D02*
X158210401Y-92919323D01*
X158210401Y-92919323D02*
X158210401Y-92847895D01*
X158210401Y-92847895D02*
X158186592Y-92752657D01*
X158186592Y-92752657D02*
X158162782Y-92705038D01*
X158162782Y-92705038D02*
X158115163Y-92657419D01*
X158115163Y-92657419D02*
X158043735Y-92633609D01*
X158043735Y-92633609D02*
X157996116Y-92633609D01*
X157996116Y-92633609D02*
X157924687Y-92657419D01*
X157924687Y-92657419D02*
X157900878Y-92681228D01*
X157400878Y-93085990D02*
X157424687Y-93109800D01*
X157424687Y-93109800D02*
X157496116Y-93133609D01*
X157496116Y-93133609D02*
X157543735Y-93133609D01*
X157543735Y-93133609D02*
X157615163Y-93109800D01*
X157615163Y-93109800D02*
X157662782Y-93062180D01*
X157662782Y-93062180D02*
X157686592Y-93014561D01*
X157686592Y-93014561D02*
X157710401Y-92919323D01*
X157710401Y-92919323D02*
X157710401Y-92847895D01*
X157710401Y-92847895D02*
X157686592Y-92752657D01*
X157686592Y-92752657D02*
X157662782Y-92705038D01*
X157662782Y-92705038D02*
X157615163Y-92657419D01*
X157615163Y-92657419D02*
X157543735Y-92633609D01*
X157543735Y-92633609D02*
X157496116Y-92633609D01*
X157496116Y-92633609D02*
X157424687Y-92657419D01*
X157424687Y-92657419D02*
X157400878Y-92681228D01*
X161415163Y-86333609D02*
X161415163Y-85833609D01*
X161415163Y-85833609D02*
X161248496Y-86190752D01*
X161248496Y-86190752D02*
X161081830Y-85833609D01*
X161081830Y-85833609D02*
X161081830Y-86333609D01*
X160748496Y-85833609D02*
X160653258Y-85833609D01*
X160653258Y-85833609D02*
X160605639Y-85857419D01*
X160605639Y-85857419D02*
X160558020Y-85905038D01*
X160558020Y-85905038D02*
X160534210Y-86000276D01*
X160534210Y-86000276D02*
X160534210Y-86166942D01*
X160534210Y-86166942D02*
X160558020Y-86262180D01*
X160558020Y-86262180D02*
X160605639Y-86309800D01*
X160605639Y-86309800D02*
X160653258Y-86333609D01*
X160653258Y-86333609D02*
X160748496Y-86333609D01*
X160748496Y-86333609D02*
X160796115Y-86309800D01*
X160796115Y-86309800D02*
X160843734Y-86262180D01*
X160843734Y-86262180D02*
X160867543Y-86166942D01*
X160867543Y-86166942D02*
X160867543Y-86000276D01*
X160867543Y-86000276D02*
X160843734Y-85905038D01*
X160843734Y-85905038D02*
X160796115Y-85857419D01*
X160796115Y-85857419D02*
X160748496Y-85833609D01*
X160343733Y-86309800D02*
X160272305Y-86333609D01*
X160272305Y-86333609D02*
X160153257Y-86333609D01*
X160153257Y-86333609D02*
X160105638Y-86309800D01*
X160105638Y-86309800D02*
X160081829Y-86285990D01*
X160081829Y-86285990D02*
X160058019Y-86238371D01*
X160058019Y-86238371D02*
X160058019Y-86190752D01*
X160058019Y-86190752D02*
X160081829Y-86143133D01*
X160081829Y-86143133D02*
X160105638Y-86119323D01*
X160105638Y-86119323D02*
X160153257Y-86095514D01*
X160153257Y-86095514D02*
X160248495Y-86071704D01*
X160248495Y-86071704D02*
X160296114Y-86047895D01*
X160296114Y-86047895D02*
X160319924Y-86024085D01*
X160319924Y-86024085D02*
X160343733Y-85976466D01*
X160343733Y-85976466D02*
X160343733Y-85928847D01*
X160343733Y-85928847D02*
X160319924Y-85881228D01*
X160319924Y-85881228D02*
X160296114Y-85857419D01*
X160296114Y-85857419D02*
X160248495Y-85833609D01*
X160248495Y-85833609D02*
X160129448Y-85833609D01*
X160129448Y-85833609D02*
X160058019Y-85857419D01*
X159843734Y-86333609D02*
X159843734Y-85833609D01*
X142615163Y-78933609D02*
X142615163Y-78433609D01*
X142615163Y-78433609D02*
X142448496Y-78790752D01*
X142448496Y-78790752D02*
X142281830Y-78433609D01*
X142281830Y-78433609D02*
X142281830Y-78933609D01*
X141948496Y-78433609D02*
X141853258Y-78433609D01*
X141853258Y-78433609D02*
X141805639Y-78457419D01*
X141805639Y-78457419D02*
X141758020Y-78505038D01*
X141758020Y-78505038D02*
X141734210Y-78600276D01*
X141734210Y-78600276D02*
X141734210Y-78766942D01*
X141734210Y-78766942D02*
X141758020Y-78862180D01*
X141758020Y-78862180D02*
X141805639Y-78909800D01*
X141805639Y-78909800D02*
X141853258Y-78933609D01*
X141853258Y-78933609D02*
X141948496Y-78933609D01*
X141948496Y-78933609D02*
X141996115Y-78909800D01*
X141996115Y-78909800D02*
X142043734Y-78862180D01*
X142043734Y-78862180D02*
X142067543Y-78766942D01*
X142067543Y-78766942D02*
X142067543Y-78600276D01*
X142067543Y-78600276D02*
X142043734Y-78505038D01*
X142043734Y-78505038D02*
X141996115Y-78457419D01*
X141996115Y-78457419D02*
X141948496Y-78433609D01*
X141543733Y-78909800D02*
X141472305Y-78933609D01*
X141472305Y-78933609D02*
X141353257Y-78933609D01*
X141353257Y-78933609D02*
X141305638Y-78909800D01*
X141305638Y-78909800D02*
X141281829Y-78885990D01*
X141281829Y-78885990D02*
X141258019Y-78838371D01*
X141258019Y-78838371D02*
X141258019Y-78790752D01*
X141258019Y-78790752D02*
X141281829Y-78743133D01*
X141281829Y-78743133D02*
X141305638Y-78719323D01*
X141305638Y-78719323D02*
X141353257Y-78695514D01*
X141353257Y-78695514D02*
X141448495Y-78671704D01*
X141448495Y-78671704D02*
X141496114Y-78647895D01*
X141496114Y-78647895D02*
X141519924Y-78624085D01*
X141519924Y-78624085D02*
X141543733Y-78576466D01*
X141543733Y-78576466D02*
X141543733Y-78528847D01*
X141543733Y-78528847D02*
X141519924Y-78481228D01*
X141519924Y-78481228D02*
X141496114Y-78457419D01*
X141496114Y-78457419D02*
X141448495Y-78433609D01*
X141448495Y-78433609D02*
X141329448Y-78433609D01*
X141329448Y-78433609D02*
X141258019Y-78457419D01*
X141043734Y-78933609D02*
X141043734Y-78433609D01*
X164015163Y-86333609D02*
X164015163Y-85833609D01*
X164015163Y-85833609D02*
X163848496Y-86190752D01*
X163848496Y-86190752D02*
X163681830Y-85833609D01*
X163681830Y-85833609D02*
X163681830Y-86333609D01*
X163443734Y-86333609D02*
X163443734Y-85833609D01*
X163229448Y-86309800D02*
X163158020Y-86333609D01*
X163158020Y-86333609D02*
X163038972Y-86333609D01*
X163038972Y-86333609D02*
X162991353Y-86309800D01*
X162991353Y-86309800D02*
X162967544Y-86285990D01*
X162967544Y-86285990D02*
X162943734Y-86238371D01*
X162943734Y-86238371D02*
X162943734Y-86190752D01*
X162943734Y-86190752D02*
X162967544Y-86143133D01*
X162967544Y-86143133D02*
X162991353Y-86119323D01*
X162991353Y-86119323D02*
X163038972Y-86095514D01*
X163038972Y-86095514D02*
X163134210Y-86071704D01*
X163134210Y-86071704D02*
X163181829Y-86047895D01*
X163181829Y-86047895D02*
X163205639Y-86024085D01*
X163205639Y-86024085D02*
X163229448Y-85976466D01*
X163229448Y-85976466D02*
X163229448Y-85928847D01*
X163229448Y-85928847D02*
X163205639Y-85881228D01*
X163205639Y-85881228D02*
X163181829Y-85857419D01*
X163181829Y-85857419D02*
X163134210Y-85833609D01*
X163134210Y-85833609D02*
X163015163Y-85833609D01*
X163015163Y-85833609D02*
X162943734Y-85857419D01*
X162634211Y-85833609D02*
X162538973Y-85833609D01*
X162538973Y-85833609D02*
X162491354Y-85857419D01*
X162491354Y-85857419D02*
X162443735Y-85905038D01*
X162443735Y-85905038D02*
X162419925Y-86000276D01*
X162419925Y-86000276D02*
X162419925Y-86166942D01*
X162419925Y-86166942D02*
X162443735Y-86262180D01*
X162443735Y-86262180D02*
X162491354Y-86309800D01*
X162491354Y-86309800D02*
X162538973Y-86333609D01*
X162538973Y-86333609D02*
X162634211Y-86333609D01*
X162634211Y-86333609D02*
X162681830Y-86309800D01*
X162681830Y-86309800D02*
X162729449Y-86262180D01*
X162729449Y-86262180D02*
X162753258Y-86166942D01*
X162753258Y-86166942D02*
X162753258Y-86000276D01*
X162753258Y-86000276D02*
X162729449Y-85905038D01*
X162729449Y-85905038D02*
X162681830Y-85857419D01*
X162681830Y-85857419D02*
X162634211Y-85833609D01*
X146215163Y-124933609D02*
X146215163Y-124433609D01*
X146215163Y-124433609D02*
X146048496Y-124790752D01*
X146048496Y-124790752D02*
X145881830Y-124433609D01*
X145881830Y-124433609D02*
X145881830Y-124933609D01*
X145643734Y-124933609D02*
X145643734Y-124433609D01*
X145429448Y-124909800D02*
X145358020Y-124933609D01*
X145358020Y-124933609D02*
X145238972Y-124933609D01*
X145238972Y-124933609D02*
X145191353Y-124909800D01*
X145191353Y-124909800D02*
X145167544Y-124885990D01*
X145167544Y-124885990D02*
X145143734Y-124838371D01*
X145143734Y-124838371D02*
X145143734Y-124790752D01*
X145143734Y-124790752D02*
X145167544Y-124743133D01*
X145167544Y-124743133D02*
X145191353Y-124719323D01*
X145191353Y-124719323D02*
X145238972Y-124695514D01*
X145238972Y-124695514D02*
X145334210Y-124671704D01*
X145334210Y-124671704D02*
X145381829Y-124647895D01*
X145381829Y-124647895D02*
X145405639Y-124624085D01*
X145405639Y-124624085D02*
X145429448Y-124576466D01*
X145429448Y-124576466D02*
X145429448Y-124528847D01*
X145429448Y-124528847D02*
X145405639Y-124481228D01*
X145405639Y-124481228D02*
X145381829Y-124457419D01*
X145381829Y-124457419D02*
X145334210Y-124433609D01*
X145334210Y-124433609D02*
X145215163Y-124433609D01*
X145215163Y-124433609D02*
X145143734Y-124457419D01*
X144834211Y-124433609D02*
X144738973Y-124433609D01*
X144738973Y-124433609D02*
X144691354Y-124457419D01*
X144691354Y-124457419D02*
X144643735Y-124505038D01*
X144643735Y-124505038D02*
X144619925Y-124600276D01*
X144619925Y-124600276D02*
X144619925Y-124766942D01*
X144619925Y-124766942D02*
X144643735Y-124862180D01*
X144643735Y-124862180D02*
X144691354Y-124909800D01*
X144691354Y-124909800D02*
X144738973Y-124933609D01*
X144738973Y-124933609D02*
X144834211Y-124933609D01*
X144834211Y-124933609D02*
X144881830Y-124909800D01*
X144881830Y-124909800D02*
X144929449Y-124862180D01*
X144929449Y-124862180D02*
X144953258Y-124766942D01*
X144953258Y-124766942D02*
X144953258Y-124600276D01*
X144953258Y-124600276D02*
X144929449Y-124505038D01*
X144929449Y-124505038D02*
X144881830Y-124457419D01*
X144881830Y-124457419D02*
X144834211Y-124433609D01*
X158686591Y-105433609D02*
X158519925Y-105933609D01*
X158519925Y-105933609D02*
X158353258Y-105433609D01*
X157900878Y-105885990D02*
X157924687Y-105909800D01*
X157924687Y-105909800D02*
X157996116Y-105933609D01*
X157996116Y-105933609D02*
X158043735Y-105933609D01*
X158043735Y-105933609D02*
X158115163Y-105909800D01*
X158115163Y-105909800D02*
X158162782Y-105862180D01*
X158162782Y-105862180D02*
X158186592Y-105814561D01*
X158186592Y-105814561D02*
X158210401Y-105719323D01*
X158210401Y-105719323D02*
X158210401Y-105647895D01*
X158210401Y-105647895D02*
X158186592Y-105552657D01*
X158186592Y-105552657D02*
X158162782Y-105505038D01*
X158162782Y-105505038D02*
X158115163Y-105457419D01*
X158115163Y-105457419D02*
X158043735Y-105433609D01*
X158043735Y-105433609D02*
X157996116Y-105433609D01*
X157996116Y-105433609D02*
X157924687Y-105457419D01*
X157924687Y-105457419D02*
X157900878Y-105481228D01*
X157400878Y-105885990D02*
X157424687Y-105909800D01*
X157424687Y-105909800D02*
X157496116Y-105933609D01*
X157496116Y-105933609D02*
X157543735Y-105933609D01*
X157543735Y-105933609D02*
X157615163Y-105909800D01*
X157615163Y-105909800D02*
X157662782Y-105862180D01*
X157662782Y-105862180D02*
X157686592Y-105814561D01*
X157686592Y-105814561D02*
X157710401Y-105719323D01*
X157710401Y-105719323D02*
X157710401Y-105647895D01*
X157710401Y-105647895D02*
X157686592Y-105552657D01*
X157686592Y-105552657D02*
X157662782Y-105505038D01*
X157662782Y-105505038D02*
X157615163Y-105457419D01*
X157615163Y-105457419D02*
X157543735Y-105433609D01*
X157543735Y-105433609D02*
X157496116Y-105433609D01*
X157496116Y-105433609D02*
X157424687Y-105457419D01*
X157424687Y-105457419D02*
X157400878Y-105481228D01*
X143415163Y-119533609D02*
X143415163Y-119033609D01*
X143177068Y-119533609D02*
X143177068Y-119033609D01*
X143177068Y-119033609D02*
X142891354Y-119533609D01*
X142891354Y-119533609D02*
X142891354Y-119033609D01*
X142724686Y-119033609D02*
X142438972Y-119033609D01*
X142581829Y-119533609D02*
X142581829Y-119033609D01*
X142058020Y-119200276D02*
X142058020Y-119533609D01*
X142177068Y-119009800D02*
X142296115Y-119366942D01*
X142296115Y-119366942D02*
X141986592Y-119366942D01*
X129415163Y-78933609D02*
X129415163Y-78433609D01*
X129415163Y-78433609D02*
X129248496Y-78790752D01*
X129248496Y-78790752D02*
X129081830Y-78433609D01*
X129081830Y-78433609D02*
X129081830Y-78933609D01*
X128748496Y-78433609D02*
X128653258Y-78433609D01*
X128653258Y-78433609D02*
X128605639Y-78457419D01*
X128605639Y-78457419D02*
X128558020Y-78505038D01*
X128558020Y-78505038D02*
X128534210Y-78600276D01*
X128534210Y-78600276D02*
X128534210Y-78766942D01*
X128534210Y-78766942D02*
X128558020Y-78862180D01*
X128558020Y-78862180D02*
X128605639Y-78909800D01*
X128605639Y-78909800D02*
X128653258Y-78933609D01*
X128653258Y-78933609D02*
X128748496Y-78933609D01*
X128748496Y-78933609D02*
X128796115Y-78909800D01*
X128796115Y-78909800D02*
X128843734Y-78862180D01*
X128843734Y-78862180D02*
X128867543Y-78766942D01*
X128867543Y-78766942D02*
X128867543Y-78600276D01*
X128867543Y-78600276D02*
X128843734Y-78505038D01*
X128843734Y-78505038D02*
X128796115Y-78457419D01*
X128796115Y-78457419D02*
X128748496Y-78433609D01*
X128343733Y-78909800D02*
X128272305Y-78933609D01*
X128272305Y-78933609D02*
X128153257Y-78933609D01*
X128153257Y-78933609D02*
X128105638Y-78909800D01*
X128105638Y-78909800D02*
X128081829Y-78885990D01*
X128081829Y-78885990D02*
X128058019Y-78838371D01*
X128058019Y-78838371D02*
X128058019Y-78790752D01*
X128058019Y-78790752D02*
X128081829Y-78743133D01*
X128081829Y-78743133D02*
X128105638Y-78719323D01*
X128105638Y-78719323D02*
X128153257Y-78695514D01*
X128153257Y-78695514D02*
X128248495Y-78671704D01*
X128248495Y-78671704D02*
X128296114Y-78647895D01*
X128296114Y-78647895D02*
X128319924Y-78624085D01*
X128319924Y-78624085D02*
X128343733Y-78576466D01*
X128343733Y-78576466D02*
X128343733Y-78528847D01*
X128343733Y-78528847D02*
X128319924Y-78481228D01*
X128319924Y-78481228D02*
X128296114Y-78457419D01*
X128296114Y-78457419D02*
X128248495Y-78433609D01*
X128248495Y-78433609D02*
X128129448Y-78433609D01*
X128129448Y-78433609D02*
X128058019Y-78457419D01*
X127843734Y-78933609D02*
X127843734Y-78433609D01*
D11*
X130944612Y-121467219D02*
X130944612Y-122181504D01*
X130944612Y-122181504D02*
X130992231Y-122324361D01*
X130992231Y-122324361D02*
X131087469Y-122419600D01*
X131087469Y-122419600D02*
X131230326Y-122467219D01*
X131230326Y-122467219D02*
X131325564Y-122467219D01*
X129992231Y-121467219D02*
X130468421Y-121467219D01*
X130468421Y-121467219D02*
X130516040Y-121943409D01*
X130516040Y-121943409D02*
X130468421Y-121895790D01*
X130468421Y-121895790D02*
X130373183Y-121848171D01*
X130373183Y-121848171D02*
X130135088Y-121848171D01*
X130135088Y-121848171D02*
X130039850Y-121895790D01*
X130039850Y-121895790D02*
X129992231Y-121943409D01*
X129992231Y-121943409D02*
X129944612Y-122038647D01*
X129944612Y-122038647D02*
X129944612Y-122276742D01*
X129944612Y-122276742D02*
X129992231Y-122371980D01*
X129992231Y-122371980D02*
X130039850Y-122419600D01*
X130039850Y-122419600D02*
X130135088Y-122467219D01*
X130135088Y-122467219D02*
X130373183Y-122467219D01*
X130373183Y-122467219D02*
X130468421Y-122419600D01*
X130468421Y-122419600D02*
X130516040Y-122371980D01*
D13*
X140086591Y-78433609D02*
X139919925Y-78933609D01*
X139919925Y-78933609D02*
X139753258Y-78433609D01*
X139300878Y-78885990D02*
X139324687Y-78909800D01*
X139324687Y-78909800D02*
X139396116Y-78933609D01*
X139396116Y-78933609D02*
X139443735Y-78933609D01*
X139443735Y-78933609D02*
X139515163Y-78909800D01*
X139515163Y-78909800D02*
X139562782Y-78862180D01*
X139562782Y-78862180D02*
X139586592Y-78814561D01*
X139586592Y-78814561D02*
X139610401Y-78719323D01*
X139610401Y-78719323D02*
X139610401Y-78647895D01*
X139610401Y-78647895D02*
X139586592Y-78552657D01*
X139586592Y-78552657D02*
X139562782Y-78505038D01*
X139562782Y-78505038D02*
X139515163Y-78457419D01*
X139515163Y-78457419D02*
X139443735Y-78433609D01*
X139443735Y-78433609D02*
X139396116Y-78433609D01*
X139396116Y-78433609D02*
X139324687Y-78457419D01*
X139324687Y-78457419D02*
X139300878Y-78481228D01*
X138800878Y-78885990D02*
X138824687Y-78909800D01*
X138824687Y-78909800D02*
X138896116Y-78933609D01*
X138896116Y-78933609D02*
X138943735Y-78933609D01*
X138943735Y-78933609D02*
X139015163Y-78909800D01*
X139015163Y-78909800D02*
X139062782Y-78862180D01*
X139062782Y-78862180D02*
X139086592Y-78814561D01*
X139086592Y-78814561D02*
X139110401Y-78719323D01*
X139110401Y-78719323D02*
X139110401Y-78647895D01*
X139110401Y-78647895D02*
X139086592Y-78552657D01*
X139086592Y-78552657D02*
X139062782Y-78505038D01*
X139062782Y-78505038D02*
X139015163Y-78457419D01*
X139015163Y-78457419D02*
X138943735Y-78433609D01*
X138943735Y-78433609D02*
X138896116Y-78433609D01*
X138896116Y-78433609D02*
X138824687Y-78457419D01*
X138824687Y-78457419D02*
X138800878Y-78481228D01*
X131529449Y-84683609D02*
X131696115Y-84445514D01*
X131815163Y-84683609D02*
X131815163Y-84183609D01*
X131815163Y-84183609D02*
X131624687Y-84183609D01*
X131624687Y-84183609D02*
X131577068Y-84207419D01*
X131577068Y-84207419D02*
X131553258Y-84231228D01*
X131553258Y-84231228D02*
X131529449Y-84278847D01*
X131529449Y-84278847D02*
X131529449Y-84350276D01*
X131529449Y-84350276D02*
X131553258Y-84397895D01*
X131553258Y-84397895D02*
X131577068Y-84421704D01*
X131577068Y-84421704D02*
X131624687Y-84445514D01*
X131624687Y-84445514D02*
X131815163Y-84445514D01*
X131338972Y-84659800D02*
X131267544Y-84683609D01*
X131267544Y-84683609D02*
X131148496Y-84683609D01*
X131148496Y-84683609D02*
X131100877Y-84659800D01*
X131100877Y-84659800D02*
X131077068Y-84635990D01*
X131077068Y-84635990D02*
X131053258Y-84588371D01*
X131053258Y-84588371D02*
X131053258Y-84540752D01*
X131053258Y-84540752D02*
X131077068Y-84493133D01*
X131077068Y-84493133D02*
X131100877Y-84469323D01*
X131100877Y-84469323D02*
X131148496Y-84445514D01*
X131148496Y-84445514D02*
X131243734Y-84421704D01*
X131243734Y-84421704D02*
X131291353Y-84397895D01*
X131291353Y-84397895D02*
X131315163Y-84374085D01*
X131315163Y-84374085D02*
X131338972Y-84326466D01*
X131338972Y-84326466D02*
X131338972Y-84278847D01*
X131338972Y-84278847D02*
X131315163Y-84231228D01*
X131315163Y-84231228D02*
X131291353Y-84207419D01*
X131291353Y-84207419D02*
X131243734Y-84183609D01*
X131243734Y-84183609D02*
X131124687Y-84183609D01*
X131124687Y-84183609D02*
X131053258Y-84207419D01*
X130910401Y-84183609D02*
X130624687Y-84183609D01*
X130767544Y-84683609D02*
X130767544Y-84183609D01*
X125815163Y-124933609D02*
X125815163Y-124433609D01*
X125815163Y-124433609D02*
X125648496Y-124790752D01*
X125648496Y-124790752D02*
X125481830Y-124433609D01*
X125481830Y-124433609D02*
X125481830Y-124933609D01*
X125243734Y-124933609D02*
X125243734Y-124433609D01*
X125029448Y-124909800D02*
X124958020Y-124933609D01*
X124958020Y-124933609D02*
X124838972Y-124933609D01*
X124838972Y-124933609D02*
X124791353Y-124909800D01*
X124791353Y-124909800D02*
X124767544Y-124885990D01*
X124767544Y-124885990D02*
X124743734Y-124838371D01*
X124743734Y-124838371D02*
X124743734Y-124790752D01*
X124743734Y-124790752D02*
X124767544Y-124743133D01*
X124767544Y-124743133D02*
X124791353Y-124719323D01*
X124791353Y-124719323D02*
X124838972Y-124695514D01*
X124838972Y-124695514D02*
X124934210Y-124671704D01*
X124934210Y-124671704D02*
X124981829Y-124647895D01*
X124981829Y-124647895D02*
X125005639Y-124624085D01*
X125005639Y-124624085D02*
X125029448Y-124576466D01*
X125029448Y-124576466D02*
X125029448Y-124528847D01*
X125029448Y-124528847D02*
X125005639Y-124481228D01*
X125005639Y-124481228D02*
X124981829Y-124457419D01*
X124981829Y-124457419D02*
X124934210Y-124433609D01*
X124934210Y-124433609D02*
X124815163Y-124433609D01*
X124815163Y-124433609D02*
X124743734Y-124457419D01*
X124434211Y-124433609D02*
X124338973Y-124433609D01*
X124338973Y-124433609D02*
X124291354Y-124457419D01*
X124291354Y-124457419D02*
X124243735Y-124505038D01*
X124243735Y-124505038D02*
X124219925Y-124600276D01*
X124219925Y-124600276D02*
X124219925Y-124766942D01*
X124219925Y-124766942D02*
X124243735Y-124862180D01*
X124243735Y-124862180D02*
X124291354Y-124909800D01*
X124291354Y-124909800D02*
X124338973Y-124933609D01*
X124338973Y-124933609D02*
X124434211Y-124933609D01*
X124434211Y-124933609D02*
X124481830Y-124909800D01*
X124481830Y-124909800D02*
X124529449Y-124862180D01*
X124529449Y-124862180D02*
X124553258Y-124766942D01*
X124553258Y-124766942D02*
X124553258Y-124600276D01*
X124553258Y-124600276D02*
X124529449Y-124505038D01*
X124529449Y-124505038D02*
X124481830Y-124457419D01*
X124481830Y-124457419D02*
X124434211Y-124433609D01*
X161415163Y-111133609D02*
X161415163Y-110633609D01*
X161415163Y-110633609D02*
X161248496Y-110990752D01*
X161248496Y-110990752D02*
X161081830Y-110633609D01*
X161081830Y-110633609D02*
X161081830Y-111133609D01*
X160748496Y-110633609D02*
X160653258Y-110633609D01*
X160653258Y-110633609D02*
X160605639Y-110657419D01*
X160605639Y-110657419D02*
X160558020Y-110705038D01*
X160558020Y-110705038D02*
X160534210Y-110800276D01*
X160534210Y-110800276D02*
X160534210Y-110966942D01*
X160534210Y-110966942D02*
X160558020Y-111062180D01*
X160558020Y-111062180D02*
X160605639Y-111109800D01*
X160605639Y-111109800D02*
X160653258Y-111133609D01*
X160653258Y-111133609D02*
X160748496Y-111133609D01*
X160748496Y-111133609D02*
X160796115Y-111109800D01*
X160796115Y-111109800D02*
X160843734Y-111062180D01*
X160843734Y-111062180D02*
X160867543Y-110966942D01*
X160867543Y-110966942D02*
X160867543Y-110800276D01*
X160867543Y-110800276D02*
X160843734Y-110705038D01*
X160843734Y-110705038D02*
X160796115Y-110657419D01*
X160796115Y-110657419D02*
X160748496Y-110633609D01*
X160343733Y-111109800D02*
X160272305Y-111133609D01*
X160272305Y-111133609D02*
X160153257Y-111133609D01*
X160153257Y-111133609D02*
X160105638Y-111109800D01*
X160105638Y-111109800D02*
X160081829Y-111085990D01*
X160081829Y-111085990D02*
X160058019Y-111038371D01*
X160058019Y-111038371D02*
X160058019Y-110990752D01*
X160058019Y-110990752D02*
X160081829Y-110943133D01*
X160081829Y-110943133D02*
X160105638Y-110919323D01*
X160105638Y-110919323D02*
X160153257Y-110895514D01*
X160153257Y-110895514D02*
X160248495Y-110871704D01*
X160248495Y-110871704D02*
X160296114Y-110847895D01*
X160296114Y-110847895D02*
X160319924Y-110824085D01*
X160319924Y-110824085D02*
X160343733Y-110776466D01*
X160343733Y-110776466D02*
X160343733Y-110728847D01*
X160343733Y-110728847D02*
X160319924Y-110681228D01*
X160319924Y-110681228D02*
X160296114Y-110657419D01*
X160296114Y-110657419D02*
X160248495Y-110633609D01*
X160248495Y-110633609D02*
X160129448Y-110633609D01*
X160129448Y-110633609D02*
X160058019Y-110657419D01*
X159843734Y-111133609D02*
X159843734Y-110633609D01*
X126815163Y-84683609D02*
X126815163Y-84183609D01*
X126815163Y-84183609D02*
X126648496Y-84540752D01*
X126648496Y-84540752D02*
X126481830Y-84183609D01*
X126481830Y-84183609D02*
X126481830Y-84683609D01*
X126243734Y-84683609D02*
X126243734Y-84183609D01*
X126029448Y-84659800D02*
X125958020Y-84683609D01*
X125958020Y-84683609D02*
X125838972Y-84683609D01*
X125838972Y-84683609D02*
X125791353Y-84659800D01*
X125791353Y-84659800D02*
X125767544Y-84635990D01*
X125767544Y-84635990D02*
X125743734Y-84588371D01*
X125743734Y-84588371D02*
X125743734Y-84540752D01*
X125743734Y-84540752D02*
X125767544Y-84493133D01*
X125767544Y-84493133D02*
X125791353Y-84469323D01*
X125791353Y-84469323D02*
X125838972Y-84445514D01*
X125838972Y-84445514D02*
X125934210Y-84421704D01*
X125934210Y-84421704D02*
X125981829Y-84397895D01*
X125981829Y-84397895D02*
X126005639Y-84374085D01*
X126005639Y-84374085D02*
X126029448Y-84326466D01*
X126029448Y-84326466D02*
X126029448Y-84278847D01*
X126029448Y-84278847D02*
X126005639Y-84231228D01*
X126005639Y-84231228D02*
X125981829Y-84207419D01*
X125981829Y-84207419D02*
X125934210Y-84183609D01*
X125934210Y-84183609D02*
X125815163Y-84183609D01*
X125815163Y-84183609D02*
X125743734Y-84207419D01*
X125434211Y-84183609D02*
X125338973Y-84183609D01*
X125338973Y-84183609D02*
X125291354Y-84207419D01*
X125291354Y-84207419D02*
X125243735Y-84255038D01*
X125243735Y-84255038D02*
X125219925Y-84350276D01*
X125219925Y-84350276D02*
X125219925Y-84516942D01*
X125219925Y-84516942D02*
X125243735Y-84612180D01*
X125243735Y-84612180D02*
X125291354Y-84659800D01*
X125291354Y-84659800D02*
X125338973Y-84683609D01*
X125338973Y-84683609D02*
X125434211Y-84683609D01*
X125434211Y-84683609D02*
X125481830Y-84659800D01*
X125481830Y-84659800D02*
X125529449Y-84612180D01*
X125529449Y-84612180D02*
X125553258Y-84516942D01*
X125553258Y-84516942D02*
X125553258Y-84350276D01*
X125553258Y-84350276D02*
X125529449Y-84255038D01*
X125529449Y-84255038D02*
X125481830Y-84207419D01*
X125481830Y-84207419D02*
X125434211Y-84183609D01*
X145729449Y-119533609D02*
X145896115Y-119295514D01*
X146015163Y-119533609D02*
X146015163Y-119033609D01*
X146015163Y-119033609D02*
X145824687Y-119033609D01*
X145824687Y-119033609D02*
X145777068Y-119057419D01*
X145777068Y-119057419D02*
X145753258Y-119081228D01*
X145753258Y-119081228D02*
X145729449Y-119128847D01*
X145729449Y-119128847D02*
X145729449Y-119200276D01*
X145729449Y-119200276D02*
X145753258Y-119247895D01*
X145753258Y-119247895D02*
X145777068Y-119271704D01*
X145777068Y-119271704D02*
X145824687Y-119295514D01*
X145824687Y-119295514D02*
X146015163Y-119295514D01*
X145538972Y-119509800D02*
X145467544Y-119533609D01*
X145467544Y-119533609D02*
X145348496Y-119533609D01*
X145348496Y-119533609D02*
X145300877Y-119509800D01*
X145300877Y-119509800D02*
X145277068Y-119485990D01*
X145277068Y-119485990D02*
X145253258Y-119438371D01*
X145253258Y-119438371D02*
X145253258Y-119390752D01*
X145253258Y-119390752D02*
X145277068Y-119343133D01*
X145277068Y-119343133D02*
X145300877Y-119319323D01*
X145300877Y-119319323D02*
X145348496Y-119295514D01*
X145348496Y-119295514D02*
X145443734Y-119271704D01*
X145443734Y-119271704D02*
X145491353Y-119247895D01*
X145491353Y-119247895D02*
X145515163Y-119224085D01*
X145515163Y-119224085D02*
X145538972Y-119176466D01*
X145538972Y-119176466D02*
X145538972Y-119128847D01*
X145538972Y-119128847D02*
X145515163Y-119081228D01*
X145515163Y-119081228D02*
X145491353Y-119057419D01*
X145491353Y-119057419D02*
X145443734Y-119033609D01*
X145443734Y-119033609D02*
X145324687Y-119033609D01*
X145324687Y-119033609D02*
X145253258Y-119057419D01*
X145110401Y-119033609D02*
X144824687Y-119033609D01*
X144967544Y-119533609D02*
X144967544Y-119033609D01*
X144443735Y-119200276D02*
X144443735Y-119533609D01*
X144562783Y-119009800D02*
X144681830Y-119366942D01*
X144681830Y-119366942D02*
X144372307Y-119366942D01*
X165929449Y-105885990D02*
X165953258Y-105909800D01*
X165953258Y-105909800D02*
X166024687Y-105933609D01*
X166024687Y-105933609D02*
X166072306Y-105933609D01*
X166072306Y-105933609D02*
X166143734Y-105909800D01*
X166143734Y-105909800D02*
X166191353Y-105862180D01*
X166191353Y-105862180D02*
X166215163Y-105814561D01*
X166215163Y-105814561D02*
X166238972Y-105719323D01*
X166238972Y-105719323D02*
X166238972Y-105647895D01*
X166238972Y-105647895D02*
X166215163Y-105552657D01*
X166215163Y-105552657D02*
X166191353Y-105505038D01*
X166191353Y-105505038D02*
X166143734Y-105457419D01*
X166143734Y-105457419D02*
X166072306Y-105433609D01*
X166072306Y-105433609D02*
X166024687Y-105433609D01*
X166024687Y-105433609D02*
X165953258Y-105457419D01*
X165953258Y-105457419D02*
X165929449Y-105481228D01*
X165738972Y-105909800D02*
X165667544Y-105933609D01*
X165667544Y-105933609D02*
X165548496Y-105933609D01*
X165548496Y-105933609D02*
X165500877Y-105909800D01*
X165500877Y-105909800D02*
X165477068Y-105885990D01*
X165477068Y-105885990D02*
X165453258Y-105838371D01*
X165453258Y-105838371D02*
X165453258Y-105790752D01*
X165453258Y-105790752D02*
X165477068Y-105743133D01*
X165477068Y-105743133D02*
X165500877Y-105719323D01*
X165500877Y-105719323D02*
X165548496Y-105695514D01*
X165548496Y-105695514D02*
X165643734Y-105671704D01*
X165643734Y-105671704D02*
X165691353Y-105647895D01*
X165691353Y-105647895D02*
X165715163Y-105624085D01*
X165715163Y-105624085D02*
X165738972Y-105576466D01*
X165738972Y-105576466D02*
X165738972Y-105528847D01*
X165738972Y-105528847D02*
X165715163Y-105481228D01*
X165715163Y-105481228D02*
X165691353Y-105457419D01*
X165691353Y-105457419D02*
X165643734Y-105433609D01*
X165643734Y-105433609D02*
X165524687Y-105433609D01*
X165524687Y-105433609D02*
X165453258Y-105457419D01*
X165286592Y-105433609D02*
X164977068Y-105433609D01*
X164977068Y-105433609D02*
X165143735Y-105624085D01*
X165143735Y-105624085D02*
X165072306Y-105624085D01*
X165072306Y-105624085D02*
X165024687Y-105647895D01*
X165024687Y-105647895D02*
X165000878Y-105671704D01*
X165000878Y-105671704D02*
X164977068Y-105719323D01*
X164977068Y-105719323D02*
X164977068Y-105838371D01*
X164977068Y-105838371D02*
X165000878Y-105885990D01*
X165000878Y-105885990D02*
X165024687Y-105909800D01*
X165024687Y-105909800D02*
X165072306Y-105933609D01*
X165072306Y-105933609D02*
X165215163Y-105933609D01*
X165215163Y-105933609D02*
X165262782Y-105909800D01*
X165262782Y-105909800D02*
X165286592Y-105885990D01*
X140215163Y-84683609D02*
X140215163Y-84183609D01*
X140215163Y-84183609D02*
X140048496Y-84540752D01*
X140048496Y-84540752D02*
X139881830Y-84183609D01*
X139881830Y-84183609D02*
X139881830Y-84683609D01*
X139643734Y-84683609D02*
X139643734Y-84183609D01*
X139429448Y-84659800D02*
X139358020Y-84683609D01*
X139358020Y-84683609D02*
X139238972Y-84683609D01*
X139238972Y-84683609D02*
X139191353Y-84659800D01*
X139191353Y-84659800D02*
X139167544Y-84635990D01*
X139167544Y-84635990D02*
X139143734Y-84588371D01*
X139143734Y-84588371D02*
X139143734Y-84540752D01*
X139143734Y-84540752D02*
X139167544Y-84493133D01*
X139167544Y-84493133D02*
X139191353Y-84469323D01*
X139191353Y-84469323D02*
X139238972Y-84445514D01*
X139238972Y-84445514D02*
X139334210Y-84421704D01*
X139334210Y-84421704D02*
X139381829Y-84397895D01*
X139381829Y-84397895D02*
X139405639Y-84374085D01*
X139405639Y-84374085D02*
X139429448Y-84326466D01*
X139429448Y-84326466D02*
X139429448Y-84278847D01*
X139429448Y-84278847D02*
X139405639Y-84231228D01*
X139405639Y-84231228D02*
X139381829Y-84207419D01*
X139381829Y-84207419D02*
X139334210Y-84183609D01*
X139334210Y-84183609D02*
X139215163Y-84183609D01*
X139215163Y-84183609D02*
X139143734Y-84207419D01*
X138834211Y-84183609D02*
X138738973Y-84183609D01*
X138738973Y-84183609D02*
X138691354Y-84207419D01*
X138691354Y-84207419D02*
X138643735Y-84255038D01*
X138643735Y-84255038D02*
X138619925Y-84350276D01*
X138619925Y-84350276D02*
X138619925Y-84516942D01*
X138619925Y-84516942D02*
X138643735Y-84612180D01*
X138643735Y-84612180D02*
X138691354Y-84659800D01*
X138691354Y-84659800D02*
X138738973Y-84683609D01*
X138738973Y-84683609D02*
X138834211Y-84683609D01*
X138834211Y-84683609D02*
X138881830Y-84659800D01*
X138881830Y-84659800D02*
X138929449Y-84612180D01*
X138929449Y-84612180D02*
X138953258Y-84516942D01*
X138953258Y-84516942D02*
X138953258Y-84350276D01*
X138953258Y-84350276D02*
X138929449Y-84255038D01*
X138929449Y-84255038D02*
X138881830Y-84207419D01*
X138881830Y-84207419D02*
X138834211Y-84183609D01*
X123215163Y-124933609D02*
X123215163Y-124433609D01*
X123215163Y-124433609D02*
X123048496Y-124790752D01*
X123048496Y-124790752D02*
X122881830Y-124433609D01*
X122881830Y-124433609D02*
X122881830Y-124933609D01*
X122548496Y-124433609D02*
X122453258Y-124433609D01*
X122453258Y-124433609D02*
X122405639Y-124457419D01*
X122405639Y-124457419D02*
X122358020Y-124505038D01*
X122358020Y-124505038D02*
X122334210Y-124600276D01*
X122334210Y-124600276D02*
X122334210Y-124766942D01*
X122334210Y-124766942D02*
X122358020Y-124862180D01*
X122358020Y-124862180D02*
X122405639Y-124909800D01*
X122405639Y-124909800D02*
X122453258Y-124933609D01*
X122453258Y-124933609D02*
X122548496Y-124933609D01*
X122548496Y-124933609D02*
X122596115Y-124909800D01*
X122596115Y-124909800D02*
X122643734Y-124862180D01*
X122643734Y-124862180D02*
X122667543Y-124766942D01*
X122667543Y-124766942D02*
X122667543Y-124600276D01*
X122667543Y-124600276D02*
X122643734Y-124505038D01*
X122643734Y-124505038D02*
X122596115Y-124457419D01*
X122596115Y-124457419D02*
X122548496Y-124433609D01*
X122143733Y-124909800D02*
X122072305Y-124933609D01*
X122072305Y-124933609D02*
X121953257Y-124933609D01*
X121953257Y-124933609D02*
X121905638Y-124909800D01*
X121905638Y-124909800D02*
X121881829Y-124885990D01*
X121881829Y-124885990D02*
X121858019Y-124838371D01*
X121858019Y-124838371D02*
X121858019Y-124790752D01*
X121858019Y-124790752D02*
X121881829Y-124743133D01*
X121881829Y-124743133D02*
X121905638Y-124719323D01*
X121905638Y-124719323D02*
X121953257Y-124695514D01*
X121953257Y-124695514D02*
X122048495Y-124671704D01*
X122048495Y-124671704D02*
X122096114Y-124647895D01*
X122096114Y-124647895D02*
X122119924Y-124624085D01*
X122119924Y-124624085D02*
X122143733Y-124576466D01*
X122143733Y-124576466D02*
X122143733Y-124528847D01*
X122143733Y-124528847D02*
X122119924Y-124481228D01*
X122119924Y-124481228D02*
X122096114Y-124457419D01*
X122096114Y-124457419D02*
X122048495Y-124433609D01*
X122048495Y-124433609D02*
X121929448Y-124433609D01*
X121929448Y-124433609D02*
X121858019Y-124457419D01*
X121643734Y-124933609D02*
X121643734Y-124433609D01*
X126686591Y-78433609D02*
X126519925Y-78933609D01*
X126519925Y-78933609D02*
X126353258Y-78433609D01*
X125900878Y-78885990D02*
X125924687Y-78909800D01*
X125924687Y-78909800D02*
X125996116Y-78933609D01*
X125996116Y-78933609D02*
X126043735Y-78933609D01*
X126043735Y-78933609D02*
X126115163Y-78909800D01*
X126115163Y-78909800D02*
X126162782Y-78862180D01*
X126162782Y-78862180D02*
X126186592Y-78814561D01*
X126186592Y-78814561D02*
X126210401Y-78719323D01*
X126210401Y-78719323D02*
X126210401Y-78647895D01*
X126210401Y-78647895D02*
X126186592Y-78552657D01*
X126186592Y-78552657D02*
X126162782Y-78505038D01*
X126162782Y-78505038D02*
X126115163Y-78457419D01*
X126115163Y-78457419D02*
X126043735Y-78433609D01*
X126043735Y-78433609D02*
X125996116Y-78433609D01*
X125996116Y-78433609D02*
X125924687Y-78457419D01*
X125924687Y-78457419D02*
X125900878Y-78481228D01*
X125400878Y-78885990D02*
X125424687Y-78909800D01*
X125424687Y-78909800D02*
X125496116Y-78933609D01*
X125496116Y-78933609D02*
X125543735Y-78933609D01*
X125543735Y-78933609D02*
X125615163Y-78909800D01*
X125615163Y-78909800D02*
X125662782Y-78862180D01*
X125662782Y-78862180D02*
X125686592Y-78814561D01*
X125686592Y-78814561D02*
X125710401Y-78719323D01*
X125710401Y-78719323D02*
X125710401Y-78647895D01*
X125710401Y-78647895D02*
X125686592Y-78552657D01*
X125686592Y-78552657D02*
X125662782Y-78505038D01*
X125662782Y-78505038D02*
X125615163Y-78457419D01*
X125615163Y-78457419D02*
X125543735Y-78433609D01*
X125543735Y-78433609D02*
X125496116Y-78433609D01*
X125496116Y-78433609D02*
X125424687Y-78457419D01*
X125424687Y-78457419D02*
X125400878Y-78481228D01*
D12*
X155889286Y-94985498D02*
X156139286Y-94628355D01*
X156317857Y-94985498D02*
X156317857Y-94235498D01*
X156317857Y-94235498D02*
X156032143Y-94235498D01*
X156032143Y-94235498D02*
X155960714Y-94271212D01*
X155960714Y-94271212D02*
X155925000Y-94306926D01*
X155925000Y-94306926D02*
X155889286Y-94378355D01*
X155889286Y-94378355D02*
X155889286Y-94485498D01*
X155889286Y-94485498D02*
X155925000Y-94556926D01*
X155925000Y-94556926D02*
X155960714Y-94592641D01*
X155960714Y-94592641D02*
X156032143Y-94628355D01*
X156032143Y-94628355D02*
X156317857Y-94628355D01*
X155603571Y-94949784D02*
X155496429Y-94985498D01*
X155496429Y-94985498D02*
X155317857Y-94985498D01*
X155317857Y-94985498D02*
X155246429Y-94949784D01*
X155246429Y-94949784D02*
X155210714Y-94914069D01*
X155210714Y-94914069D02*
X155175000Y-94842641D01*
X155175000Y-94842641D02*
X155175000Y-94771212D01*
X155175000Y-94771212D02*
X155210714Y-94699784D01*
X155210714Y-94699784D02*
X155246429Y-94664069D01*
X155246429Y-94664069D02*
X155317857Y-94628355D01*
X155317857Y-94628355D02*
X155460714Y-94592641D01*
X155460714Y-94592641D02*
X155532143Y-94556926D01*
X155532143Y-94556926D02*
X155567857Y-94521212D01*
X155567857Y-94521212D02*
X155603571Y-94449784D01*
X155603571Y-94449784D02*
X155603571Y-94378355D01*
X155603571Y-94378355D02*
X155567857Y-94306926D01*
X155567857Y-94306926D02*
X155532143Y-94271212D01*
X155532143Y-94271212D02*
X155460714Y-94235498D01*
X155460714Y-94235498D02*
X155282143Y-94235498D01*
X155282143Y-94235498D02*
X155175000Y-94271212D01*
X154960714Y-94235498D02*
X154532143Y-94235498D01*
X154746428Y-94985498D02*
X154746428Y-94235498D01*
X154317856Y-94306926D02*
X154282142Y-94271212D01*
X154282142Y-94271212D02*
X154210714Y-94235498D01*
X154210714Y-94235498D02*
X154032142Y-94235498D01*
X154032142Y-94235498D02*
X153960714Y-94271212D01*
X153960714Y-94271212D02*
X153924999Y-94306926D01*
X153924999Y-94306926D02*
X153889285Y-94378355D01*
X153889285Y-94378355D02*
X153889285Y-94449784D01*
X153889285Y-94449784D02*
X153924999Y-94556926D01*
X153924999Y-94556926D02*
X154353571Y-94985498D01*
X154353571Y-94985498D02*
X153889285Y-94985498D01*
X153567856Y-94699784D02*
X152996428Y-94699784D01*
X152639285Y-94485498D02*
X152067857Y-94699784D01*
X152067857Y-94699784D02*
X152639285Y-94914069D01*
X151139285Y-94985498D02*
X151139285Y-94235498D01*
X151139285Y-94235498D02*
X150853571Y-94235498D01*
X150853571Y-94235498D02*
X150782142Y-94271212D01*
X150782142Y-94271212D02*
X150746428Y-94306926D01*
X150746428Y-94306926D02*
X150710714Y-94378355D01*
X150710714Y-94378355D02*
X150710714Y-94485498D01*
X150710714Y-94485498D02*
X150746428Y-94556926D01*
X150746428Y-94556926D02*
X150782142Y-94592641D01*
X150782142Y-94592641D02*
X150853571Y-94628355D01*
X150853571Y-94628355D02*
X151139285Y-94628355D01*
X149960714Y-94914069D02*
X149996428Y-94949784D01*
X149996428Y-94949784D02*
X150103571Y-94985498D01*
X150103571Y-94985498D02*
X150174999Y-94985498D01*
X150174999Y-94985498D02*
X150282142Y-94949784D01*
X150282142Y-94949784D02*
X150353571Y-94878355D01*
X150353571Y-94878355D02*
X150389285Y-94806926D01*
X150389285Y-94806926D02*
X150424999Y-94664069D01*
X150424999Y-94664069D02*
X150424999Y-94556926D01*
X150424999Y-94556926D02*
X150389285Y-94414069D01*
X150389285Y-94414069D02*
X150353571Y-94342641D01*
X150353571Y-94342641D02*
X150282142Y-94271212D01*
X150282142Y-94271212D02*
X150174999Y-94235498D01*
X150174999Y-94235498D02*
X150103571Y-94235498D01*
X150103571Y-94235498D02*
X149996428Y-94271212D01*
X149996428Y-94271212D02*
X149960714Y-94306926D01*
X149317857Y-94485498D02*
X149317857Y-94985498D01*
X149496428Y-94199784D02*
X149674999Y-94735498D01*
X149674999Y-94735498D02*
X149210714Y-94735498D01*
X155889286Y-96121527D02*
X155925000Y-96157242D01*
X155925000Y-96157242D02*
X156032143Y-96192956D01*
X156032143Y-96192956D02*
X156103571Y-96192956D01*
X156103571Y-96192956D02*
X156210714Y-96157242D01*
X156210714Y-96157242D02*
X156282143Y-96085813D01*
X156282143Y-96085813D02*
X156317857Y-96014384D01*
X156317857Y-96014384D02*
X156353571Y-95871527D01*
X156353571Y-95871527D02*
X156353571Y-95764384D01*
X156353571Y-95764384D02*
X156317857Y-95621527D01*
X156317857Y-95621527D02*
X156282143Y-95550099D01*
X156282143Y-95550099D02*
X156210714Y-95478670D01*
X156210714Y-95478670D02*
X156103571Y-95442956D01*
X156103571Y-95442956D02*
X156032143Y-95442956D01*
X156032143Y-95442956D02*
X155925000Y-95478670D01*
X155925000Y-95478670D02*
X155889286Y-95514384D01*
X155603571Y-96157242D02*
X155496429Y-96192956D01*
X155496429Y-96192956D02*
X155317857Y-96192956D01*
X155317857Y-96192956D02*
X155246429Y-96157242D01*
X155246429Y-96157242D02*
X155210714Y-96121527D01*
X155210714Y-96121527D02*
X155175000Y-96050099D01*
X155175000Y-96050099D02*
X155175000Y-95978670D01*
X155175000Y-95978670D02*
X155210714Y-95907242D01*
X155210714Y-95907242D02*
X155246429Y-95871527D01*
X155246429Y-95871527D02*
X155317857Y-95835813D01*
X155317857Y-95835813D02*
X155460714Y-95800099D01*
X155460714Y-95800099D02*
X155532143Y-95764384D01*
X155532143Y-95764384D02*
X155567857Y-95728670D01*
X155567857Y-95728670D02*
X155603571Y-95657242D01*
X155603571Y-95657242D02*
X155603571Y-95585813D01*
X155603571Y-95585813D02*
X155567857Y-95514384D01*
X155567857Y-95514384D02*
X155532143Y-95478670D01*
X155532143Y-95478670D02*
X155460714Y-95442956D01*
X155460714Y-95442956D02*
X155282143Y-95442956D01*
X155282143Y-95442956D02*
X155175000Y-95478670D01*
X154889285Y-95514384D02*
X154853571Y-95478670D01*
X154853571Y-95478670D02*
X154782143Y-95442956D01*
X154782143Y-95442956D02*
X154603571Y-95442956D01*
X154603571Y-95442956D02*
X154532143Y-95478670D01*
X154532143Y-95478670D02*
X154496428Y-95514384D01*
X154496428Y-95514384D02*
X154460714Y-95585813D01*
X154460714Y-95585813D02*
X154460714Y-95657242D01*
X154460714Y-95657242D02*
X154496428Y-95764384D01*
X154496428Y-95764384D02*
X154925000Y-96192956D01*
X154925000Y-96192956D02*
X154460714Y-96192956D01*
X153567856Y-95907242D02*
X152996428Y-95907242D01*
X152639285Y-95692956D02*
X152067857Y-95907242D01*
X152067857Y-95907242D02*
X152639285Y-96121527D01*
X151139285Y-96192956D02*
X151139285Y-95442956D01*
X151139285Y-95442956D02*
X150853571Y-95442956D01*
X150853571Y-95442956D02*
X150782142Y-95478670D01*
X150782142Y-95478670D02*
X150746428Y-95514384D01*
X150746428Y-95514384D02*
X150710714Y-95585813D01*
X150710714Y-95585813D02*
X150710714Y-95692956D01*
X150710714Y-95692956D02*
X150746428Y-95764384D01*
X150746428Y-95764384D02*
X150782142Y-95800099D01*
X150782142Y-95800099D02*
X150853571Y-95835813D01*
X150853571Y-95835813D02*
X151139285Y-95835813D01*
X149960714Y-96121527D02*
X149996428Y-96157242D01*
X149996428Y-96157242D02*
X150103571Y-96192956D01*
X150103571Y-96192956D02*
X150174999Y-96192956D01*
X150174999Y-96192956D02*
X150282142Y-96157242D01*
X150282142Y-96157242D02*
X150353571Y-96085813D01*
X150353571Y-96085813D02*
X150389285Y-96014384D01*
X150389285Y-96014384D02*
X150424999Y-95871527D01*
X150424999Y-95871527D02*
X150424999Y-95764384D01*
X150424999Y-95764384D02*
X150389285Y-95621527D01*
X150389285Y-95621527D02*
X150353571Y-95550099D01*
X150353571Y-95550099D02*
X150282142Y-95478670D01*
X150282142Y-95478670D02*
X150174999Y-95442956D01*
X150174999Y-95442956D02*
X150103571Y-95442956D01*
X150103571Y-95442956D02*
X149996428Y-95478670D01*
X149996428Y-95478670D02*
X149960714Y-95514384D01*
X149710714Y-95442956D02*
X149246428Y-95442956D01*
X149246428Y-95442956D02*
X149496428Y-95728670D01*
X149496428Y-95728670D02*
X149389285Y-95728670D01*
X149389285Y-95728670D02*
X149317857Y-95764384D01*
X149317857Y-95764384D02*
X149282142Y-95800099D01*
X149282142Y-95800099D02*
X149246428Y-95871527D01*
X149246428Y-95871527D02*
X149246428Y-96050099D01*
X149246428Y-96050099D02*
X149282142Y-96121527D01*
X149282142Y-96121527D02*
X149317857Y-96157242D01*
X149317857Y-96157242D02*
X149389285Y-96192956D01*
X149389285Y-96192956D02*
X149603571Y-96192956D01*
X149603571Y-96192956D02*
X149674999Y-96157242D01*
X149674999Y-96157242D02*
X149710714Y-96121527D01*
X156157142Y-97400414D02*
X156157142Y-96650414D01*
X155799999Y-97400414D02*
X155799999Y-96650414D01*
X155799999Y-96650414D02*
X155371428Y-97400414D01*
X155371428Y-97400414D02*
X155371428Y-96650414D01*
X155121428Y-96650414D02*
X154692857Y-96650414D01*
X154907142Y-97400414D02*
X154907142Y-96650414D01*
X154478570Y-96721842D02*
X154442856Y-96686128D01*
X154442856Y-96686128D02*
X154371428Y-96650414D01*
X154371428Y-96650414D02*
X154192856Y-96650414D01*
X154192856Y-96650414D02*
X154121428Y-96686128D01*
X154121428Y-96686128D02*
X154085713Y-96721842D01*
X154085713Y-96721842D02*
X154049999Y-96793271D01*
X154049999Y-96793271D02*
X154049999Y-96864700D01*
X154049999Y-96864700D02*
X154085713Y-96971842D01*
X154085713Y-96971842D02*
X154514285Y-97400414D01*
X154514285Y-97400414D02*
X154049999Y-97400414D01*
X153728570Y-97114700D02*
X153157142Y-97114700D01*
X152799999Y-96900414D02*
X152228571Y-97114700D01*
X152228571Y-97114700D02*
X152799999Y-97328985D01*
X151299999Y-97400414D02*
X151299999Y-96650414D01*
X151299999Y-96650414D02*
X151014285Y-96650414D01*
X151014285Y-96650414D02*
X150942856Y-96686128D01*
X150942856Y-96686128D02*
X150907142Y-96721842D01*
X150907142Y-96721842D02*
X150871428Y-96793271D01*
X150871428Y-96793271D02*
X150871428Y-96900414D01*
X150871428Y-96900414D02*
X150907142Y-96971842D01*
X150907142Y-96971842D02*
X150942856Y-97007557D01*
X150942856Y-97007557D02*
X151014285Y-97043271D01*
X151014285Y-97043271D02*
X151299999Y-97043271D01*
X150121428Y-97328985D02*
X150157142Y-97364700D01*
X150157142Y-97364700D02*
X150264285Y-97400414D01*
X150264285Y-97400414D02*
X150335713Y-97400414D01*
X150335713Y-97400414D02*
X150442856Y-97364700D01*
X150442856Y-97364700D02*
X150514285Y-97293271D01*
X150514285Y-97293271D02*
X150549999Y-97221842D01*
X150549999Y-97221842D02*
X150585713Y-97078985D01*
X150585713Y-97078985D02*
X150585713Y-96971842D01*
X150585713Y-96971842D02*
X150549999Y-96828985D01*
X150549999Y-96828985D02*
X150514285Y-96757557D01*
X150514285Y-96757557D02*
X150442856Y-96686128D01*
X150442856Y-96686128D02*
X150335713Y-96650414D01*
X150335713Y-96650414D02*
X150264285Y-96650414D01*
X150264285Y-96650414D02*
X150157142Y-96686128D01*
X150157142Y-96686128D02*
X150121428Y-96721842D01*
X149442856Y-96650414D02*
X149799999Y-96650414D01*
X149799999Y-96650414D02*
X149835713Y-97007557D01*
X149835713Y-97007557D02*
X149799999Y-96971842D01*
X149799999Y-96971842D02*
X149728571Y-96936128D01*
X149728571Y-96936128D02*
X149549999Y-96936128D01*
X149549999Y-96936128D02*
X149478571Y-96971842D01*
X149478571Y-96971842D02*
X149442856Y-97007557D01*
X149442856Y-97007557D02*
X149407142Y-97078985D01*
X149407142Y-97078985D02*
X149407142Y-97257557D01*
X149407142Y-97257557D02*
X149442856Y-97328985D01*
X149442856Y-97328985D02*
X149478571Y-97364700D01*
X149478571Y-97364700D02*
X149549999Y-97400414D01*
X149549999Y-97400414D02*
X149728571Y-97400414D01*
X149728571Y-97400414D02*
X149799999Y-97364700D01*
X149799999Y-97364700D02*
X149835713Y-97328985D01*
D13*
X163529449Y-105933609D02*
X163696115Y-105695514D01*
X163815163Y-105933609D02*
X163815163Y-105433609D01*
X163815163Y-105433609D02*
X163624687Y-105433609D01*
X163624687Y-105433609D02*
X163577068Y-105457419D01*
X163577068Y-105457419D02*
X163553258Y-105481228D01*
X163553258Y-105481228D02*
X163529449Y-105528847D01*
X163529449Y-105528847D02*
X163529449Y-105600276D01*
X163529449Y-105600276D02*
X163553258Y-105647895D01*
X163553258Y-105647895D02*
X163577068Y-105671704D01*
X163577068Y-105671704D02*
X163624687Y-105695514D01*
X163624687Y-105695514D02*
X163815163Y-105695514D01*
X163338972Y-105909800D02*
X163267544Y-105933609D01*
X163267544Y-105933609D02*
X163148496Y-105933609D01*
X163148496Y-105933609D02*
X163100877Y-105909800D01*
X163100877Y-105909800D02*
X163077068Y-105885990D01*
X163077068Y-105885990D02*
X163053258Y-105838371D01*
X163053258Y-105838371D02*
X163053258Y-105790752D01*
X163053258Y-105790752D02*
X163077068Y-105743133D01*
X163077068Y-105743133D02*
X163100877Y-105719323D01*
X163100877Y-105719323D02*
X163148496Y-105695514D01*
X163148496Y-105695514D02*
X163243734Y-105671704D01*
X163243734Y-105671704D02*
X163291353Y-105647895D01*
X163291353Y-105647895D02*
X163315163Y-105624085D01*
X163315163Y-105624085D02*
X163338972Y-105576466D01*
X163338972Y-105576466D02*
X163338972Y-105528847D01*
X163338972Y-105528847D02*
X163315163Y-105481228D01*
X163315163Y-105481228D02*
X163291353Y-105457419D01*
X163291353Y-105457419D02*
X163243734Y-105433609D01*
X163243734Y-105433609D02*
X163124687Y-105433609D01*
X163124687Y-105433609D02*
X163053258Y-105457419D01*
X162910401Y-105433609D02*
X162624687Y-105433609D01*
X162767544Y-105933609D02*
X162767544Y-105433609D01*
X162505640Y-105433609D02*
X162196116Y-105433609D01*
X162196116Y-105433609D02*
X162362783Y-105624085D01*
X162362783Y-105624085D02*
X162291354Y-105624085D01*
X162291354Y-105624085D02*
X162243735Y-105647895D01*
X162243735Y-105647895D02*
X162219926Y-105671704D01*
X162219926Y-105671704D02*
X162196116Y-105719323D01*
X162196116Y-105719323D02*
X162196116Y-105838371D01*
X162196116Y-105838371D02*
X162219926Y-105885990D01*
X162219926Y-105885990D02*
X162243735Y-105909800D01*
X162243735Y-105909800D02*
X162291354Y-105933609D01*
X162291354Y-105933609D02*
X162434211Y-105933609D01*
X162434211Y-105933609D02*
X162481830Y-105909800D01*
X162481830Y-105909800D02*
X162505640Y-105885990D01*
X123215163Y-119533609D02*
X123215163Y-119033609D01*
X122977068Y-119533609D02*
X122977068Y-119033609D01*
X122977068Y-119033609D02*
X122691354Y-119533609D01*
X122691354Y-119533609D02*
X122691354Y-119033609D01*
X122524686Y-119033609D02*
X122238972Y-119033609D01*
X122381829Y-119533609D02*
X122381829Y-119033609D01*
X121834211Y-119033609D02*
X122072306Y-119033609D01*
X122072306Y-119033609D02*
X122096115Y-119271704D01*
X122096115Y-119271704D02*
X122072306Y-119247895D01*
X122072306Y-119247895D02*
X122024687Y-119224085D01*
X122024687Y-119224085D02*
X121905639Y-119224085D01*
X121905639Y-119224085D02*
X121858020Y-119247895D01*
X121858020Y-119247895D02*
X121834211Y-119271704D01*
X121834211Y-119271704D02*
X121810401Y-119319323D01*
X121810401Y-119319323D02*
X121810401Y-119438371D01*
X121810401Y-119438371D02*
X121834211Y-119485990D01*
X121834211Y-119485990D02*
X121858020Y-119509800D01*
X121858020Y-119509800D02*
X121905639Y-119533609D01*
X121905639Y-119533609D02*
X122024687Y-119533609D01*
X122024687Y-119533609D02*
X122072306Y-119509800D01*
X122072306Y-119509800D02*
X122096115Y-119485990D01*
D11*
X169144612Y-95267219D02*
X169144612Y-95981504D01*
X169144612Y-95981504D02*
X169192231Y-96124361D01*
X169192231Y-96124361D02*
X169287469Y-96219600D01*
X169287469Y-96219600D02*
X169430326Y-96267219D01*
X169430326Y-96267219D02*
X169525564Y-96267219D01*
X168716040Y-95362457D02*
X168668421Y-95314838D01*
X168668421Y-95314838D02*
X168573183Y-95267219D01*
X168573183Y-95267219D02*
X168335088Y-95267219D01*
X168335088Y-95267219D02*
X168239850Y-95314838D01*
X168239850Y-95314838D02*
X168192231Y-95362457D01*
X168192231Y-95362457D02*
X168144612Y-95457695D01*
X168144612Y-95457695D02*
X168144612Y-95552933D01*
X168144612Y-95552933D02*
X168192231Y-95695790D01*
X168192231Y-95695790D02*
X168763659Y-96267219D01*
X168763659Y-96267219D02*
X168144612Y-96267219D01*
D13*
X148638972Y-124909800D02*
X148567544Y-124933609D01*
X148567544Y-124933609D02*
X148448496Y-124933609D01*
X148448496Y-124933609D02*
X148400877Y-124909800D01*
X148400877Y-124909800D02*
X148377068Y-124885990D01*
X148377068Y-124885990D02*
X148353258Y-124838371D01*
X148353258Y-124838371D02*
X148353258Y-124790752D01*
X148353258Y-124790752D02*
X148377068Y-124743133D01*
X148377068Y-124743133D02*
X148400877Y-124719323D01*
X148400877Y-124719323D02*
X148448496Y-124695514D01*
X148448496Y-124695514D02*
X148543734Y-124671704D01*
X148543734Y-124671704D02*
X148591353Y-124647895D01*
X148591353Y-124647895D02*
X148615163Y-124624085D01*
X148615163Y-124624085D02*
X148638972Y-124576466D01*
X148638972Y-124576466D02*
X148638972Y-124528847D01*
X148638972Y-124528847D02*
X148615163Y-124481228D01*
X148615163Y-124481228D02*
X148591353Y-124457419D01*
X148591353Y-124457419D02*
X148543734Y-124433609D01*
X148543734Y-124433609D02*
X148424687Y-124433609D01*
X148424687Y-124433609D02*
X148353258Y-124457419D01*
X147853259Y-124885990D02*
X147877068Y-124909800D01*
X147877068Y-124909800D02*
X147948497Y-124933609D01*
X147948497Y-124933609D02*
X147996116Y-124933609D01*
X147996116Y-124933609D02*
X148067544Y-124909800D01*
X148067544Y-124909800D02*
X148115163Y-124862180D01*
X148115163Y-124862180D02*
X148138973Y-124814561D01*
X148138973Y-124814561D02*
X148162782Y-124719323D01*
X148162782Y-124719323D02*
X148162782Y-124647895D01*
X148162782Y-124647895D02*
X148138973Y-124552657D01*
X148138973Y-124552657D02*
X148115163Y-124505038D01*
X148115163Y-124505038D02*
X148067544Y-124457419D01*
X148067544Y-124457419D02*
X147996116Y-124433609D01*
X147996116Y-124433609D02*
X147948497Y-124433609D01*
X147948497Y-124433609D02*
X147877068Y-124457419D01*
X147877068Y-124457419D02*
X147853259Y-124481228D01*
X147638973Y-124933609D02*
X147638973Y-124433609D01*
X147353259Y-124933609D02*
X147567544Y-124647895D01*
X147353259Y-124433609D02*
X147638973Y-124719323D01*
D11*
X169144612Y-108067219D02*
X169144612Y-108781504D01*
X169144612Y-108781504D02*
X169192231Y-108924361D01*
X169192231Y-108924361D02*
X169287469Y-109019600D01*
X169287469Y-109019600D02*
X169430326Y-109067219D01*
X169430326Y-109067219D02*
X169525564Y-109067219D01*
X168763659Y-108067219D02*
X168144612Y-108067219D01*
X168144612Y-108067219D02*
X168477945Y-108448171D01*
X168477945Y-108448171D02*
X168335088Y-108448171D01*
X168335088Y-108448171D02*
X168239850Y-108495790D01*
X168239850Y-108495790D02*
X168192231Y-108543409D01*
X168192231Y-108543409D02*
X168144612Y-108638647D01*
X168144612Y-108638647D02*
X168144612Y-108876742D01*
X168144612Y-108876742D02*
X168192231Y-108971980D01*
X168192231Y-108971980D02*
X168239850Y-109019600D01*
X168239850Y-109019600D02*
X168335088Y-109067219D01*
X168335088Y-109067219D02*
X168620802Y-109067219D01*
X168620802Y-109067219D02*
X168716040Y-109019600D01*
X168716040Y-109019600D02*
X168763659Y-108971980D01*
D13*
X166129449Y-80885990D02*
X166153258Y-80909800D01*
X166153258Y-80909800D02*
X166224687Y-80933609D01*
X166224687Y-80933609D02*
X166272306Y-80933609D01*
X166272306Y-80933609D02*
X166343734Y-80909800D01*
X166343734Y-80909800D02*
X166391353Y-80862180D01*
X166391353Y-80862180D02*
X166415163Y-80814561D01*
X166415163Y-80814561D02*
X166438972Y-80719323D01*
X166438972Y-80719323D02*
X166438972Y-80647895D01*
X166438972Y-80647895D02*
X166415163Y-80552657D01*
X166415163Y-80552657D02*
X166391353Y-80505038D01*
X166391353Y-80505038D02*
X166343734Y-80457419D01*
X166343734Y-80457419D02*
X166272306Y-80433609D01*
X166272306Y-80433609D02*
X166224687Y-80433609D01*
X166224687Y-80433609D02*
X166153258Y-80457419D01*
X166153258Y-80457419D02*
X166129449Y-80481228D01*
X165938972Y-80909800D02*
X165867544Y-80933609D01*
X165867544Y-80933609D02*
X165748496Y-80933609D01*
X165748496Y-80933609D02*
X165700877Y-80909800D01*
X165700877Y-80909800D02*
X165677068Y-80885990D01*
X165677068Y-80885990D02*
X165653258Y-80838371D01*
X165653258Y-80838371D02*
X165653258Y-80790752D01*
X165653258Y-80790752D02*
X165677068Y-80743133D01*
X165677068Y-80743133D02*
X165700877Y-80719323D01*
X165700877Y-80719323D02*
X165748496Y-80695514D01*
X165748496Y-80695514D02*
X165843734Y-80671704D01*
X165843734Y-80671704D02*
X165891353Y-80647895D01*
X165891353Y-80647895D02*
X165915163Y-80624085D01*
X165915163Y-80624085D02*
X165938972Y-80576466D01*
X165938972Y-80576466D02*
X165938972Y-80528847D01*
X165938972Y-80528847D02*
X165915163Y-80481228D01*
X165915163Y-80481228D02*
X165891353Y-80457419D01*
X165891353Y-80457419D02*
X165843734Y-80433609D01*
X165843734Y-80433609D02*
X165724687Y-80433609D01*
X165724687Y-80433609D02*
X165653258Y-80457419D01*
X165177068Y-80933609D02*
X165462782Y-80933609D01*
X165319925Y-80933609D02*
X165319925Y-80433609D01*
X165319925Y-80433609D02*
X165367544Y-80505038D01*
X165367544Y-80505038D02*
X165415163Y-80552657D01*
X165415163Y-80552657D02*
X165462782Y-80576466D01*
X163529449Y-93133609D02*
X163696115Y-92895514D01*
X163815163Y-93133609D02*
X163815163Y-92633609D01*
X163815163Y-92633609D02*
X163624687Y-92633609D01*
X163624687Y-92633609D02*
X163577068Y-92657419D01*
X163577068Y-92657419D02*
X163553258Y-92681228D01*
X163553258Y-92681228D02*
X163529449Y-92728847D01*
X163529449Y-92728847D02*
X163529449Y-92800276D01*
X163529449Y-92800276D02*
X163553258Y-92847895D01*
X163553258Y-92847895D02*
X163577068Y-92871704D01*
X163577068Y-92871704D02*
X163624687Y-92895514D01*
X163624687Y-92895514D02*
X163815163Y-92895514D01*
X163338972Y-93109800D02*
X163267544Y-93133609D01*
X163267544Y-93133609D02*
X163148496Y-93133609D01*
X163148496Y-93133609D02*
X163100877Y-93109800D01*
X163100877Y-93109800D02*
X163077068Y-93085990D01*
X163077068Y-93085990D02*
X163053258Y-93038371D01*
X163053258Y-93038371D02*
X163053258Y-92990752D01*
X163053258Y-92990752D02*
X163077068Y-92943133D01*
X163077068Y-92943133D02*
X163100877Y-92919323D01*
X163100877Y-92919323D02*
X163148496Y-92895514D01*
X163148496Y-92895514D02*
X163243734Y-92871704D01*
X163243734Y-92871704D02*
X163291353Y-92847895D01*
X163291353Y-92847895D02*
X163315163Y-92824085D01*
X163315163Y-92824085D02*
X163338972Y-92776466D01*
X163338972Y-92776466D02*
X163338972Y-92728847D01*
X163338972Y-92728847D02*
X163315163Y-92681228D01*
X163315163Y-92681228D02*
X163291353Y-92657419D01*
X163291353Y-92657419D02*
X163243734Y-92633609D01*
X163243734Y-92633609D02*
X163124687Y-92633609D01*
X163124687Y-92633609D02*
X163053258Y-92657419D01*
X162910401Y-92633609D02*
X162624687Y-92633609D01*
X162767544Y-93133609D02*
X162767544Y-92633609D01*
X162481830Y-92681228D02*
X162458021Y-92657419D01*
X162458021Y-92657419D02*
X162410402Y-92633609D01*
X162410402Y-92633609D02*
X162291354Y-92633609D01*
X162291354Y-92633609D02*
X162243735Y-92657419D01*
X162243735Y-92657419D02*
X162219926Y-92681228D01*
X162219926Y-92681228D02*
X162196116Y-92728847D01*
X162196116Y-92728847D02*
X162196116Y-92776466D01*
X162196116Y-92776466D02*
X162219926Y-92847895D01*
X162219926Y-92847895D02*
X162505640Y-93133609D01*
X162505640Y-93133609D02*
X162196116Y-93133609D01*
X140886591Y-119033609D02*
X140719925Y-119533609D01*
X140719925Y-119533609D02*
X140553258Y-119033609D01*
X140100878Y-119485990D02*
X140124687Y-119509800D01*
X140124687Y-119509800D02*
X140196116Y-119533609D01*
X140196116Y-119533609D02*
X140243735Y-119533609D01*
X140243735Y-119533609D02*
X140315163Y-119509800D01*
X140315163Y-119509800D02*
X140362782Y-119462180D01*
X140362782Y-119462180D02*
X140386592Y-119414561D01*
X140386592Y-119414561D02*
X140410401Y-119319323D01*
X140410401Y-119319323D02*
X140410401Y-119247895D01*
X140410401Y-119247895D02*
X140386592Y-119152657D01*
X140386592Y-119152657D02*
X140362782Y-119105038D01*
X140362782Y-119105038D02*
X140315163Y-119057419D01*
X140315163Y-119057419D02*
X140243735Y-119033609D01*
X140243735Y-119033609D02*
X140196116Y-119033609D01*
X140196116Y-119033609D02*
X140124687Y-119057419D01*
X140124687Y-119057419D02*
X140100878Y-119081228D01*
X139600878Y-119485990D02*
X139624687Y-119509800D01*
X139624687Y-119509800D02*
X139696116Y-119533609D01*
X139696116Y-119533609D02*
X139743735Y-119533609D01*
X139743735Y-119533609D02*
X139815163Y-119509800D01*
X139815163Y-119509800D02*
X139862782Y-119462180D01*
X139862782Y-119462180D02*
X139886592Y-119414561D01*
X139886592Y-119414561D02*
X139910401Y-119319323D01*
X139910401Y-119319323D02*
X139910401Y-119247895D01*
X139910401Y-119247895D02*
X139886592Y-119152657D01*
X139886592Y-119152657D02*
X139862782Y-119105038D01*
X139862782Y-119105038D02*
X139815163Y-119057419D01*
X139815163Y-119057419D02*
X139743735Y-119033609D01*
X139743735Y-119033609D02*
X139696116Y-119033609D01*
X139696116Y-119033609D02*
X139624687Y-119057419D01*
X139624687Y-119057419D02*
X139600878Y-119081228D01*
X142588972Y-84659800D02*
X142517544Y-84683609D01*
X142517544Y-84683609D02*
X142398496Y-84683609D01*
X142398496Y-84683609D02*
X142350877Y-84659800D01*
X142350877Y-84659800D02*
X142327068Y-84635990D01*
X142327068Y-84635990D02*
X142303258Y-84588371D01*
X142303258Y-84588371D02*
X142303258Y-84540752D01*
X142303258Y-84540752D02*
X142327068Y-84493133D01*
X142327068Y-84493133D02*
X142350877Y-84469323D01*
X142350877Y-84469323D02*
X142398496Y-84445514D01*
X142398496Y-84445514D02*
X142493734Y-84421704D01*
X142493734Y-84421704D02*
X142541353Y-84397895D01*
X142541353Y-84397895D02*
X142565163Y-84374085D01*
X142565163Y-84374085D02*
X142588972Y-84326466D01*
X142588972Y-84326466D02*
X142588972Y-84278847D01*
X142588972Y-84278847D02*
X142565163Y-84231228D01*
X142565163Y-84231228D02*
X142541353Y-84207419D01*
X142541353Y-84207419D02*
X142493734Y-84183609D01*
X142493734Y-84183609D02*
X142374687Y-84183609D01*
X142374687Y-84183609D02*
X142303258Y-84207419D01*
X141803259Y-84635990D02*
X141827068Y-84659800D01*
X141827068Y-84659800D02*
X141898497Y-84683609D01*
X141898497Y-84683609D02*
X141946116Y-84683609D01*
X141946116Y-84683609D02*
X142017544Y-84659800D01*
X142017544Y-84659800D02*
X142065163Y-84612180D01*
X142065163Y-84612180D02*
X142088973Y-84564561D01*
X142088973Y-84564561D02*
X142112782Y-84469323D01*
X142112782Y-84469323D02*
X142112782Y-84397895D01*
X142112782Y-84397895D02*
X142088973Y-84302657D01*
X142088973Y-84302657D02*
X142065163Y-84255038D01*
X142065163Y-84255038D02*
X142017544Y-84207419D01*
X142017544Y-84207419D02*
X141946116Y-84183609D01*
X141946116Y-84183609D02*
X141898497Y-84183609D01*
X141898497Y-84183609D02*
X141827068Y-84207419D01*
X141827068Y-84207419D02*
X141803259Y-84231228D01*
X141588973Y-84683609D02*
X141588973Y-84183609D01*
X141303259Y-84683609D02*
X141517544Y-84397895D01*
X141303259Y-84183609D02*
X141588973Y-84469323D01*
X140753258Y-124457419D02*
X140800877Y-124433609D01*
X140800877Y-124433609D02*
X140872306Y-124433609D01*
X140872306Y-124433609D02*
X140943734Y-124457419D01*
X140943734Y-124457419D02*
X140991353Y-124505038D01*
X140991353Y-124505038D02*
X141015163Y-124552657D01*
X141015163Y-124552657D02*
X141038972Y-124647895D01*
X141038972Y-124647895D02*
X141038972Y-124719323D01*
X141038972Y-124719323D02*
X141015163Y-124814561D01*
X141015163Y-124814561D02*
X140991353Y-124862180D01*
X140991353Y-124862180D02*
X140943734Y-124909800D01*
X140943734Y-124909800D02*
X140872306Y-124933609D01*
X140872306Y-124933609D02*
X140824687Y-124933609D01*
X140824687Y-124933609D02*
X140753258Y-124909800D01*
X140753258Y-124909800D02*
X140729449Y-124885990D01*
X140729449Y-124885990D02*
X140729449Y-124719323D01*
X140729449Y-124719323D02*
X140824687Y-124719323D01*
X140515163Y-124933609D02*
X140515163Y-124433609D01*
X140515163Y-124433609D02*
X140229449Y-124933609D01*
X140229449Y-124933609D02*
X140229449Y-124433609D01*
X139991353Y-124933609D02*
X139991353Y-124433609D01*
X139991353Y-124433609D02*
X139872305Y-124433609D01*
X139872305Y-124433609D02*
X139800877Y-124457419D01*
X139800877Y-124457419D02*
X139753258Y-124505038D01*
X139753258Y-124505038D02*
X139729448Y-124552657D01*
X139729448Y-124552657D02*
X139705639Y-124647895D01*
X139705639Y-124647895D02*
X139705639Y-124719323D01*
X139705639Y-124719323D02*
X139729448Y-124814561D01*
X139729448Y-124814561D02*
X139753258Y-124862180D01*
X139753258Y-124862180D02*
X139800877Y-124909800D01*
X139800877Y-124909800D02*
X139872305Y-124933609D01*
X139872305Y-124933609D02*
X139991353Y-124933609D01*
X120686591Y-119033609D02*
X120519925Y-119533609D01*
X120519925Y-119533609D02*
X120353258Y-119033609D01*
X119900878Y-119485990D02*
X119924687Y-119509800D01*
X119924687Y-119509800D02*
X119996116Y-119533609D01*
X119996116Y-119533609D02*
X120043735Y-119533609D01*
X120043735Y-119533609D02*
X120115163Y-119509800D01*
X120115163Y-119509800D02*
X120162782Y-119462180D01*
X120162782Y-119462180D02*
X120186592Y-119414561D01*
X120186592Y-119414561D02*
X120210401Y-119319323D01*
X120210401Y-119319323D02*
X120210401Y-119247895D01*
X120210401Y-119247895D02*
X120186592Y-119152657D01*
X120186592Y-119152657D02*
X120162782Y-119105038D01*
X120162782Y-119105038D02*
X120115163Y-119057419D01*
X120115163Y-119057419D02*
X120043735Y-119033609D01*
X120043735Y-119033609D02*
X119996116Y-119033609D01*
X119996116Y-119033609D02*
X119924687Y-119057419D01*
X119924687Y-119057419D02*
X119900878Y-119081228D01*
X119400878Y-119485990D02*
X119424687Y-119509800D01*
X119424687Y-119509800D02*
X119496116Y-119533609D01*
X119496116Y-119533609D02*
X119543735Y-119533609D01*
X119543735Y-119533609D02*
X119615163Y-119509800D01*
X119615163Y-119509800D02*
X119662782Y-119462180D01*
X119662782Y-119462180D02*
X119686592Y-119414561D01*
X119686592Y-119414561D02*
X119710401Y-119319323D01*
X119710401Y-119319323D02*
X119710401Y-119247895D01*
X119710401Y-119247895D02*
X119686592Y-119152657D01*
X119686592Y-119152657D02*
X119662782Y-119105038D01*
X119662782Y-119105038D02*
X119615163Y-119057419D01*
X119615163Y-119057419D02*
X119543735Y-119033609D01*
X119543735Y-119033609D02*
X119496116Y-119033609D01*
X119496116Y-119033609D02*
X119424687Y-119057419D01*
X119424687Y-119057419D02*
X119400878Y-119081228D01*
X127929449Y-119485990D02*
X127953258Y-119509800D01*
X127953258Y-119509800D02*
X128024687Y-119533609D01*
X128024687Y-119533609D02*
X128072306Y-119533609D01*
X128072306Y-119533609D02*
X128143734Y-119509800D01*
X128143734Y-119509800D02*
X128191353Y-119462180D01*
X128191353Y-119462180D02*
X128215163Y-119414561D01*
X128215163Y-119414561D02*
X128238972Y-119319323D01*
X128238972Y-119319323D02*
X128238972Y-119247895D01*
X128238972Y-119247895D02*
X128215163Y-119152657D01*
X128215163Y-119152657D02*
X128191353Y-119105038D01*
X128191353Y-119105038D02*
X128143734Y-119057419D01*
X128143734Y-119057419D02*
X128072306Y-119033609D01*
X128072306Y-119033609D02*
X128024687Y-119033609D01*
X128024687Y-119033609D02*
X127953258Y-119057419D01*
X127953258Y-119057419D02*
X127929449Y-119081228D01*
X127738972Y-119509800D02*
X127667544Y-119533609D01*
X127667544Y-119533609D02*
X127548496Y-119533609D01*
X127548496Y-119533609D02*
X127500877Y-119509800D01*
X127500877Y-119509800D02*
X127477068Y-119485990D01*
X127477068Y-119485990D02*
X127453258Y-119438371D01*
X127453258Y-119438371D02*
X127453258Y-119390752D01*
X127453258Y-119390752D02*
X127477068Y-119343133D01*
X127477068Y-119343133D02*
X127500877Y-119319323D01*
X127500877Y-119319323D02*
X127548496Y-119295514D01*
X127548496Y-119295514D02*
X127643734Y-119271704D01*
X127643734Y-119271704D02*
X127691353Y-119247895D01*
X127691353Y-119247895D02*
X127715163Y-119224085D01*
X127715163Y-119224085D02*
X127738972Y-119176466D01*
X127738972Y-119176466D02*
X127738972Y-119128847D01*
X127738972Y-119128847D02*
X127715163Y-119081228D01*
X127715163Y-119081228D02*
X127691353Y-119057419D01*
X127691353Y-119057419D02*
X127643734Y-119033609D01*
X127643734Y-119033609D02*
X127524687Y-119033609D01*
X127524687Y-119033609D02*
X127453258Y-119057419D01*
X127000878Y-119033609D02*
X127238973Y-119033609D01*
X127238973Y-119033609D02*
X127262782Y-119271704D01*
X127262782Y-119271704D02*
X127238973Y-119247895D01*
X127238973Y-119247895D02*
X127191354Y-119224085D01*
X127191354Y-119224085D02*
X127072306Y-119224085D01*
X127072306Y-119224085D02*
X127024687Y-119247895D01*
X127024687Y-119247895D02*
X127000878Y-119271704D01*
X127000878Y-119271704D02*
X126977068Y-119319323D01*
X126977068Y-119319323D02*
X126977068Y-119438371D01*
X126977068Y-119438371D02*
X127000878Y-119485990D01*
X127000878Y-119485990D02*
X127024687Y-119509800D01*
X127024687Y-119509800D02*
X127072306Y-119533609D01*
X127072306Y-119533609D02*
X127191354Y-119533609D01*
X127191354Y-119533609D02*
X127238973Y-119509800D01*
X127238973Y-119509800D02*
X127262782Y-119485990D01*
X161215163Y-105933609D02*
X161215163Y-105433609D01*
X160977068Y-105933609D02*
X160977068Y-105433609D01*
X160977068Y-105433609D02*
X160691354Y-105933609D01*
X160691354Y-105933609D02*
X160691354Y-105433609D01*
X160524686Y-105433609D02*
X160238972Y-105433609D01*
X160381829Y-105933609D02*
X160381829Y-105433609D01*
X160119925Y-105433609D02*
X159810401Y-105433609D01*
X159810401Y-105433609D02*
X159977068Y-105624085D01*
X159977068Y-105624085D02*
X159905639Y-105624085D01*
X159905639Y-105624085D02*
X159858020Y-105647895D01*
X159858020Y-105647895D02*
X159834211Y-105671704D01*
X159834211Y-105671704D02*
X159810401Y-105719323D01*
X159810401Y-105719323D02*
X159810401Y-105838371D01*
X159810401Y-105838371D02*
X159834211Y-105885990D01*
X159834211Y-105885990D02*
X159858020Y-105909800D01*
X159858020Y-105909800D02*
X159905639Y-105933609D01*
X159905639Y-105933609D02*
X160048496Y-105933609D01*
X160048496Y-105933609D02*
X160096115Y-105909800D01*
X160096115Y-105909800D02*
X160119925Y-105885990D01*
X148129449Y-119485990D02*
X148153258Y-119509800D01*
X148153258Y-119509800D02*
X148224687Y-119533609D01*
X148224687Y-119533609D02*
X148272306Y-119533609D01*
X148272306Y-119533609D02*
X148343734Y-119509800D01*
X148343734Y-119509800D02*
X148391353Y-119462180D01*
X148391353Y-119462180D02*
X148415163Y-119414561D01*
X148415163Y-119414561D02*
X148438972Y-119319323D01*
X148438972Y-119319323D02*
X148438972Y-119247895D01*
X148438972Y-119247895D02*
X148415163Y-119152657D01*
X148415163Y-119152657D02*
X148391353Y-119105038D01*
X148391353Y-119105038D02*
X148343734Y-119057419D01*
X148343734Y-119057419D02*
X148272306Y-119033609D01*
X148272306Y-119033609D02*
X148224687Y-119033609D01*
X148224687Y-119033609D02*
X148153258Y-119057419D01*
X148153258Y-119057419D02*
X148129449Y-119081228D01*
X147938972Y-119509800D02*
X147867544Y-119533609D01*
X147867544Y-119533609D02*
X147748496Y-119533609D01*
X147748496Y-119533609D02*
X147700877Y-119509800D01*
X147700877Y-119509800D02*
X147677068Y-119485990D01*
X147677068Y-119485990D02*
X147653258Y-119438371D01*
X147653258Y-119438371D02*
X147653258Y-119390752D01*
X147653258Y-119390752D02*
X147677068Y-119343133D01*
X147677068Y-119343133D02*
X147700877Y-119319323D01*
X147700877Y-119319323D02*
X147748496Y-119295514D01*
X147748496Y-119295514D02*
X147843734Y-119271704D01*
X147843734Y-119271704D02*
X147891353Y-119247895D01*
X147891353Y-119247895D02*
X147915163Y-119224085D01*
X147915163Y-119224085D02*
X147938972Y-119176466D01*
X147938972Y-119176466D02*
X147938972Y-119128847D01*
X147938972Y-119128847D02*
X147915163Y-119081228D01*
X147915163Y-119081228D02*
X147891353Y-119057419D01*
X147891353Y-119057419D02*
X147843734Y-119033609D01*
X147843734Y-119033609D02*
X147724687Y-119033609D01*
X147724687Y-119033609D02*
X147653258Y-119057419D01*
X147224687Y-119200276D02*
X147224687Y-119533609D01*
X147343735Y-119009800D02*
X147462782Y-119366942D01*
X147462782Y-119366942D02*
X147153259Y-119366942D01*
X166438972Y-98509800D02*
X166367544Y-98533609D01*
X166367544Y-98533609D02*
X166248496Y-98533609D01*
X166248496Y-98533609D02*
X166200877Y-98509800D01*
X166200877Y-98509800D02*
X166177068Y-98485990D01*
X166177068Y-98485990D02*
X166153258Y-98438371D01*
X166153258Y-98438371D02*
X166153258Y-98390752D01*
X166153258Y-98390752D02*
X166177068Y-98343133D01*
X166177068Y-98343133D02*
X166200877Y-98319323D01*
X166200877Y-98319323D02*
X166248496Y-98295514D01*
X166248496Y-98295514D02*
X166343734Y-98271704D01*
X166343734Y-98271704D02*
X166391353Y-98247895D01*
X166391353Y-98247895D02*
X166415163Y-98224085D01*
X166415163Y-98224085D02*
X166438972Y-98176466D01*
X166438972Y-98176466D02*
X166438972Y-98128847D01*
X166438972Y-98128847D02*
X166415163Y-98081228D01*
X166415163Y-98081228D02*
X166391353Y-98057419D01*
X166391353Y-98057419D02*
X166343734Y-98033609D01*
X166343734Y-98033609D02*
X166224687Y-98033609D01*
X166224687Y-98033609D02*
X166153258Y-98057419D01*
X165653259Y-98485990D02*
X165677068Y-98509800D01*
X165677068Y-98509800D02*
X165748497Y-98533609D01*
X165748497Y-98533609D02*
X165796116Y-98533609D01*
X165796116Y-98533609D02*
X165867544Y-98509800D01*
X165867544Y-98509800D02*
X165915163Y-98462180D01*
X165915163Y-98462180D02*
X165938973Y-98414561D01*
X165938973Y-98414561D02*
X165962782Y-98319323D01*
X165962782Y-98319323D02*
X165962782Y-98247895D01*
X165962782Y-98247895D02*
X165938973Y-98152657D01*
X165938973Y-98152657D02*
X165915163Y-98105038D01*
X165915163Y-98105038D02*
X165867544Y-98057419D01*
X165867544Y-98057419D02*
X165796116Y-98033609D01*
X165796116Y-98033609D02*
X165748497Y-98033609D01*
X165748497Y-98033609D02*
X165677068Y-98057419D01*
X165677068Y-98057419D02*
X165653259Y-98081228D01*
X165438973Y-98533609D02*
X165438973Y-98033609D01*
X165153259Y-98533609D02*
X165367544Y-98247895D01*
X165153259Y-98033609D02*
X165438973Y-98319323D01*
X144953258Y-78457419D02*
X145000877Y-78433609D01*
X145000877Y-78433609D02*
X145072306Y-78433609D01*
X145072306Y-78433609D02*
X145143734Y-78457419D01*
X145143734Y-78457419D02*
X145191353Y-78505038D01*
X145191353Y-78505038D02*
X145215163Y-78552657D01*
X145215163Y-78552657D02*
X145238972Y-78647895D01*
X145238972Y-78647895D02*
X145238972Y-78719323D01*
X145238972Y-78719323D02*
X145215163Y-78814561D01*
X145215163Y-78814561D02*
X145191353Y-78862180D01*
X145191353Y-78862180D02*
X145143734Y-78909800D01*
X145143734Y-78909800D02*
X145072306Y-78933609D01*
X145072306Y-78933609D02*
X145024687Y-78933609D01*
X145024687Y-78933609D02*
X144953258Y-78909800D01*
X144953258Y-78909800D02*
X144929449Y-78885990D01*
X144929449Y-78885990D02*
X144929449Y-78719323D01*
X144929449Y-78719323D02*
X145024687Y-78719323D01*
X144715163Y-78933609D02*
X144715163Y-78433609D01*
X144715163Y-78433609D02*
X144429449Y-78933609D01*
X144429449Y-78933609D02*
X144429449Y-78433609D01*
X144191353Y-78933609D02*
X144191353Y-78433609D01*
X144191353Y-78433609D02*
X144072305Y-78433609D01*
X144072305Y-78433609D02*
X144000877Y-78457419D01*
X144000877Y-78457419D02*
X143953258Y-78505038D01*
X143953258Y-78505038D02*
X143929448Y-78552657D01*
X143929448Y-78552657D02*
X143905639Y-78647895D01*
X143905639Y-78647895D02*
X143905639Y-78719323D01*
X143905639Y-78719323D02*
X143929448Y-78814561D01*
X143929448Y-78814561D02*
X143953258Y-78862180D01*
X143953258Y-78862180D02*
X144000877Y-78909800D01*
X144000877Y-78909800D02*
X144072305Y-78933609D01*
X144072305Y-78933609D02*
X144191353Y-78933609D01*
M02*
