%TF.GenerationSoftware,KiCad,Pcbnew,8.0.5*%
%TF.CreationDate,2024-09-24T00:06:34+02:00*%
%TF.ProjectId,PicoShield,5069636f-5368-4696-956c-642e6b696361,rev?*%
%TF.SameCoordinates,Original*%
%TF.FileFunction,Soldermask,Bot*%
%TF.FilePolarity,Negative*%
%FSLAX46Y46*%
G04 Gerber Fmt 4.6, Leading zero omitted, Abs format (unit mm)*
G04 Created by KiCad (PCBNEW 8.0.5) date 2024-09-24 00:06:34*
%MOMM*%
%LPD*%
G01*
G04 APERTURE LIST*
G04 Aperture macros list*
%AMRoundRect*
0 Rectangle with rounded corners*
0 $1 Rounding radius*
0 $2 $3 $4 $5 $6 $7 $8 $9 X,Y pos of 4 corners*
0 Add a 4 corners polygon primitive as box body*
4,1,4,$2,$3,$4,$5,$6,$7,$8,$9,$2,$3,0*
0 Add four circle primitives for the rounded corners*
1,1,$1+$1,$2,$3*
1,1,$1+$1,$4,$5*
1,1,$1+$1,$6,$7*
1,1,$1+$1,$8,$9*
0 Add four rect primitives between the rounded corners*
20,1,$1+$1,$2,$3,$4,$5,0*
20,1,$1+$1,$4,$5,$6,$7,0*
20,1,$1+$1,$6,$7,$8,$9,0*
20,1,$1+$1,$8,$9,$2,$3,0*%
G04 Aperture macros list end*
%ADD10RoundRect,0.250000X0.600000X-0.600000X0.600000X0.600000X-0.600000X0.600000X-0.600000X-0.600000X0*%
%ADD11C,1.700000*%
%ADD12RoundRect,0.250000X-0.600000X0.600000X-0.600000X-0.600000X0.600000X-0.600000X0.600000X0.600000X0*%
%ADD13RoundRect,0.250000X0.600000X0.600000X-0.600000X0.600000X-0.600000X-0.600000X0.600000X-0.600000X0*%
%ADD14R,1.600000X1.600000*%
%ADD15O,1.600000X1.600000*%
%ADD16RoundRect,0.150000X0.650000X0.150000X-0.650000X0.150000X-0.650000X-0.150000X0.650000X-0.150000X0*%
%ADD17RoundRect,0.237500X-0.237500X0.250000X-0.237500X-0.250000X0.237500X-0.250000X0.237500X0.250000X0*%
G04 APERTURE END LIST*
D10*
%TO.C,J1*%
X138226800Y-68376800D03*
D11*
X138226800Y-65836800D03*
X140766800Y-68376800D03*
X140766800Y-65836800D03*
X143306800Y-68376800D03*
X143306800Y-65836800D03*
X145846800Y-68376800D03*
X145846800Y-65836800D03*
%TD*%
D12*
%TO.C,J5*%
X172364400Y-36118800D03*
D11*
X172364400Y-38658800D03*
X169824400Y-36118800D03*
X169824400Y-38658800D03*
X167284400Y-36118800D03*
X167284400Y-38658800D03*
X164744400Y-36118800D03*
X164744400Y-38658800D03*
%TD*%
D10*
%TO.C,J2*%
X164541200Y-68275200D03*
D11*
X164541200Y-65735200D03*
X167081200Y-68275200D03*
X167081200Y-65735200D03*
X169621200Y-68275200D03*
X169621200Y-65735200D03*
X172161200Y-68275200D03*
X172161200Y-65735200D03*
%TD*%
D12*
%TO.C,J6*%
X145440400Y-36169600D03*
D11*
X145440400Y-38709600D03*
X142900400Y-36169600D03*
X142900400Y-38709600D03*
X140360400Y-36169600D03*
X140360400Y-38709600D03*
X137820400Y-36169600D03*
X137820400Y-38709600D03*
%TD*%
D13*
%TO.C,J4*%
X177393600Y-56083200D03*
D11*
X174853600Y-56083200D03*
X177393600Y-53543200D03*
X174853600Y-53543200D03*
X177393600Y-51003200D03*
X174853600Y-51003200D03*
X177393600Y-48463200D03*
X174853600Y-48463200D03*
%TD*%
D14*
%TO.C,A1*%
X144145000Y-76403200D03*
D15*
X146685000Y-76403200D03*
X149225000Y-76403200D03*
X151765000Y-76403200D03*
X154305000Y-76403200D03*
X156845000Y-76403200D03*
X159385000Y-76403200D03*
X161925000Y-76403200D03*
X167005000Y-76403200D03*
X169545000Y-76403200D03*
X172085000Y-76403200D03*
X174625000Y-76403200D03*
X177165000Y-76403200D03*
X179705000Y-76403200D03*
X179705000Y-28143200D03*
X177165000Y-28143200D03*
X174625000Y-28143200D03*
X172085000Y-28143200D03*
X169545000Y-28143200D03*
X167005000Y-28143200D03*
X164465000Y-28143200D03*
X161925000Y-28143200D03*
X157865000Y-28143200D03*
X155325000Y-28143200D03*
X152785000Y-28143200D03*
X150245000Y-28143200D03*
X147705000Y-28143200D03*
X145165000Y-28143200D03*
X142625000Y-28143200D03*
X140085000Y-28143200D03*
X137545000Y-28143200D03*
X135005000Y-28143200D03*
%TD*%
D16*
%TO.C,U2*%
X148100000Y-47095000D03*
X148100000Y-48365000D03*
X148100000Y-49635000D03*
X148100000Y-50905000D03*
X140900000Y-50905000D03*
X140900000Y-49635000D03*
X140900000Y-48365000D03*
X140900000Y-47095000D03*
%TD*%
D17*
%TO.C,R11*%
X138500000Y-49675000D03*
X138500000Y-51500000D03*
%TD*%
%TO.C,R10*%
X150500000Y-52087500D03*
X150500000Y-53912500D03*
%TD*%
M02*
